<svg xmlns="http://www.w3.org/2000/svg" xmlns:xlink="http://www.w3.org/1999/xlink" viewBox="0 0 105.62 58.45"><defs><clipPath id="clip-path" transform="translate(0 0.01)"><path d="M79.12.83a19.4,19.4,0,0,1-1.63,5.42,20.58,20.58,0,0,1-1.62,2.9c-.73,1.08-1.93,1.38-2.48.73-.32-.38-.64-.79-1-1.21A18.51,18.51,0,0,1,70,4.08c-.14-.41-.31-.72-.41-.69s-.07.38,0,.8A18,18,0,0,1,70,9.36a18.15,18.15,0,0,1-.21,1.84,1.89,1.89,0,0,1-2.63,1.16,20.41,20.41,0,0,1-3.54-1.65,19.75,19.75,0,0,1-4.44-3.52c-.32-.34-.63-.58-.72-.51s.1.42.38.8a19.37,19.37,0,0,1,2.68,5,21.38,21.38,0,0,1,.91,3.19c.25,1.28-.39,2.34-1.24,2.27q-.75-.06-1.53-.18a18,18,0,0,1-5-1.54C54.36,16,54,15.92,54,16s.21.33.58.56a18.13,18.13,0,0,1,3.94,3.37,16.86,16.86,0,0,1,1.15,1.44c.6.82,2.73,4.69,1.55,5.25s.68.95-.64,1.3c-.69.17-3.4-.36-6.11-.9a38.9,38.9,0,0,0-5.85-.93c-.86.06-.87.22,0,.4a39.07,39.07,0,0,1,6.13,1.62,19.66,19.66,0,0,1,2.9,1.63c1.08.72,1.38,1.92.73,2.47-.38.33-.79.65-1.21,1a17.87,17.87,0,0,1-4.59,2.42c-.41.14-.72.32-.69.41s.38.08.8,0a18.32,18.32,0,0,1,5.17-.4c.63,0,1.24.11,1.83.2a1.91,1.91,0,0,1,1.17,2.64A20.41,20.41,0,0,1,59.15,42a19.75,19.75,0,0,1-3.52,4.44c-.34.32-.58.63-.51.71s.42-.09.8-.37a19.79,19.79,0,0,1,5-2.69,20.3,20.3,0,0,1,3.2-.9c1.28-.25,2.34.38,2.27,1.24,0,.5-.1,1-.19,1.53a18.41,18.41,0,0,1-1.53,4.95c-.19.39-.29.73-.2.78s.33-.22.55-.58a18,18,0,0,1,3.38-3.94c.47-.42,1-.81,1.43-1.16a1.91,1.91,0,0,1,2.7,1,20.62,20.62,0,0,1,1.33,3.67,48,48,0,0,1,.61,6.89c0,.86.18.87.36,0a45.16,45.16,0,0,1,1.75-6.67A21.77,21.77,0,0,1,78.18,48c.73-1.07,1.93-1.38,2.48-.73.33.39.65.79,1,1.22A18.18,18.18,0,0,1,84,53.1c.14.41.31.72.41.69s.08-.39,0-.8a19,19,0,0,1-.2-7,1.91,1.91,0,0,1,2.64-1.17,20.8,20.8,0,0,1,3.53,1.66A19.32,19.32,0,0,1,94.84,50c.32.34.63.57.71.5s-.09-.41-.37-.79a20.47,20.47,0,0,1-3.59-8.19c-.25-1.27.38-2.33,1.23-2.27.5,0,1,.11,1.53.19a18,18,0,0,1,5,1.54c.39.18.73.28.78.2s-.22-.33-.58-.56a18.45,18.45,0,0,1-4-3.37c-.41-.47-.8-1-1.15-1.44a1.91,1.91,0,0,1,1-2.69,20.61,20.61,0,0,1,9.3-2c.47,0,.86,0,.86-.15s-.35-.23-.82-.3a19.56,19.56,0,0,1-5.43-1.63,21.16,21.16,0,0,1-2.9-1.62c-1.08-.72-1.38-1.92-.73-2.48.39-.32.79-.64,1.22-.95a18.34,18.34,0,0,1,4.59-2.42c.4-.14.71-.31.69-.41s-.39-.07-.81,0a18.26,18.26,0,0,1-5.17.4c-.63,0-1.24-.11-1.83-.2a1.91,1.91,0,0,1-1.17-2.64,20.41,20.41,0,0,1,1.65-3.54c1-1.75,5.59-6.25,5.52-6.33s-5.37,3.53-7.27,4.23A21.5,21.5,0,0,1,90,14c-1.27.25-2.34-.39-2.27-1.24,0-.5.11-1,.19-1.53a18.14,18.14,0,0,1,1.54-5c.18-.38.28-.73.19-.77s-.32.21-.55.58a18.18,18.18,0,0,1-3.37,3.94c-.47.42-1,.8-1.44,1.16a1.91,1.91,0,0,1-2.69-1.05,19.6,19.6,0,0,1-1.33-3.67A19.85,19.85,0,0,1,79.56.86c0-.46,0-.85-.14-.86h0c-.11,0-.22.37-.29.83" style="fill:none"/></clipPath><clipPath id="clip-path-2" transform="translate(0 0.01)"><path d="M60.68,28.85A16.47,16.47,0,1,0,77.15,12.39,16.47,16.47,0,0,0,60.68,28.85" style="fill:none"/></clipPath><clipPath id="clip-path-3" transform="translate(0 0.01)"><rect x="13.13" y="39.19" width="40.41" height="9.05" style="fill:none"/></clipPath></defs><g id="Layer_2" data-name="Layer 2"><g id="Layer_1-2" data-name="Layer 1"><g style="clip-path:url(#clip-path)"><rect x="47.72" width="57.91" height="58.45" style="fill:#f28a1a"/><path d="M100.22,29.11A23.45,23.45,0,1,1,76.78,5.67a23.44,23.44,0,0,1,23.44,23.44" transform="translate(0 0.01)" style="fill:#f28a1a"/><path d="M100.18,29.11A23.41,23.41,0,1,1,76.78,5.7a23.41,23.41,0,0,1,23.4,23.41" transform="translate(0 0.01)" style="fill:#f28a1c"/><path d="M100.15,29.11A23.38,23.38,0,1,1,76.78,5.74a23.37,23.37,0,0,1,23.37,23.37" transform="translate(0 0.01)" style="fill:#f28b1d"/><path d="M100.12,29.11A23.35,23.35,0,1,1,76.78,5.77a23.35,23.35,0,0,1,23.34,23.34" transform="translate(0 0.01)" style="fill:#f28c1f"/><path d="M100.09,29.11A23.32,23.32,0,1,1,76.78,5.8a23.31,23.31,0,0,1,23.31,23.31" transform="translate(0 0.01)" style="fill:#f28c20"/><path d="M100.05,29.11A23.28,23.28,0,1,1,76.78,5.83a23.27,23.27,0,0,1,23.27,23.28" transform="translate(0 0.01)" style="fill:#f28d22"/><path d="M100,29.11A23.25,23.25,0,1,1,76.78,5.87,23.25,23.25,0,0,1,100,29.11" transform="translate(0 0.01)" style="fill:#f28d23"/><path d="M100,29.11A23.22,23.22,0,1,1,76.78,5.9,23.21,23.21,0,0,1,100,29.11" transform="translate(0 0.01)" style="fill:#f28e24"/><path d="M100,29.11A23.18,23.18,0,1,1,76.78,5.93,23.18,23.18,0,0,1,100,29.11" transform="translate(0 0.01)" style="fill:#f28f25"/><path d="M99.92,29.11A23.15,23.15,0,1,1,76.78,6,23.14,23.14,0,0,1,99.92,29.11" transform="translate(0 0.01)" style="fill:#f38f27"/><path d="M99.89,29.11A23.12,23.12,0,1,1,76.78,6,23.12,23.12,0,0,1,99.89,29.11" transform="translate(0 0.01)" style="fill:#f39028"/><path d="M99.86,29.11A23.09,23.09,0,1,1,76.78,6,23.08,23.08,0,0,1,99.86,29.11" transform="translate(0 0.01)" style="fill:#f39129"/><path d="M99.83,29.11a23.06,23.06,0,1,1-23-23,23.05,23.05,0,0,1,23,23.05" transform="translate(0 0.01)" style="fill:#f3912a"/><path d="M99.79,29.11a23,23,0,1,1-23-23,23,23,0,0,1,23,23" transform="translate(0 0.01)" style="fill:#f3922c"/><path d="M99.76,29.11a23,23,0,1,1-23-23,23,23,0,0,1,23,23" transform="translate(0 0.01)" style="fill:#f3922d"/><path d="M99.73,29.11a23,23,0,1,1-23-22.95,22.95,22.95,0,0,1,23,23" transform="translate(0 0.01)" style="fill:#f3932e"/><path d="M99.69,29.11A22.92,22.92,0,1,1,76.78,6.19,22.92,22.92,0,0,1,99.69,29.11" transform="translate(0 0.01)" style="fill:#f3942f"/><path d="M99.66,29.11A22.89,22.89,0,1,1,76.78,6.22,22.88,22.88,0,0,1,99.66,29.11" transform="translate(0 0.01)" style="fill:#f49430"/><path d="M99.63,29.11A22.86,22.86,0,1,1,76.78,6.26,22.86,22.86,0,0,1,99.63,29.11" transform="translate(0 0.01)" style="fill:#f49531"/><path d="M99.6,29.11A22.83,22.83,0,1,1,76.78,6.29,22.82,22.82,0,0,1,99.6,29.11" transform="translate(0 0.01)" style="fill:#f49532"/><path d="M99.56,29.11A22.79,22.79,0,1,1,76.78,6.32,22.78,22.78,0,0,1,99.56,29.11" transform="translate(0 0.01)" style="fill:#f49634"/><path d="M99.53,29.11A22.76,22.76,0,1,1,76.78,6.36,22.76,22.76,0,0,1,99.53,29.11" transform="translate(0 0.01)" style="fill:#f49735"/><path d="M99.5,29.11A22.73,22.73,0,1,1,76.78,6.39,22.73,22.73,0,0,1,99.5,29.11" transform="translate(0 0.01)" style="fill:#f49736"/><path d="M99.47,29.11A22.7,22.7,0,1,1,76.78,6.42,22.69,22.69,0,0,1,99.47,29.11" transform="translate(0 0.01)" style="fill:#f49837"/><path d="M99.43,29.11A22.66,22.66,0,1,1,76.78,6.45,22.65,22.65,0,0,1,99.43,29.11" transform="translate(0 0.01)" style="fill:#f49938"/><path d="M99.4,29.11A22.63,22.63,0,1,1,76.78,6.49,22.63,22.63,0,0,1,99.4,29.11" transform="translate(0 0.01)" style="fill:#f49939"/><path d="M99.37,29.11A22.6,22.6,0,1,1,76.78,6.52,22.59,22.59,0,0,1,99.37,29.11" transform="translate(0 0.01)" style="fill:#f49a3b"/><path d="M99.34,29.11A22.56,22.56,0,1,1,76.78,6.55,22.56,22.56,0,0,1,99.34,29.11" transform="translate(0 0.01)" style="fill:#f59a3c"/><path d="M99.3,29.11A22.53,22.53,0,1,1,76.78,6.58,22.53,22.53,0,0,1,99.3,29.11" transform="translate(0 0.01)" style="fill:#f59b3d"/><path d="M99.27,29.11A22.5,22.5,0,1,1,76.78,6.62,22.49,22.49,0,0,1,99.27,29.11" transform="translate(0 0.01)" style="fill:#f59c3e"/><path d="M99.24,29.11A22.47,22.47,0,1,1,76.78,6.65,22.46,22.46,0,0,1,99.24,29.11" transform="translate(0 0.01)" style="fill:#f59c3f"/><path d="M99.21,29.11A22.43,22.43,0,1,1,76.78,6.68,22.43,22.43,0,0,1,99.21,29.11" transform="translate(0 0.01)" style="fill:#f59d40"/><path d="M99.17,29.11A22.4,22.4,0,1,1,76.78,6.71a22.39,22.39,0,0,1,22.39,22.4" transform="translate(0 0.01)" style="fill:#f59d41"/><path d="M99.14,29.11A22.37,22.37,0,1,1,76.78,6.75,22.37,22.37,0,0,1,99.14,29.11" transform="translate(0 0.01)" style="fill:#f59e43"/><path d="M99.11,29.11A22.34,22.34,0,1,1,76.78,6.78,22.33,22.33,0,0,1,99.11,29.11" transform="translate(0 0.01)" style="fill:#f59e44"/><path d="M99.08,29.11a22.3,22.3,0,1,1-22.3-22.3,22.3,22.3,0,0,1,22.3,22.3" transform="translate(0 0.01)" style="fill:#f59f45"/><path d="M99,29.11A22.27,22.27,0,1,1,76.78,6.84,22.27,22.27,0,0,1,99,29.11" transform="translate(0 0.01)" style="fill:#f5a046"/><path d="M99,29.11A22.24,22.24,0,1,1,76.78,6.88,22.24,22.24,0,0,1,99,29.11" transform="translate(0 0.01)" style="fill:#f5a047"/><path d="M99,29.11a22.21,22.21,0,1,1-22.2-22.2A22.2,22.2,0,0,1,99,29.11" transform="translate(0 0.01)" style="fill:#f6a148"/><path d="M98.94,29.11A22.17,22.17,0,1,1,76.78,6.94,22.16,22.16,0,0,1,98.94,29.11" transform="translate(0 0.01)" style="fill:#f6a149"/><path d="M98.91,29.11A22.14,22.14,0,1,1,76.78,7,22.13,22.13,0,0,1,98.91,29.11" transform="translate(0 0.01)" style="fill:#f6a24b"/><path d="M98.88,29.11A22.11,22.11,0,1,1,76.78,7a22.11,22.11,0,0,1,22.1,22.1" transform="translate(0 0.01)" style="fill:#f6a24c"/><path d="M98.85,29.11A22.08,22.08,0,1,1,76.78,7,22.08,22.08,0,0,1,98.85,29.11" transform="translate(0 0.01)" style="fill:#f6a34d"/><path d="M98.81,29.11a22,22,0,1,1-22-22,22,22,0,0,1,22,22" transform="translate(0 0.01)" style="fill:#f6a44e"/><path d="M98.78,29.11a22,22,0,1,1-22-22,22,22,0,0,1,22,22" transform="translate(0 0.01)" style="fill:#f6a44f"/><path d="M98.75,29.11a22,22,0,1,1-22-22,22,22,0,0,1,22,22" transform="translate(0 0.01)" style="fill:#f6a550"/><path d="M98.72,29.11A21.94,21.94,0,1,1,76.78,7.17,21.94,21.94,0,0,1,98.72,29.11" transform="translate(0 0.01)" style="fill:#f6a551"/><path d="M98.68,29.11A21.91,21.91,0,1,1,76.78,7.2a21.91,21.91,0,0,1,21.9,21.91" transform="translate(0 0.01)" style="fill:#f6a652"/><path d="M98.65,29.11A21.88,21.88,0,1,1,76.78,7.24,21.88,21.88,0,0,1,98.65,29.11" transform="translate(0 0.01)" style="fill:#f6a754"/><path d="M98.62,29.11A21.85,21.85,0,1,1,76.78,7.27,21.84,21.84,0,0,1,98.62,29.11" transform="translate(0 0.01)" style="fill:#f7a755"/><path d="M98.59,29.11A21.81,21.81,0,1,1,76.78,7.3,21.81,21.81,0,0,1,98.59,29.11" transform="translate(0 0.01)" style="fill:#f7a856"/><path d="M98.55,29.11A21.78,21.78,0,1,1,76.78,7.33,21.78,21.78,0,0,1,98.55,29.11" transform="translate(0 0.01)" style="fill:#f7a857"/><path d="M98.52,29.11A21.75,21.75,0,1,1,76.78,7.37,21.75,21.75,0,0,1,98.52,29.11" transform="translate(0 0.01)" style="fill:#f7a958"/><path d="M98.49,29.11A21.72,21.72,0,1,1,76.78,7.4,21.71,21.71,0,0,1,98.49,29.11" transform="translate(0 0.01)" style="fill:#f7aa59"/><path d="M98.46,29.11A21.68,21.68,0,1,1,76.78,7.43,21.68,21.68,0,0,1,98.46,29.11" transform="translate(0 0.01)" style="fill:#f7aa5a"/><path d="M98.42,29.11A21.65,21.65,0,1,1,76.78,7.46,21.64,21.64,0,0,1,98.42,29.11" transform="translate(0 0.01)" style="fill:#f7ab5b"/><path d="M98.39,29.11A21.62,21.62,0,1,1,76.78,7.5,21.62,21.62,0,0,1,98.39,29.11" transform="translate(0 0.01)" style="fill:#f7ab5c"/><path d="M98.36,29.11A21.59,21.59,0,1,1,76.78,7.53,21.58,21.58,0,0,1,98.36,29.11" transform="translate(0 0.01)" style="fill:#f7ac5d"/><path d="M98.32,29.11A21.55,21.55,0,1,1,76.78,7.56,21.54,21.54,0,0,1,98.32,29.11" transform="translate(0 0.01)" style="fill:#f7ac5e"/><path d="M98.29,29.11A21.52,21.52,0,1,1,76.78,7.59,21.52,21.52,0,0,1,98.29,29.11" transform="translate(0 0.01)" style="fill:#f7ad60"/><path d="M98.26,29.11A21.49,21.49,0,1,1,76.78,7.63,21.49,21.49,0,0,1,98.26,29.11" transform="translate(0 0.01)" style="fill:#f7ae61"/><path d="M98.23,29.11A21.46,21.46,0,1,1,76.78,7.66,21.45,21.45,0,0,1,98.23,29.11" transform="translate(0 0.01)" style="fill:#f8ae62"/><path d="M98.19,29.11A21.42,21.42,0,1,1,76.78,7.69,21.42,21.42,0,0,1,98.19,29.11" transform="translate(0 0.01)" style="fill:#f8af63"/><path d="M98.16,29.11A21.39,21.39,0,1,1,76.78,7.73,21.39,21.39,0,0,1,98.16,29.11" transform="translate(0 0.01)" style="fill:#f8af64"/><path d="M98.13,29.11A21.36,21.36,0,1,1,76.78,7.76,21.35,21.35,0,0,1,98.13,29.11" transform="translate(0 0.01)" style="fill:#f8b065"/><path d="M98.1,29.11A21.33,21.33,0,1,1,76.78,7.79,21.32,21.32,0,0,1,98.1,29.11" transform="translate(0 0.01)" style="fill:#f8b066"/><path d="M98.06,29.11A21.29,21.29,0,1,1,76.78,7.82,21.29,21.29,0,0,1,98.06,29.11" transform="translate(0 0.01)" style="fill:#f8b167"/><path d="M98,29.11A21.26,21.26,0,1,1,76.78,7.86,21.26,21.26,0,0,1,98,29.11" transform="translate(0 0.01)" style="fill:#f8b268"/><path d="M98,29.11A21.23,21.23,0,1,1,76.78,7.89,21.22,21.22,0,0,1,98,29.11" transform="translate(0 0.01)" style="fill:#f8b269"/><path d="M98,29.11A21.19,21.19,0,1,1,76.78,7.92,21.19,21.19,0,0,1,98,29.11" transform="translate(0 0.01)" style="fill:#f8b36a"/><path d="M97.93,29.11A21.16,21.16,0,1,1,76.78,8,21.15,21.15,0,0,1,97.93,29.11" transform="translate(0 0.01)" style="fill:#f8b36b"/><path d="M97.9,29.11A21.13,21.13,0,1,1,76.78,8,21.13,21.13,0,0,1,97.9,29.11" transform="translate(0 0.01)" style="fill:#f8b46d"/><path d="M97.87,29.11A21.1,21.1,0,1,1,76.78,8,21.09,21.09,0,0,1,97.87,29.11" transform="translate(0 0.01)" style="fill:#f8b46e"/><path d="M97.84,29.11A21.06,21.06,0,1,1,76.78,8.05,21.06,21.06,0,0,1,97.84,29.11" transform="translate(0 0.01)" style="fill:#f8b56f"/><path d="M97.8,29.11a21,21,0,1,1-21-21,21,21,0,0,1,21,21" transform="translate(0 0.01)" style="fill:#f9b570"/><path d="M97.77,29.11a21,21,0,1,1-21-21,21,21,0,0,1,21,21" transform="translate(0 0.01)" style="fill:#f9b671"/><path d="M97.74,29.11a21,21,0,1,1-21-21,21,21,0,0,1,21,21" transform="translate(0 0.01)" style="fill:#f9b772"/><path d="M97.7,29.11A20.93,20.93,0,1,1,76.78,8.18,20.93,20.93,0,0,1,97.7,29.11" transform="translate(0 0.01)" style="fill:#f9b773"/><path d="M97.67,29.11A20.9,20.9,0,1,1,76.78,8.22,20.89,20.89,0,0,1,97.67,29.11" transform="translate(0 0.01)" style="fill:#f9b874"/><path d="M97.64,29.11A20.87,20.87,0,1,1,76.78,8.25,20.87,20.87,0,0,1,97.64,29.11" transform="translate(0 0.01)" style="fill:#f9b875"/><path d="M97.61,29.11A20.84,20.84,0,1,1,76.78,8.28,20.83,20.83,0,0,1,97.61,29.11" transform="translate(0 0.01)" style="fill:#f9b976"/><path d="M97.57,29.11A20.8,20.8,0,1,1,76.78,8.31a20.79,20.79,0,0,1,20.79,20.8" transform="translate(0 0.01)" style="fill:#f9b977"/><path d="M97.54,29.11A20.77,20.77,0,1,1,76.78,8.35,20.77,20.77,0,0,1,97.54,29.11" transform="translate(0 0.01)" style="fill:#f9ba78"/><path d="M97.51,29.11A20.74,20.74,0,1,1,76.78,8.38,20.73,20.73,0,0,1,97.51,29.11" transform="translate(0 0.01)" style="fill:#f9ba79"/><path d="M97.48,29.11a20.71,20.71,0,1,1-20.7-20.7,20.7,20.7,0,0,1,20.7,20.7" transform="translate(0 0.01)" style="fill:#f9bb7b"/><path d="M97.44,29.11A20.67,20.67,0,1,1,76.78,8.44,20.66,20.66,0,0,1,97.44,29.11" transform="translate(0 0.01)" style="fill:#f9bb7c"/><path d="M97.41,29.11A20.64,20.64,0,1,1,76.78,8.48,20.64,20.64,0,0,1,97.41,29.11" transform="translate(0 0.01)" style="fill:#f9bc7d"/><path d="M97.38,29.11a20.61,20.61,0,1,1-20.6-20.6,20.6,20.6,0,0,1,20.6,20.6" transform="translate(0 0.01)" style="fill:#f9bd7d"/><path d="M97.35,29.11A20.58,20.58,0,1,1,76.78,8.54,20.57,20.57,0,0,1,97.35,29.11" transform="translate(0 0.01)" style="fill:#fabd7f"/><path d="M97.31,29.11A20.54,20.54,0,1,1,76.78,8.57,20.54,20.54,0,0,1,97.31,29.11" transform="translate(0 0.01)" style="fill:#fabe80"/><path d="M97.28,29.11a20.51,20.51,0,1,1-20.5-20.5,20.5,20.5,0,0,1,20.5,20.5" transform="translate(0 0.01)" style="fill:#fabe81"/><path d="M97.25,29.11A20.48,20.48,0,1,1,76.78,8.64,20.47,20.47,0,0,1,97.25,29.11" transform="translate(0 0.01)" style="fill:#fabf82"/><path d="M97.22,29.11A20.44,20.44,0,1,1,76.78,8.67,20.44,20.44,0,0,1,97.22,29.11" transform="translate(0 0.01)" style="fill:#fabf83"/><path d="M97.18,29.11A20.41,20.41,0,1,1,76.78,8.7a20.4,20.4,0,0,1,20.4,20.41" transform="translate(0 0.01)" style="fill:#fac084"/><path d="M97.15,29.11A20.38,20.38,0,1,1,76.78,8.74,20.38,20.38,0,0,1,97.15,29.11" transform="translate(0 0.01)" style="fill:#fac085"/><path d="M97.12,29.11A20.35,20.35,0,1,1,76.78,8.77,20.34,20.34,0,0,1,97.12,29.11" transform="translate(0 0.01)" style="fill:#fac186"/><path d="M97.08,29.11A20.31,20.31,0,1,1,76.78,8.8a20.3,20.3,0,0,1,20.3,20.31" transform="translate(0 0.01)" style="fill:#fac187"/><path d="M97.05,29.11A20.28,20.28,0,1,1,76.78,8.84,20.28,20.28,0,0,1,97.05,29.11" transform="translate(0 0.01)" style="fill:#fac288"/><path d="M97,29.11A20.25,20.25,0,1,1,76.78,8.87,20.25,20.25,0,0,1,97,29.11" transform="translate(0 0.01)" style="fill:#fac289"/><path d="M97,29.11A20.22,20.22,0,1,1,76.78,8.9,20.21,20.21,0,0,1,97,29.11" transform="translate(0 0.01)" style="fill:#fac38a"/><path d="M97,29.11A20.18,20.18,0,1,1,76.78,8.93,20.17,20.17,0,0,1,97,29.11" transform="translate(0 0.01)" style="fill:#fac48b"/><path d="M96.92,29.11A20.15,20.15,0,1,1,76.78,9,20.15,20.15,0,0,1,96.92,29.11" transform="translate(0 0.01)" style="fill:#fac48c"/><path d="M96.89,29.11A20.12,20.12,0,1,1,76.78,9,20.11,20.11,0,0,1,96.89,29.11" transform="translate(0 0.01)" style="fill:#fbc58d"/><path d="M96.86,29.11A20.09,20.09,0,1,1,76.78,9,20.08,20.08,0,0,1,96.86,29.11" transform="translate(0 0.01)" style="fill:#fbc58e"/><path d="M96.82,29.11a20,20,0,1,1-20-20,20,20,0,0,1,20,20" transform="translate(0 0.01)" style="fill:#fbc58f"/><path d="M96.79,29.11a20,20,0,1,1-20-20,20,20,0,0,1,20,20" transform="translate(0 0.01)" style="fill:#fbc690"/><path d="M96.76,29.11a20,20,0,1,1-20-20,20,20,0,0,1,20,20" transform="translate(0 0.01)" style="fill:#fbc791"/><path d="M96.72,29.11A19.95,19.95,0,1,1,76.78,9.16a19.95,19.95,0,0,1,19.94,20" transform="translate(0 0.01)" style="fill:#fbc792"/><path d="M96.69,29.11A19.92,19.92,0,1,1,76.78,9.19,19.91,19.91,0,0,1,96.69,29.11" transform="translate(0 0.01)" style="fill:#fbc893"/><path d="M96.66,29.11A19.89,19.89,0,1,1,76.78,9.23,19.89,19.89,0,0,1,96.66,29.11" transform="translate(0 0.01)" style="fill:#fbc894"/><path d="M96.63,29.11A19.86,19.86,0,1,1,76.78,9.26,19.85,19.85,0,0,1,96.63,29.11" transform="translate(0 0.01)" style="fill:#fbc995"/><path d="M96.6,29.11A19.82,19.82,0,1,1,76.78,9.29,19.82,19.82,0,0,1,96.6,29.11" transform="translate(0 0.01)" style="fill:#fbc996"/><path d="M96.56,29.11A19.79,19.79,0,1,1,76.78,9.32,19.79,19.79,0,0,1,96.56,29.11" transform="translate(0 0.01)" style="fill:#fbca97"/><path d="M96.53,29.11A19.76,19.76,0,1,1,76.78,9.36,19.76,19.76,0,0,1,96.53,29.11" transform="translate(0 0.01)" style="fill:#fbca98"/><path d="M96.5,29.11A19.73,19.73,0,1,1,76.78,9.39,19.72,19.72,0,0,1,96.5,29.11" transform="translate(0 0.01)" style="fill:#fbcb99"/><path d="M96.46,29.11A19.69,19.69,0,1,1,76.78,9.42,19.68,19.68,0,0,1,96.46,29.11" transform="translate(0 0.01)" style="fill:#fbcb9a"/><path d="M96.43,29.11A19.66,19.66,0,1,1,76.78,9.46,19.66,19.66,0,0,1,96.43,29.11" transform="translate(0 0.01)" style="fill:#fbcc9b"/><path d="M96.4,29.11A19.63,19.63,0,1,1,76.78,9.49,19.63,19.63,0,0,1,96.4,29.11" transform="translate(0 0.01)" style="fill:#fbcc9c"/><path d="M96.37,29.11A19.6,19.6,0,1,1,76.78,9.52,19.59,19.59,0,0,1,96.37,29.11" transform="translate(0 0.01)" style="fill:#fbcd9d"/><path d="M96.33,29.11A19.56,19.56,0,1,1,76.78,9.55,19.55,19.55,0,0,1,96.33,29.11" transform="translate(0 0.01)" style="fill:#fbcd9e"/><path d="M96.3,29.11A19.53,19.53,0,1,1,76.78,9.59,19.52,19.52,0,0,1,96.3,29.11" transform="translate(0 0.01)" style="fill:#fcce9e"/><path d="M96.27,29.11A19.5,19.5,0,1,1,76.78,9.62,19.49,19.49,0,0,1,96.27,29.11" transform="translate(0 0.01)" style="fill:#fcce9f"/><path d="M96.24,29.11A19.47,19.47,0,1,1,76.78,9.65,19.46,19.46,0,0,1,96.24,29.11" transform="translate(0 0.01)" style="fill:#fccfa1"/><path d="M96.2,29.11A19.43,19.43,0,1,1,76.78,9.68,19.42,19.42,0,0,1,96.2,29.11" transform="translate(0 0.01)" style="fill:#fccfa2"/><path d="M96.17,29.11A19.4,19.4,0,1,1,76.78,9.72,19.4,19.4,0,0,1,96.17,29.11" transform="translate(0 0.01)" style="fill:#fcd0a3"/><path d="M96.14,29.11A19.37,19.37,0,1,1,76.78,9.75,19.36,19.36,0,0,1,96.14,29.11" transform="translate(0 0.01)" style="fill:#fcd0a3"/><path d="M96.1,29.11A19.33,19.33,0,1,1,76.78,9.78,19.32,19.32,0,0,1,96.1,29.11" transform="translate(0 0.01)" style="fill:#fcd1a4"/><path d="M96.07,29.11A19.3,19.3,0,1,1,76.78,9.81a19.3,19.3,0,0,1,19.29,19.3" transform="translate(0 0.01)" style="fill:#fcd1a5"/><path d="M96,29.11A19.27,19.27,0,1,1,76.78,9.85,19.26,19.26,0,0,1,96,29.11" transform="translate(0 0.01)" style="fill:#fcd2a6"/><path d="M96,29.11A19.24,19.24,0,1,1,76.78,9.88,19.23,19.23,0,0,1,96,29.11" transform="translate(0 0.01)" style="fill:#fcd2a7"/><path d="M96,29.11A19.2,19.2,0,1,1,76.78,9.91,19.19,19.19,0,0,1,96,29.11" transform="translate(0 0.01)" style="fill:#fcd3a8"/><path d="M95.94,29.11A19.17,19.17,0,1,1,76.78,9.94,19.16,19.16,0,0,1,95.94,29.11" transform="translate(0 0.01)" style="fill:#fcd3a9"/><path d="M95.91,29.11A19.14,19.14,0,1,1,76.78,10,19.14,19.14,0,0,1,95.91,29.11" transform="translate(0 0.01)" style="fill:#fcd3aa"/><path d="M95.88,29.11A19.11,19.11,0,1,1,76.78,10a19.1,19.1,0,0,1,19.1,19.1" transform="translate(0 0.01)" style="fill:#fcd4ab"/><path d="M95.84,29.11A19.07,19.07,0,1,1,76.78,10,19.06,19.06,0,0,1,95.84,29.11" transform="translate(0 0.01)" style="fill:#fcd4ac"/><path d="M95.81,29.11a19,19,0,1,1-19-19,19,19,0,0,1,19,19" transform="translate(0 0.01)" style="fill:#fcd5ad"/><path d="M95.78,29.11a19,19,0,1,1-19-19,19,19,0,0,1,19,19" transform="translate(0 0.01)" style="fill:#fcd6ae"/><path d="M95.75,29.11a19,19,0,1,1-19-19,19,19,0,0,1,19,19" transform="translate(0 0.01)" style="fill:#fcd6af"/><path d="M95.71,29.11A18.94,18.94,0,1,1,76.78,10.17,18.94,18.94,0,0,1,95.71,29.11" transform="translate(0 0.01)" style="fill:#fcd6b0"/><path d="M95.68,29.11a18.91,18.91,0,1,1-18.9-18.9,18.91,18.91,0,0,1,18.9,18.9" transform="translate(0 0.01)" style="fill:#fdd7b1"/><path d="M95.65,29.11A18.88,18.88,0,1,1,76.78,10.24,18.87,18.87,0,0,1,95.65,29.11" transform="translate(0 0.01)" style="fill:#fdd7b2"/><path d="M95.62,29.11A18.85,18.85,0,1,1,76.78,10.27,18.84,18.84,0,0,1,95.62,29.11" transform="translate(0 0.01)" style="fill:#fdd8b3"/><path d="M95.58,29.11A18.81,18.81,0,1,1,76.78,10.3a18.81,18.81,0,0,1,18.8,18.81" transform="translate(0 0.01)" style="fill:#fdd8b3"/><path d="M95.55,29.11A18.78,18.78,0,1,1,76.78,10.34,18.78,18.78,0,0,1,95.55,29.11" transform="translate(0 0.01)" style="fill:#fdd9b4"/><path d="M95.52,29.11A18.75,18.75,0,1,1,76.78,10.37,18.74,18.74,0,0,1,95.52,29.11" transform="translate(0 0.01)" style="fill:#fdd9b5"/><path d="M95.48,29.11A18.71,18.71,0,1,1,76.78,10.4a18.71,18.71,0,0,1,18.7,18.71" transform="translate(0 0.01)" style="fill:#fddab6"/><path d="M95.45,29.11A18.68,18.68,0,1,1,76.78,10.43,18.67,18.67,0,0,1,95.45,29.11" transform="translate(0 0.01)" style="fill:#fddab7"/><path d="M95.42,29.11A18.65,18.65,0,1,1,76.78,10.47,18.65,18.65,0,0,1,95.42,29.11" transform="translate(0 0.01)" style="fill:#fddbb8"/><path d="M95.39,29.11A18.62,18.62,0,1,1,76.78,10.5,18.61,18.61,0,0,1,95.39,29.11" transform="translate(0 0.01)" style="fill:#fddbb9"/><path d="M95.35,29.11A18.58,18.58,0,1,1,76.78,10.53,18.57,18.57,0,0,1,95.35,29.11" transform="translate(0 0.01)" style="fill:#fddcba"/><path d="M95.32,29.11A18.55,18.55,0,1,1,76.78,10.57,18.55,18.55,0,0,1,95.32,29.11" transform="translate(0 0.01)" style="fill:#fddcbb"/><path d="M95.29,29.11A18.52,18.52,0,1,1,76.78,10.6,18.52,18.52,0,0,1,95.29,29.11" transform="translate(0 0.01)" style="fill:#fdddbc"/><path d="M95.26,29.11A18.49,18.49,0,1,1,76.78,10.63,18.48,18.48,0,0,1,95.26,29.11" transform="translate(0 0.01)" style="fill:#fdddbd"/><path d="M95.22,29.11A18.45,18.45,0,1,1,76.78,10.66,18.45,18.45,0,0,1,95.22,29.11" transform="translate(0 0.01)" style="fill:#fddebe"/><path d="M95.19,29.11A18.42,18.42,0,1,1,76.78,10.7,18.42,18.42,0,0,1,95.19,29.11" transform="translate(0 0.01)" style="fill:#fddebf"/><path d="M95.16,29.11A18.39,18.39,0,1,1,76.78,10.73,18.38,18.38,0,0,1,95.16,29.11" transform="translate(0 0.01)" style="fill:#fddfbf"/><path d="M95.13,29.11A18.35,18.35,0,1,1,76.78,10.76,18.35,18.35,0,0,1,95.13,29.11" transform="translate(0 0.01)" style="fill:#fddfc0"/><path d="M95.09,29.11A18.32,18.32,0,1,1,76.78,10.79,18.32,18.32,0,0,1,95.09,29.11" transform="translate(0 0.01)" style="fill:#fddfc1"/><path d="M95.06,29.11A18.29,18.29,0,1,1,76.78,10.83,18.29,18.29,0,0,1,95.06,29.11" transform="translate(0 0.01)" style="fill:#fde0c2"/><path d="M95,29.11A18.26,18.26,0,1,1,76.78,10.86,18.25,18.25,0,0,1,95,29.11" transform="translate(0 0.01)" style="fill:#fde0c3"/><path d="M95,29.11A18.22,18.22,0,1,1,76.78,10.89,18.22,18.22,0,0,1,95,29.11" transform="translate(0 0.01)" style="fill:#fde1c4"/><path d="M95,29.11A18.19,18.19,0,1,1,76.78,10.92,18.18,18.18,0,0,1,95,29.11" transform="translate(0 0.01)" style="fill:#fde1c5"/><path d="M94.93,29.11A18.16,18.16,0,1,1,76.78,11,18.16,18.16,0,0,1,94.93,29.11" transform="translate(0 0.01)" style="fill:#fde2c6"/><path d="M94.9,29.11A18.13,18.13,0,1,1,76.78,11,18.12,18.12,0,0,1,94.9,29.11" transform="translate(0 0.01)" style="fill:#fee2c7"/><path d="M94.87,29.11A18.09,18.09,0,1,1,76.78,11,18.09,18.09,0,0,1,94.87,29.11" transform="translate(0 0.01)" style="fill:#fee3c8"/><path d="M94.83,29.11a18.06,18.06,0,1,1-18-18.06,18.06,18.06,0,0,1,18,18.06" transform="translate(0 0.01)" style="fill:#fee3c8"/><path d="M94.8,29.11a18,18,0,1,1-18-18,18,18,0,0,1,18,18" transform="translate(0 0.01)" style="fill:#fee4c9"/><path d="M94.77,29.11a18,18,0,1,1-18-18,18,18,0,0,1,18,18" transform="translate(0 0.01)" style="fill:#fee4ca"/><path d="M94.73,29.11a18,18,0,1,1-18-18,18,18,0,0,1,18,18" transform="translate(0 0.01)" style="fill:#fee5cb"/><path d="M94.7,29.11A17.93,17.93,0,1,1,76.78,11.18,17.92,17.92,0,0,1,94.7,29.11" transform="translate(0 0.01)" style="fill:#fee5cc"/><path d="M94.67,29.11A17.9,17.9,0,1,1,76.78,11.22,17.9,17.9,0,0,1,94.67,29.11" transform="translate(0 0.01)" style="fill:#fee5cd"/><path d="M94.64,29.11A17.87,17.87,0,1,1,76.78,11.25,17.86,17.86,0,0,1,94.64,29.11" transform="translate(0 0.01)" style="fill:#fee6ce"/><path d="M94.6,29.11A17.83,17.83,0,1,1,76.78,11.28,17.82,17.82,0,0,1,94.6,29.11" transform="translate(0 0.01)" style="fill:#fee6cf"/><path d="M94.57,29.11A17.8,17.8,0,1,1,76.78,11.32,17.8,17.8,0,0,1,94.57,29.11" transform="translate(0 0.01)" style="fill:#fee7cf"/><path d="M94.54,29.11A17.77,17.77,0,1,1,76.78,11.35,17.76,17.76,0,0,1,94.54,29.11" transform="translate(0 0.01)" style="fill:#fee7d0"/><path d="M94.51,29.11A17.73,17.73,0,1,1,76.78,11.38,17.73,17.73,0,0,1,94.51,29.11" transform="translate(0 0.01)" style="fill:#fee8d1"/><path d="M94.47,29.11a17.7,17.7,0,1,1-17.69-17.7,17.69,17.69,0,0,1,17.69,17.7" transform="translate(0 0.01)" style="fill:#fee8d2"/><path d="M94.44,29.11A17.67,17.67,0,1,1,76.78,11.45,17.67,17.67,0,0,1,94.44,29.11" transform="translate(0 0.01)" style="fill:#fee8d3"/><path d="M94.41,29.11A17.64,17.64,0,1,1,76.78,11.48,17.63,17.63,0,0,1,94.41,29.11" transform="translate(0 0.01)" style="fill:#fee9d4"/><path d="M94.38,29.11a17.6,17.6,0,1,1-17.6-17.6,17.6,17.6,0,0,1,17.6,17.6" transform="translate(0 0.01)" style="fill:#fee9d5"/><path d="M94.34,29.11A17.57,17.57,0,1,1,76.78,11.54,17.57,17.57,0,0,1,94.34,29.11" transform="translate(0 0.01)" style="fill:#feead5"/><path d="M94.31,29.11A17.54,17.54,0,1,1,76.78,11.58,17.53,17.53,0,0,1,94.31,29.11" transform="translate(0 0.01)" style="fill:#feead6"/><path d="M94.28,29.11a17.51,17.51,0,1,1-17.5-17.5,17.5,17.5,0,0,1,17.5,17.5" transform="translate(0 0.01)" style="fill:#feebd7"/><path d="M94.25,29.11A17.47,17.47,0,1,1,76.78,11.64,17.47,17.47,0,0,1,94.25,29.11" transform="translate(0 0.01)" style="fill:#feebd8"/><path d="M94.21,29.11A17.44,17.44,0,1,1,76.78,11.67,17.43,17.43,0,0,1,94.21,29.11" transform="translate(0 0.01)" style="fill:#feebd9"/><path d="M94.18,29.11a17.41,17.41,0,1,1-17.4-17.4,17.41,17.41,0,0,1,17.4,17.4" transform="translate(0 0.01)" style="fill:#feecda"/><path d="M94.15,29.11A17.38,17.38,0,1,1,76.78,11.74,17.37,17.37,0,0,1,94.15,29.11" transform="translate(0 0.01)" style="fill:#feecda"/><path d="M94.11,29.11A17.34,17.34,0,1,1,76.78,11.77,17.33,17.33,0,0,1,94.11,29.11" transform="translate(0 0.01)" style="fill:#feeddb"/><path d="M94.08,29.11A17.31,17.31,0,1,1,76.78,11.8a17.31,17.31,0,0,1,17.3,17.31" transform="translate(0 0.01)" style="fill:#feeddc"/><path d="M94.05,29.11A17.28,17.28,0,1,1,76.78,11.84,17.28,17.28,0,0,1,94.05,29.11" transform="translate(0 0.01)" style="fill:#feeddd"/><path d="M94,29.11A17.25,17.25,0,1,1,76.78,11.87,17.24,17.24,0,0,1,94,29.11" transform="translate(0 0.01)" style="fill:#feeede"/><path d="M94,29.11A17.21,17.21,0,1,1,76.78,11.9,17.2,17.2,0,0,1,94,29.11" transform="translate(0 0.01)" style="fill:#feeede"/><path d="M94,29.11A17.18,17.18,0,1,1,76.78,11.94,17.18,17.18,0,0,1,94,29.11" transform="translate(0 0.01)" style="fill:#feefdf"/><path d="M93.92,29.11A17.15,17.15,0,1,1,76.78,12,17.14,17.14,0,0,1,93.92,29.11" transform="translate(0 0.01)" style="fill:#feefe0"/><path d="M93.89,29.11A17.12,17.12,0,1,1,76.78,12,17.11,17.11,0,0,1,93.89,29.11" transform="translate(0 0.01)" style="fill:#feefe1"/><path d="M93.85,29.11A17.08,17.08,0,1,1,76.78,12,17.08,17.08,0,0,1,93.85,29.11" transform="translate(0 0.01)" style="fill:#fef0e1"/><path d="M93.82,29.11a17,17,0,1,1-17-17,17,17,0,0,1,17,17" transform="translate(0 0.01)" style="fill:#fef0e2"/><path d="M93.79,29.11a17,17,0,1,1-17-17,17,17,0,0,1,17,17" transform="translate(0 0.01)" style="fill:#fef1e3"/><path d="M93.76,29.11a17,17,0,1,1-17-17,17,17,0,0,1,17,17" transform="translate(0 0.01)" style="fill:#fef1e4"/><path d="M93.72,29.11A16.95,16.95,0,1,1,76.78,12.16a16.95,16.95,0,0,1,16.94,17" transform="translate(0 0.01)" style="fill:#fef2e5"/><path d="M93.69,29.11A16.92,16.92,0,1,1,76.78,12.2,16.92,16.92,0,0,1,93.69,29.11" transform="translate(0 0.01)" style="fill:#fff2e6"/><path d="M93.66,29.11A16.89,16.89,0,1,1,76.78,12.23,16.88,16.88,0,0,1,93.66,29.11" transform="translate(0 0.01)" style="fill:#fff2e6"/><path d="M93.63,29.11A16.85,16.85,0,1,1,76.78,12.26,16.85,16.85,0,0,1,93.63,29.11" transform="translate(0 0.01)" style="fill:#fff3e7"/><path d="M93.59,29.11A16.82,16.82,0,1,1,76.78,12.29,16.82,16.82,0,0,1,93.59,29.11" transform="translate(0 0.01)" style="fill:#fff3e8"/><path d="M93.56,29.11A16.79,16.79,0,1,1,76.78,12.33,16.79,16.79,0,0,1,93.56,29.11" transform="translate(0 0.01)" style="fill:#fff4e9"/><path d="M93.53,29.11A16.76,16.76,0,1,1,76.78,12.36,16.75,16.75,0,0,1,93.53,29.11" transform="translate(0 0.01)" style="fill:#fff4ea"/><path d="M93.49,29.11A16.72,16.72,0,1,1,76.78,12.39,16.72,16.72,0,0,1,93.49,29.11" transform="translate(0 0.01)" style="fill:#fff4ea"/><path d="M93.46,29.11A16.69,16.69,0,1,1,76.78,12.42,16.68,16.68,0,0,1,93.46,29.11" transform="translate(0 0.01)" style="fill:#fff5eb"/><path d="M93.43,29.11A16.66,16.66,0,1,1,76.78,12.46,16.66,16.66,0,0,1,93.43,29.11" transform="translate(0 0.01)" style="fill:#fff5ec"/><path d="M93.4,29.11A16.63,16.63,0,1,1,76.78,12.49,16.62,16.62,0,0,1,93.4,29.11" transform="translate(0 0.01)" style="fill:#fff6ed"/><path d="M93.36,29.11A16.59,16.59,0,1,1,76.78,12.52,16.58,16.58,0,0,1,93.36,29.11" transform="translate(0 0.01)" style="fill:#fff6ed"/><path d="M93.33,29.11A16.56,16.56,0,1,1,76.78,12.56,16.55,16.55,0,0,1,93.33,29.11" transform="translate(0 0.01)" style="fill:#fff6ee"/><path d="M93.3,29.11A16.53,16.53,0,1,1,76.78,12.59,16.52,16.52,0,0,1,93.3,29.11" transform="translate(0 0.01)" style="fill:#fff7ef"/><path d="M93.27,29.11A16.5,16.5,0,1,1,76.78,12.62,16.49,16.49,0,0,1,93.27,29.11" transform="translate(0 0.01)" style="fill:#fff7f0"/><path d="M93.23,29.11A16.46,16.46,0,1,1,76.78,12.65,16.46,16.46,0,0,1,93.23,29.11" transform="translate(0 0.01)" style="fill:#fff7f0"/><path d="M93.2,29.11A16.43,16.43,0,1,1,76.78,12.69,16.43,16.43,0,0,1,93.2,29.11" transform="translate(0 0.01)" style="fill:#fff8f1"/><path d="M93.17,29.11A16.4,16.4,0,1,1,76.78,12.72,16.39,16.39,0,0,1,93.17,29.11" transform="translate(0 0.01)" style="fill:#fff8f2"/><path d="M93.14,29.11A16.36,16.36,0,1,1,76.78,12.75,16.36,16.36,0,0,1,93.14,29.11" transform="translate(0 0.01)" style="fill:#fff9f3"/><path d="M93.1,29.11A16.33,16.33,0,1,1,76.78,12.78,16.33,16.33,0,0,1,93.1,29.11" transform="translate(0 0.01)" style="fill:#fff9f3"/><path d="M93.07,29.11A16.3,16.3,0,1,1,76.78,12.82,16.3,16.3,0,0,1,93.07,29.11" transform="translate(0 0.01)" style="fill:#fff9f4"/><path d="M93,29.11A16.27,16.27,0,1,1,76.78,12.85,16.26,16.26,0,0,1,93,29.11" transform="translate(0 0.01)" style="fill:#fffaf5"/><path d="M93,29.11A16.23,16.23,0,1,1,76.78,12.88,16.23,16.23,0,0,1,93,29.11" transform="translate(0 0.01)" style="fill:#fffaf5"/><path d="M93,29.11a16.2,16.2,0,1,1-16.19-16.2A16.19,16.19,0,0,1,93,29.11" transform="translate(0 0.01)" style="fill:#fffaf6"/><path d="M92.94,29.11A16.17,16.17,0,1,1,76.78,13,16.17,16.17,0,0,1,92.94,29.11" transform="translate(0 0.01)" style="fill:#fffbf7"/><path d="M92.91,29.11A16.14,16.14,0,1,1,76.78,13,16.13,16.13,0,0,1,92.91,29.11" transform="translate(0 0.01)" style="fill:#fffbf7"/><path d="M92.87,29.11A16.1,16.1,0,1,1,76.78,13a16.09,16.09,0,0,1,16.09,16.1" transform="translate(0 0.01)" style="fill:#fffbf8"/><path d="M92.84,29.11A16.07,16.07,0,1,1,76.78,13.05,16.07,16.07,0,0,1,92.84,29.11" transform="translate(0 0.01)" style="fill:#fffcf9"/><path d="M92.81,29.11a16,16,0,1,1-16-16,16,16,0,0,1,16,16" transform="translate(0 0.01)" style="fill:#fffcf9"/><path d="M92.78,29.11a16,16,0,1,1-16-16,16,16,0,0,1,16,16" transform="translate(0 0.01)" style="fill:#fffcfa"/><path d="M92.74,29.11a16,16,0,1,1-16-16,16,16,0,0,1,16,16" transform="translate(0 0.01)" style="fill:#fffdfa"/><path d="M92.71,29.11A15.94,15.94,0,1,1,76.78,13.18,15.94,15.94,0,0,1,92.71,29.11" transform="translate(0 0.01)" style="fill:#fffdfb"/><path d="M92.68,29.11a15.91,15.91,0,1,1-15.9-15.9,15.9,15.9,0,0,1,15.9,15.9" transform="translate(0 0.01)" style="fill:#fffdfc"/><path d="M92.65,29.11A15.88,15.88,0,1,1,76.78,13.24,15.87,15.87,0,0,1,92.65,29.11" transform="translate(0 0.01)" style="fill:#fffefc"/><path d="M92.61,29.11A15.84,15.84,0,1,1,76.78,13.27,15.84,15.84,0,0,1,92.61,29.11" transform="translate(0 0.01)" style="fill:#fffefd"/><path d="M92.58,29.11a15.81,15.81,0,1,1-15.8-15.8,15.81,15.81,0,0,1,15.8,15.8" transform="translate(0 0.01)" style="fill:#fffefd"/><path d="M92.55,29.11A15.78,15.78,0,1,1,76.78,13.34,15.77,15.77,0,0,1,92.55,29.11" transform="translate(0 0.01)" style="fill:#fffefe"/><path d="M92.51,29.11A15.74,15.74,0,1,1,76.78,13.37,15.74,15.74,0,0,1,92.51,29.11" transform="translate(0 0.01)" style="fill:#fffffe"/><path d="M92.48,29.11A15.71,15.71,0,1,1,76.78,13.4a15.7,15.7,0,0,1,15.7,15.71" transform="translate(0 0.01)" style="fill:#fff"/><path d="M92.45,29.11A15.68,15.68,0,1,1,76.78,13.44,15.68,15.68,0,0,1,92.45,29.11" transform="translate(0 0.01)" style="fill:#fff"/></g><path d="M94.92,28.86A17.77,17.77,0,1,0,77.15,46.63,17.77,17.77,0,0,0,94.92,28.86" transform="translate(0 0.01)" style="fill:#fff"/><g style="clip-path:url(#clip-path-2)"><rect x="60.68" y="12.39" width="32.94" height="32.94" style="fill:silver"/><path d="M93.62,28.86A16.47,16.47,0,1,1,77.15,12.38,16.47,16.47,0,0,1,93.62,28.86" transform="translate(0 0.01)" style="fill:silver"/><path d="M93.56,28.86A16.41,16.41,0,1,1,77.15,12.44,16.41,16.41,0,0,1,93.56,28.86" transform="translate(0 0.01)" style="fill:#c2c2c2"/><path d="M93.5,28.86A16.35,16.35,0,1,1,77.15,12.5,16.35,16.35,0,0,1,93.5,28.86" transform="translate(0 0.01)" style="fill:#c5c4c4"/><path d="M93.44,28.86a16.29,16.29,0,1,1-16.29-16.3,16.29,16.29,0,0,1,16.29,16.3" transform="translate(0 0.01)" style="fill:#c7c6c6"/><path d="M93.38,28.86A16.23,16.23,0,1,1,77.15,12.62,16.23,16.23,0,0,1,93.38,28.86" transform="translate(0 0.01)" style="fill:#c8c8c8"/><path d="M93.32,28.86A16.17,16.17,0,1,1,77.15,12.68,16.17,16.17,0,0,1,93.32,28.86" transform="translate(0 0.01)" style="fill:#cacaca"/><path d="M93.26,28.86A16.11,16.11,0,1,1,77.15,12.74,16.11,16.11,0,0,1,93.26,28.86" transform="translate(0 0.01)" style="fill:#ccc"/><path d="M93.2,28.86a16.05,16.05,0,1,1-16-16.06,16,16,0,0,1,16,16.06" transform="translate(0 0.01)" style="fill:#cecece"/><path d="M93.14,28.86a16,16,0,1,1-16-16,16,16,0,0,1,16,16" transform="translate(0 0.01)" style="fill:#d0d0d0"/><path d="M93.08,28.86A15.93,15.93,0,1,1,77.15,12.92,15.93,15.93,0,0,1,93.08,28.86" transform="translate(0 0.01)" style="fill:#d2d2d1"/><path d="M93,28.86A15.87,15.87,0,1,1,77.15,13,15.87,15.87,0,0,1,93,28.86" transform="translate(0 0.01)" style="fill:#d3d3d3"/><path d="M93,28.86A15.81,15.81,0,1,1,77.15,13,15.81,15.81,0,0,1,93,28.86" transform="translate(0 0.01)" style="fill:#d5d5d5"/><path d="M92.9,28.86A15.75,15.75,0,1,1,77.15,13.1,15.75,15.75,0,0,1,92.9,28.86" transform="translate(0 0.01)" style="fill:#d7d7d6"/><path d="M92.84,28.86a15.69,15.69,0,1,1-15.69-15.7,15.69,15.69,0,0,1,15.69,15.7" transform="translate(0 0.01)" style="fill:#d8d8d8"/><path d="M92.78,28.86A15.63,15.63,0,1,1,77.15,13.22,15.63,15.63,0,0,1,92.78,28.86" transform="translate(0 0.01)" style="fill:#dadad9"/><path d="M92.72,28.86A15.57,15.57,0,1,1,77.15,13.28,15.57,15.57,0,0,1,92.72,28.86" transform="translate(0 0.01)" style="fill:#dbdbdb"/><path d="M92.67,28.86A15.52,15.52,0,1,1,77.15,13.34,15.52,15.52,0,0,1,92.67,28.86" transform="translate(0 0.01)" style="fill:#dddcdc"/><path d="M92.61,28.86A15.46,15.46,0,1,1,77.15,13.4,15.46,15.46,0,0,1,92.61,28.86" transform="translate(0 0.01)" style="fill:#dedede"/><path d="M92.55,28.86a15.4,15.4,0,1,1-15.4-15.4,15.4,15.4,0,0,1,15.4,15.4" transform="translate(0 0.01)" style="fill:#dfdfdf"/><path d="M92.49,28.86A15.34,15.34,0,1,1,77.15,13.52,15.34,15.34,0,0,1,92.49,28.86" transform="translate(0 0.01)" style="fill:#e0e0e0"/><path d="M92.43,28.86A15.28,15.28,0,1,1,77.15,13.58,15.28,15.28,0,0,1,92.43,28.86" transform="translate(0 0.01)" style="fill:#e2e2e2"/><path d="M92.37,28.86A15.22,15.22,0,1,1,77.15,13.64,15.22,15.22,0,0,1,92.37,28.86" transform="translate(0 0.01)" style="fill:#e3e3e3"/><path d="M92.31,28.86A15.16,15.16,0,1,1,77.15,13.7,15.15,15.15,0,0,1,92.31,28.86" transform="translate(0 0.01)" style="fill:#e4e4e4"/><path d="M92.25,28.86a15.1,15.1,0,1,1-15.1-15.1,15.1,15.1,0,0,1,15.1,15.1" transform="translate(0 0.01)" style="fill:#e5e5e5"/><path d="M92.19,28.86a15,15,0,1,1-15-15,15,15,0,0,1,15,15" transform="translate(0 0.01)" style="fill:#e6e6e6"/><path d="M92.13,28.86a15,15,0,1,1-15-15,15,15,0,0,1,15,15" transform="translate(0 0.01)" style="fill:#e7e7e7"/><path d="M92.07,28.86A14.92,14.92,0,1,1,77.15,13.94,14.92,14.92,0,0,1,92.07,28.86" transform="translate(0 0.01)" style="fill:#e9e9e8"/><path d="M92,28.86A14.86,14.86,0,1,1,77.15,14,14.85,14.85,0,0,1,92,28.86" transform="translate(0 0.01)" style="fill:#eaeaea"/><path d="M92,28.86a14.8,14.8,0,1,1-14.8-14.8A14.8,14.8,0,0,1,92,28.86" transform="translate(0 0.01)" style="fill:#ebebea"/><path d="M91.89,28.86A14.74,14.74,0,1,1,77.15,14.12,14.74,14.74,0,0,1,91.89,28.86" transform="translate(0 0.01)" style="fill:#ececeb"/><path d="M91.83,28.86A14.68,14.68,0,1,1,77.15,14.18,14.67,14.67,0,0,1,91.83,28.86" transform="translate(0 0.01)" style="fill:#ececec"/><path d="M91.77,28.86A14.62,14.62,0,1,1,77.15,14.24,14.62,14.62,0,0,1,91.77,28.86" transform="translate(0 0.01)" style="fill:#ededed"/><path d="M91.71,28.86A14.56,14.56,0,1,1,77.15,14.3,14.55,14.55,0,0,1,91.71,28.86" transform="translate(0 0.01)" style="fill:#eee"/><path d="M91.65,28.86a14.5,14.5,0,1,1-14.5-14.5,14.5,14.5,0,0,1,14.5,14.5" transform="translate(0 0.01)" style="fill:#efefef"/><path d="M91.59,28.86A14.44,14.44,0,1,1,77.15,14.42,14.44,14.44,0,0,1,91.59,28.86" transform="translate(0 0.01)" style="fill:#f0f0f0"/><path d="M91.53,28.86A14.38,14.38,0,1,1,77.15,14.48,14.37,14.37,0,0,1,91.53,28.86" transform="translate(0 0.01)" style="fill:#f1f1f1"/><path d="M91.47,28.86A14.32,14.32,0,1,1,77.15,14.54,14.32,14.32,0,0,1,91.47,28.86" transform="translate(0 0.01)" style="fill:#f2f2f2"/><path d="M91.41,28.86A14.26,14.26,0,1,1,77.15,14.6,14.25,14.25,0,0,1,91.41,28.86" transform="translate(0 0.01)" style="fill:#f2f2f2"/><path d="M91.35,28.86a14.2,14.2,0,1,1-14.2-14.2,14.19,14.19,0,0,1,14.2,14.2" transform="translate(0 0.01)" style="fill:#f3f3f3"/><path d="M91.29,28.86A14.14,14.14,0,1,1,77.15,14.72,14.15,14.15,0,0,1,91.29,28.86" transform="translate(0 0.01)" style="fill:#f4f4f4"/><path d="M91.23,28.86A14.08,14.08,0,1,1,77.15,14.78,14.08,14.08,0,0,1,91.23,28.86" transform="translate(0 0.01)" style="fill:#f4f4f4"/><path d="M91.17,28.86a14,14,0,1,1-14-14,14,14,0,0,1,14,14" transform="translate(0 0.01)" style="fill:#f5f5f5"/><path d="M91.11,28.86a14,14,0,1,1-14-14,14,14,0,0,1,14,14" transform="translate(0 0.01)" style="fill:#f6f6f6"/><path d="M91.05,28.86A13.9,13.9,0,1,1,77.15,15a13.9,13.9,0,0,1,13.9,13.9" transform="translate(0 0.01)" style="fill:#f6f6f6"/><path d="M91,28.86A13.84,13.84,0,1,1,77.15,15,13.84,13.84,0,0,1,91,28.86" transform="translate(0 0.01)" style="fill:#f7f7f7"/><path d="M90.93,28.86A13.78,13.78,0,1,1,77.15,15.07,13.78,13.78,0,0,1,90.93,28.86" transform="translate(0 0.01)" style="fill:#f7f7f7"/><path d="M90.87,28.86A13.72,13.72,0,1,1,77.15,15.13,13.72,13.72,0,0,1,90.87,28.86" transform="translate(0 0.01)" style="fill:#f8f8f8"/><path d="M90.81,28.86A13.66,13.66,0,1,1,77.15,15.19,13.66,13.66,0,0,1,90.81,28.86" transform="translate(0 0.01)" style="fill:#f9f8f8"/><path d="M90.75,28.86a13.6,13.6,0,1,1-13.6-13.61,13.6,13.6,0,0,1,13.6,13.61" transform="translate(0 0.01)" style="fill:#f9f9f9"/><path d="M90.69,28.86A13.54,13.54,0,1,1,77.15,15.31,13.54,13.54,0,0,1,90.69,28.86" transform="translate(0 0.01)" style="fill:#f9f9f9"/><path d="M90.63,28.86A13.48,13.48,0,1,1,77.15,15.37,13.48,13.48,0,0,1,90.63,28.86" transform="translate(0 0.01)" style="fill:#fafafa"/><path d="M90.57,28.86A13.42,13.42,0,1,1,77.15,15.43,13.42,13.42,0,0,1,90.57,28.86" transform="translate(0 0.01)" style="fill:#fafafa"/><path d="M90.51,28.86A13.36,13.36,0,1,1,77.15,15.49,13.36,13.36,0,0,1,90.51,28.86" transform="translate(0 0.01)" style="fill:#fbfbfb"/><path d="M90.45,28.86a13.3,13.3,0,1,1-13.3-13.31,13.3,13.3,0,0,1,13.3,13.31" transform="translate(0 0.01)" style="fill:#fbfbfb"/><path d="M90.39,28.86A13.24,13.24,0,1,1,77.15,15.61,13.24,13.24,0,0,1,90.39,28.86" transform="translate(0 0.01)" style="fill:#fbfbfb"/><path d="M90.33,28.86A13.18,13.18,0,1,1,77.15,15.67,13.18,13.18,0,0,1,90.33,28.86" transform="translate(0 0.01)" style="fill:#fcfcfc"/><path d="M90.27,28.86A13.12,13.12,0,1,1,77.15,15.73,13.12,13.12,0,0,1,90.27,28.86" transform="translate(0 0.01)" style="fill:#fcfcfc"/><path d="M90.21,28.86A13.06,13.06,0,1,1,77.15,15.79,13.06,13.06,0,0,1,90.21,28.86" transform="translate(0 0.01)" style="fill:#fcfcfc"/><path d="M90.15,28.86a13,13,0,1,1-13-13,13,13,0,0,1,13,13" transform="translate(0 0.01)" style="fill:#fdfdfd"/><path d="M90.09,28.86A12.94,12.94,0,1,1,77.15,15.91a12.94,12.94,0,0,1,12.94,13" transform="translate(0 0.01)" style="fill:#fdfdfd"/><path d="M90,28.86A12.88,12.88,0,1,1,77.15,16,12.88,12.88,0,0,1,90,28.86" transform="translate(0 0.01)" style="fill:#fdfdfd"/><path d="M90,28.86A12.82,12.82,0,1,1,77.15,16,12.82,12.82,0,0,1,90,28.86" transform="translate(0 0.01)" style="fill:#fdfdfd"/><path d="M89.91,28.86A12.76,12.76,0,1,1,77.15,16.09,12.76,12.76,0,0,1,89.91,28.86" transform="translate(0 0.01)" style="fill:#fdfdfd"/><path d="M89.85,28.86a12.7,12.7,0,1,1-12.7-12.71,12.7,12.7,0,0,1,12.7,12.71" transform="translate(0 0.01)" style="fill:#fefefe"/><path d="M89.8,28.86A12.65,12.65,0,1,1,77.15,16.21,12.65,12.65,0,0,1,89.8,28.86" transform="translate(0 0.01)" style="fill:#fefefe"/><path d="M89.74,28.86A12.59,12.59,0,1,1,77.15,16.27,12.59,12.59,0,0,1,89.74,28.86" transform="translate(0 0.01)" style="fill:#fefefe"/><path d="M89.68,28.86A12.53,12.53,0,1,1,77.15,16.33,12.53,12.53,0,0,1,89.68,28.86" transform="translate(0 0.01)" style="fill:#fefefe"/><path d="M89.62,28.86A12.47,12.47,0,1,1,77.15,16.39,12.47,12.47,0,0,1,89.62,28.86" transform="translate(0 0.01)" style="fill:#fefefe"/><path d="M89.56,28.86A12.41,12.41,0,1,1,77.15,16.45,12.41,12.41,0,0,1,89.56,28.86" transform="translate(0 0.01)" style="fill:#fefefe"/><path d="M89.5,28.86A12.35,12.35,0,1,1,77.15,16.51,12.35,12.35,0,0,1,89.5,28.86" transform="translate(0 0.01)" style="fill:#fefefe"/><path d="M89.44,28.86A12.29,12.29,0,1,1,77.15,16.57,12.28,12.28,0,0,1,89.44,28.86" transform="translate(0 0.01)" style="fill:#fff"/><path d="M89.38,28.86A12.23,12.23,0,1,1,77.15,16.63,12.23,12.23,0,0,1,89.38,28.86" transform="translate(0 0.01)" style="fill:#fff"/><path d="M89.32,28.86A12.17,12.17,0,1,1,77.15,16.69,12.17,12.17,0,0,1,89.32,28.86" transform="translate(0 0.01)" style="fill:#fff"/><path d="M89.26,28.86A12.11,12.11,0,1,1,77.15,16.75,12.11,12.11,0,0,1,89.26,28.86" transform="translate(0 0.01)" style="fill:#fff"/><path d="M89.2,28.86a12,12,0,1,1-12-12,12,12,0,0,1,12,12.05" transform="translate(0 0.01)" style="fill:#fff"/><path d="M89.14,28.86a12,12,0,1,1-12-12,12,12,0,0,1,12,12" transform="translate(0 0.01)" style="fill:#fff"/><path d="M89.08,28.86A11.93,11.93,0,1,1,77.15,16.93,11.93,11.93,0,0,1,89.08,28.86" transform="translate(0 0.01)" style="fill:#fff"/><path d="M89,28.86A11.87,11.87,0,1,1,77.15,17,11.87,11.87,0,0,1,89,28.86" transform="translate(0 0.01)" style="fill:#fff"/><path d="M89,28.86A11.81,11.81,0,1,1,77.15,17.05,11.8,11.8,0,0,1,89,28.86" transform="translate(0 0.01)" style="fill:#fff"/><path d="M88.9,28.86A11.75,11.75,0,1,1,77.15,17.11,11.75,11.75,0,0,1,88.9,28.86" transform="translate(0 0.01)" style="fill:#fff"/><path d="M88.84,28.86A11.69,11.69,0,1,1,77.15,17.17,11.68,11.68,0,0,1,88.84,28.86" transform="translate(0 0.01)" style="fill:#fff"/><path d="M88.78,28.86A11.63,11.63,0,1,1,77.15,17.23,11.63,11.63,0,0,1,88.78,28.86" transform="translate(0 0.01)" style="fill:#fff"/><path d="M88.72,28.86A11.57,11.57,0,1,1,77.15,17.29,11.57,11.57,0,0,1,88.72,28.86" transform="translate(0 0.01)" style="fill:#fff"/><path d="M88.66,28.86A11.51,11.51,0,1,1,77.15,17.35,11.5,11.5,0,0,1,88.66,28.86" transform="translate(0 0.01)" style="fill:#fff"/></g><path d="M68.34,29l6.1,1c-.45,2,.84,3.2,3.33,3.52,2.25.29,3.86-.25,4-1.56.12-.92-.43-1.6-1.88-2.16a18.92,18.92,0,0,0-4.8-.8s.14-1.29.3-3.16a16.69,16.69,0,0,0,5.25.38c1-.16,1.81-.62,1.93-1.53.18-1.37-1.07-2.27-3.22-2.55-2.46-.31-3.86.63-4,2.42-3.67-.61-6-.87-6-.87.33-4.19,4.19-6.28,10.48-5.48,5.37.69,8.94,3.39,8.5,6.84-.27,2.1-2.26,3.23-4.49,3.4,2.41.73,4,2.43,3.74,4.71-.51,4-5.13,5.15-10.4,4.47-6.21-.79-9.93-3.77-8.9-8.65" transform="translate(0 0.01)" style="fill:#1d1d1b"/><path d="M98.55,16.37h-.77v2h-.33v-2h-.77v-.32h1.87Zm2.89,2h-.33v-2h0l-.79,2h-.21l-.77-2h0v2H99v-2.3h.55l.67,1.66.68-1.66h.55Z" transform="translate(0 0.01)" style="fill:#1d1d1b"/><path d="M60.38,28.7c1.1-1.38,2.84-3.55,5.19-6.39l2.45-3-3.85-.1s-2,0-5.53-.26l-1-.06-.61.79s-1.09,1.44-3.11,4c0-.67,0-1.36,0-2.08V19.74l-1.91,0h-1.4c-.8,0-2,0-3.39,0l-1.9,0v1.87a11.46,11.46,0,0,0-7.6-2.52,11.37,11.37,0,0,0-8.39,3.16c0-.61,0-1,0-1V19.38H27.46l-4.77,0a8.33,8.33,0,0,0-3.38-4.33c-2.32-1.51-5.68-2.28-10-2.28a56.75,56.75,0,0,0-7.69.61L0,13.64l0,1.64c.08,12.26,0,22.88,0,23L0,40.2l1.93-.05c1,0,2.34,0,3.92,0H8l1.9,0L9.8,32.21h.77c4.55,0,8-1.12,10.13-3.21,0,5.48,0,9.23,0,9.28V40.2l1.9,0,3.45,0h1.49l1.91,0,0-1.91v-.77a11.61,11.61,0,0,0,8.43,3.1,12.07,12.07,0,0,0,7.45-2.24v1.57l1.91,0s2.13,0,4.84,0l1.93,0L54,37.93s0-.78,0-2.25a1.68,1.68,0,0,1,.18-.21,1.24,1.24,0,0,1,.18-.22c.83,1.35,1.78,2.91,2.76,4.54l.61,1,1.18-.12s1.68-.16,5.33-.23l3.36-.07-1.83-2.82S63.39,34,60.38,28.7" transform="translate(0 0.01)" style="fill:#fff"/><path d="M1.89,15.27a55.61,55.61,0,0,1,7.43-.59c7.88,0,12,2.63,12,7.94,0,5.69-4.68,7.73-10.75,7.73-.86,0-1.75-.06-2.67-.15L8,38.25s-3.67,0-6.1,0c0,0,.09-10.6,0-23M7.81,25.88a21.31,21.31,0,0,0,2.52.17c3.38,0,5.16-1.09,5.16-3.61,0-2-1.4-3.38-5.31-3.38a18.14,18.14,0,0,0-2.4.18c0,2,0,3.44,0,6.64" transform="translate(0 0.01)" style="fill:#f88d2a"/><path d="M22.51,21.29s1.79,0,5,0c0,0,.05,8.15.12,17,0,0-2.37,0-5,0,0,0,0-7.49-.1-17" transform="translate(0 0.01)" style="fill:#f88d2a"/><path d="M28.41,29.8c0-5.45,3.55-8.88,9.34-8.88,5.39,0,8.32,3,8.88,6.8-4,.25-5.43.3-5.43.3a3.4,3.4,0,0,0-3.57-3.19c-2.59,0-3.91,2.11-3.91,4.9s1.44,5,4.06,5c2,0,3.42-1.17,3.77-3.62,3.57.13,5.45.27,5.45.27-.34,4.6-3.72,7.37-9.1,7.37-5.58,0-9.49-3.09-9.49-8.91" transform="translate(0 0.01)" style="fill:#f88d2a"/><path d="M54.54,32.08c-1.08,1.24-1.94,2.3-2.48,2.93,0,1.94,0,3,0,3-2.76,0-4.89,0-4.89,0V21.6c2.64,0,4.84,0,4.84,0,0,2.91,0,5.33,0,7.51,4.21-5.31,6.48-8.29,6.48-8.29,3.65.22,5.61.27,5.61.27-3,3.67-5.07,6.23-6,7.41,3.38,6,6,10,6,10-3.79.08-5.48.25-5.48.25-1.83-3.06-3.25-5.36-4.13-6.75" transform="translate(0 0.01)" style="fill:#f88d2a"/><rect x="42.45" y="44.16" width="2.45" height="2.41" transform="translate(-5.49 84.71) rotate(-84.75)" style="fill:#fff"/><g style="clip-path:url(#clip-path-3)"><path d="M47.44,47.27A2.39,2.39,0,0,1,46.31,47a3.17,3.17,0,0,1-2.19-5.08,3,3,0,0,1,1.62-1.68,3.43,3.43,0,0,1,1.47-.31,4.91,4.91,0,0,1,.62,0l.36,0a3.37,3.37,0,0,0,.4,0,.37.37,0,0,0,.35-.18.47.47,0,0,1,.39-.2h.12a.49.49,0,0,1,.36.41,1.65,1.65,0,0,1-.15,1h.18a5.52,5.52,0,0,0,2.54-.54.65.65,0,0,1,.2,0,.5.5,0,0,1,.26.08.49.49,0,0,1,.22.41,1.33,1.33,0,0,1-.19.62,5.94,5.94,0,0,1-1.15,1.41l.2.12.16.1a.49.49,0,0,1-.18.89,1,1,0,0,0-.69.46,2.3,2.3,0,0,1-.54.54.67.67,0,0,1,0,.24,3.9,3.9,0,0,1-3.19,1.85" transform="translate(0 0.01)" style="fill:#fff;fill-rule:evenodd"/><path d="M49.33,39.19a1,1,0,0,0-.77.38,1.81,1.81,0,0,1-.29,0l-.39-.05a5.67,5.67,0,0,0-.67,0,3.91,3.91,0,0,0-1.67.35,3.42,3.42,0,0,0-1.85,1.89,3.64,3.64,0,0,0,2.47,5.78,2.9,2.9,0,0,0,1.28.29,4.38,4.38,0,0,0,2.25-.7,3.7,3.7,0,0,0,1.39-1.44,1.54,1.54,0,0,0,.05-.17,3.38,3.38,0,0,0,.46-.5c.19-.23.21-.26.38-.29a1,1,0,0,0,.79-.76.93.93,0,0,0-.29-.89,6.39,6.39,0,0,0,.82-1.1h0a1.66,1.66,0,0,0,.25-.84,1,1,0,0,0-.43-.82,1,1,0,0,0-.53-.16,1.1,1.1,0,0,0-.4.08,4.88,4.88,0,0,1-1.88.49,2.64,2.64,0,0,0,0-.62.94.94,0,0,0-.71-.8l-.24,0m-1.7,7h0l0,0m1.7-6.08c.08.6-.1.87-.59,1.42.41,0,.77,0,1.1,0A6.18,6.18,0,0,0,52.58,41a.87.87,0,0,1-.14.4,5.45,5.45,0,0,1-1.13,1.35,7.54,7.54,0,0,1-.66.48h.14a1.8,1.8,0,0,1,1,.44c-.9.15-.92.8-1.49,1.13a1.78,1.78,0,0,1-1,.28h-.08a.68.68,0,0,0,.49.22,1.78,1.78,0,0,0,.45-.09,3.51,3.51,0,0,1-2.75,1.55,1.87,1.87,0,0,1-1-.27,2.68,2.68,0,0,1-1.9-4.38.06.06,0,0,0,0,0,2.46,2.46,0,0,1,1.38-1.43,3,3,0,0,1,1.27-.27c.18,0,.37,0,.57,0s.56.1.81.1a.86.86,0,0,0,.74-.39" transform="translate(0 0.01)" style="fill:#fff"/></g><path d="M38.83,44.55a1.51,1.51,0,1,0,1.79-1.5,1.66,1.66,0,0,0-1.79,1.5" transform="translate(0 0.01)" style="fill:#fff"/><path d="M38.85,43c-.14-.75.08-1.43.51-1.51s.88.46,1,1.21-.08,1.43-.5,1.51-.89-.46-1-1.21" transform="translate(0 0.01)" style="fill:#fff"/><path d="M42,43.06c.25-.73.12-1.43-.29-1.57s-.94.33-1.19,1.06-.12,1.42.29,1.56.94-.33,1.19-1" transform="translate(0 0.01)" style="fill:#fff"/><g style="clip-path:url(#clip-path-3)"><path d="M17,45.54a1,1,0,0,0-1.43.17,1.12,1.12,0,0,0,1.85,1.21A1,1,0,0,0,17,45.54" transform="translate(0 0.01)" style="fill:#fff"/><path d="M15.11,46.65c-.57.21-.91.71-.77,1.11a1,1,0,0,0,1.31.36c.57-.21.91-.71.77-1.12a1,1,0,0,0-1.31-.35" transform="translate(0 0.01)" style="fill:#fff"/><path d="M17.76,46.65c.58.21.92.71.77,1.11a1,1,0,0,1-1.3.36c-.58-.21-.92-.71-.77-1.12a1,1,0,0,1,1.3-.35" transform="translate(0 0.01)" style="fill:#fff"/><path d="M13.9,47.82a.37.37,0,0,1-.3-.14.38.38,0,0,1-.08-.31l1-5.21a.38.38,0,0,1,.38-.32h2.95a.37.37,0,0,1,.3.14.41.41,0,0,1,.08.32L18,43.39a.38.38,0,0,1-.38.31H16.27l-.05.28h1.11a.39.39,0,0,1,.3.14.38.38,0,0,1,.08.31l-.2,1.07a.39.39,0,0,1-.38.31H15.87l-.33,1.7a.38.38,0,0,1-.37.31Z" transform="translate(0 0.01)" style="fill:#fff"/><path d="M17.84,43Zm0-1.54H14.89a.77.77,0,0,0-.76.62l-1,5.21a.81.81,0,0,0,.16.64.78.78,0,0,0,.6.28h1.27a.76.76,0,0,0,.75-.63l.27-1.38h.94a.77.77,0,0,0,.76-.63l.19-1a.47.47,0,0,0,0-.17A.7.7,0,0,0,18,44a.76.76,0,0,0,.38-.52l.22-1.08a.81.81,0,0,0-.16-.64.78.78,0,0,0-.6-.28m0,.77-.22,1.08H16l-.2,1h1.58l-.2,1.07H15.55l-.38,2H13.9l1-5.21h2.95" transform="translate(0 0.01)" style="fill:#fff"/></g><path d="M17.69,47.82a.37.37,0,0,1-.3-.14.38.38,0,0,1-.08-.31l1-5.21a.38.38,0,0,1,.37-.32h1.27a.37.37,0,0,1,.3.14.41.41,0,0,1,.08.32l-1,5.21a.38.38,0,0,1-.38.31Z" transform="translate(0 0.01)" style="fill:#fff"/><path d="M19.94,43Zm0-1.54H18.67a.76.76,0,0,0-.75.62l-1,5.21a.77.77,0,0,0,.76.92H19a.77.77,0,0,0,.76-.63l1-5.21a.79.79,0,0,0-.16-.63.78.78,0,0,0-.6-.28m0,.77-1,5.21H17.69l1-5.21h1.27" transform="translate(0 0.01)" style="fill:#fff"/><path d="M22.19,44.12a.43.43,0,0,0,.34-.42c0-.08-.08-.13-.23-.13h0Zm.24,3.7a.39.39,0,0,1-.38-.28,10.54,10.54,0,0,1-.13-1.3,1,1,0,0,0-.07-.38l-.31,1.65a.39.39,0,0,1-.38.31H19.91a.41.41,0,0,1-.3-.14.38.38,0,0,1-.08-.31l1-5.11A.4.4,0,0,1,20.8,42a6.88,6.88,0,0,1,1.48-.14,2.84,2.84,0,0,1,1.58.36,1.54,1.54,0,0,1,.74,1.35,1.83,1.83,0,0,1-.88,1.61,2,2,0,0,1,.2.78c0,.16,0,.34,0,.52a6,6,0,0,0,.1.87.39.39,0,0,1-.05.36.38.38,0,0,1-.31.16Z" transform="translate(0 0.01)" style="fill:#fff"/><path d="M22.28,41.43a7.08,7.08,0,0,0-1.57.15.76.76,0,0,0-.58.6l-1,5.11a.78.78,0,0,0,.17.64.74.74,0,0,0,.59.28h1.25a.77.77,0,0,0,.63-.33.78.78,0,0,0,.63.33h1.29a.77.77,0,0,0,.63-.34.74.74,0,0,0,.09-.69c0-.12-.06-.52-.08-.78s0-.37-.05-.53a2.63,2.63,0,0,0-.11-.61,2.23,2.23,0,0,0,.8-1.74,1.9,1.9,0,0,0-.93-1.67,3.22,3.22,0,0,0-1.78-.42m-.56,3.09h.34a.82.82,0,0,0,.85-.82c0-.31-.25-.51-.61-.51a1.57,1.57,0,0,0-.34,0l-.24,1.31m.56-2.32a2.5,2.5,0,0,1,1.37.3,1.14,1.14,0,0,1,.57,1A1.52,1.52,0,0,1,23.1,45v0c.28.14.39.44.44.92a10,10,0,0,0,.17,1.49H22.42c0-.15-.08-.6-.12-1.22s-.2-.76-.56-.76h-.21l-.37,2H19.91l1-5.11a6.26,6.26,0,0,1,1.39-.13" transform="translate(0 0.01)" style="fill:#fff"/><path d="M24.33,47.82a.37.37,0,0,1-.3-.14.38.38,0,0,1-.08-.31l1-5.21a.38.38,0,0,1,.38-.32h3a.37.37,0,0,1,.3.14.41.41,0,0,1,.08.32l-.22,1.09a.38.38,0,0,1-.37.31H26.7l0,.15h1.15a.37.37,0,0,1,.3.14.38.38,0,0,1,.08.31L28,45.37a.38.38,0,0,1-.38.31H26.32l-.06.28h1.35a.37.37,0,0,1,.3.14.41.41,0,0,1,.08.32l-.21,1.09a.38.38,0,0,1-.38.31Z" transform="translate(0 0.01)" style="fill:#fff"/><path d="M28.29,43Zm0-1.54h-3a.77.77,0,0,0-.76.62l-1,5.21a.81.81,0,0,0,.16.64.78.78,0,0,0,.6.28H27.4a.77.77,0,0,0,.76-.63l.2-1.06a.5.5,0,0,0,0-.17.78.78,0,0,0-.2-.53.82.82,0,0,0,.19-.37l.21-1.07a.77.77,0,0,0,0-.45.76.76,0,0,0,.3-.47L29,42.4a.47.47,0,0,0,0-.17.76.76,0,0,0-.77-.77m-.68,4.89h0m.68-4.12-.21,1.08h-1.7l-.18.92h1.62l-.21,1.07H26l-.2,1.05h1.81l-.21,1.09H24.33l1-5.21h3m0,0h0" transform="translate(0 0.01)" style="fill:#fff"/><path d="M30.48,43.85c.14,0,.26-.08.26-.22s0-.09-.18-.09h0ZM30,46.09c.17,0,.43-.09.43-.32s0-.19-.33-.21Zm-.55,1.77a7,7,0,0,1-1.39-.11.38.38,0,0,1-.3-.44l1-5.06a.41.41,0,0,1,.3-.31,7.61,7.61,0,0,1,1.44-.13,2.77,2.77,0,0,1,1.5.33,1.45,1.45,0,0,1,.79,1.3,1.58,1.58,0,0,1-.65,1.29,1.58,1.58,0,0,1,.41,1.09,1.83,1.83,0,0,1-.85,1.53,3.9,3.9,0,0,1-2.21.51" transform="translate(0 0.01)" style="fill:#fff"/><path d="M30.5,41.43a7.64,7.64,0,0,0-1.52.14.77.77,0,0,0-.6.61l-.95,5a.76.76,0,0,0,.6.9,7.8,7.8,0,0,0,1.46.11,4.18,4.18,0,0,0,2.42-.57,2.23,2.23,0,0,0,1-1.85,2,2,0,0,0-.28-1,2,2,0,0,0,.52-1.34,1.83,1.83,0,0,0-1-1.63,3.13,3.13,0,0,0-1.69-.38m-.59,5.06c.51,0,.94-.25.94-.72s-.33-.6-.8-.6h-.23l-.25,1.3a1.83,1.83,0,0,0,.34,0M30,44.25h.25c.54,0,.86-.24.86-.62s-.22-.47-.57-.47a1.06,1.06,0,0,0-.34,0L30,44.25m.48-2a2.44,2.44,0,0,1,1.31.27,1.08,1.08,0,0,1,.59,1,1.3,1.3,0,0,1-1,1.24v0a1.12,1.12,0,0,1,.77,1.12A1.46,1.46,0,0,1,31.48,47a3.54,3.54,0,0,1-2,.44,7.49,7.49,0,0,1-1.31-.09l1-5.06a6.74,6.74,0,0,1,1.36-.12" transform="translate(0 0.01)" style="fill:#fff"/><path d="M35.25,47.82a.39.39,0,0,1-.39-.37l0-.8h-.59l-.37.93a.38.38,0,0,1-.36.24H32.19a.37.37,0,0,1-.32-.17.4.4,0,0,1,0-.37l2.36-5.21a.39.39,0,0,1,.35-.23h1.61a.4.4,0,0,1,.39.36l.39,5.21a.38.38,0,0,1-.1.29.38.38,0,0,1-.28.12Z" transform="translate(0 0.01)" style="fill:#fff"/><path d="M36.16,41.46H34.55a.77.77,0,0,0-.7.45l-2.36,5.21a.78.78,0,0,0,.06.74.75.75,0,0,0,.64.35h1.33a.76.76,0,0,0,.71-.48l.24-.59v.32a.77.77,0,0,0,.77.75h1.31a.77.77,0,0,0,.56-.25.73.73,0,0,0,.2-.58l-.39-5.21a.77.77,0,0,0-.77-.71m-1.83,3.86h.86l0-1c0-.29,0-.78,0-1.12h0c-.13.34-.28.83-.41,1.12l-.39,1m1.83-3.09.4,5.21H35.25l0-1.18H34l-.47,1.18H32.19l2.36-5.21h1.61" transform="translate(0 0.01)" style="fill:#fff"/><path d="M37.07,47.82a.37.37,0,0,1-.29-.14.35.35,0,0,1-.09-.31l1-5.21a.39.39,0,0,1,.38-.32h1.27a.39.39,0,0,1,.3.14.41.41,0,0,1,.08.32L39,46h1.27a.37.37,0,0,1,.3.14.4.4,0,0,1,.08.32l-.21,1.1a.38.38,0,0,1-.38.31Z" transform="translate(0 0.01)" style="fill:#fff"/><path d="M39.33,43Zm0-1.54H38.06a.75.75,0,0,0-.75.62l-1,5.21a.74.74,0,0,0,.16.64.76.76,0,0,0,.59.28h3a.77.77,0,0,0,.76-.63L41,46.5a.47.47,0,0,0,0-.17.77.77,0,0,0-.77-.77h-.8l.61-3.19a.76.76,0,0,0-.17-.63.74.74,0,0,0-.59-.28m1,4.87h0m-1-4.1-.78,4.1h1.73l-.21,1.11h-3l1-5.21h1.27" transform="translate(0 0.01)" style="fill:#fff"/><path d="M40.66,47.82a.41.41,0,0,1-.3-.14.38.38,0,0,1-.08-.31l1-5.21a.39.39,0,0,1,.38-.32h1.27a.37.37,0,0,1,.29.14.38.38,0,0,1,.09.32L42.6,46h1.27a.41.41,0,0,1,.3.14.4.4,0,0,1,.08.32L44,47.51a.39.39,0,0,1-.38.31Z" transform="translate(0 0.01)" style="fill:#fff"/><path d="M42.92,43Zm0-1.54H41.65a.77.77,0,0,0-.76.62l-1,5.21a.78.78,0,0,0,.17.64.74.74,0,0,0,.59.28h3a.77.77,0,0,0,.76-.63l.2-1.08a.88.88,0,0,0,0-.17.77.77,0,0,0-.77-.77h-.8l.61-3.19a.78.78,0,0,0-.76-.91m.95,4.87h0m-.95-4.1-.78,4.1h1.73l-.21,1.11h-3l1-5.21h1.27" transform="translate(0 0.01)" style="fill:#fff"/><polygon points="13.85 47.52 14.85 42.22 17.89 42.22 17.66 43.39 15.99 43.39 15.8 44.36 17.38 44.36 17.17 45.51 15.59 45.51 15.2 47.52 13.85 47.52" style="fill:#fbba07"/><path d="M18,42.17H14.82l0,.07-1,5.21,0,.11h1.45v-.07l.37-1.94H17.2l0-.07.2-1.07,0-.11H15.85l.18-.87H17.7v-.07l.22-1.08Zm-.11.09-.22,1.08H16l-.2,1h1.58l-.2,1.07H15.55l-.38,2H13.9l1-5.21h2.95" transform="translate(0 0.01)" style="fill:#fbba07"/><polygon points="17.63 47.52 18.64 42.22 20 42.22 18.99 47.52 17.63 47.52" style="fill:#fbba07"/><path d="M20.05,42.17H18.6v.07l-1,5.21,0,.11H19v-.07l1-5.22Zm-.11.09-1,5.21H17.69l1-5.21h1.27" transform="translate(0 0.01)" style="fill:#fbba07"/><path d="M22.06,44.5a.77.77,0,0,0,.81-.76c0-.29-.22-.48-.57-.48l-.3,0-.23,1.22Zm.33,3v0a10.27,10.27,0,0,1-.12-1.23c0-.6-.21-.72-.52-.72h-.18l-.37,2H19.86l1-5.19h0a6.11,6.11,0,0,1,1.4-.14,2.44,2.44,0,0,1,1.39.31,1.19,1.19,0,0,1,.59,1.06,1.54,1.54,0,0,1-1.08,1.5c.23.15.35.43.4.92,0,.16,0,.34.05.52a4.85,4.85,0,0,0,.12,1l0,.06Z" transform="translate(0 0.01)" style="fill:#fbba07"/><path d="M22,43.32l.26,0c.32,0,.52.17.52.44a.72.72,0,0,1-.76.72h-.23Zm.24-1.18a6.91,6.91,0,0,0-1.41.13l-.06,0v.05l-1,5.11,0,.11h1.42v-.07l.36-1.91h.14c.29,0,.44.1.47.67a9.75,9.75,0,0,0,.13,1.24l0,.07h1.48l-.05-.12a5,5,0,0,1-.12-1c0-.17,0-.35,0-.51a1.31,1.31,0,0,0-.36-.91,1.59,1.59,0,0,0,1-1.51,1.23,1.23,0,0,0-.62-1.1,2.5,2.5,0,0,0-1.41-.31m-.56,2.41h.34a.82.82,0,0,0,.85-.81c0-.32-.25-.52-.61-.52l-.34,0-.24,1.31m.56-2.32a2.5,2.5,0,0,1,1.37.3,1.14,1.14,0,0,1,.57,1A1.52,1.52,0,0,1,23.1,45v0c.28.14.39.45.44.92a10,10,0,0,0,.17,1.49H22.42c0-.15-.08-.6-.12-1.22s-.2-.76-.56-.76h-.21l-.37,2H19.91l1-5.11a6.26,6.26,0,0,1,1.39-.13" transform="translate(0 0.01)" style="fill:#fbba07"/><polygon points="24.27 47.52 25.28 42.22 28.34 42.22 28.11 43.39 26.42 43.39 26.25 44.23 27.87 44.23 27.65 45.38 26.04 45.38 25.85 46.34 27.66 46.34 27.44 47.52 24.27 47.52" style="fill:#fbba07"/><path d="M28.4,42.17H25.24v.07l-1,5.21,0,.11h3.26v-.07l.21-1.09,0-.11H25.9l.18-.87h1.6l0-.08.21-1.06,0-.11H26.3l.15-.74h1.7v-.07l.22-1.08Zm-.11.09-.21,1.08h-1.7l-.18.92h1.62l-.21,1.07H26l-.2,1.05h1.81l-.21,1.09H24.33l1-5.21h3" transform="translate(0 0.01)" style="fill:#fbba07"/><path d="M30.27,44.24c.51,0,.82-.21.82-.57s-.2-.44-.53-.44l-.31,0-.18,1Zm-.64,2.23h.28c.44,0,.9-.21.9-.68s-.25-.55-.76-.55h-.19Zm-.14,1.07a7.38,7.38,0,0,1-1.32-.09h0l1-5.13h0a6.85,6.85,0,0,1,1.37-.13,2.47,2.47,0,0,1,1.33.29,1.12,1.12,0,0,1,.62,1,1.33,1.33,0,0,1-1,1.25,1.19,1.19,0,0,1,.71,1.13,1.52,1.52,0,0,1-.71,1.25,3.59,3.59,0,0,1-2,.44" transform="translate(0 0.01)" style="fill:#fbba07"/><path d="M29.89,45.29h.16c.64,0,.71.29.71.51s-.22.63-.85.63h-.23Zm.4-2,.27,0c.3,0,.48.15.48.4s-.29.53-.77.53h-.15Zm.21-1.15a7,7,0,0,0-1.38.13h-.05v0l-1,5.06,0,.09h.09a6.35,6.35,0,0,0,1.32.1,3.6,3.6,0,0,0,2-.46,1.54,1.54,0,0,0,.72-1.28,1.2,1.2,0,0,0-.64-1.12,1.37,1.37,0,0,0,.88-1.26,1.16,1.16,0,0,0-.64-1,2.54,2.54,0,0,0-1.35-.29m-.59,4.38c.51,0,.94-.25.94-.72s-.33-.6-.8-.6h-.23l-.25,1.3a1.83,1.83,0,0,0,.34,0M30,44.28h.25c.54,0,.86-.24.86-.61s-.22-.48-.57-.48a1.06,1.06,0,0,0-.34,0L30,44.28m.48-2.05a2.36,2.36,0,0,1,1.31.28,1.06,1.06,0,0,1,.59,1,1.3,1.3,0,0,1-1,1.24v0a1.13,1.13,0,0,1,.77,1.12,1.46,1.46,0,0,1-.69,1.21,3.54,3.54,0,0,1-2,.44,7.49,7.49,0,0,1-1.31-.09l1-5.06a6.74,6.74,0,0,1,1.36-.12" transform="translate(0 0.01)" style="fill:#fbba07"/><path d="M35.15,45.31l0-1c0-.19,0-.45,0-.71v-.22c0,.1-.07.21-.11.31s-.16.47-.24.64l-.37.93Zm.06,2.2,0-1.17H34l-.47,1.17H32.13l2.4-5.29H36.2l.4,5.29Z" transform="translate(0 0.01)" style="fill:#fbba07"/><path d="M34.46,45.26l.34-.87a6.05,6.05,0,0,0,.24-.63l0-.08c0,.25,0,.5,0,.69l0,.89Zm1.78-3.09H34.5l0,0-2.35,5.21-.06.13h1.52l0-.06.45-1.12h1.08l0,1.09v.09h1.49v-.1l-.39-5.21Zm-1.91,3.18h.86l0-1c0-.29,0-.78,0-1.12h0c-.13.34-.28.83-.41,1.12l-.39,1m1.83-3.09.4,5.21H35.25l0-1.18H34l-.47,1.18H32.19l2.36-5.21h1.61" transform="translate(0 0.01)" style="fill:#fbba07"/><polygon points="37.02 47.52 38.03 42.22 39.38 42.22 38.6 46.33 40.33 46.33 40.11 47.52 37.02 47.52" style="fill:#fbba07"/><path d="M39.44,42.17H38v.07l-1,5.21,0,.11h3.17l0-.07.21-1.11,0-.1H38.65l.77-4Zm-.11.09-.78,4.1h1.73l-.21,1.11h-3l1-5.21h1.27" transform="translate(0 0.01)" style="fill:#fbba07"/><polygon points="40.61 47.52 41.61 42.22 42.97 42.22 42.19 46.33 43.92 46.33 43.7 47.52 40.61 47.52" style="fill:#fbba07"/><path d="M43,42.17H41.58l0,.07-1,5.21,0,.11h3.18l0-.07.2-1.11,0-.1H42.24l.76-4Zm-.1.09-.78,4.1h1.73l-.21,1.11h-3l1-5.21h1.27" transform="translate(0 0.01)" style="fill:#fbba07"/><path d="M47.63,46.21l0,0h0Zm2.54-1a.79.79,0,0,1-.93-.12,1.79,1.79,0,0,0,1.07-.28c.57-.33.59-1,1.48-1.12-.44-.28-.65-.48-1.16-.43a7.54,7.54,0,0,0,.66-.48,5.36,5.36,0,0,0,1.12-1.34.79.79,0,0,0,.13-.4,6.61,6.61,0,0,1-3.8.53c.49-.54.66-.81.58-1.4-.43.58-.94.34-1.54.28a3.21,3.21,0,0,0-1.82.23,2.46,2.46,0,0,0-1.37,1.42v0a2.66,2.66,0,0,0,1.89,4.35c1.37.84,3.39-.53,3.7-1.28" transform="translate(0 0.01)" style="fill:#fbba07;fill-rule:evenodd"/><g style="clip-path:url(#clip-path-3)"><path d="M47.45,46.93a2.14,2.14,0,0,1-1-.26,2.84,2.84,0,0,1-2-4.6h0a2.52,2.52,0,0,1,1.46-1.53,3.41,3.41,0,0,1,1.91-.24l.34,0c.44.08.76.13,1-.26l.25-.34.06.42a1.45,1.45,0,0,1-.39,1.28,6.35,6.35,0,0,0,3.37-.53l.25-.12v.28a1.13,1.13,0,0,1-.15.47,5.59,5.59,0,0,1-1.17,1.39,3.32,3.32,0,0,1-.27.22,1.86,1.86,0,0,1,.59.31l.54.35-.44.07a1.23,1.23,0,0,0-.87.58,2,2,0,0,1-.56.52h0l.1,0-.15.35a3.5,3.5,0,0,1-2,1.49,3,3,0,0,1-.91.15m-.23-6.33a2.71,2.71,0,0,0-1.19.25,2.22,2.22,0,0,0-1.27,1.32l0,.09a2.49,2.49,0,0,0,1.77,4.06l.08,0a2,2,0,0,0,1.69.1,3.78,3.78,0,0,0,1.54-1,.89.89,0,0,1-.67-.25l-.34-.32h.46a1.69,1.69,0,0,0,1.44-.69,1.7,1.7,0,0,1,.69-.59,1,1,0,0,0-.73-.2L50,43.5l.54-.37.25-.17a3.45,3.45,0,0,0,.39-.3,5.16,5.16,0,0,0,1.09-1.29h0a7,7,0,0,1-3.54.39l-.34,0,.23-.27a1.77,1.77,0,0,0,.55-.88,1.42,1.42,0,0,1-1.07.1l-.33,0a4.89,4.89,0,0,0-.54,0m.5,5.75-.09-.15L47.57,46h0l0,.07,0-.07.14.31v0Z" transform="translate(0 0.01)" style="fill:#fbba07"/></g><path d="M47.18,45.76h0m2-.65c-.31.08-.49.09-.71-.13a1.31,1.31,0,0,0,.83-.18c.46-.22.5-.72,1.19-.79-.33-.24-.48-.4-.88-.38a4.4,4.4,0,0,0,.53-.34,4.5,4.5,0,0,0,.92-1,.63.63,0,0,0,.11-.3,5.12,5.12,0,0,1-2.94.25c.39-.4.54-.59.5-1-.35.43-.74.22-1.19.15a2.53,2.53,0,0,0-1.41.11,1.85,1.85,0,0,0-1.11,1,0,0,0,0,0,0,0,2.05,2.05,0,0,0,1.27,3.42c1,.7,2.63-.27,2.9-.83" transform="translate(0 0.01)" style="fill:#f28e00;fill-rule:evenodd"/><path d="M47.11,46.21a1.45,1.45,0,0,1-.85-.25A2.07,2.07,0,0,1,45,42.51v0a1.83,1.83,0,0,1,1.12-1.05,2.47,2.47,0,0,1,1.42-.11l.26.05c.34.08.64.14.91-.2l0,0v.06c0,.46-.1.66-.48,1a5.16,5.16,0,0,0,2.9-.26h0v0a.57.57,0,0,1-.11.31h0a4.06,4.06,0,0,1-.92,1,2.94,2.94,0,0,1-.33.23l-.13.08a1.05,1.05,0,0,1,.69.29l.12.09,0,0h-.06a1.09,1.09,0,0,0-.77.44,1.29,1.29,0,0,1-.41.35,1.33,1.33,0,0,1-.78.18c.19.17.35.17.64.09h.05l0,0a2.61,2.61,0,0,1-1.51,1,2.37,2.37,0,0,1-.57.08m-.17-4.89a2.06,2.06,0,0,0-.82.16,1.78,1.78,0,0,0-1.09,1v0h0a2,2,0,0,0,1.26,3.38h0a1.68,1.68,0,0,0,1.39.17,2.67,2.67,0,0,0,1.46-1,.59.59,0,0,1-.69-.15l0,0h.06a1.35,1.35,0,0,0,.82-.18,1,1,0,0,0,.4-.34,1.14,1.14,0,0,1,.74-.45l-.08-.05a1,1,0,0,0-.69-.29h-.13l.07,0,.19-.12a2.08,2.08,0,0,0,.33-.22,4.22,4.22,0,0,0,.92-1h0a.59.59,0,0,0,.11-.24,5.26,5.26,0,0,1-2.93.24h0l0,0c.38-.38.53-.57.5-1a.82.82,0,0,1-.92.17l-.26-.05a3.9,3.9,0,0,0-.58,0m.24,4.46v0h0l0,0h0" transform="translate(0 0.01)" style="fill:#f28e00"/><path d="M48.51,43.9a2.06,2.06,0,1,1-2-2,2.05,2.05,0,0,1,2,2" transform="translate(0 0.01)" style="fill:#e24a11;fill-rule:evenodd"/><path d="M2,46.55a.26.26,0,0,1-.18-.09.24.24,0,0,1-.06-.2l.49-3.07A.25.25,0,0,1,2.48,43H3.9A1.38,1.38,0,0,1,5,43.4a1.17,1.17,0,0,1,.23,1,1.39,1.39,0,0,1-1.42,1.23H3.42l-.11.72a.25.25,0,0,1-.24.21Zm1.64-2.22,0,0h0Z" transform="translate(0 0.01)" style="fill:#f88d2a"/><path d="M3.9,43.22c.71,0,1.19.37,1.06,1.13a1.14,1.14,0,0,1-1.17,1H3.21l-.14.92H2l.49-3.08H3.9M3.34,44.6h.11c.2,0,.41,0,.45-.28s-.19-.26-.37-.26H3.42l-.08.54m.56-1.86H2.48a.48.48,0,0,0-.48.41l-.49,3.08a.5.5,0,0,0,.11.39.5.5,0,0,0,.37.17H3.07a.49.49,0,0,0,.48-.41l.08-.52h.16a1.62,1.62,0,0,0,1.66-1.43,1.4,1.4,0,0,0-.29-1.19,1.58,1.58,0,0,0-1.26-.5" transform="translate(0 0.01)" style="fill:#fff"/><path d="M5.12,46.55a.26.26,0,0,1-.19-.09.24.24,0,0,1,0-.2l.48-3.07A.25.25,0,0,1,5.6,43H6.72a.21.21,0,0,1,.18.09.22.22,0,0,1,.06.19l-.29,1.81h.66a.21.21,0,0,1,.18.09.22.22,0,0,1,.06.19l-.16,1a.25.25,0,0,1-.24.21Z" transform="translate(0 0.01)" style="fill:#f88d2a"/><path d="M6.72,43.22l-.33,2.09h.94l-.16,1h-2l.48-3.08H6.72m0-.48H5.6a.48.48,0,0,0-.48.41l-.49,3.08a.48.48,0,0,0,.49.56H7.17a.49.49,0,0,0,.48-.41l.16-1A.5.5,0,0,0,7.7,45a.5.5,0,0,0-.37-.17H7L7.2,43.3a.5.5,0,0,0-.11-.39.48.48,0,0,0-.37-.17" transform="translate(0 0.01)" style="fill:#fff"/><path d="M8.88,46.59a1.54,1.54,0,0,1-1.22-.45A1.35,1.35,0,0,1,7.42,45l.29-1.82A.25.25,0,0,1,8,43H9.07a.21.21,0,0,1,.18.09.22.22,0,0,1,.06.19L9,45a.7.7,0,0,0,0,.16H9c.09,0,.11,0,.14-.24l.27-1.71A.25.25,0,0,1,9.68,43H10.8a.25.25,0,0,1,.19.09.25.25,0,0,1,0,.19l-.29,1.82a1.72,1.72,0,0,1-1.87,1.51" transform="translate(0 0.01)" style="fill:#f88d2a"/><path d="M10.8,43.22,10.51,45a1.48,1.48,0,0,1-1.63,1.31c-.86,0-1.36-.41-1.22-1.31L8,43.22H9.07L8.8,44.94c0,.24-.07.45.23.45s.34-.21.38-.45l.27-1.72H10.8m0-.48H9.68a.46.46,0,0,0-.3.11.51.51,0,0,0-.31-.11H8a.48.48,0,0,0-.48.41L7.18,45a1.56,1.56,0,0,0,.3,1.33,1.72,1.72,0,0,0,1.4.54A2,2,0,0,0,11,45.12l.29-1.82a.5.5,0,0,0-.11-.39.48.48,0,0,0-.37-.17" transform="translate(0 0.01)" style="fill:#fff"/><path d="M11.83,46.59a2.67,2.67,0,0,1-1.26-.31.24.24,0,0,1-.1-.33l.48-.87L11,45a.87.87,0,0,1-.18-.73,1.73,1.73,0,0,1,1.76-1.35,1.83,1.83,0,0,1,1.06.31.24.24,0,0,1,.08.32l-.42.79,0,0a.94.94,0,0,1,.29.9,1.66,1.66,0,0,1-1.74,1.3" transform="translate(0 0.01)" style="fill:#f88d2a"/><path d="M12.59,43.17a1.66,1.66,0,0,1,.93.27l-.43.79a1,1,0,0,0-.61-.23c-.1,0-.25,0-.27.16s.12.13.2.15l.25.06c.45.11.75.36.67.88a1.42,1.42,0,0,1-1.5,1.1,2.43,2.43,0,0,1-1.14-.28l.48-.87.05,0a1,1,0,0,0,.65.28c.11,0,.29-.05.32-.19s-.13-.15-.23-.17l-.21,0c-.43-.08-.76-.33-.68-.82a1.49,1.49,0,0,1,1.52-1.14m0-.48a2,2,0,0,0-2,1.55,1.11,1.11,0,0,0,.13.77l-.46.83a.49.49,0,0,0,.19.66,3.06,3.06,0,0,0,1.38.34,1.9,1.9,0,0,0,2-1.51,1.18,1.18,0,0,0-.23-1l.36-.68a.49.49,0,0,0-.15-.64,2.14,2.14,0,0,0-1.2-.35" transform="translate(0 0.01)" style="fill:#fff"/><path d="M55.29,42.7a1.17,1.17,0,0,1-1.19,1.18,1.18,1.18,0,1,1,0-2.35,1.17,1.17,0,0,1,1.19,1.17m-2.1,0a.91.91,0,0,0,.91.93.93.93,0,0,0,0-1.86.91.91,0,0,0-.91.93m.72.61h-.27V42.14a2.64,2.64,0,0,1,.45,0,.7.7,0,0,1,.4.08.31.31,0,0,1,.12.26.29.29,0,0,1-.24.27h0a.37.37,0,0,1,.21.29,1,1,0,0,0,.08.29h-.29a1.44,1.44,0,0,1-.09-.29c0-.12-.09-.18-.24-.18h-.13Zm0-.66h.13c.14,0,.27,0,.27-.17s-.08-.18-.25-.18h-.15Z" transform="translate(0 0.01)" style="fill:#fff"/></g></g></svg>