<svg version="1.1" id="Layer_1" xmlns="http://www.w3.org/2000/svg" xlink="http://www.w3.org/1999/xlink" x="0px" y="0px" viewBox="193.5 306 2207.7 951.3" enable-background="193.5 306 2207.7 951.3" space="preserve">
<path fill="#00733D" d="M1758,575c0,0-23.8-177.6-121.1-269L1200,469.8c0,0,107.7,27,119.4,37.7l-137.6,170.4l95.3,206.2l144.2-36.4
	C1421.3,847.7,1518.1,635.4,1758,575z"/>
<path fill="#006D37" d="M2104.4,939.7c0,0,227.3-51.4,296.8-161.3l-232.2-413.3c0,0-2.6,98.5-18.5,138.9l-430.9-188.2
	c0,0,101.7,176.5,90.3,261.8C1810,577.7,2084.2,635.5,2104.4,939.7z"/>
<path fill="#7AC142" d="M1850.8,563.8c0,0-21.1-144.2-57.2-187.3L2127.8,519c0,0-22.9,139.8-64.2,187.3l-23.7-27.3
	c0,0,54.5-126.6,51.9-139.8l-222.5-87.9c0,0,11.4,89.7,5.3,118.7L1850.8,563.8z"/>
<path fill="#7AC142" d="M2083.3,751.6c0,0,111.7-149.5,122.2-194.3l124,217.2c0,0-104.6,85.3-204,116.1l-1.8,17.6
	c0,0,185.5-51.9,242.7-136.3l-176.8-313.9c0,0-33.4,182-128.4,256.8L2083.3,751.6z"/>
<path fill="#7AC142" d="M1696,560.3l32.5-3.5c0,0-10.6-143.3-96.7-228.6l-342.1,135.4c0,0,201.4,64.2,243.6,164.4l34.3-22
	c0,0-117-113.4-183.8-149.5l232.2-95.9C1616,360.7,1706.5,517.2,1696,560.3z"/>
<path fill="#7AC142" d="M1498.1,661.5l15.8-13.2c0,0-117-117-175.9-119.6l-99.4,122.2l35.2,7.9l71.2-86.2L1498.1,661.5z"/>
<path fill="#7AC142" d="M1653.5,464.3c-0.5-1.4-2.2-2.2-3.6-1.6l-12.2,4.6c-1.8-4.5-3.9-9.3-6.4-14.5l13-4.9
	c1.4-0.5,2.2-2.2,1.6-3.6c-0.5-1.4-2.2-2.2-3.6-1.6l-13.5,5c-2.4-4.9-5.2-10.1-8.3-15.7c-4.9-8.7-13.2-15.1-23-17
	c-12.1-2.3-28.2,0.2-39.9,22.5c-3.5,6.8-4.1,14.7-1.7,21.9c1.3,3.9,2.8,8.6,4.3,13.9l-38.7,14.5c-1.7-9.5-1.7-20.7,1.5-33.5
	c0,0,10.3,21.6,21.8,6.1c2.8-3.8,3.8-8.7,2.7-13.3c-1.4-6.2-5-14.2-14.1-15.3c-8.2-1-15.8,4.3-18.5,12.1c-3.4,9.7-6.7,26.2-1.3,46.9
	l-17,6.4c-1.4,0.5-2.2,2.2-1.6,3.6c0.5,1.4,2.2,2.2,3.6,1.6l16.7-6.2c1.5,4.7,3.5,9.6,6.1,14.7l-17.2,6.4c-1.4,0.5-2.2,2.2-1.6,3.6
	c0.5,1.4,2.2,2.2,3.6,1.6l17.9-6.7c5.3,9.4,12.6,19.3,22.5,29.5c0,0,41.6,30,57.4-24.7c0,0,3.4-10.5-2-33.9l31.5-11.8
	c1.7,7.5,2.3,15.8,1.3,24.8c-2.3-1.2-4.9-1.9-7.7-1.9c-8.2,0-14.8,5.8-14.8,13c0,7.2,6.6,13,14.8,13c6,0,11.2-3.2,13.5-7.7
	c4.9-4.6,9.3-15.8-0.8-43.6l12.1-4.5C1653.3,467.3,1654.1,465.7,1653.5,464.3z M1592.8,451.6c0.9-4.7,3.2-11.1,9.5-14.6
	c4.7-2.6,10.6-1.3,14,2.9c2,2.5,4.4,5.8,6.8,9.8l-29.4,11C1592.6,457.8,1592.2,454.6,1592.8,451.6z M1522.8,493.2l39-14.6
	c1.4,5,2.6,10.4,3.6,15.6l-36.7,13.7C1526.3,503.7,1524.3,498.7,1522.8,493.2z M1548.5,531c0,0-9.1-6-17-18.1l34.8-13
	C1569.3,519.9,1567.1,537,1548.5,531z M1600.5,481.1c-1.2-4.6-2.8-9.7-4.8-15.1l30.3-11.3c2.2,4.3,4.3,9.2,6,14.7L1600.5,481.1z"/>
<path fill="#7AC142" d="M1429.3,645.9c-1.2-1-3-0.8-4,0.4l-8.2,10.1c-3.8-2.9-8.1-6-12.9-9.2l8.7-10.8c1-1.2,0.8-3-0.4-4
	c-1.2-1-3-0.8-4,0.4l-9,11.2c-4.6-3-9.6-6-15.2-9.2c-8.6-5-19.1-6.3-28.5-2.8c-11.6,4.2-24.2,14.6-22.8,39.7
	c0.4,7.6,3.9,14.7,9.7,19.7c3.1,2.7,6.8,6,10.8,9.7l-25.9,32.2c-6.3-7.3-12-16.9-15.8-29.6c0,0,19.9,13.4,21.8-5.9
	c0.5-4.7-1.2-9.4-4.5-12.8c-4.4-4.6-11.5-9.7-20-6c-7.5,3.3-11.4,11.8-9.8,19.8c2,10,7.6,26,22.8,41l-11.4,14.2c-1,1.2-0.8,3,0.4,4
	c1.2,1,3,0.8,4-0.4l11.2-13.9c3.7,3.3,8,6.5,12.7,9.5l-11.5,14.3c-1,1.2-0.8,3,0.4,4c1.2,1,3,0.8,4-0.4l12-14.9
	c9.4,5.4,20.7,10.2,34.4,13.9c0,0,51,4.6,36.7-50.5c0,0-2.4-10.8-19-28.1l21.1-26.2c5.2,5.6,10.1,12.4,13.8,20.7
	c-2.6,0.1-5.2,0.8-7.6,2.3c-7,4.2-9.8,12.6-6.1,18.8c3.7,6.2,12.4,7.8,19.4,3.6c5.2-3.1,8-8.4,7.7-13.5c1.9-6.4-0.1-18.4-22.9-37.1
	l8.1-10.1C1430.7,648.7,1430.5,646.9,1429.3,645.9z M1370.6,666c-1.6-4.5-2.9-11.2,0.7-17.4c2.7-4.7,8.5-6.5,13.5-4.6
	c3,1.1,6.8,2.7,10.9,4.9l-19.7,24.5C1373.6,671.4,1371.7,668.9,1370.6,666z M1331.7,737.5l26.1-32.4c3.7,3.6,7.5,7.6,11.1,11.6
	l-24.6,30.6C1340,744.7,1335.7,741.5,1331.7,737.5z M1373,757c0,0-10.9-0.5-23.8-6.9l23.3-29C1385.3,736.8,1392.1,752.6,1373,757z
	 M1392.3,687.5c-3.4-3.3-7.4-6.9-11.9-10.6l20.3-25.2c4.1,2.6,8.4,5.7,12.6,9.6L1392.3,687.5z"/>
<path fill="#7AC142" d="M2243.6,694.3c-1.2-1-3-0.8-4,0.4l-8.2,10.1c-3.8-2.9-8.1-6-12.9-9.2l8.7-10.8c1-1.2,0.8-3-0.4-4
	c-1.2-1-3-0.8-4,0.4l-9,11.2c-4.6-3-9.6-6-15.2-9.2c-8.6-5-19.1-6.3-28.5-2.8c-11.6,4.2-24.2,14.6-22.8,39.7
	c0.4,7.6,3.9,14.7,9.7,19.7c3.1,2.7,6.8,6,10.8,9.7l-25.9,32.2c-6.3-7.3-12-16.9-15.8-29.6c0,0,19.9,13.4,21.8-5.9
	c0.5-4.7-1.2-9.4-4.5-12.8c-4.4-4.6-11.5-9.7-20-6c-7.5,3.3-11.4,11.8-9.8,19.8c2,10,7.6,26,22.8,41l-11.4,14.2c-1,1.2-0.8,3,0.4,4
	s3,0.8,4-0.4l11.2-13.9c3.7,3.3,8,6.5,12.7,9.5l-11.5,14.3c-1,1.2-0.8,3,0.4,4c1.2,1,3,0.8,4-0.4l12-14.9
	c9.4,5.4,20.7,10.2,34.4,13.9c0,0,51,4.6,36.7-50.5c0,0-2.4-10.8-19-28.1l21.1-26.2c5.2,5.6,10.1,12.4,13.8,20.7
	c-2.6,0.1-5.2,0.8-7.6,2.3c-7,4.2-9.8,12.6-6.1,18.8c3.7,6.2,12.4,7.8,19.4,3.6c5.2-3.1,8-8.4,7.7-13.5c1.9-6.4-0.1-18.4-22.9-37.1
	l8.1-10.1C2245,697.1,2244.8,695.3,2243.6,694.3z M2184.9,714.4c-1.6-4.5-2.9-11.2,0.7-17.4c2.7-4.7,8.5-6.5,13.5-4.6
	c3,1.1,6.8,2.7,10.9,4.9l-19.7,24.5C2187.9,719.8,2186,717.3,2184.9,714.4z M2145.9,785.9l26.1-32.4c3.7,3.6,7.5,7.6,11.1,11.6
	l-24.6,30.6C2154.3,793.1,2150,789.9,2145.9,785.9z M2187.3,805.3c0,0-10.9-0.5-23.8-6.9l23.3-29
	C2199.6,785.1,2206.4,800.9,2187.3,805.3z M2206.6,735.9c-3.4-3.3-7.4-6.9-11.9-10.6l20.3-25.2c4.1,2.6,8.4,5.7,12.6,9.6
	L2206.6,735.9z"/>
<text transform="matrix(1 0 0 1 2348.8672 619.0488)" font-family="&apos;MyriadPro-Regular&apos;" font-size="106.5607px">&#x422;&#x41C;</text>
<radialGradient id="SVGID_1_" cx="1901.5034" cy="738.7164" r="140.2363" gradientUnits="userSpaceOnUse">
	<stop offset="0" style="stop-color:#FFFFFF"/>
	<stop offset="1" style="stop-color:#F9A451"/>
</radialGradient>
<circle fill="url(#SVGID_1_)" stroke="#00703C" stroke-width="19" stroke-miterlimit="10" cx="1759.1" cy="906.3" r="344.2"/>
<path fill="#006D37" d="M1781.1,1162.1c-7,0-12.7-1.6-16.1-2.9c-32-7.9-43.5-51.3-36.2-136.1c-16.2,5.8-31.5,10.5-45.5,14
	c-4.5,1.1-9.2,1.7-13.8,1.7c-27.6,0-51.3-19.6-56.4-46.7c-21.5-115.4,34.3-228.2,51.9-260c4.3-7.8,10.1-14.5,17.3-19.9
	c25.8-19.5,43.7-28.2,57.8-28.2c9.7,0,18.1,3.9,23.6,11.1c6.6,8.6,8.2,20.4,4.6,34.3c-0.8,2.9-1.9,5.7-3.4,8.3
	c-41,72.9-50.4,153.2-52.5,191.9l31.5-7.1c19.4-136.2,57.9-203.2,73.6-225.9c5.4-7.8,12.8-14.3,21.4-18.7
	c11.4-5.9,20.6-8.6,28.9-8.6c10.7,0,20,4.8,25.5,13.2c9.9,15.3,3.8,36.9-3,52.3c-22.4,57.4-32.8,132.3-36.9,169.2
	c4.6-0.4,9-0.6,13.2-0.6c4.2,0,8.1,0.2,11.7,0.6c10,1.1,19,6.2,24.7,14c5.8,8,7.3,17.6,4.3,26.8c-3.8,11.7-14.9,27.3-67.6,45.8
	c6.3,80.4-1.5,131.2-23.7,155.5C1803.8,1159.4,1790.3,1162.1,1781.1,1162.1z"/>
<path fill="#FFFFFF" d="M1690.9,937.9c1.2-37.8,9.2-128.1,55.6-210.5c0.6-1,1-2.1,1.3-3.3c2.2-8.5,7.7-40.8-52.9,5
	c-4.7,3.6-8.7,8.1-11.5,13.3c-16.3,29.4-69.9,137.1-49.6,245.9c3.8,20.4,24.2,33.4,44.4,28.4c13.7-3.4,31.4-8.7,53.3-17
	c9.9-3.8,20.3,4.2,19.3,14.7c-4.1,40.5-8.3,119.5,20.5,124.7c0,0,62.4,31.2,46.9-151.8c-0.6-6.5,3.4-12.6,9.6-14.7
	c22.1-7.4,69.7-25.8,58-42.1c-2.2-3.1-5.9-4.9-9.7-5.3c-5.2-0.5-14.8-1-28.5,0.9c-9.1,1.2-17-6.3-16.1-15.5
	c3.6-36.6,14.2-119.4,39.2-183.5c0.1-0.2,0.2-0.4,0.3-0.7c1.9-4.2,22.7-52.8-22.4-29.6c-5.5,2.8-10.2,6.9-13.7,12
	c-14.3,20.5-52,85.6-70.7,221.4c-0.8,5.9-5.2,10.7-11,12l-44.9,10.1C1699.2,954.2,1690.6,947.2,1690.9,937.9z"/>
<g>
	<path fill="#006E37" d="M1495.3,1090.1c-0.5-0.3-0.8-0.8-0.8-1.4V954.1c0-40.6-4.2-82.8-35.1-117.5c-1.3-1.4-2.6-2.8-4-4.3
		l-1.1-1.2l-1.7-1.6c-11.6-10.8-25.9-18.2-41.5-21.5c-9.3-1.9-19.1-2.9-29.3-2.9c-19,0-40,3.4-62.6,10.2c-1,0.3-2-0.4-2-1.5v-90.1
		c0-39.5-32.2-71.6-71.7-71.6c-4.6,0-9.3,0.5-13.9,1.4c-2.1,0.4-4.3,0.8-6.2,1.1l-1.5,0.2l-6,1c-0.1,0-0.2,0-0.3,0.1l-5.7,2
		c-15.3,5.5-41.2,13.6-72.9,22.7c-19.2,5.5-34.3,9.7-38.1,10.7c-4.9,1.2-9.5,3-13.9,5.3c-1,0.5-2.3-0.2-2.3-1.3l-0.7-30.2
		c0-0.9-0.7-1.6-1.6-1.5L921,667.4c-0.9,0-1.6,0.7-1.5,1.6l1.7,70c0,0.6-0.3,1.1-0.8,1.4c-5.7,3.1-11.2,6.4-16.5,10
		c-0.2,0.2-0.5,0.3-0.8,0.3l-111.5,6.7c-33.7,2-79.4,8.3-119.3,25.6c-0.9,0.4-2-0.2-2.1-1.2c-2.5-13.7-8.9-26.5-18.5-36.7
		c-13.7-14.6-33-22.9-53-22.9c-11.7,0-23.1,2.8-33.3,8.1c-0.4,0.2-0.9,0.2-1.4,0c-29-13.6-62.6-20-105-20
		c-75.2,0-143.2,27.9-191.5,78.6c-48.4,50.8-74,119.3-74,198.2c0,79.7,25.1,147.5,72.5,195.9c47.6,48.6,114.1,74.3,192.5,74.3
		c25,0,47.9-3.4,69.5-10.2l0.2,2.3h140.9c0.9,0,1.6-0.8,1.6-1.7l-3.7-67.9c-0.2-4.3-0.3-10.1-0.2-16.2c0-1,0.9-1.7,1.8-1.5
		c7.6,1.2,15.4,1.8,23.4,1.8c5.9,0,11.9-0.3,18-1c0.1,0,0.1,0,0.2,0c1.5,0,2.9,0.1,4.4,0.1c16.3,0,32.1-2.1,47.2-6.4
		c0.5-0.1,1,0,1.4,0.3c14.4,11.4,37.1,22.7,70.4,22.7c10.3,0,21.5-1.1,33.1-3.3c31.2-3.6,55.8-16.3,77.7-29.6c1-0.6,2-1.3,3.1-1.9
		l1,42.1c0,0.9,0.7,1.6,1.6,1.5l109.7-2.7c0.6,0,1.1,0.3,1.4,0.8c12.3,23.1,36.6,38,63.4,38l1,0l1.7-0.1c15.3-0.6,57.6-1.9,83.6-1.9
		c21.7,0,44.7,1,59.9,1.7l3.1,0.1c1.1,0.1,2.2,0.1,3.3,0.1c5,0,10-0.5,14.9-1.5c0.2,0,0.4,0,0.6,0c4.9,1,9.9,1.6,15,1.6l1.1,0
		l1.9-0.1c13.8-0.6,52.7-1.9,78.7-1.9c21.7,0,47.1,1.1,64,1.7l5,0.2l1.9,0c24.7,0,47.5-12.4,61.3-34.2c7.1-11.3,10.4-24.5,10.4-37.8
		v0C1531.7,1126.1,1517.7,1102.6,1495.3,1090.1z M532.4,992.3c-4.3,8.3-7,17.3-7.9,26.6c-3,30.3-14.7,56.7-30.6,69l-3.2,2.5
		c-0.1,0-0.1,0.1-0.2,0.1l-2.9,2.9c-3.9,3.9-13.3,7.9-23.6,7.9c-6.2,0-11.6,0-18-7.9c-7.7-9.7-20.7-36.7-20.7-108.5
		c0-43.2,9.3-124.9,44.7-124.9c10.1,0,19.4,3.3,25.3,9.2l2.3,2.3c0,0,0.1,0.1,0.1,0.1l2,1.6c0.1,0.1,0.2,0.2,0.3,0.3
		c1.6,2.1,11.2,17.2,19,83.4c1.4,12.1,6,23.8,13.1,33.8C532.7,991.2,532.7,991.8,532.4,992.3z"/>
	<path fill="#FFFFFF" d="M1468.1,1107.9c0-0.5,0-1,0-1.6V954.1c0-35.3-3.4-71.9-28.3-99.8c-1.1-1.2-2.2-2.4-3.5-3.6l-0.6-0.7l-1-0.9
		c-8.1-7.6-18-12.8-29-15.1c-7.5-1.6-15.6-2.3-24-2.3c-21.9,0-47.3,5.4-75.4,16.1c-5.3,2-10.5,4.1-15.6,6.3V723.8
		c0-24.9-20.3-45.2-45.3-45.2c-2.9,0-5.9,0.3-8.8,0.9c-2.4,0.5-4.9,0.9-7.4,1.3l-1.3,0.2l-3.7,0.6l-3.5,1.3
		c-15.9,5.7-42.3,13.9-74.5,23.2c-19.5,5.6-34.9,9.9-38.9,10.9c-11.7,3-21.5,10.9-26.9,21.7c-0.9,1.9-1.7,3.8-2.3,5.7
		c-3.2,2-6.1,4.3-8.7,6.9c-3.2-0.9-6.5-1.8-9.9-2.5l-1.4-58.4l-111.6,2.7l1.5,63.6c-13.2,5.2-25,11.9-35.1,19.9l-119.7,7.2
		c-37.2,2.3-110.3,11.5-150.6,48.6c0.5-7.6,0.9-14.7,1.4-21.1c0.3-4.9,0.6-9.4,0.9-13.5c0.8-12.7-3.7-25.3-12.4-34.6
		c-8.7-9.3-21-14.6-33.8-14.6c-12.3,0-23.7,4.9-32.1,13c-29.2-17.5-62-24.9-107.6-24.9c-67.9,0-129.1,25-172.4,70.4
		c-43.7,45.8-66.7,108-66.7,180c0,148.1,93.7,243.8,238.6,243.8c39.4,0,68.3-9.3,92.3-22l1.3,14.1h90.7l-2.3-41.7
		c-0.7-11.9,0-31.8,0.8-55.1c13.9,6.8,30.6,11.2,50.5,11.2c5.5,0,11.3-0.3,17.1-1c1.9,0.1,3.7,0.1,5.5,0.1
		c19.5,0,37.9-3.6,54.6-10.4c0.1,0.2,0.3,0.4,0.4,0.5c10.3,12.1,29.8,26.5,63.8,26.5c0,0,0,0,0,0c9,0,18.8-1,29.2-3
		c26.6-2.9,48.4-14.2,68.1-26.1c4.6-2.8,8.5-6.3,11.8-10.4c5.4-1.3,10.4-3.4,14.9-6.4c4.4,0.7,9.6,1.3,15.5,1.8l1.3,52.3l105.3-2.6
		c2.9,22.1,21.9,39.3,44.9,39.3l1,0l0.8,0c15.5-0.6,58.3-1.9,84.6-1.9c22.2,0,45.6,1.1,61.1,1.8l3.1,0.1c0.7,0,1.4,0,2,0
		c5.3,0,10.4-0.9,15.2-2.6c4.8,1.7,9.9,2.6,15.2,2.6l1.1,0l0.9,0c14-0.6,53.5-1.9,79.9-1.9c22.3,0,48,1.1,65,1.8l5,0.2
		c0,0,0.8,0,0.8,0c12,0,23.2-4.6,31.8-13c8.6-8.4,13.6-20.2,13.6-32.3v-0.5C1505.3,1130.4,1489.4,1111.8,1468.1,1107.9z
		 M550.8,1021.5c-3.7,37.8-18.9,70.5-40.7,87.3l-2,1.5l-1.8,1.8c-9.5,9.5-26.1,15.7-42.2,15.7c-16.1,0-65.1,0-65.1-142.8
		c0-35.5,5.1-151.3,71.1-151.3c16.9,0,32.8,6.1,43.7,16.6l1.4,1.4l1.6,1.2c12.2,9.7,21.9,43.6,28.6,100.9
		c1.8,15.2,10.8,28.1,23.4,35.1C558.9,996.5,552.1,1008.1,550.8,1021.5z M638.3,948.4c0-0.2,0-0.4,0-0.6c0.1,0.1,0.3,0.2,0.4,0.3
		C638.5,948.2,638.4,948.3,638.3,948.4z M1128.1,1106.4c-1.4,0.4-3.6,0.7-6.4,0.9c-15.9,0.9-29.4,9.8-36.9,22.7l-0.7-28.4
		c16.5-5.4,31.3-12.8,43.9-21.8C1128.1,1096.3,1128.1,1106.4,1128.1,1106.4z M1305.2,1106.4c0,0.3,0,0.5,0,0.7
		c-0.4,0.1-0.9,0.1-1.4,0.2c-4.1,0.3-8.1,1.2-11.8,2.5c-0.4-0.2-0.9-0.3-1.3-0.4c0-0.9,0-1.9,0-3V959.3c6.6-3.4,11.3-5.2,14.5-6
		V1106.4z"/>
	<path fill="#00733D" d="M566.5,817.4c4.1,3.3,8,5,11,5c7.3,0,18.1,1.4,21.5-16.1c0.6-3.1,3.4-5.4,6.6-5.4h0c3.9,0,6.9,3.3,6.7,7.1
		c-2,30.9-6.6,91.5-6.6,153.1c0,3.9-3.1,7-7,7l0,0c-3.6,0-6.5-2.7-6.9-6.2c-5.9-50.4-15.3-105.1-43.3-127.3
		c-18.7-18.2-44.6-27.8-71.3-27.8c-80.9,0-110.6,91.2-110.6,190.8c0,101,24,182.3,104.6,182.3c24.8,0,52-9.1,70.2-27.3
		c28.1-21.7,50.7-62,55.8-114.7c0.3-3.5,3.4-6.2,6.9-6.2l0,0c3.8,0,6.9,3.1,6.9,6.9c0,68.6-4.7,128.3-3.1,157.4H595
		c-2.2-23.1-5.8-33.3-13.8-33.3c-3.3,0-7.2,1.7-11.8,4.7c-27.5,19.5-55.6,36.6-104,36.6c-119.5,0-199-75.1-199-204.2
		c0-126.1,82.3-210.9,199.6-210.9C515.5,789.1,541.8,798.4,566.5,817.4z"/>
	<path fill="#00733D" d="M924.8,1085.3c-1.5-2.9-5.2-3.9-7.8-2c-6.8,4.6-15.4,10.8-21.9,11.2c-9.3,0.5-11.1-5.1-9.3-22.5L901,925.2
		c3.9-37.7,2.5-59.7-12.6-77.8c-16.6-19.8-43.2-18.1-80.1-21.9l0,0c-27.4,1.7-137.7,11.9-141.7,69.3c-0.7,9.5,3.1,18.7,10.2,25.1
		c10.1,9.1,28,18.2,49-0.9c30.7-27.8,23.5-82.9,66-82.4c27.8,4,33.5,13,30.8,39.1l-4.4,42.2c-2.4,23.2-36.5,30-80.3,40.7
		c-21.7,5.1-39.5,11.2-53.3,19c-17.8,7.8-53.9,29.3-47.4,74.7c0,0,14.3,56.3,82.4,46.6c0.1,0,0.2,0,0.2,0
		c30.8,1.9,62.7-8.4,84.4-35.3c-2.6,16.6-4.3,63.8,65,49.5c20.8-1.8,38.7-11.8,53.5-20.8C925.2,1090.9,926.1,1087.8,924.8,1085.3z
		 M763.6,1068.7c-20.4-2.1-34.6-15.8-31.5-45.6c2.9-27.6,18.3-43.1,36.1-54.5c4.3-1.4,30.8-10.1,46.3-14.7l-10,96.8
		C790.8,1065.6,777.6,1070.1,763.6,1068.7z"/>
	<path fill="#00733D" d="M1465.5,1154c-22.8-1.3-31.7-11.2-31.7-40.4V961.3c0-38.3-5.4-59-18.2-73.4c-0.8-0.9-1.7-1.8-2.6-2.6
		c0,0,0,0,0,0c-2.8-2.7-6.3-4.5-10.1-5.3c-22.7-4.7-51.2,2.1-77.3,12c-25,9.5-47.7,21.8-60.9,29.5c-7.5,4.4-12,7.3-12,7.3l3.8-26.4
		c0-2.8,0-2.6,0-3.9v-14.6V731.1c0-3.6-3.3-6.2-6.9-5.5c-2.9,0.6-5.8,1.1-8.8,1.6c-0.4,0.1-0.9,0.1-1.3,0.2
		c-20.4,7.3-51.7,16.7-76.9,24c-19.6,5.7-35.6,10-40,11.2c-1.2,0.3-1.9,1.7-1.4,2.9c1,2.5,5.7,6.7,22.6,12
		c10.7,3.4,20.9,12.1,29.2,21.6v314.7c0,29.2-20.9,39.1-43.8,40.4c-3.1,0.2-5.5,2.6-5.5,5.6v0.5c0,3.2,2.7,5.8,6,5.7
		c17.3-0.7,59.8-2,86.2-2c24.7,0,50.7,1.3,66,1.9c3.3,0.1,6-2.4,6-5.7v-0.5c0-3-2.4-5.4-5.4-5.7c-18.9-1.5-26.1-11.5-26.1-40.4
		V956.1c0-4.3,0.3-8.5,1-12.5c67.5-45.1,87.2-16,92.7,9.7v160.3c0,28.8-19,38.9-37.9,40.4c-3.1,0.2-5.4,2.6-5.4,5.6v0.5
		c0,3.2,2.7,5.8,6,5.7c15.9-0.7,55.5-2,81.6-2c25,0,54,1.3,70.6,2c3.3,0.1,6-2.4,6-5.7v-0.5C1471,1156.6,1468.5,1154.2,1465.5,1154z
		"/>
	<path fill="#00733D" d="M1143.2,995.7c-0.1-0.9-0.2-1.9-0.3-2.8c-0.4-3.2-0.6-6.5-0.5-9.7c2.3-59.3-80.6-86.8-115.2-95.6
		c-0.6-0.2-1.2-0.4-1.7-0.7c-19-12-32.9-24.9-34.4-44c-0.7-8.7,1.5-16.1,5.7-21.9c0.7-0.9,1.6-1.7,2.7-2.1
		c24-9.5,59.1-6.2,99.6,55.3c0.4,0.6,0.7,1.2,0.9,1.9c0.5,1.6,0.9,3.2,1.3,4.8c0.8,3.1,3.6,5.1,6.8,4.9l0.2,0
		c3.5-0.3,6.2-3.4,5.9-6.9c-2.9-38,0.6-66,0.6-84.3c0-3.7-3.1-6.5-6.8-6.2l-0.2,0c-3,0.2-5.4,2.4-5.9,5.3c-1.6,10-5.6,15-11.4,15.4
		c-3.1,0.2-6.5-0.8-10.7-2.8c-9.6-4.8-28.8-10.7-53.2-11.3l-1.3-52.8l-32.5,0.8l1.3,54.5c-45.1,8.2-80.7,36.2-77.4,78.3
		c0.5,6.1,1.6,11.7,3.4,17c0.1,0.4,0.2,0.8,0.3,1.3c2,23.4,15.1,55.9,69.4,70c8.3,2.2,16.3,5.6,23.7,10.2
		c26,16.3,44.3,31.2,46.3,56.7c1.3,17.1-6.1,28.2-16.7,34.5c-1,0.6-2.3,0.9-3.5,0.8c-35.1-1.3-59.5-14.7-75.6-28.6
		c-9-7.7-15.5-17.9-19.3-29.1c-2.4-7.1-4.4-14.6-6.2-22.6c-0.7-3.1-3.6-5.2-6.8-5l-0.3,0c-3.6,0.3-6.2,3.4-5.9,6.9
		c3.4,44.2,5,71.3,5.4,92.1c0.1,3.7,3.3,6.7,7,6.4c0.1,0,0.2,0,0.2,0c2.9-0.2,5.2-2.3,5.9-5c0.1-0.5,0.2-0.9,0.4-1.4
		c1-3.5,4.7-5.5,8.2-4.4c15.7,5.2,44.4,6.6,64.7,6.9l1.2,49.5l32.5-0.8l-1.2-49.9C1104.5,1074.1,1146.7,1041.3,1143.2,995.7z"/>
	<path fill="#7AC142" d="M554.2,801.2c4.1,3.3,8,5,11,5c7.3,0,18.1,1.4,21.5-16.1c0.6-3.1,3.4-5.4,6.6-5.4l0,0
		c3.9,0,6.9,3.3,6.7,7.1c-2,30.9-6.6,91.5-6.6,153.1c0,3.9-3.1,7-7,7l0,0c-3.6,0-6.5-2.7-6.9-6.2c-5.9-50.4-15.3-105.1-43.3-127.3
		c-18.7-18.2-44.6-27.8-71.3-27.8c-80.9,0-110.6,91.2-110.6,190.8c0,101,24,182.3,104.6,182.3c24.8,0,52-9.1,70.2-27.3
		c28.1-21.7,50.7-62,55.8-114.7c0.3-3.5,3.4-6.2,6.9-6.2l0,0c3.8,0,6.9,3.1,6.9,6.9c0,68.6-4.7,128.3-3.1,157.4h-12.9
		c-2.2-23.1-5.8-33.3-13.8-33.3c-3.3,0-7.2,1.7-11.8,4.7c-27.5,19.5-55.6,36.6-104,36.6c-119.5,0-199-75.1-199-204.2
		c0-126.1,82.3-210.9,199.6-210.9C503.1,772.8,529.5,782.2,554.2,801.2z"/>
	<path fill="#00A4E3" d="M906.8,1079.6c-1.5-2.9-5.2-3.9-7.8-2c-6.8,4.6-15.4,10.8-21.9,11.2c-9.3,0.5-11.1-5.1-9.3-22.5L883,919.5
		c3.9-37.7,2.5-59.7-12.6-77.8c-16.6-19.8-43.2-18.1-80.1-21.9l0,0c-27.4,1.7-137.7,11.9-141.7,69.3c-0.7,9.5,3.1,18.7,10.2,25.1
		c10.1,9.1,28,18.2,49-0.9c30.7-27.8,23.5-82.9,66-82.4c27.8,4,33.5,13,30.8,39.1l-4.4,42.2c-2.4,23.2-36.5,30-80.3,40.7
		c-21.7,5.1-39.5,11.2-53.3,19c-17.8,7.8-53.9,29.3-47.4,74.7c0,0,14.3,56.3,82.4,46.6c0.1,0,0.2,0,0.2,0
		c30.8,1.9,62.7-8.4,84.4-35.3c-2.6,16.6-4.3,63.8,65,49.5c20.8-1.8,38.7-11.8,53.5-20.8C907.2,1085.2,908.1,1082.1,906.8,1079.6z
		 M745.6,1062.9c-20.4-2.1-34.6-15.8-31.5-45.6c2.9-27.6,18.3-43.1,36.1-54.5c4.3-1.4,30.8-10.1,46.3-14.7l-10,96.8
		C772.8,1059.9,759.6,1064.4,745.6,1062.9z"/>
	<path fill="#00A4E3" d="M1454.9,1143.2c-22.8-1.3-31.7-11.2-31.7-40.4V950.6c0-38.3-5.4-59-18.2-73.4c-0.8-0.9-1.7-1.8-2.6-2.6
		c0,0,0,0,0,0c-2.8-2.7-6.3-4.5-10.1-5.3c-22.7-4.7-51.2,2.1-77.3,12c-25,9.5-47.7,21.8-60.9,29.5c-7.5,4.4-12,7.3-12,7.3l3.8-26.4
		c0-2.8,0-2.6,0-3.9V873V720.3c0-3.6-3.3-6.2-6.9-5.5c-2.9,0.6-5.8,1.1-8.8,1.6c-0.4,0.1-0.9,0.1-1.3,0.2
		c-20.4,7.3-51.7,16.7-76.9,24c-19.6,5.7-35.6,10-40,11.2c-1.2,0.3-1.9,1.7-1.4,2.9c1,2.5,5.7,6.7,22.6,12
		c10.7,3.4,20.9,12.1,29.2,21.6v314.7c0,29.2-20.9,39.1-43.8,40.4c-3.1,0.2-5.5,2.6-5.5,5.6v0.5c0,3.2,2.7,5.8,6,5.7
		c17.3-0.7,59.8-2,86.2-2c24.7,0,50.7,1.3,66,1.9c3.3,0.1,6-2.4,6-5.7v-0.5c0-3-2.4-5.4-5.4-5.7c-18.9-1.5-26.1-11.5-26.1-40.4
		V945.3c0-4.3,0.3-8.5,1-12.5c67.5-45.1,87.2-16,92.7,9.7v160.3c0,28.8-19,38.9-37.9,40.4c-3.1,0.2-5.4,2.6-5.4,5.6v0.5
		c0,3.2,2.7,5.8,6,5.7c15.9-0.7,55.5-2,81.6-2c25,0,54,1.3,70.6,2c3.3,0.1,6-2.4,6-5.7v-0.5
		C1460.4,1145.9,1458,1143.4,1454.9,1143.2z"/>
	<path fill="#7AC142" d="M1131.9,981c-0.1-0.9-0.2-1.9-0.3-2.8c-0.4-3.2-0.6-6.5-0.5-9.7c2.3-59.3-80.6-86.8-115.2-95.6
		c-0.6-0.2-1.2-0.4-1.7-0.7c-19-12-32.9-24.9-34.4-44c-0.7-8.7,1.5-16.1,5.7-21.9c0.7-0.9,1.6-1.7,2.7-2.1
		c24-9.5,59.1-6.2,99.6,55.3c0.4,0.6,0.7,1.2,0.9,1.9c0.5,1.6,0.9,3.2,1.3,4.8c0.8,3.1,3.6,5.1,6.8,4.9l0.2,0
		c3.5-0.3,6.2-3.4,5.9-6.9c-2.9-38,0.6-66,0.6-84.3c0-3.7-3.1-6.5-6.8-6.2l-0.2,0c-3,0.2-5.4,2.4-5.9,5.3c-1.6,10-5.6,15-11.4,15.4
		c-3.1,0.2-6.5-0.8-10.7-2.8c-9.6-4.8-28.8-10.7-53.2-11.3l-1.3-52.8l-32.5,0.8l1.3,54.5c-45.1,8.2-80.7,36.2-77.4,78.3
		c0.5,6.1,1.6,11.7,3.4,17c0.1,0.4,0.2,0.8,0.3,1.3c2,23.4,15.1,55.9,69.4,70c8.3,2.2,16.3,5.6,23.7,10.2
		c26,16.3,44.3,31.2,46.3,56.7c1.3,17.1-6.1,28.2-16.7,34.5c-1,0.6-2.3,0.9-3.5,0.8c-35.1-1.3-59.5-14.7-75.6-28.6
		c-9-7.7-15.5-17.9-19.3-29.1c-2.4-7.1-4.4-14.6-6.2-22.6c-0.7-3.1-3.6-5.2-6.8-5l-0.3,0c-3.6,0.3-6.2,3.4-5.9,6.9
		c3.4,44.2,5,71.3,5.4,92.1c0.1,3.7,3.3,6.7,7,6.4c0.1,0,0.2,0,0.2,0c2.9-0.2,5.2-2.3,5.9-5c0.1-0.5,0.2-0.9,0.4-1.4
		c1-3.5,4.7-5.5,8.2-4.4c15.7,5.2,44.4,6.6,64.7,6.9l1.2,49.5l32.5-0.8l-1.2-49.9C1093.3,1059.4,1135.5,1026.5,1131.9,981z"/>
</g>
</svg>
