<svg version="1.1" id="Layer_1" xmlns="http://www.w3.org/2000/svg" xlink="http://www.w3.org/1999/xlink" x="0px" y="0px" viewBox="29.7 77.1 365.8 129.20000000000002" enable-background="29.7 77.1 365.8 129.20000000000002" space="preserve">
<circle fill="#093D82" cx="333.1" cy="143.9" r="62.4"/>
<path fill="#E7AE3E" d="M35.7,184.9V86.8h32.7c11.5,0,19.9,2.9,25.2,8.6c5.3,5.6,8,14.7,8,27.1c0,11.5-2.4,19.9-7.1,25.3
	c-4.8,5.4-12.4,8.1-22.8,8.1h-8.6v28.9L35.7,184.9L35.7,184.9z M63.2,114.1v16.3h4.3c2.7,0,4.6-0.7,5.9-2.2c1.4-1.3,2.1-3.3,2.1-5.9
	c0-2.4-0.7-4.4-2.1-6c-1.3-1.5-3.3-2.2-5.9-2.2H63.2z"/>
<path fill="#E7AE3E" d="M106,184.9v-100h30.4v100H106z"/>
<path fill="#E7AE3E" d="M198,124.1c-2.4-3-5-5.2-7.8-6.6c-2.8-1.5-5.6-2.3-8.4-2.3c-4.6,0-8.2,1.7-11,5.2c-2.8,3.4-4.2,8-4.2,13.7
	s1.3,10.2,4,13.5s6.2,4.9,10.7,4.9c2.7,0,5.4-0.7,8.3-2.1c3-1.6,6-3.9,9-6.7l-0.9,35.9c-3.3,1.6-6.3,2.7-9.1,3.3
	c-2.9,0.8-6,1.2-9.1,1.2c-3.8,0-7.5-0.5-11-1.6c-3.4-0.9-6.6-2.4-9.5-4.4c-6.9-5-12.1-11.1-15.6-18.4c-3.5-7.5-5.3-16-5.3-25.6
	c0-7.3,1-13.9,3-19.7c1.9-5.9,4.8-11.3,8.7-16.2c3.9-4.7,8.3-8.3,13.4-10.7c5.1-2.4,10.6-3.6,16.5-3.6c3.1,0,6.2,0.4,9.4,1.2
	c3.1,0.9,6.1,2.1,8.9,3.6L198,124.1L198,124.1z"/>
<path fill="#E7AE3E" d="M202.8,183.5V86.2H231v41.5l18.2-41.5h32.5l-24.1,48l27.5,49.4h-34.8L231,142.8v40.7H202.8z"/>
<path fill="#FFFFFF" d="M31.7,180.6v-98h32.7c11.5,0,19.9,2.9,25.2,8.6c5.3,5.6,8,14.7,8,27.1c0,11.5-2.4,19.9-7.1,25.3
	c-4.8,5.4-12.4,8.1-22.8,8.1h-8.6v28.9L31.7,180.6L31.7,180.6z M59.2,109.9v16.3h4.3c2.7,0,4.6-0.7,5.9-2.2c1.4-1.3,2.1-3.3,2.1-5.9
	c0-2.4-0.7-4.4-2.1-6c-1.3-1.5-3.3-2.2-5.9-2.2H59.2z"/>
<path fill="#FFFFFF" d="M102,180.6v-100h30.4v100H102z"/>
<path fill="#FFFFFF" d="M194,119.8c-2.4-3-5-5.2-7.8-6.6c-2.8-1.5-5.6-2.3-8.4-2.3c-4.6,0-8.2,1.7-11,5.2c-2.8,3.4-4.2,8-4.2,13.7
	c0,5.7,1.3,10.2,4,13.5s6.2,4.9,10.7,4.9c2.7,0,5.4-0.7,8.3-2.1c3-1.6,6-3.9,9-6.7l-0.9,35.9c-3.3,1.6-6.3,2.7-9.1,3.3
	c-2.9,0.8-6,1.2-9.1,1.2c-3.8,0-7.5-0.5-11-1.6c-3.4-0.9-6.6-2.4-9.5-4.4c-6.9-5-12.1-11.1-15.6-18.4c-3.5-7.5-5.3-16-5.3-25.6
	c0-7.3,1-13.9,3-19.7c1.9-5.9,4.8-11.3,8.7-16.2c3.9-4.7,8.3-8.3,13.4-10.7c5.1-2.4,10.6-3.6,16.5-3.6c3.1,0,6.2,0.4,9.4,1.2
	c3.1,0.9,6.1,2.1,8.9,3.6L194,119.8L194,119.8z"/>
<path fill="#FFFFFF" d="M198.8,179.3V81.9H227v41.5l18.2-41.5h32.5l-24.1,48l27.5,49.4h-34.8L227,138.6v40.7H198.8z"/>
<g>
	<linearGradient id="SVGID_1_" gradientUnits="userSpaceOnUse" x1="29.7" y1="129.06" x2="95.6" y2="129.06">
		<stop offset="0" style="stop-color:#0A6BB3"/>
		<stop offset="1" style="stop-color:#043A79"/>
	</linearGradient>
	<path fill="url(#SVGID_1_)" d="M29.7,178.1v-98h32.7c11.5,0,19.9,2.9,25.2,8.6c5.3,5.6,8,14.7,8,27.1c0,11.5-2.4,19.9-7.1,25.3
		c-4.8,5.4-12.4,8.1-22.8,8.1h-8.6v28.9L29.7,178.1L29.7,178.1z M57.2,107.4v16.3h4.3c2.7,0,4.6-0.7,5.9-2.2
		c1.4-1.3,2.1-3.3,2.1-5.9c0-2.4-0.7-4.4-2.1-6c-1.3-1.5-3.3-2.2-5.9-2.2H57.2z"/>
	<linearGradient id="SVGID_2_" gradientUnits="userSpaceOnUse" x1="100" y1="128.06" x2="130.4" y2="128.06">
		<stop offset="0" style="stop-color:#0A6BB3"/>
		<stop offset="1" style="stop-color:#043A79"/>
	</linearGradient>
	<path fill="url(#SVGID_2_)" d="M100,178.1v-100h30.4v100H100z"/>
	<linearGradient id="SVGID_3_" gradientUnits="userSpaceOnUse" x1="132.1" y1="127.16" x2="192.6" y2="127.16">
		<stop offset="0" style="stop-color:#0A6BB3"/>
		<stop offset="1" style="stop-color:#043A79"/>
	</linearGradient>
	<path fill="url(#SVGID_3_)" d="M192,117.3c-2.4-3-5-5.2-7.8-6.6c-2.8-1.5-5.6-2.3-8.4-2.3c-4.6,0-8.2,1.7-11,5.2
		c-2.8,3.4-4.2,8-4.2,13.7c0,5.7,1.3,10.2,4,13.5c2.7,3.3,6.2,4.9,10.7,4.9c2.7,0,5.4-0.7,8.3-2.1c3-1.6,6-3.9,9-6.7l-0.9,35.9
		c-3.3,1.6-6.3,2.7-9.1,3.3c-2.9,0.8-6,1.2-9.1,1.2c-3.8,0-7.5-0.5-11-1.6c-3.4-0.9-6.6-2.4-9.5-4.4c-6.9-5-12.1-11.1-15.6-18.4
		c-3.5-7.5-5.3-16-5.3-25.6c0-7.3,1-13.9,3-19.7c1.9-5.9,4.8-11.3,8.7-16.2c3.9-4.7,8.3-8.3,13.4-10.7c5.1-2.4,10.6-3.6,16.5-3.6
		c3.1,0,6.2,0.4,9.4,1.2c3.1,0.9,6.1,2.1,8.9,3.6L192,117.3L192,117.3z"/>
	<linearGradient id="SVGID_4_" gradientUnits="userSpaceOnUse" x1="196.8" y1="128.06" x2="279.1" y2="128.06">
		<stop offset="0" style="stop-color:#0A6BB3"/>
		<stop offset="1" style="stop-color:#043A79"/>
	</linearGradient>
	<path fill="url(#SVGID_4_)" d="M196.8,176.8V79.4H225v41.5l18.2-41.5h32.5l-24.1,48l27.5,49.4h-34.8L225,136.1v40.7H196.8z"/>
</g>
<linearGradient id="SVGID_5_" gradientUnits="userSpaceOnUse" x1="276.8513" y1="193.3688" x2="353.5487" y2="116.6713" gradientTransform="matrix(1 0 0 -1 0 283.38)">
	<stop offset="0" style="stop-color:#FFFFFF"/>
	<stop offset="1" style="stop-color:#C9CDE2"/>
</linearGradient>
<circle fill="url(#SVGID_5_)" cx="333.1" cy="146.3" r="58"/>
<path fill="#CF2D2A" d="M303.1,112.3c0,0,26.8-15.5,37.8,0.5s2.8,28.5,2.8,28.5s26,10.6,17.5,31.9c-8.4,21-21,20.1-29.3,20.1
	l-7-20.3c0,0,13.4-3.8,12.3-11.8c-0.3-1.9-1.7-3.4-3.6-3.9c-2.8-0.7-7.7-1-13.9,1.9l-5-14c0,0,17-5,11.3-13.5s-15,0.3-15,0.3
	L303.1,112.3z"/>
</svg>
