<svg version="1.1" id="Layer_1" xmlns="http://www.w3.org/2000/svg" xlink="http://www.w3.org/1999/xlink" x="0px" y="0px" viewBox="56.7 57.6 311.8 168.4" enable-background="56.7 57.6 311.8 168.4" space="preserve">
<g>
	<linearGradient id="SVGID_1_" gradientUnits="userSpaceOnUse" x1="277.3543" y1="136.2139" x2="365.6877" y2="136.2139">
		<stop offset="0" style="stop-color:#FFC322"/>
		<stop offset="1" style="stop-color:#D89E28"/>
	</linearGradient>
	<polygon fill="url(#SVGID_1_)" points="335.2,83.5 305,90.3 277.4,163.4 336.6,148.8 343,188.9 357.9,185.7 352.2,146.3
		365.7,141.7 363.6,133.6 351.1,136 346.9,112.3 333.4,116.2 336.6,139.6 311.4,146 	"/>
	<polygon fill="#EF4035" points="338,81.4 307.9,88.1 280.2,161.2 339.4,146.7 345.8,186.8 360.7,183.6 355,144.2 368.5,139.6
		366.4,131.4 354,133.9 349.7,110.1 336.2,114 339.4,137.5 314.2,143.8 	"/>
	<linearGradient id="SVGID_2_" gradientUnits="userSpaceOnUse" x1="56.6742" y1="200.6752" x2="107.431" y2="200.6752">
		<stop offset="0" style="stop-color:#EE3D34"/>
		<stop offset="1" style="stop-color:#AD2921"/>
	</linearGradient>
	<path fill="url(#SVGID_2_)" d="M56.7,200.6c0-6.9,2.5-12.8,7.4-17.8s10.9-7.4,17.8-7.4c7,0,13,2.5,18,7.4c5,4.9,7.5,10.9,7.5,17.9
		c0,7-2.5,13-7.5,17.9c-5,5-11,7.4-18,7.4c-6.9,0-12.8-2.5-17.8-7.6C59.2,213.3,56.7,207.4,56.7,200.6z"/>
	<path fill="#E3B355" d="M98.9,200.7v-68.9h13.2v7.8c1.8-3.2,4-5.5,6.6-7.1c2.6-1.6,5.7-2.3,9.1-2.3c6.7,0,12,2.2,15.8,6.7
		c3.8,4.5,5.7,10.7,5.7,18.7c0,7.7-1.9,13.9-5.7,18.5c-3.8,4.6-8.9,7-15.1,7c-3.8,0-7-0.7-9.6-2.1c-2.6-1.4-4.9-3.6-6.7-6.6
		c0.2,1.2,0.3,2.5,0.4,3.9c0.1,1.4,0.1,3,0.1,4.8v19.6H98.9z M111.4,155.4c0,4.3,1.1,7.6,3.2,10c2.1,2.4,5,3.6,8.8,3.6
		c3.8,0,6.7-1.2,8.8-3.6c2.1-2.4,3.2-5.7,3.2-10c0-4.3-1.1-7.7-3.2-10.1c-2.1-2.5-5.1-3.7-8.9-3.7c-3.6,0-6.5,1.2-8.7,3.7
		C112.5,147.8,111.4,151.1,111.4,155.4z"/>
	<rect x="163.5" y="131.8" fill="#E3B355" width="13.7" height="47.4"/>
	<path fill="#E3B355" d="M222.9,177.7c-1.9,1.1-3.8,2-5.9,2.5c-2.1,0.5-4.3,0.8-6.8,0.8c-7.5,0-13.5-2.4-18.2-7.1
		c-4.7-4.7-7-10.9-7-18.5c0-7.4,2.4-13.5,7.1-18.2c4.7-4.7,10.9-7,18.4-7c2.5,0,4.8,0.2,6.8,0.7c2,0.5,3.9,1.2,5.7,2.3l-0.1,13.8
		c-1.5-1.5-3.1-2.6-5-3.4c-1.9-0.8-3.9-1.2-6-1.2c-3.9,0-7,1.2-9.3,3.5c-2.3,2.4-3.5,5.5-3.5,9.4c0,4,1.2,7.2,3.5,9.5
		s5.6,3.5,9.6,3.5c2.2,0,4.2-0.4,5.9-1.2c1.7-0.8,3.3-2.1,4.8-3.8L222.9,177.7z"/>
	<path fill="#E3B355" d="M233.3,92.4H247v60.3l17.6-21h16.5l-19.1,21l21,26.4h-17L247,154v25.1h-13.8V92.4z"/>
	<linearGradient id="SVGID_3_" gradientUnits="userSpaceOnUse" x1="121.3372" y1="71.9" x2="150.2581" y2="71.9">
		<stop offset="0" style="stop-color:#FFC322"/>
		<stop offset="1" style="stop-color:#D89E28"/>
	</linearGradient>
	<path fill="url(#SVGID_3_)" d="M121.3,71.9c0-3.9,1.4-7.3,4.2-10.1c2.8-2.8,6.2-4.2,10.1-4.2c4,0,7.4,1.4,10.3,4.2
		c2.9,2.8,4.3,6.2,4.3,10.2c0,4-1.4,7.4-4.3,10.2c-2.9,2.8-6.3,4.2-10.3,4.2c-3.9,0-7.3-1.4-10.1-4.3
		C122.8,79.1,121.3,75.7,121.3,71.9z"/>
	<path fill="#831B0E" d="M313,107.4c3.6-3.6,5.4-7.8,5.4-12.8c0-3.1-0.7-5.9-2.1-8.5l-7.7,1.7l-9.4,24.9c0.3,0,0.6,0,1,0
		C305.1,112.7,309.4,111,313,107.4z"/>
	<g>
		<g>
			<linearGradient id="SVGID_4_" gradientUnits="userSpaceOnUse" x1="119.3183" y1="97.1911" x2="119.3183" y2="198.8501">
				<stop offset="0" style="stop-color:#0A6BB3"/>
				<stop offset="1" style="stop-color:#043A79"/>
			</linearGradient>
			<path fill="url(#SVGID_4_)" d="M94.1,195.3v-68.9h13.2v7.8c1.8-3.2,4-5.5,6.6-7.1c2.6-1.6,5.7-2.3,9.1-2.3c6.7,0,12,2.2,15.8,6.7
				c3.8,4.5,5.7,10.7,5.7,18.7c0,7.7-1.9,13.9-5.7,18.5c-3.8,4.6-8.9,7-15.1,7c-3.8,0-7-0.7-9.6-2.1c-2.6-1.4-4.9-3.6-6.7-6.6
				c0.2,1.2,0.3,2.5,0.4,3.9c0.1,1.4,0.1,3,0.1,4.8v19.6H94.1z M106.6,150.1c0,4.3,1.1,7.6,3.2,10c2.1,2.4,5,3.6,8.8,3.6
				c3.8,0,6.7-1.2,8.8-3.6c2.1-2.4,3.2-5.7,3.2-10c0-4.3-1.1-7.7-3.2-10.1c-2.1-2.5-5.1-3.7-8.9-3.7c-3.6,0-6.5,1.2-8.7,3.7
				C107.7,142.4,106.6,145.8,106.6,150.1z"/>
			<linearGradient id="SVGID_5_" gradientUnits="userSpaceOnUse" x1="166.129" y1="97.1911" x2="166.129" y2="198.8501">
				<stop offset="0" style="stop-color:#0A6BB3"/>
				<stop offset="1" style="stop-color:#043A79"/>
			</linearGradient>
			<path fill="url(#SVGID_5_)" d="M155.9,104.3c0-2.8,1-5.1,3-7.1s4.4-3,7.1-3c2.8,0,5.2,1,7.2,3c2,2,3,4.4,3,7.2c0,2.8-1,5.2-3,7.2
				c-2,2-4.4,3-7.2,3c-2.8,0-5.1-1-7.1-3.1C156.9,109.4,155.9,107.1,155.9,104.3z"/>
			<linearGradient id="SVGID_6_" gradientUnits="userSpaceOnUse" x1="165.5969" y1="97.1911" x2="165.5969" y2="198.8501">
				<stop offset="0" style="stop-color:#0A6BB3"/>
				<stop offset="1" style="stop-color:#043A79"/>
			</linearGradient>
			<rect x="158.7" y="126.5" fill="url(#SVGID_6_)" width="13.7" height="47.4"/>
			<linearGradient id="SVGID_7_" gradientUnits="userSpaceOnUse" x1="199.1413" y1="97.1911" x2="199.1413" y2="198.8589">
				<stop offset="0" style="stop-color:#0A6BB3"/>
				<stop offset="1" style="stop-color:#043A79"/>
			</linearGradient>
			<path fill="url(#SVGID_7_)" d="M218.1,172.4c-1.9,1.1-3.8,2-5.9,2.5c-2.1,0.5-4.3,0.8-6.8,0.8c-7.5,0-13.5-2.4-18.2-7.1
				c-4.7-4.7-7-10.9-7-18.5c0-7.4,2.4-13.5,7.1-18.2c4.7-4.7,10.9-7,18.4-7c2.5,0,4.8,0.2,6.8,0.7c2,0.5,3.9,1.2,5.7,2.3l-0.1,13.8
				c-1.5-1.5-3.1-2.6-5-3.4c-1.9-0.8-3.9-1.2-6-1.2c-3.9,0-7,1.2-9.3,3.5c-2.3,2.4-3.5,5.5-3.5,9.4c0,4,1.2,7.2,3.5,9.5
				s5.6,3.5,9.6,3.5c2.2,0,4.2-0.4,5.9-1.2c1.7-0.8,3.3-2.1,4.8-3.8L218.1,172.4z"/>
			<linearGradient id="SVGID_8_" gradientUnits="userSpaceOnUse" x1="253.3545" y1="97.1911" x2="253.3545" y2="198.8501">
				<stop offset="0" style="stop-color:#0A6BB3"/>
				<stop offset="1" style="stop-color:#043A79"/>
			</linearGradient>
			<path fill="url(#SVGID_8_)" d="M228.5,87.1h13.8v60.3l17.6-21h16.5l-19.1,21l21,26.4h-17l-19-25.1v25.1h-13.8V87.1z"/>
		</g>
	</g>
	<linearGradient id="SVGID_9_" gradientUnits="userSpaceOnUse" x1="276.7189" y1="89.9923" x2="313.0896" y2="89.9923">
		<stop offset="0" style="stop-color:#FFC322"/>
		<stop offset="1" style="stop-color:#D89E28"/>
	</linearGradient>
	<path fill="url(#SVGID_9_)" d="M276.7,89.9c0-4.9,1.8-9.2,5.3-12.7c3.6-3.6,7.8-5.3,12.7-5.3c5,0,9.3,1.8,12.9,5.3
		c3.6,3.5,5.4,7.8,5.4,12.8c0,5-1.8,9.3-5.4,12.8c-3.6,3.6-7.9,5.3-12.9,5.3c-4.9,0-9.2-1.8-12.7-5.4
		C278.5,99,276.7,94.8,276.7,89.9z"/>
</g>
</svg>
