<svg xmlns="http://www.w3.org/2000/svg" xmlns:xlink="http://www.w3.org/1999/xlink" width="2763.7" height="1399.61" viewBox="0 0 2763.7 1399.61"><defs><clipPath id="f4b89ed0-f66d-4ecf-9afb-0817bf5d1305"><rect x="892.5" y="1040.67" width="1569.31" height="358.93" style="fill:none"/></clipPath></defs><g id="a0dd77d7-0138-4a52-8b3c-21001dcb03af" data-name="Layer 2"><g id="b09753b6-f38b-43d6-aa60-4c9c91b448ca" data-name="Layer 1"><path d="M2690.6,975l-9.3-46.5-5.2-116.4-1-22.4-1.2-27,11.2-35.4-7.4-72.6V544.92l-7.4-78.2,18.6-42.8-.3-1.2-18-4.3-39.2-24a138.51,138.51,0,0,0-8,38.8l-1.5,1.7-4.4-1.7-41.8-3.2-10.8,5.2-19.2,7.1,4.5,3.1,37.1,30.1,25.9,33.3-38.3,13.1a97.28,97.28,0,0,0-25.9,5.8c-22.4-4.6-37.6-3.6-37.6-3.6l-26.2-7.7a11.47,11.47,0,0,1,.9-3.9c.6-1.5,8-42.9,8-42.9,13.4-16.4,24.9-22.8,24.9-22.8l.7-1.9-36.2-15.5-5.1-2.3-1.1.7-2.6,7.1-14.3,29.2-10.9,18.6-1.8,3.7L2443,483l-14.5-9.8c-26.1-10-39.4-7.6-39.4-7.6a102.6,102.6,0,0,0,6.2-38.1c25.9,12,41.2,27.2,41.2,27.2l2.6-1.2,7.8-7,8.6-5.7,4.3-8.6c2.9-17.3,6.3-21.3,6.3-21.3l1.9-7.1,14.9,6.2,31,12.5,8.9,4.8,11.8,7.1c29.7-19.9,45.7-25,45.7-25,24.8-2.1,33.6.1,33.6.1l1.2-.4c1.8-27.3,5.4-44.2,5.4-44.2l9.3,3.8,22.4,8.2,26,12.2.5.2-4.6-15.6,16.8-41-13-91.2,18.6-44.7-106.1,20.5-76.3-26.1-48.4,41-46.5-22.3L2395,236l-54-26.1-83.8,37.2-59.4-17.7-22.8-6.8-23.8-7.1-134,11.2-54-20.5-18.6,35.4-160.1-26.1-26.1,14.9-89.4-41-54,20.5-87.5,24.2-65.2-29.8-148.9,18.6-63.3-26.1L1144,213.62l-59.6-11.2-132.2,26.1-435.6,895.4,68.9,1.9,63.3,16.8,33.5-3.7,52.1-13,5.6,18.6,39.1-14.9,67-5.6,35.4,22.3,3.7-18.6,27.9-3.7,37.6,37.2,75.9-18.6,20.5-20.5H1075l16.8,14.9,57.7,5.6,17.77-46.67,65-17.18,69.14-5.63,39.86,14.13,20.5-5.6,57,36.24,28.14,9.94,49.84,10.86c114.65-35,180.36,24.79,180.36,24.79l47-33c7.9,21.9,38.88-4.19,33.28,5.81-13.3,24,58.7,8,66.7,18.7s77.4-85.4,104.1-34.7,154.8,40,170.8,32c13.7-6.8,146.4-23.4,184.5-28.1a228.45,228.45,0,0,1,33.1,7.2l52.1-1.9,139,11.7.7,1.4,31.6,11.2,20.5-14.9,135.9,9.3L2681.5,1003Zm-150.1-138.9c0-1.4.1-2.6.1-3.7C2540.6,833.52,2540.6,834.72,2540.5,836.12Zm64.1-13.6a4.77,4.77,0,0,0,.8.4A2.19,2.19,0,0,1,2604.6,822.52Z" style="fill:#3b2f86"/><path d="M954.8,464c-13.3-157.6,11.9-259.4,11.9-259.4l-15.7,3.1-75.7-3.1c-87.6,18.5-99.6,16-99.6,16l-64-.8-14.9-13.7c-26.9,1.7-42.6,8.1-42.6,8.1H569.8l-43.4-3.9-8.7-11.2-72.2,14.3-22.3-.8-34.5,12.9-46.1-14a367.62,367.62,0,0,1-63.2,19.9l-22.8-.8-60.8-25.5-45,13.7-35.5-7.3-14.1,8.1c-46.1-15.4-95-19.3-95-19.3l7.9,20.8,14.1,137.7L5.4,426.12l29.3,65.1L11.9,653.82l16.6,35.9c-10.3,45.7-8.7,66.5-8.7,66.5L0,815.42l18.2,24.1L6.3,886.62l20.6,77.7c-4.1,44.9-12.8,68.1-12.8,68.1l13.6,17.7-16.6,106.6,30.1-16.8,52.1,14.3,41.8-13.7,109.1-8.1c45.9-2.5,59.2,15.1,59.2,15.1l115.9.6,30.9,3.1,33.9-5.6c38.8,4.8,74.1,17.7,74.1,17.7,58.3-17.7,109.9-18.5,109.9-18.5l7.9,8.7c105-12.1,175.3-7.3,175.3-7.3a551.65,551.65,0,0,1,99.6,14.3l-14.9-60.9,15.7-31.1-13.6-60.9,11.1-35.3-4.6-104,12.8-56.9a326.89,326.89,0,0,1-17.4-72.9l22-116.9-7.1-39.3,9.5-72.1Z" style="fill:#f89320"/><path d="M980.6,656.72c29.8-7.9,44.8-17,44.8-17,.5,30.1-9.6,44-9.6,44-6.2-6.2-35.2-27-35.2-27" style="fill:#e4862a"/><path d="M761.8,277.82c29.8-7.9,44.8-17,44.8-17,.5,30.1-9.6,44-9.6,44-6.2-6.2-35.2-27-35.2-27" style="fill:#3b2f86"/><path d="M183.7,295.62c29.8-7.9,44.8-17,44.8-17,.5,30.1-9.6,44-9.6,44-6.2-6.2-35.2-27-35.2-27" style="fill:#3b2f86"/><path d="M261.1,1040.12c29.8-7.9,44.8-17,44.8-17,.5,30.1-9.6,44-9.6,44-6.2-6.2-35.2-27-35.2-27" style="fill:#3b2f86"/><path d="M786.7,1034.72c29.8-7.9,44.8-17,44.8-17,.5,30.1-9.6,44-9.6,44-6.2-6.2-35.2-27-35.2-27" style="fill:#3b2f86"/><path d="M902.8,554.72c-9.6-14.8-16.7-24.6-19.1-25.4a105.53,105.53,0,0,0-29.5-5.2,284,284,0,0,1,34.2-18.3c-3.3-6.8-7.4-22.1-7.4-22.1l23,15.9a322.82,322.82,0,0,1,31.2-11.2L924,511.92l12.6,19.4c-7.7.3-24.9-.5-24.9-.5-4.5,11.3-8.9,23.9-8.9,23.9" style="fill:#eac3a6"/><path d="M920.6,307.32l-1.1-10.7,2.5-19.7c15,11.5,29.3,21.6,29.3,21.6-25.2,5.5-30.7,8.8-30.7,8.8" style="fill:#fdba26"/><path d="M982.1,220.12l-.3-1.1h12c26.5,3,30.4,1.9,30.4,1.9l1.4,1.4-1.1,1.6s-3.3,19.4-3.3,20.2c-.3,1.1-1.9,13.7-1.9,13.7l-1.4,4.6-.8,4.6-1.1,6.6-1.4,1.1-.3-7.1,1.1-22.1,1.1-4.6.3-7.1,1.1-6.6-26.5-6-9.3-1.1" style="fill:#fdba26"/><path d="M1032.5,988.52l-5.2-10.7-4.6-12.6c7.7,5.2,27.3,13.1,27.3,13.1l4.1-4.4c10.7-7.9,15.9-15,15.9-15a111.48,111.48,0,0,1-.3,32.5l2.2,3.6c5.5,7.7,10.4,19.4,10.4,19.4l-18-4.6-2.2-1.1-1.6.8-.3,3.8-2.7,10.7-.3,2.7-2.5,7.1-.5.5c-4.9-8.7-8.2-12-8.2-12a33.32,33.32,0,0,1-6-10.7l-1.4-3c-18-1.1-25.2.5-25.2.5l-.5-.5,4.4-4.6,3.6-4.9c9.4-9.8,11.6-10.6,11.6-10.6" style="fill:#eac3a6"/><path d="M2155.9,617.62l-5.2-10.7-4.6-12.6c7.7,5.2,27.3,13.1,27.3,13.1l4.1-4.4c10.7-7.9,15.9-15,15.9-15a111.48,111.48,0,0,1-.3,32.5l2.2,3.6c5.5,7.7,10.4,19.4,10.4,19.4l-18-4.6-2.2-1.1-1.6.8-.3,3.8-2.7,10.7-.3,2.7-2.5,7.1-.5.5c-4.9-8.7-8.2-12-8.2-12a33.32,33.32,0,0,1-6-10.7l-1.4-3c-18-1.1-25.2.5-25.2.5l-.5-.5,4.4-4.6,3.6-4.9c9.4-9.8,11.6-10.6,11.6-10.6" style="fill:#eac3a6"/><path d="M1971.7,257.32l-5.2-10.7-4.6-12.6c7.7,5.2,27.3,13.1,27.3,13.1l4.1-4.4c10.7-7.9,15.9-15,15.9-15a111.48,111.48,0,0,1-.3,32.5l2.2,3.6c5.5,7.7,10.4,19.4,10.4,19.4l-18-4.6-2.2-1.1-1.6.8-.3,3.8-2.7,10.7-.3,2.7-2.5,7.1-.5.5c-4.9-8.7-8.2-12-8.2-12a33.32,33.32,0,0,1-6-10.7l-1.4-3c-18-1.1-25.2.5-25.2.5l-.5-.5,4.4-4.6,3.6-4.9c9.5-9.7,11.6-10.6,11.6-10.6" style="fill:#eac3a6"/><path d="M1528.8,366.72l-5.2-10.7-4.6-12.6c7.7,5.2,27.3,13.1,27.3,13.1l4.1-4.4c10.7-7.9,15.9-15,15.9-15a111.48,111.48,0,0,1-.3,32.5l2.2,3.6c5.5,7.7,10.4,19.4,10.4,19.4l-18-4.6-2.2-1.1-1.6.8-.3,3.8-2.7,10.7-.3,2.7L1551,412l-.5.5c-4.9-8.7-8.2-12-8.2-12a33.32,33.32,0,0,1-6-10.7l-1.4-3c-18-1.1-25.2.5-25.2.5l-.5-.5,4.4-4.6,3.6-4.9c9.4-9.7,11.6-10.6,11.6-10.6" style="fill:#eac3a6"/><path d="M693.1,846.22l18.6,12,13.9,3.8-3.3,2.2-.5,1.9c-16.4,10.4-28.7,27.6-28.7,27.6l-1.1.3v-9.8l.8-17.5c1.4-13.1.3-20.5.3-20.5" style="fill:#fdba26"/><path d="M575,1116.92l.8-1.1,8.2-.5,20.5-1.1,20,1.4,14.2,1.9,17,2.5,6.6-.3,8.2,1.4,15-.3-3.6,1.4-6.3,1.1H663.3c-10.4,1.4-15.3,3.6-15.3,3.6-41.3-8.5-54.1-8.8-54.1-8.8l-11.8-.5-7.1-.7" style="fill:#fff"/><path d="M706.2,756.32l5.7,1.6,24.6,6.6c15.6,6.6,23,5.2,23,5.2,4.1,3.3,22.4,7.7,22.4,7.7l20.8,2.7,20,2.5-2.2.8c-23.8,1.6-33.9.8-33.9.8-40.2-7.4-48.7-13.4-48.7-13.4l-14.2-4.4-3.6-1.1-13.4-7.9-.5-1.1" style="fill:#fdba26"/><path d="M741.2,802.22l3.3,1.4-5.7,2.7-9-.3c-18.6-4.1-41.3-16.1-41.3-16.1l1.9-.5,12.9,5.2,28.7,7.1,9.2.5" style="fill:#fdba26"/><path d="M1002.6,280.22l27.7,6.6,21.4,13.1a74.11,74.11,0,0,0,4.4-21.2l.8-.9,2.4.9,22.8,1.7,5.9-2.8,10.5-3.9L1096,272l-20.3-16.4-14.1-18.2,20.9-7.2a57,57,0,0,0,14.2-3.1,87.46,87.46,0,0,0,20.6,2l14.3,4.2a5,5,0,0,1-.5,2.1c-.3.8-4.4,23.5-4.4,23.5-7.3,9-13.6,12.5-13.6,12.5l-.4,1,19.8,8.5,2.8,1.3.6-.4,1.4-3.9,7.8-15.9,6-10.2,1-2,2.6,1.8,8,5.3c14.3,5.5,21.5,4.2,21.5,4.2a54.82,54.82,0,0,0-3.4,20.8,85.86,85.86,0,0,1-22.5-14.8l-1.4.7-4.3,3.9-4.7,3.1-2.3,4.7c-1.6,9.5-3.5,11.6-3.5,11.6l-1,3.9-8.2-3.4-16.9-6.8-4.9-2.6-6.4-3.9c-16.2,10.9-25,13.7-25,13.7-13.6,1.2-18.4-.1-18.4-.1l-.7.2a200.64,200.64,0,0,1-2.9,24.2l-5.1-2.1-12.3-4.5-14.2-6.7-6.7-2.3c-4.3-.4-5.7-1.5-5.7-1.5a166,166,0,0,1,2.1,25.1,50,50,0,0,0-2.4,9.1c-9.7-15.9-12.6-19.4-12.6-19.4,3.4-20.5,1.8-33.8,1.8-33.8" style="fill:#eac3a6"/><path d="M2540.6,832.42c0,1.1-.1,2.3-.1,3.7C2540.6,834.72,2540.6,833.52,2540.6,832.42Z" style="fill:none"/><path d="M2605.3,822.92a4.56,4.56,0,0,0-.8-.4C2604.6,822.52,2604.8,822.72,2605.3,822.92Z" style="fill:none"/><path d="M2724.3,368.82s-5.4-6.3-23.1-35.4a91.92,91.92,0,0,1-4.4,16.7s-.5,17.6,3.8,45.9c0,0-2.7-2-10.5-2.7l-11.7-4,9.9,33.5,32.6,7.8C2721,430.62,2718,406.32,2724.3,368.82Z" style="fill:#3b2f86"/><path d="M2677.9,389.12l-26-12.2-22.4-8.2-9.3-3.8s-3.5,16.9-5.4,44.2l-1.2.4s-8.8-2.3-33.6-.1c0,0-16,5.1-45.7,25l-11.8-7.1-8.9-4.8-31-12.5-14.9-6.2-1.9,7.1s-3.4,4-6.3,21.3l-4.3,8.6-8.6,5.7-7.8,7-2.6,1.2s-15.3-15.2-41.2-27.2a102.6,102.6,0,0,1-6.2,38.1s13.3-2.3,39.4,7.6l14.5,9.8,4.7,3.4,1.8-3.7,10.9-18.6,14.3-29.2,2.6-7.1,1.1-.7,5.1,2.3,36.2,15.5-.7,1.9s-11.5,6.4-24.9,22.8c0,0-7.4,41.5-8,42.9a11.47,11.47,0,0,0-.9,3.9l26.2,7.7s15.2-1,37.6,3.6a102.21,102.21,0,0,1,25.9-5.8l38.3-13.1-25.9-33.3-37.1-30.1-4.5-3.1,19.2-7.1,10.8-5.2,41.8,3.2,4.4,1.7,1.5-1.7a133.81,133.81,0,0,1,8-38.8l39.2,24,18,4.3-9.9-33.5Z" style="fill:#eac3a6"/><path d="M1789.4,1011.62l40.3,9.6,31.2,19.1a108.31,108.31,0,0,0,6.3-30.9l1.2-1.3,3.5,1.4,33.2,2.5,8.6-4.1,15.3-5.7-3.6-2.5-29.5-23.9-20.6-26.5,30.5-10.4a76.66,76.66,0,0,0,20.6-4.6c17.8,3.6,29.9,2.8,29.9,2.8l20.8,6.1a10.1,10.1,0,0,1-.7,3.1c-.5,1.2-6.4,34.2-6.4,34.2-10.7,13.1-19.8,18.2-19.8,18.2l-.5,1.5,28.8,12.3,4.1,1.9.8-.5,2.1-5.7,11.4-23.2,8.7-14.8,1.4-2.9,3.7,2.7,11.6,7.8c20.8,7.9,31.3,6.1,31.3,6.1a80.83,80.83,0,0,0-4.9,30.3c-20.6-9.5-32.8-21.6-32.8-21.6l-2,1-6.2,5.6-6.9,4.5-3.4,6.8c-2.3,13.8-5,16.9-5,16.9l-1.5,5.6-11.9-4.9-24.6-9.9-7.1-3.8-9.4-5.6c-23.6,15.8-36.3,19.9-36.3,19.9-19.8,1.7-26.8-.1-26.8-.1l-1,.3a289.82,289.82,0,0,1-4.3,35.2l-7.4-3-17.8-6.5-20.7-9.7-9.7-3.4c-6.2-.5-8.4-2.1-8.4-2.1,3.4,22.5,3,36.5,3,36.5a76.64,76.64,0,0,0-3.5,13.3c-14.1-23.2-18.4-28.2-18.4-28.2,5.1-30.1,2.8-49.4,2.8-49.4" style="fill:#eac3a6"/><path d="M1118.5,236.12l-1.4,20.4-3.5,2.8-7.4,8.5-7.6-5.8-2-1.2-13.3-11.3-3-2.2a210.69,210.69,0,0,0,37.3-11.3l.9.1" style="fill:#3b2f86"/><path d="M2522.3,509l2-28,4.8-3.8,10.2-11.6,10.4,7.9,2.7,1.7,18.2,15.5,4.1,3a295,295,0,0,0-51.2,15.5l-1.2-.2" style="fill:#3b2f86"/><path d="M1948,947.62l-1.4,20.4-3.5,2.8-7.4,8.5-7.6-5.8-2-1.2L1912.8,961l-3-2.2a210.69,210.69,0,0,0,37.3-11.3l.9.1" style="fill:#3b2f86"/><polygon points="1218.1 535.22 1220.5 561.72 1246.5 567.62 1222 578.12 1224.4 604.72 1206.8 584.62 1182.4 595.12 1196 572.22 1178.4 552.22 1204.4 558.12 1218.1 535.22" style="fill:#eac3a6"/><polygon points="2492.4 284.32 2510.5 303.82 2534.7 292.62 2521.7 315.92 2539.8 335.42 2513.6 330.32 2500.7 353.52 2497.5 327.12 2471.4 321.92 2495.5 310.72 2492.4 284.32" style="fill:#eac3a6"/><polygon points="1951 802.32 1969.1 821.92 1993.2 810.72 1980.3 833.92 1998.4 853.52 1972.2 848.32 1959.2 871.62 1956.1 845.12 1929.9 839.92 1954.1 828.82 1951 802.32" style="fill:#e4862a"/><polygon points="1992.4 1060.72 2003.4 1072.52 2018 1065.72 2010.2 1079.82 2021.1 1091.72 2005.3 1088.52 1997.5 1102.62 1995.5 1086.62 1979.7 1083.52 1994.4 1076.72 1992.4 1060.72" style="fill:#e4862a"/><polygon points="2724 542.72 2737.8 565.52 2763.7 559.52 2746.3 579.62 2760.1 602.42 2735.5 592.02 2718.1 612.22 2720.3 585.62 2695.8 575.32 2721.7 569.22 2724 542.72" style="fill:#3b2f86"/><polygon points="2216.5 1048.82 2186.7 1036.42 2206.6 1073.62 2216.5 1048.82" style="fill:#eac3a6"/><polygon points="2582.1 755.32 2552.3 742.92 2572.2 780.12 2582.1 755.32" style="fill:#eac3a6"/><polygon points="1328 325.72 1298.2 313.32 1318.1 350.52 1328 325.72" style="fill:#e4862a"/><polygon points="1272 445.82 1242.2 433.42 1262 470.62 1272 445.82" style="fill:#e4862a"/><polygon points="2191.2 367.22 2142.8 347.02 2175 407.52 2191.2 367.22" style="fill:#e4862a"/><polygon points="1026.5 798.02 996.7 785.62 1016.6 822.82 1026.5 798.02" style="fill:#eac3a6"/><polygon points="1265.8 949.32 1232.3 935.42 1254.7 977.22 1265.8 949.32" style="fill:#e4862a"/><polygon points="2291.2 568.52 2261.5 556.12 2281.3 593.42 2291.2 568.52" style="fill:#e4862a"/><polygon points="856.4 632.82 823.1 618.92 845.3 660.52 856.4 632.82" style="fill:#eac3a6"/><polygon points="562.1 370.92 552.1 336.22 533.4 379.62 562.1 370.92" style="fill:#eac3a6"/><polygon points="323.4 758.22 290.1 744.32 312.3 786.02 323.4 758.22" style="fill:#eac3a6"/><polygon points="113.2 960.62 132.7 930.22 87.8 944.92 113.2 960.62" style="fill:#eac3a6"/><polygon points="1510.5 992.12 1504.8 960.42 1484.3 997.32 1510.5 992.12" style="fill:#e4862a"/><polygon points="1593.6 257.12 1576.2 247.22 1563.8 272.02 1593.6 257.12" style="fill:#eac3a6"/><path d="M2421.6,895.22l48-305.1-88.1-34.7-344.2,327.3,16.9,72.9,221.5,13.3,1.8,72.9,138.8,11.6,2.7-70.3,75.6,8,15.1-91.6Zm-99.2-44-15.8,63.1L2273.1,861l-66.2,5,48.7-52-31.5-62,61.9,22.8,48.5-44.9-5.8,67.6,56.8,32.8Z" style="fill:#fff"/><path d="M1155.2,472.72c2.4.6,4.7,1.3,6.7,1.8,5.3,1.5,10.6,3,15.3,4.7a112.16,112.16,0,0,1,32.6,18.5c31.7,26.7,37.7,69.5,38.5,108.5v127.5c-.5,34.3-.5,84.1-29.6,108.6-6.8,6-18.1,10-27.1,10.1a99.18,99.18,0,0,1-13.8-.8,64.72,64.72,0,0,1-6.6-1.1,550.14,550.14,0,0,1-113.1-38.3V694.32c8.8,4.3,17.9,8.3,26.9,11.9V567.82c-9.1-3.7-18.1-7.7-26.9-11.9V438A561.7,561.7,0,0,0,1155.2,472.72ZM1195.3,643c.4-14.4-2.8-30.6-13.2-41.2a38.38,38.38,0,0,0-11.4-7,48,48,0,0,0-5.4-1.9l-2.4-.5-2.2-.5c-9.5-2.2-19.1-4.7-28.4-7.5v138.4c10.8,3,21.5,5.8,32.5,8.4l2.2.5c1,.1,1.4.2,2.4.3a25,25,0,0,0,5.1.6,15.73,15.73,0,0,0,9.9-3.3c10.6-9.5,10.4-26.3,10.9-39.2Z" style="fill:#fff"/><path d="M1476,465.82v117.9l-17.8,3.5q20.55,65.1,41.3,130c10.5-2.3,21.1-4.6,31.6-7v117.9c-35.8,8.1-71.7,15.5-107.9,21.7V731.92c8.2-1.3,12.3-2.1,20.5-3.5-1.1-3.6-1.6-5.4-2.7-8.9-18.7,3.2-37.3,6.1-56.1,8.7-1.1,3.9-1.7,5.9-2.8,9.8,7.9-1,11.9-1.5,19.8-2.7v117.9a907.33,907.33,0,0,1-107.9,8.9V744.22c10.6-.1,21.3-.5,31.9-1.1q21.6-70.95,42.8-142c-9.3,1-14,1.5-23.3,2.2V485.42C1389.2,481.32,1432.7,474.42,1476,465.82Zm-73.2,201.8c8.3-1.2,12.5-1.9,20.8-3.2-3.4-10.9-6.8-21.9-10.2-32.8C1409.9,643.62,1406.4,655.62,1402.8,667.62Z" style="fill:#fff"/><path d="M1684.6,417.92v117.9c-9.7,2.1-19.4,4.3-29,6.6v138.4l29-6.6v117.9c-36,8-72,16.7-107.9,25.3V699.52l28.9-6.9V554.22l-28.9,6.9V443.22C1612.6,434.62,1648.5,425.92,1684.6,417.92Z" style="fill:#fff"/><path d="M1832.7,392.62v117.9c-9.5,1-19,2.1-28.4,3.4v138.4c21.4-2.7,42.8-4.9,64.3-6.3V590q22.5-1.2,45-1.2v173.9c-61.9.3-122.7,8.3-183.5,20V664.82c10.8-2.1,16.2-3.1,26.9-5V521.42c-10.8,1.9-16.2,2.9-26.9,5V408.52C1764.2,401.82,1798.3,396.42,1832.7,392.62Z" style="fill:#fff"/><path d="M2137.9,438.12V556c-9.1-4.4-18.3-8.5-27.7-12.2q-28.65,47.4-55.8,95.8v23.8c9.7,2.6,19.4,5.6,28.9,8.9v117.9a577.89,577.89,0,0,0-107.9-23.9V648.42c9.7,1.1,19.4,2.4,29,4v-18.6q-27.75-63.3-56.4-126.3c-10.9-.7-16.3-.9-27.2-1.1V388.52a631,631,0,0,1,97.9,10.1v117.9c-2.9-.6-4.3-.8-7.2-1.4,5.7,13.2,11.3,26.3,16.9,39.5,5.8-10.7,11.7-21.4,17.7-32-2.3-.6-3.5-.9-5.8-1.4V403.32A558.9,558.9,0,0,1,2137.9,438.12Z" style="fill:#fff"/><circle cx="319.3" cy="484.12" r="144.1" style="fill:#fff"/><path d="M319.3,636.22c-83.9,0-152.1-68.2-152.1-152.1S235.4,332,319.3,332s152.1,68.2,152.1,152.1S403.2,636.22,319.3,636.22Zm0-288.2c-75,0-136.1,61-136.1,136.1s61,136.1,136.1,136.1a136.18,136.18,0,0,0,136.1-136.1C455.4,409.12,394.3,348,319.3,348Z" style="fill:#3b2f86"/><circle cx="575.5" cy="876.32" r="174.4" style="fill:#fff"/><path d="M575.5,1060.42c-101.5,0-184.1-82.6-184.1-184.1s82.6-184.1,184.1-184.1,184.1,82.6,184.1,184.1S677,1060.42,575.5,1060.42Zm0-348.8c-90.8,0-164.7,73.9-164.7,164.7S484.7,1041,575.5,1041s164.7-73.9,164.7-164.7S666.3,711.62,575.5,711.62Z" style="fill:#3b2f86"/><circle cx="683.5" cy="480.12" r="94.8" style="fill:#fff"/><path d="M683.5,580.22a100.1,100.1,0,1,1,100.1-100.1A100.21,100.21,0,0,1,683.5,580.22Zm0-189.6a89.5,89.5,0,1,0,89.5,89.5A89.6,89.6,0,0,0,683.5,390.62Z" style="fill:#3b2f86"/><circle cx="203.3" cy="832.32" r="53.1" style="fill:#fff"/><path d="M203.3,888.32a56,56,0,1,1,56-56A56,56,0,0,1,203.3,888.32Zm0-106.1a50.1,50.1,0,1,0,50.1,50.1A50.19,50.19,0,0,0,203.3,782.22Z" style="fill:#3b2f86"/><path d="M279.3,652.22s108.1,36,156.1-28" style="fill:none;stroke:#3b2f86;stroke-miterlimit:10;stroke-width:5px"/><path d="M151.2,408.12s-24,116.1,12,172.1" style="fill:none;stroke:#3b2f86;stroke-miterlimit:10;stroke-width:5px"/><path d="M675.5,356s124.1,12,116.1,52" style="fill:none;stroke:#3b2f86;stroke-miterlimit:10;stroke-width:5px"/><path d="M361.7,888.12s13.3,162.8,125.4,181.4" style="fill:none;stroke:#3b2f86;stroke-miterlimit:10;stroke-width:5px"/><path d="M487.6,822.62l-5.8-43s184.6-20.7,168,57.1-38.1,83.6-38.1,83.6l76.1-24.8,8.3,38.9-155.6,62.1s71.2-112.6,32.3-163C572.8,833.42,530.6,815.22,487.6,822.62Z" style="fill:#3b2f86"/><path d="M367,508.32l-10.7-107.6-21.3,1.8-99.6,134.3,90.7,5.3,6.2,24,30.2-8.9v-24l32-7.1.9-16Zm-69.3,0,32-41.8,2.7,37.4Z" style="fill:#3b2f86"/><path d="M693.9,466.52l30.7-32c-4-1.3-29.4-10.7-29.4-10.7s-66.7,37.4-56,82.7,80,24,81.4,2.7S703.3,469.22,693.9,466.52Zm-14.7,38a11.3,11.3,0,1,1,11.3-11.3A11.29,11.29,0,0,1,679.2,504.52Z" style="fill:#3b2f86"/><path d="M222.3,833.32a14.42,14.42,0,0,1,2.5,5.9,11.55,11.55,0,0,1-.4,6.1,12.31,12.31,0,0,1-3.5,5.2,16.82,16.82,0,0,1-5.9,3.2,22.1,22.1,0,0,1-7.4,1,23.73,23.73,0,0,1-8.2-1.5,26.47,26.47,0,0,1-7.5-3.8,24.75,24.75,0,0,1-5.4-5.3,16.82,16.82,0,0,1-2.8-6.1,12.27,12.27,0,0,1,.3-6.3l.3-.8,14.1,4.7-.4.8a2.8,2.8,0,0,0,0,2.2c.3.7.5,1.2.7,1.6a7.76,7.76,0,0,0,1.3,1.3,6.8,6.8,0,0,0,2.7,1.4,6.16,6.16,0,0,0,2.9.4,16.45,16.45,0,0,0,1.8-.3,4.77,4.77,0,0,0,1.6-.8,3.52,3.52,0,0,0,1.3-1.8,3,3,0,0,0,0-2.3,6.25,6.25,0,0,0-1.3-2,7.85,7.85,0,0,0-2.3-1.6,13.9,13.9,0,0,0-2.8-1.2l3.6-10.6,2.2.6a8.31,8.31,0,0,0,2.2.1,3.45,3.45,0,0,0,1.8-.5,2.27,2.27,0,0,0,1.1-1.4,2.19,2.19,0,0,0,0-1.6,13.39,13.39,0,0,0-.6-1.2,7.3,7.3,0,0,0-.9-1,6.07,6.07,0,0,0-1.8-1,6.43,6.43,0,0,0-2.2-.4,12.29,12.29,0,0,0-1.3.2,4.07,4.07,0,0,0-1.1.6,2.54,2.54,0,0,0-.9,1.3l-14.1-4.7a10.46,10.46,0,0,1,3.2-4.8,15.73,15.73,0,0,1,5.4-3,19.24,19.24,0,0,1,6.9-.9,29.55,29.55,0,0,1,7.6,1.3,23.06,23.06,0,0,1,6.8,3.5,22.75,22.75,0,0,1,4.9,4.9,14.68,14.68,0,0,1,2.5,5.6,11.39,11.39,0,0,1-.3,5.8,10.8,10.8,0,0,1-2.5,4.1A11.43,11.43,0,0,1,222.3,833.32Z" style="fill:#3b2f86"/><path d="M695.2,713.32s120.1,80,73.4,193.4" style="fill:none;stroke:#3b2f86;stroke-miterlimit:10;stroke-width:5px"/><path d="M1466.22,1015.36a24.26,24.26,0,0,0-12.91-24.54,79.69,79.69,0,0,0-17.51-6.22,94.39,94.39,0,0,0-22-2.47h-.1a85.9,85.9,0,0,0-23.88,3.2,73.58,73.58,0,0,0-15.37,6.32,23.42,23.42,0,0,0-16.83-7.2l-27.09,0h0a23.25,23.25,0,0,0-13.53,4.33,23.4,23.4,0,0,0-13.55-4.36l-20.57,0,.73-6a24.51,24.51,0,0,0-5.75-18.93,23.48,23.48,0,0,0-17.71-8.16l-27.09,0h0a23.83,23.83,0,0,0-23.48,21.18L1207.65,988a50.27,50.27,0,0,0-24.55-6H1183a57.87,57.87,0,0,0-19.87,3.38,23.46,23.46,0,0,0-6.83-1l-27.1,0h0a23.83,23.83,0,0,0-23.48,21.18l-14.16,117.35a24.47,24.47,0,0,0,5.75,18.93,23.47,23.47,0,0,0,17.7,8.16l27.1,0h0a23.83,23.83,0,0,0,23.48-21.18l1-8.61h.65a58.49,58.49,0,0,0,33.17-10.32l.43.53a23.48,23.48,0,0,0,17.71,8.16l27.09,0h0a23.41,23.41,0,0,0,16.92-7.27c6.72,5.28,16.45,9.67,30.23,9.68h.06a57.18,57.18,0,0,0,20.07-3.46,23.16,23.16,0,0,0,7.09,1.12l27.09,0h0a23.22,23.22,0,0,0,12.55-3.69,99.55,99.55,0,0,0,10.86,3.33,97.83,97.83,0,0,0,23.5,2.77l.07-24.14,0,24.14h.07a90.76,90.76,0,0,0,24.56-3.08,72.15,72.15,0,0,0,20.41-9.25,55,55,0,0,0,16.15-16.2,51.27,51.27,0,0,0,8-21.82,48.19,48.19,0,0,0-2.83-24.27,24.47,24.47,0,0,0,3.09-9.29Z" style="fill:#fff"/><polygon points="2027.47 1328.99 2036.16 1232.35 2129.31 1241.06 2120.62 1337.71 2027.47 1328.99" style="fill:#fff"/><g style="clip-path:url(#f4b89ed0-f66d-4ecf-9afb-0817bf5d1305)"><path d="M2224.82,1360.71a89.77,89.77,0,0,1-44-10.83c-67.54-7.45-116.38-69.37-109.08-138.29a126.87,126.87,0,0,1,24.19-62.23,114.87,114.87,0,0,1,62.88-66.58,127.51,127.51,0,0,1,57-12h24l14.15,2a77,77,0,0,0,15.33,0,14.86,14.86,0,0,0,13.75-7.62,18.33,18.33,0,0,1,14.94-7.62h4.72a18.72,18.72,0,0,1,13.75,16,68.59,68.59,0,0,1-5.5,40.1h8.25a209.85,209.85,0,0,0,99-21.25,16.53,16.53,0,0,1,7.47,0,19.31,19.31,0,0,1,18.86,19.65,55.71,55.71,0,0,1-7.46,24.46,239.74,239.74,0,0,1-44.41,55.35l7.46,5.21,6.29,4a19.8,19.8,0,0,1,8.25,20.05,19,19,0,0,1-15.32,14.84,39.28,39.28,0,0,0-26.73,18.45,83.08,83.08,0,0,1-21.22,21.25,19.62,19.62,0,0,1,0,9.63c-26.7,45.63-74.48,74.1-126.55,75.4" style="fill:#fff;fill-rule:evenodd"/><path d="M2297.92,1040.67a39,39,0,0,0-29.87,15.24,72.13,72.13,0,0,1-11,0h-15.33a207.88,207.88,0,0,0-25.94,0,147.62,147.62,0,0,0-64.85,14,133.86,133.86,0,0,0-71.92,74.59c-44,65.88-27.38,155.7,37.17,200.63a139.92,139.92,0,0,0,59.12,23.56,107.5,107.5,0,0,0,49.52,11.63,168.91,168.91,0,0,0,87.25-27.68,144.8,144.8,0,0,0,53.84-57.34,34.54,34.54,0,0,0,2-6.82,110.29,110.29,0,0,0,17.68-19.25c7.47-9.63,8.65-10.43,15.33-11.63a37.31,37.31,0,0,0,30.26-30.08,40.63,40.63,0,0,0-11-35.69,231.06,231.06,0,0,0,31.44-43.32h0a71.24,71.24,0,0,0,9.43-33.68,40.36,40.36,0,0,0-16.51-32.49,38.73,38.73,0,0,0-20.83-6.42,35.75,35.75,0,0,0-15.32,3.61,193.37,193.37,0,0,1-73.1,18.85,103.16,103.16,0,0,0,0-24.46,39.57,39.57,0,0,0-37.34-32.89m0,40.11c3.14,24.06-3.54,34.49-22.8,56.14H2318a231.79,231.79,0,0,0,106.12-22.86,32.21,32.21,0,0,1-5.11,15.65,214.38,214.38,0,0,1-44,53.74,230.74,230.74,0,0,1-25.94,18.84h5.9a67.41,67.41,0,0,1,39.3,17.25c-34.59,6-35.37,31.68-57.77,44.52a67,67,0,0,1-39.31,11.22H2294a26.47,26.47,0,0,0,19.26,8.83,63.66,63.66,0,0,0,17.29-3.61A135.43,135.43,0,0,1,2224,1342.26a71.33,71.33,0,0,1-39.3-10.83c-57.4-3.83-100.88-54.42-97.13-113a107.57,107.57,0,0,1,23.24-60.26h0a95.87,95.87,0,0,1,53.45-57,116,116,0,0,1,51.49-13.23h22c11.4,0,21.61,4,31.44,4a32.46,32.46,0,0,0,28.69-15.24" style="fill:#fff"/></g><path d="M1890.36,1253.23c.36,33,26.87,59.45,59.21,59.08s58.26-27.41,57.9-60.41c-.31-28.42-20.19-52.69-47.54-58-35.15-2.8-66,23.57-69.57,59.36" style="fill:#fff"/><path d="M1891.15,1191.87c-5.5-30.08,3.14-56.95,19.65-60.16s34.58,18.45,39.3,48.12-2.75,56.55-19.26,59.76-34.58-18-39.3-47.72" style="fill:#fff"/><path d="M2014.16,1193.87c9.83-28.47,4.72-56.55-11-61.76s-36.55,12.83-46.38,40.1-4.71,56.55,11,62.17,36.94-13.24,46.37-40.11" style="fill:#fff"/><g style="clip-path:url(#f4b89ed0-f66d-4ecf-9afb-0817bf5d1305)"><path d="M1042.63,1292.53a35.65,35.65,0,0,0-51.06,2.81,37.42,37.42,0,0,0,2.75,52.1,36.41,36.41,0,0,0,9,6,35.66,35.66,0,0,0,51.06-2.81,37.43,37.43,0,0,0-2.76-52.11,36,36,0,0,0-9-6" style="fill:#fff"/><path d="M969.53,1336.24c-22.41,8.42-35.77,28.07-29.87,44.12s28.29,22.46,50.7,14.43,35.37-28.47,29.87-44.51a38.86,38.86,0,0,0-50.7-14" style="fill:#fff"/><path d="M1072.5,1336.24c22,8.42,35.37,28.07,29.87,44.12a38.86,38.86,0,0,1-50.7,14.43c-22.4-8.42-35.77-28.47-29.87-44.51s28.29-22.46,50.7-14" style="fill:#fff"/><path d="M922.36,1382.76a16.37,16.37,0,0,1-11.79-5.21,16.7,16.7,0,0,1-3.14-12.83l39.3-206.54a15.4,15.4,0,0,1,14.94-12.43H1076a15.26,15.26,0,0,1,14.94,18.44l-9.43,44.12a14.63,14.63,0,0,1-14.55,12h-52.66l-2,11.23h43.23a14.42,14.42,0,0,1,11.39,5.61,15.89,15.89,0,0,1,3.15,12.44l-8.65,41.3a15,15,0,0,1-14.54,12.44H999l-13,67.37a14.6,14.6,0,0,1-14.54,12Z" style="fill:#fff"/><path d="M1075.25,1130.51H960.49a29.65,29.65,0,0,0-29.09,24.86l-39.3,206.54a32.59,32.59,0,0,0,6.29,25.26A30,30,0,0,0,921.58,1398h49.13a29.62,29.62,0,0,0,29.47-24.46l10.22-54.94H1047a30.05,30.05,0,0,0,29.48-24.87l7.46-40.1a35.32,35.32,0,0,0,0-6.82A28.07,28.07,0,0,0,1080,1232a31.63,31.63,0,0,0,14.94-20.85l9.82-42.92a30.94,30.94,0,0,0-6.28-25.26,28.86,28.86,0,0,0-23.19-11.23m0,30.48L1067,1205.1h-64.84l-8.26,40.1h61.71l-7.86,43.32H986.43l-14.94,80.21H922.36l39.31-206.54h114.76" style="fill:#fff"/></g><path d="M1069.35,1382.76a15.15,15.15,0,0,1-11.39-5.21,14.21,14.21,0,0,1-3.15-12.83l39.3-206.54a15.41,15.41,0,0,1,14.94-12.43h49.12a14.41,14.41,0,0,1,11.4,5.61,13.83,13.83,0,0,1,3.15,12.83l-39.31,206.14a15.39,15.39,0,0,1-14.93,12.43Z" style="fill:#fff"/><path d="M1157,1130.51h-49.13a30,30,0,0,0-29.48,24.86l-39.3,206.54a32.55,32.55,0,0,0,6.29,25.26,30.37,30.37,0,0,0,23.19,10.83h49.12a30,30,0,0,0,29.48-24.46l39.3-206.54a31.72,31.72,0,0,0-6.29-25.26,29.61,29.61,0,0,0-23.18-11.23m0,30.48-39.31,206.53h-48.34l39.3-206.53h49.13" style="fill:#fff"/><path d="M1244.24,1236a16,16,0,0,0,13-16.44c0-3.21-2.75-5.22-8.64-5.22h0Zm9,146.78a15,15,0,0,1-14.54-11.23,416.55,416.55,0,0,1-5.11-51.33,44.45,44.45,0,0,0-2.75-15.24l-12.18,63.77a15,15,0,0,1-14.54,12.43h-48.34a15,15,0,0,1-15.75-14.37,14.31,14.31,0,0,1,0-2.07l39.3-200.53a15.52,15.52,0,0,1,11-12,263.92,263.92,0,0,1,57.77-5.61,106.28,106.28,0,0,1,60.92,14.44,60.84,60.84,0,0,1,27.51,51.33,72.94,72.94,0,0,1-34.19,63.77,81.54,81.54,0,0,1,7.86,30.88v20.85a291.12,291.12,0,0,0,3.93,34.09,15.34,15.34,0,0,1-8.38,19.78,14.57,14.57,0,0,1-5.37,1.07Z" style="fill:#fff"/><path d="M1247.78,1128.1a290.07,290.07,0,0,0-60.92,6,30.61,30.61,0,0,0-22.79,24.06l-39.3,200.52a32.58,32.58,0,0,0,6.29,25.27,30.39,30.39,0,0,0,23.18,10.82h48.34a30,30,0,0,0,24.76-12.83,28.92,28.92,0,0,0,24.37,12.83h49.91a29.67,29.67,0,0,0,24.76-13.23,31.39,31.39,0,0,0,3.54-27.67q-2.33-15.36-3.14-30.88c0-6.82,0-14.44-2-20.86a126.75,126.75,0,0,0-4.32-24.06,89.41,89.41,0,0,0,31-69,75.35,75.35,0,0,0-36.16-66.17,125.56,125.56,0,0,0-67.6-14.84m-21.61,122.72h13c17.56.66,32.34-13.33,33-31.26,0-.41,0-.82,0-1.23,0-12.43-9.43-20.45-23.58-20.45h-13.36l-9,52.14m21.61-92.24a97.4,97.4,0,0,1,53.06,12,45.12,45.12,0,0,1,22,40.1c.16,27.32-17.51,51.41-43.23,59h0c10.61,5.61,15.32,17.64,16.9,36.49a524,524,0,0,0,6.68,63.37h-49.92a388.22,388.22,0,0,1-4.71-48.13c0-23.66-7.86-30.08-22-30.08h-7.86l-14.54,78.21h-48.34l39.3-200.53a262.77,262.77,0,0,1,54.23-5.21" style="fill:#fff"/><path d="M1327.17,1382.76a15.17,15.17,0,0,1-11.4-5.21,15.46,15.46,0,0,1-3.53-12.83l39.3-206.54a15.39,15.39,0,0,1,14.93-12.43H1482a15.6,15.6,0,0,1,11.4,5.61,16.7,16.7,0,0,1,3.14,12.83l-9,44.12a15,15,0,0,1-14.93,12h-53.45v6h44.8a15.22,15.22,0,0,1,11.79,5.61,16.27,16.27,0,0,1,3.14,12.83l-8.25,40.11a15,15,0,0,1-14.54,12.43h-51.49l-2.35,11.23h52.27a15.22,15.22,0,0,1,11.4,5.21,16.71,16.71,0,0,1,3.14,12.84l-8.25,43.31a15,15,0,0,1-14.55,12Z" style="fill:#fff"/><path d="M1481.23,1130.51H1365.69a30,30,0,0,0-29.48,24.86l-39.3,206.54a32.55,32.55,0,0,0,6.29,25.26,30.36,30.36,0,0,0,23.18,10.83h117.91a30,30,0,0,0,29.48-24.46l7.86-42.51a36.23,36.23,0,0,0,0-6.42,30,30,0,0,0-8.26-20.85,27.91,27.91,0,0,0,7.47-15.24l13-40.11a30.14,30.14,0,0,0-2-17.64,30.51,30.51,0,0,0,11.79-18.85l8.26-40.11a45.67,45.67,0,0,0,0-7.21c0-16.84-13.37-30.48-29.87-30.48m-1.18,26.87-8.65,42.91H1407l-7.07,36.49h62.88l-8.25,42.51h-62.1l-8.25,40.11h70.35l-7.86,45.72H1328.74l39.3-206.54h115.55" style="fill:#fff"/><path d="M1566.12,1225.55c5.11,0,10.22-3.61,10.22-8.82s0-3.61-7.07-3.61h0Zm-17.29,88.63c6.68,0,16.9-3.61,16.9-12.83s0-7.62-12.58-8ZM1527.61,1384a266.21,266.21,0,0,1-53.84-4,14.83,14.83,0,0,1-11.44-17.44,1.55,1.55,0,0,1,0-.21l36.94-200.52a15.48,15.48,0,0,1,11.79-12,284.05,284.05,0,0,1,55.42-5.22,105.56,105.56,0,0,1,58.56,13.24,57.46,57.46,0,0,1,30.65,50.53,63.41,63.41,0,0,1-25.15,51.33,63.32,63.32,0,0,1,16.11,43.32,72.51,72.51,0,0,1-33.4,60.15,147,147,0,0,1-85.68,20.05" style="fill:#fff"/><path d="M1566.52,1128.1a285.74,285.74,0,0,0-58.56,5.61,30.21,30.21,0,0,0-23.19,24.07l-37.34,200.52c-2.9,16.45,7.55,32.27,23.58,35.69a291.07,291.07,0,0,0,56.6,4.41,160.5,160.5,0,0,0,93.93-22.86,87.86,87.86,0,0,0,39.3-73,81.46,81.46,0,0,0-11-40.1,76.65,76.65,0,0,0,20.83-54.14,72.76,72.76,0,0,0-39.31-64.57,122.61,122.61,0,0,0-64.84-15.64m-22.8,200.52c20,0,37-9.62,37-28.47s-13-23.66-31.05-23.66h-9l-7.47,52.13h12.58m4.32-88.23h9.83c21.22,0,33.4-9.62,33.4-24.86s-8.25-18.85-22-18.85a58.52,58.52,0,0,0-13.36,0l-7.86,42.51m18.47-80.21a93.12,93.12,0,0,1,51.09,11.23,42.22,42.22,0,0,1,23.19,40.1c-.48,23.69-16.68,44-39.3,49.33h0a43.71,43.71,0,0,1,29.48,44.52,58.43,58.43,0,0,1-26.34,47.72,134.91,134.91,0,0,1-78.6,17.25,246.18,246.18,0,0,1-50.7-3.61L1514.64,1165a248.19,248.19,0,0,1,52.27-5.22" style="fill:#fff"/><path d="M1751.23,1382.76a15.07,15.07,0,0,1-14.93-14.84v-31.68h-23.19l-14.54,37.3a14.13,14.13,0,0,1-13.75,9.22h-52.28A14.46,14.46,0,0,1,1620,1376a14.68,14.68,0,0,1,0-14.44L1711.54,1155a14.53,14.53,0,0,1,13.36-9.22h62.49a15.06,15.06,0,0,1,14.94,14.43l15.32,206.14a15.4,15.4,0,0,1-3.93,11.63,14,14,0,0,1-11,4.81Z" style="fill:#fff"/><path d="M1786.61,1130.51h-62.49a30.23,30.23,0,0,0-27.12,18l-91.57,206.54a31,31,0,0,0,2,29.28,30.48,30.48,0,0,0,25.15,13.63H1684a29.84,29.84,0,0,0,27.9-18.85l9-23.66v13.24c.43,16.52,13.68,29.68,29.87,29.67h50.7a28.41,28.41,0,0,0,22-9.62,28.83,28.83,0,0,0,7.86-22.86l-15.33-206.54c-1-16-14.11-28.51-29.87-28.47m-71.13,153.2h33.8v-84.62h0c-5.11,13.63-11.4,33.28-16.12,44.51l-15.32,40.11m71.13-122.72,13.36,207.34h-50.7v-46.52H1702.5L1684,1368.73h-51.49l91.58-206.54h62.49" style="fill:#fff"/><path d="M1822,1382.76a15.17,15.17,0,0,1-11.4-5.21,16.72,16.72,0,0,1-2.36-12.83l39.3-206.54a15,15,0,0,1,14.55-12.43h49.12a15.22,15.22,0,0,1,11.79,5.61,16.28,16.28,0,0,1,3.15,12.83L1899,1308.57h49.13a15.28,15.28,0,0,1,14.93,18l-9.83,42.11a15,15,0,0,1-14.54,12.43Z" style="fill:#fff"/><path d="M1909.62,1130.51h-49.13a30.42,30.42,0,0,0-29.47,24.86l-39.3,206.54A30,30,0,0,0,1820.8,1398h117.9a30.43,30.43,0,0,0,29.48-24.86l7.86-42.51a40.87,40.87,0,0,0,0-6.82c0-16.83-13.37-30.48-29.87-30.48h-31.44L1938.31,1167a30.54,30.54,0,0,0-29.48-36.49m0,30.48-30.26,162.82h67.21l-7.08,44.92H1820.8l39.3-206.54h49.13" style="fill:#fff"/><path d="M1961.5,1382.76a16.35,16.35,0,0,1-11.79-5.21,16.7,16.7,0,0,1-3.15-12.83l39.31-206.54a15.39,15.39,0,0,1,14.93-12.43h49.13a14.39,14.39,0,0,1,11.39,5.61,16.28,16.28,0,0,1,3.15,12.83l-26.73,144.38h49.13a14.47,14.47,0,0,1,11.4,5.61,15.88,15.88,0,0,1,3.14,12.44l-8.64,42.11a15.41,15.41,0,0,1-14.94,12.43Z" style="fill:#fff"/><path d="M2049.14,1130.51H2000a30,30,0,0,0-29.47,24.86l-39.3,206.54a32.54,32.54,0,0,0,6.28,25.26,30.4,30.4,0,0,0,23.19,10.83h117.91a30,30,0,0,0,29.47-24.86l7.86-42.51a40.87,40.87,0,0,0,0-6.82c0-16.83-13.37-30.48-29.87-30.48h-31L2078.62,1167a31.76,31.76,0,0,0-6.29-25.26,29.63,29.63,0,0,0-23.19-11.23m0,30.48-30.26,162.82h67.2l-8.25,44.92h-117.9l39.3-206.54h49.12" style="fill:#fff"/><polygon points="920.01 1370.33 959.31 1160.59 1077.61 1160.59 1068.17 1207.11 1003.33 1207.11 996.25 1245.2 1057.56 1245.2 1048.92 1290.92 988 1290.92 972.67 1370.33 920.01 1370.33" style="fill:#fbba07"/><path d="M1079.57,1159H957.74v2.81l-39.31,206.54v4h56.21v-3.61l14.54-77h61.31v-3.21l7.86-42.11v-4H998.22l6.68-34.89h64.85v-2.81l8.64-42.91Zm-4.32,3.21L1067,1205.1h-64.84l-8.26,40.1h61.71l-7.86,43.32H986.43l-14.94,80.21H922.36l39.31-206.54h114.76" style="fill:#fbba07"/><polygon points="1067.39 1370.33 1106.3 1160.59 1158.96 1160.59 1120.05 1370.33 1067.39 1370.33" style="fill:#fbba07"/><path d="M1160.93,1159h-55.81v2.81l-39.3,206.54v4H1122v-2.81l39.3-206.54Zm-3.93,3.21-39.31,206.54h-48.34l39.3-206.54h49.13" style="fill:#fbba07"/><path d="M1239.14,1251.22c16.47.89,30.53-12,31.4-28.83,0-.55,0-1.1,0-1.65,0-11.23-8.65-18.85-22-18.85h-11.79l-8.65,48.53Zm13,120.31h0a335.78,335.78,0,0,1-4.71-48.52c0-24.07-8.25-28.48-20.44-28.48h-8.25l-14.54,80.21h-50.31l39.3-205.73h0a261.08,261.08,0,0,1,54.63-5.22,91.57,91.57,0,0,1,53.84,12.44,46.24,46.24,0,0,1,23.19,40.1c.58,27.28-16.8,51.59-42.44,59.35,9.43,6,14.15,17.25,15.72,36.9,0,6,0,13.23,2,20.05a205,205,0,0,0,4.72,40.11v2.4Z" style="fill:#fbba07"/><path d="M1238.35,1204.3h10.22c12.18,0,20.43,6.82,20.43,16.84-.2,16.17-13.21,29.11-29,28.9l-.81,0h-9Zm9.43-46.52a264.76,264.76,0,0,0-55,5.21h-2v2.41l-39.3,202.52v4h55v-3.2l14.14-75.8h5.11c11.4,0,17.3,4.41,18.47,26.87a400.11,400.11,0,0,0,5.9,48.93v2.4h57.38l-1.18-2.4a236.65,236.65,0,0,1-4.72-37.7v-20.45a52.66,52.66,0,0,0-14.14-36.1c24.21-9.37,40-33.34,39.3-59.75a48.35,48.35,0,0,0-24-43.32,94.37,94.37,0,0,0-54.63-12.43m-21.61,95.45h13c17.57.66,32.34-13.33,33-31.26,0-.41,0-.82,0-1.23,0-12.43-9.43-20.45-23.58-20.45H1235.6l-9,52.14m21.61-92.24a97.4,97.4,0,0,1,53.06,12,45.12,45.12,0,0,1,22,40.1c.3,27.36-17.42,51.53-43.23,59h0c10.61,5.61,15.33,17.64,16.9,36.49a522.92,522.92,0,0,0,6.29,59.76h-49.92a378.68,378.68,0,0,1-4.71-48.13c0-23.66-7.86-30.08-22-30.08h-7.86l-14.54,80.21h-48.34l39.3-200.52a262.08,262.08,0,0,1,54.23-5.21" style="fill:#fbba07"/><polygon points="1325.21 1370.33 1364.11 1160.59 1483.2 1160.59 1474.16 1207.11 1408.53 1207.11 1401.84 1239.99 1465.12 1239.99 1456.08 1285.71 1393.59 1285.71 1386.12 1323.81 1456.87 1323.81 1448.22 1370.33 1325.21 1370.33" style="fill:#fbba07"/><path d="M1485.16,1159H1362.94v2.81l-39.31,206.54v4h126.16v-3.61l8.26-43.32v-4h-69.57l6.68-34.89h62.49v-2l8.26-40.11v-4h-62.1l5.89-29.67h65.64v-2.81l8.25-42.91Zm-3.93,3.21-8.64,42.91H1407l-7.07,36.5h62.88l-8.25,42.51h-62.1l-8.25,40.1h70.35l-7.86,44.52H1328.74l39.3-206.54h115.55" style="fill:#fbba07"/><path d="M1557.87,1240.79c20,0,31.84-8.42,31.84-22.46s-7.87-17.24-20.44-17.24a43.91,43.91,0,0,0-11.79,0l-7.47,40.1Zm-24.76,87.83h10.61c17.69,0,35-8.42,35-26.87s-9.43-21.65-29.08-21.65h-7.47Zm-5.5,42.91a271.53,271.53,0,0,1-51.09-3.61h0l39.3-203.32h0a291.68,291.68,0,0,1,52.66-4.82,98.93,98.93,0,0,1,52.27,11.23,44.64,44.64,0,0,1,23.58,40.11c-.45,22.9-15.4,42.86-36.94,49.32a46.62,46.62,0,0,1,27.91,44.92,58.42,58.42,0,0,1-27.52,48.93,136.45,136.45,0,0,1-78.6,18" style="fill:#fbba07"/><path d="M1543.33,1282.5h6.29c24.76,0,27.51,11.63,27.51,20s-8.65,25.27-33.41,25.27h-8.64Zm15.33-80.21h10.61c11.79,0,18.47,5.62,18.47,15.64s-11,20.86-29.87,20.86H1552Zm7.86-45.31a260.33,260.33,0,0,0-53.06,4.81h-2.36v2.4l-36.94,200.53v3.2h3.14a279.2,279.2,0,0,0,51.49,3.61,138.38,138.38,0,0,0,78.6-18,61.64,61.64,0,0,0,28.3-50.53,48.33,48.33,0,0,0-24-42.92,53.27,53.27,0,0,0,34.59-49.73,45.79,45.79,0,0,0-25.15-40.1,95.9,95.9,0,0,0-52.67-11.23m-22.79,173.25c20,0,36.94-9.62,36.94-28.47s-13-23.26-31.05-23.26h-9l-9.43,50.13h12.58m4.32-88.23h9.83c21.22,0,33.4-9.63,33.4-24.47s-8.25-19.25-22-19.25a58.52,58.52,0,0,0-13.36,0l-7.86,42.51m18.47-80.2a93.2,93.2,0,0,1,51.09,11.22,42.21,42.21,0,0,1,23.19,38.1c-.48,23.69-16.68,44-39.3,49.33h0a43.71,43.71,0,0,1,29.48,44.52,58.43,58.43,0,0,1-26.34,47.72,134.91,134.91,0,0,1-78.6,17.25,246.18,246.18,0,0,1-50.7-3.61L1514.64,1165a248.19,248.19,0,0,1,52.27-5.22" style="fill:#fbba07"/><path d="M1747.3,1283.3v-75l-3.93,12.43c-3.14,9.23-6.68,18.45-9.43,25.27l-14.15,36.89Zm2.36,87.43v-46.52h-46.37l-18.08,46.52h-55l93.14-210.15h64.85l15.72,210.15Z" style="fill:#fbba07"/><path d="M1720.58,1281.3l13.36-34.49c2.75-6.42,6.29-16,9.43-25.27a13.26,13.26,0,0,1,0-3.21v63ZM1789.75,1161h-67.6l-92.36,207.74-2.36,4.81h59v-2l17.29-44.51h42.45v46.52h57.77v-4.81l-15.33-206.54Zm-74.28,125.92h33.8v-84.62h0c-5.11,13.64-11.4,33.29-16.11,44.52l-15.33,40.1M1789,1164.19l13,204.54h-50.7v-46.52H1702.5L1684,1368.73h-51.49l91.58-206.54h62.49" style="fill:#fbba07"/><polygon points="1820.01 1370.33 1859.31 1160.59 1911.98 1160.59 1881.32 1323.41 1948.92 1323.41 1939.88 1370.33 1820.01 1370.33" style="fill:#fbba07"/><path d="M1913.94,1159h-56.2v2.81l-39.3,206.54v4h123.41v-3.61l8.25-43.72v-4.41h-66.42l29.48-160.42Zm-4.32,3.21L1879.36,1325h67.2l-7.86,43.72H1820.8l39.3-206.54h49.13" style="fill:#fbba07"/><polygon points="1959.14 1370.33 1998.44 1160.59 2051.11 1160.59 2020.84 1323.41 2088.05 1323.41 2079.4 1370.33 1959.14 1370.33" style="fill:#fbba07"/><path d="M2053.07,1159h-56.2v2.81l-39.3,206.54v4H2081l2.36-3.61,7.86-43.72v-4.41h-68.38l29.47-160.42Zm-3.93,3.21L2018.88,1325h67.2l-8.25,43.72h-117.9l39.3-206.54h49.12" style="fill:#fbba07"/><path d="M2330.93,1278.49a30.18,30.18,0,0,1-36.15-4.81,67,67,0,0,0,39.3-11.23c22.4-12.83,23.18-40.1,57.38-44.11a61.76,61.76,0,0,0-44.81-17.25,267.72,267.72,0,0,0,25.55-18.85,217.39,217.39,0,0,0,43.62-52.94,32,32,0,0,0,5.11-16,256.63,256.63,0,0,1-147.77,21.26c18.86-21.66,25.55-32.09,22.4-55.75-16.51,22.86-36.55,13.64-59.34,11.23a122,122,0,0,0-71.14,9.22,95,95,0,0,0-53.06,56.15h0C2075.3,1200,2081,1266.5,2124.65,1304a102.23,102.23,0,0,0,62.44,24.64c53.06,33.29,131.66-20.85,143.84-50.53" style="fill:#fbba07;fill-rule:evenodd"/><g style="clip-path:url(#f4b89ed0-f66d-4ecf-9afb-0817bf5d1305)"><path d="M2225.21,1347.87a77.34,77.34,0,0,1-39.3-10.83c-60.64-4.17-106.47-57.72-102.38-119.6a113.56,113.56,0,0,1,23.78-62.47h0a101,101,0,0,1,56.59-60.56,129.22,129.22,0,0,1,76.64-10h13.36c16.9,3.2,29.48,5.21,39.3-10l10.22-14v16.85a57.33,57.33,0,0,1-14.54,50.93,245.1,245.1,0,0,0,131.27-21.26l9.43-4.41v10.83a34.14,34.14,0,0,1-5.9,18.45,209.41,209.41,0,0,1-45.19,55.34,72.87,72.87,0,0,1-10.61,8.43,92.56,92.56,0,0,1,23.18,12.43l20.83,13.63-17.29,3.21a48,48,0,0,0-33.8,22.86,70.13,70.13,0,0,1-21.22,20.45h3.54l-5.9,13.64a133.91,133.91,0,0,1-76.24,59,118,118,0,0,1-35.38,6.42m-9-251a105.44,105.44,0,0,0-46,9.62,88.77,88.77,0,0,0-47.95,52.94l-2,4c-33.55,42.39-27.06,104.51,14.48,138.74a95.67,95.67,0,0,0,54.3,21.68h3.14a79.52,79.52,0,0,0,65.63,4,140.54,140.54,0,0,0,59.35-40.11,32.67,32.67,0,0,1-25.55-10l-13.36-12.44h18.08A60.32,60.32,0,0,0,2336,1254a59.46,59.46,0,0,0,17.29-17.25,69.33,69.33,0,0,1,27.12-23.26,38.73,38.73,0,0,0-28.29-7.62l-25.16,2.41,20.83-15.24,9.43-6.42a134.42,134.42,0,0,0,15.73-12,218.63,218.63,0,0,0,38.9-46.52h0a272.25,272.25,0,0,1-137.16,15.64H2261l9-10.43c13.75-15.64,20-24.06,21.22-35.29a52.87,52.87,0,0,1-39.3,4h-33.8m19.26,227.8-3.15-6-2.75-6.42h0v0l5.5,12.44h.4Z" style="fill:#fbba07"/></g><path d="M2293.2,1275.28c-12.18,3.21-19.25,3.61-27.9-5.21a51,51,0,0,0,32.62-6.82c17.29-8.82,19.26-28.47,46-31.68-12.57-9.22-18.86-15.64-34.19-14.84a167.75,167.75,0,0,0,20.44-13.63,165,165,0,0,0,35.76-40.11,21.83,21.83,0,0,0,4.32-12,196,196,0,0,1-114.36,10c15.72-15.65,21.22-23.67,19.65-40.11-13.76,16.84-28.69,8.82-46.38,6a94.83,94.83,0,0,0-54.63,4,73.65,73.65,0,0,0-43.23,40.1h0c-30.13,31.89-29.22,82.67,2,113.42a77.93,77.93,0,0,0,47.49,22.13c39.3,28.08,102.18-10.42,112.8-32.88" style="fill:#f28e00;fill-rule:evenodd"/><path d="M2211.85,1319a57.75,57.75,0,0,1-33-10c-30-3.31-55.54-23.89-65.64-52.94a81.45,81.45,0,0,1,15.72-83.82h0a74.46,74.46,0,0,1,43.63-40.1,97.14,97.14,0,0,1,55.41-4l9.83,2c13.36,2.8,24.76,5.61,35.37-8h0c0,18.45-3.93,26.47-18.47,40.11a192.78,192.78,0,0,0,112.4-10h0a29.14,29.14,0,0,1-4.72,12.44,174.52,174.52,0,0,1-35.76,40.1,105.26,105.26,0,0,1-13.36,8.82l-4.72,3.21a38.92,38.92,0,0,1,26.73,11.63l4.71,3.21h0a42.28,42.28,0,0,0-29.87,17.65,53.78,53.78,0,0,1-15.72,14,58,58,0,0,1-30.65,7.22,23.2,23.2,0,0,0,25.15,3.21h0a102.1,102.1,0,0,1-58.17,40.1,94.19,94.19,0,0,1-22.4,3.21m-6.29-193.7a82.93,82.93,0,0,0-31.83,6,72.09,72.09,0,0,0-42.84,40.11h0c-29.38,32.61-27.29,83.35,4.67,113.33a78,78,0,0,0,44.06,20.62h0a63.75,63.75,0,0,0,54.24,6.81,102.75,102.75,0,0,0,56.2-37.29,22.86,22.86,0,0,1-26.33-6h2.36a51.4,51.4,0,0,0,31.83-6.82,46.26,46.26,0,0,0,15.33-13.63,44.3,44.3,0,0,1,28.69-17.65l-3.14-2.4a38.87,38.87,0,0,0-26.73-11.23h-2.36l7.47-4.82a73,73,0,0,0,13-8.82,169.41,169.41,0,0,0,35.37-40.1,22.67,22.67,0,0,0,4.32-10.43,197.77,197.77,0,0,1-113.58,9.62h0c14.54-14.83,20.44-22.45,19.26-40.1-11,12.43-22.79,9.63-35.76,6.82l-8.26.8a149.54,149.54,0,0,0-22.4,0" style="fill:#f28e00"/><path d="M2266.09,1227.56c0,44.3-35.2,80.21-78.61,80.21s-78.6-35.91-78.6-80.21,35.19-80.21,78.6-80.21,78.61,35.91,78.61,80.21" style="fill:#e24a11;fill-rule:evenodd"/><path d="M1209.41,1050.19q-2.48,20.57-14.57,33.17T1167.27,1096a37.32,37.32,0,0,1-11.13-1.46,44.69,44.69,0,0,1-9.67-4.52l-4.32,35.78-27.09,0,14.16-117.35,27.09,0-1.08,8.94a73.83,73.83,0,0,1,13.15-8.17,33.8,33.8,0,0,1,14.69-3.12q15.11,0,22,11.87T1209.41,1050.19Zm-27.78.51q1.51-12.54-1.71-18.2t-11.51-5.66A24.59,24.59,0,0,0,1161,1028a32.61,32.61,0,0,0-7.49,3.43l-5.22,43.19a17.6,17.6,0,0,0,4.61,1.31,43.79,43.79,0,0,0,6.1.39q9.92,0,15.48-6.38T1181.63,1050.7Z" style="fill:#3b2f86"/><path d="M1245.73,1094.34l-27.09,0,14.36-119,27.09,0Z" style="fill:#3b2f86"/><path d="M1347.22,1094.44l-27.1,0,1.15-9.48a87.29,87.29,0,0,1-14,8.82,32.65,32.65,0,0,1-14.37,3q-12.93,0-19.19-8.09t-4.31-24.27l6.74-55.89,27.25,0-5.14,42.58q-.8,6.64-1,10.85a20.32,20.32,0,0,0,.81,7.12,7.17,7.17,0,0,0,3.34,4.05,14.58,14.58,0,0,0,7.07,1.38,22,22,0,0,0,6.94-1.37,33.16,33.16,0,0,0,7.69-3.74l7.35-60.85,27.09,0Z" style="fill:#3b2f86"/><path d="M1394.15,1096.85a73.79,73.79,0,0,1-17.9-2.08,61.37,61.37,0,0,1-13.55-4.83l2.73-22.63h2.25q1.75,1.46,4,3.21a33.22,33.22,0,0,0,6.45,3.68,47.42,47.42,0,0,0,8.19,3,38.91,38.91,0,0,0,10.18,1.27,28.62,28.62,0,0,0,10.31-1.75q4.59-1.76,5.05-5.58a4.74,4.74,0,0,0-1.47-4.51q-1.83-1.53-7.46-2.91-3-.77-7.62-1.65a65.21,65.21,0,0,1-8.12-2q-9.84-3.13-14.24-9.3t-3.2-16.18a25.29,25.29,0,0,1,4-10.81,32.84,32.84,0,0,1,9-9,46.33,46.33,0,0,1,13.56-6.18,62.2,62.2,0,0,1,17.49-2.28,71.27,71.27,0,0,1,16.59,1.81,57.84,57.84,0,0,1,12.4,4.33l-2.62,21.72H1438a41.2,41.2,0,0,0-4.06-2.87,52.61,52.61,0,0,0-5.51-3.1,38.46,38.46,0,0,0-7.32-2.53,36.18,36.18,0,0,0-8.51-1,24,24,0,0,0-10.19,2q-4.3,2-4.7,5.27a5.06,5.06,0,0,0,1.46,4.59c1.2,1.12,4,2.22,8.35,3.29,2.25.57,4.86,1.12,7.81,1.65a58,58,0,0,1,8.45,2.19q9,3,13.15,8.77t3,15.33a26.87,26.87,0,0,1-4.25,11.5,31.09,31.09,0,0,1-9.24,9.21,48.48,48.48,0,0,1-13.88,6.25A67.13,67.13,0,0,1,1394.15,1096.85Z" style="fill:#3b2f86"/><path d="M107.13,17.83H74V3.32H173.3V17.83H140.16v126H107v-126Z" style="fill:#3b2f86"/><path d="M385.55,17.13H319.44V65.64H369V80.16H319.44v48.51h66.11v14.52H319.44c-18.26,0-33.14-6.4-33.14-14.52V17.13c0-8.06,14.69-14.52,33.14-14.52h66.11Z" style="fill:#3b2f86"/><path d="M525.29,73.61,488.21,3.32h33.58l17,36.1a78.77,78.77,0,0,1,3.14,9.34h.8a80,80,0,0,1,3.13-9.34l17-36.1h33.58L559.3,73.61l37.08,70.28H562.87l-17-36.09a79.5,79.5,0,0,1-3.13-9.35H542a79.66,79.66,0,0,1-3.14,9.35l-17,36.09H488.27Z" style="fill:#3b2f86"/><path d="M699,23.86c0-12,22.38-21.95,49.56-21.95s49.56,10,49.56,22v120H764.83v-63H731.68v63H698.54v-120Zm33,42.49h33.14V17.83H731.93Z" style="fill:#3b2f86"/><path d="M912.57,107.18h33.21v22h33.14V80.62H945.78c-18.27,0-33.15-6.4-33.15-14.52V23.8c0-12,22.39-22,49.57-22s49.56,10,49.56,22v16H978.61v-22H945.47V66.35h33.14c18.27,0,33.15,6.4,33.15,14.51v42.31c0,12-22.38,22-49.56,22s-49.63-10-49.63-22Z" style="fill:#3b2f86"/><path d="M1295,1.23h33.14v126h33.15V98h33.14v43.72h-99.25V1.23Z" style="fill:#3b2f86"/><path d="M1495.84,22c0-12,22.38-21.95,49.56-21.95S1595,10,1595,22v99.31c0,12.06-22.39,22-49.57,22s-49.56-10-49.56-22ZM1562,15.74h-33.15V127.29H1562Z" style="fill:#3b2f86"/><path d="M1732,15.74h-33.14V1.23h99.31V15.74H1765v126h-33.2v-126Z" style="fill:#3b2f86"/><path d="M1926.06,15.74h-33.14V1.23h99.25V15.74H1959v126h-33.14v-126Z" style="fill:#3b2f86"/><path d="M2197.32,15.74h-66.1V64.26h49.56V78.77h-49.56v48.52h66.1V141.8h-66.1c-18.26,0-33.15-6.39-33.15-14.51V15.74c0-8,14.7-14.51,33.15-14.51h66.1Z" style="fill:#3b2f86"/><path d="M2306.05,1.23h66.1c18.26,0,33.14,6.4,33.14,14.51V60.32c0,6.65-6.64,9.35-14.69,11.2,8.05,1.47,14.69,4.36,14.69,13v46.86c0,3.94,3.51,6.83,8.06,10.39h-34c-3.5-2.89-7.07-6.82-7.07-10.39V78.77h-33.14v63H2306V1.23Zm33.14,63h33.14V15.74h-33.14Z" style="fill:#3b2f86"/><path d="M2553,79.2c-10.4-1.84-18.27-4.55-24-8-5.78-3.75-8.91-8.06-8.91-12.67V1.29h33.14V64.51h33.15V1.29h33.14V58.48c0,4.55-3.14,8.92-8.92,12.67-5.78,3.5-13.89,6.21-24,8V142h-33.15V79.2Z" style="fill:#3b2f86"/></g></g></svg>