<svg xmlns="http://www.w3.org/2000/svg" xmlns:xlink="http://www.w3.org/1999/xlink" width="3457.7" height="1743.18" viewBox="0 0 3457.7 1743.18"><defs><clipPath id="b24afa3d-7b7d-4602-8051-9a4d18c505ce"><rect x="1165.6" y="1297.04" width="1990.4" height="446.13" style="fill:none"/></clipPath></defs><g id="b4622782-cd26-46df-b0af-87d2cf082f15" data-name="Layer 2"><g id="a30acbe2-3737-4746-b21a-0ca5e6083e59" data-name="Layer 1"><path d="M3366.1,1217.29l-11.8-58.8-6.6-147-1.3-28.2-1.5-34.1,14.1-44.7-9.4-91.7V674.09l-9.4-98.8,23.5-54.1-.4-1.5-6.5-1.6v-.2l6.9,1.6-12.5-42.3-.4-.2-5.8-19.5,21.2-51.7-16.6-115,23.5-56.4-134,25.9-96.4-32.9L3081.5,279l-58.8-28.2-30.6,32.9-68.2-32.9-105.8,47-75.1-22.4-28.9-8.6-30.1-9-169.3,14.1L2446.5,246l-23.4,44.8-202.3-33-32.9,18.8L2075,224.89l-68.2,25.9-110.5,30.6-82.3-37.6-188.1,23.4-80-32.9-134,21.2-75.3-14.1-167,32.9L619.3,1405.39l87,2.4,80,21.2,42.3-4.7,65.9-16.5,7.1,23.5,49.4-18.8,84.7-7.1,44.7,28.2,4.7-23.5,35.3-4.7,47.5,47.1,95.9-23.5,25.9-25.9H1325l21.2,18.8,72.9,7.1,70.5-4.7-1.88-66,91.53,5.4,168.45-42,25.9-7.1,72.9,4.7,12.53,62.21,39.87,42.64c-4.7-58.8,97.4-11.4,97.4-11.4l120.88-13c10,27.6,77,8.5,69.92,21.2-16.9,30.3,74.2,10.1,84.3,23.6s97.8-107.9,131.5-43.8,195.5,50.6,215.7,40.5c17.3-8.6,184.9-29.6,233.1-35.5a277.15,277.15,0,0,1,41.9,9.1l65.8-2.4,175.5,14.8c.5,1.1.8,1.7.8,1.7l40,14.1,25.9-18.8,171.7,11.8-18.8-183.4Zm-189.6-175.5c0-1.7.1-3.3.1-4.7C3176.6,1038.49,3176.5,1040.09,3176.5,1041.79Zm80.9-17.1a6.91,6.91,0,0,0,1,.5A6.91,6.91,0,0,1,3257.4,1024.69Z" style="fill:#0f9572"/><path d="M509.9,1426.09c-22.2-3-61.7-13.1-61.7-13.1l33-38.4,17.2-47.2-6.7-19.6-25.3-26.6c-1-21.9-8.8-31-8.8-31-16.5-52.2-15.5-41.8-15.5-41.8-18.9-23.9-39.4-29.7-39.4-29.7l7.8-18.2,57.6-1.3c29,29.7,33,51.2,33,51.2,33,16.9,29,22.9,29,22.9l40.1,14.8,33,52.2L582,1245l-76.2-40.5c-2-19.6,0-22.9,0-22.9a45.23,45.23,0,0,1-5.1-21.2c-8.1-74.8-2-61.7-2-61.7l8.1-42.5c17.9-45.2,22.2-38.4,22.2-38.4,14.2,2.4,16.2,3.7,16.2,3.7,14.2,58-5.1,71.1-5.1,71.1l8.1,13.8,1,29.7,8.1,19.6-8.1,11.8c14.2-8.1,17.2-3,17.2-3l5.1-66.1,5.7-15.2,5.1-20.2c14.2-16.2,35.4-52.2,35.4-52.2l21.2,3.7-1,42.5-10.1,33.4,2,10.8-9.1,33.4,2,19.6-13.5,13.1,15.2,3.4c18.9-22.9,28.7-41.5,28.7-41.5l14.2-9.1,22.2,13.8,3,12.8c-8.1,22.9-5.7,34.4-5.7,34.4-19.9,17.5-25.3,33.4-25.3,33.4l-18.9-3.7-4-8.1c0-22.9,8.1-44.2,8.1-44.2h-3l-3,10.1-5.1,6.7-6.7,39.4c17.9,8.1,26.3,15.8,26.3,15.8l24.3-16.9,9.1-22.9c10.1,9.1,16.2,10.1,16.2,10.1l4,23.9,3,29.7c-17.2,14.8-25.3,28.7-25.3,28.7-9.1-6.7-16.2-6.7-16.2-6.7l3-26.6c5.7-9.8,5.1-15.8,5.1-15.8l-9.1,5.7-5.7,2,1,23.6-5.1,23.9,12.1,4.7-1,27.6c-24.3,27.6-33.4,50.9-33.4,50.9l-22.6,14.2-22.2-4.7c3,10.1,15.2,19.6,15.2,19.6l-9.4,12.5-74.8,12.8-13.5-.7" style="fill:#fdba26"/><path d="M70,245.89l9.8,25.6,17.9,169.6L69,524l37.1,80.2L77.4,804.39l20.9,44.2c-13.1,56.3-11.1,81.9-11.1,81.9l-24.9,72.8L85.2,1033,70,1091l26,95.7c-5.1,55.3-16.2,83.9-16.2,83.9l17.2,21.9-20.9,131.1,38.1-20.6,65.7,17.5,52.9-16.9,137.9-10.1c58-3,74.8,18.5,74.8,18.5l33-38.4,16.9-47.2-6.7-19.6-24.9-26.6c-1-21.9-8.4-31-8.4-31-16.5-52.2-15.5-41.8-15.5-41.8-18.9-23.9-38.8-29.7-38.8-29.7l7.4-18.2,57.3-1.3c28.7,29.7,33,51.2,33,51.2,33,16.9,28.7,22.9,28.7,22.9l39.8,14.8,33,52.2L579.4,1244l-75.8-40.5c-2-19.6,0-22.9,0-22.9a44.63,44.63,0,0,1-5.1-21.2c-7.8-74.8-2-61.7-2-61.7l7.8-42.5c17.9-45.2,21.9-38.4,21.9-38.4,14.2,2.4,16.2,3.7,16.2,3.7,14.2,58-5.1,71.1-5.1,71.1l7.8,13.8,1,29.7,7.8,19.6-7.8,11.8c14.2-8.1,16.9-3,16.9-3l5.1-66.1,5.7-15.2,5.1-19.9c14.2-16.2,35.1-52.2,35.1-52.2l20.9,3.7-1,42.5-9.8,33.4,2,10.8-8.8,33.4,2,19.6L605.8,1167l15.2,3.4c18.9-22.9,28.3-41.5,28.3-41.5l14.2-9.1,21.9,13.8,3,12.8c-7.8,22.9-5.7,34.4-5.7,34.4-19.9,17.5-24.9,33.4-24.9,33.4l-18.9-3.7-4-8.1c0-22.9,7.8-44.5,7.8-44.5h-3.4l-3,10.1-5.1,6.7-6.7,39.4c17.9,8.1,26,15.8,26,15.8l23.9-16.9,8.8-22.9c9.8,9.1,15.8,9.8,15.8,9.8l4,23.9,3,29.7c-17.2,14.8-24.9,28.7-24.9,28.7-8.8-6.7-16.2-6.7-16.2-6.7l3-26.6c6.1-10.1,5.1-15.8,5.1-15.8l-8.8,5.7-6.1,2,1,23.9-5.1,23.6,12.1,4.7-1,27.6c-23.9,27.6-33.4,50.9-33.4,50.9l-22.6,14.2-21.9-4.7c3,10.1,15.2,19.6,15.2,19.6l-10.4,12.5,39.1,3.7,42.8-6.7c48.9,5.7,93.7,21.9,93.7,21.9,73.8-21.9,138.9-22.9,138.9-22.9l9.8,10.8c132.8-14.8,221.5-9.1,221.5-9.1a709.27,709.27,0,0,1,125.7,17.5l-18.9-74.8,19.9-38.4-17.2-74.8,14.2-43.5-6-128,16.2-70.1a384.44,384.44,0,0,1-21.9-89.7l27.6-143.9-8.8-48.2,12.1-88.7-12.1-56.3c-16.9-194.2,15.2-319.6,15.2-319.6l-19.9,3.7-95.7-3.7c-110.5,23-125.7,19.6-125.7,19.6l-80.9-1L942.7,254c-34,2-53.9,10.1-53.9,10.1H782.3l-54.9-4.7-11.1-13.8-91.4,17.5-28-1-43.5,15.8-58.3-17.1a475.54,475.54,0,0,1-79.9,24.6l-28.7-1-76.9-31.3-57,16.9-44.8-9.1L189.9,271C132,251,70,245.89,70,245.89" style="fill:#0f9572"/><path d="M1067.4,1440.89c15.8-11.8,35.4-20.2,35.4-20.2-5.1-7.8-8.1-9.8-8.1-9.8-22.9-.7-46.5,1-46.5,1h-.3c12.1,11.8,19.5,29,19.5,29" style="fill:#0f9572"/><path d="M90.2,714.49a221.62,221.62,0,0,1-13.8-29l-1.3-.7-22.9,13.8c-21.2-14.8-35.7-40.8-35.7-40.8C6.4,627.09,0,616.69,0,616.69c17.2-4.7,36.4-25.6,36.4-25.6l2.4,9.1c8.1,19.2,9.8,31.3,12.5,39.4,3,8.8,9.8,28.7,9.8,28.7A182.23,182.23,0,0,1,80,644.39l9.8-15.5a191.85,191.85,0,0,0,9.8,27.3c-6,35.4-9.4,58.3-9.4,58.3" style="fill:#0f9572"/><path d="M498.1,215.29c9.8-9.1,34-24.6,34-24.6,6.4,14.2,44.8,40.1,44.8,40.1l1.7.3,23.6-20.2,13.1-15.2.7-.3,9.8,12.1,5.1,5.4,12.8,14.8c16.9,15.8,22.9,28.7,22.9,28.7l-36.1,6.7c-10.1-19.6-16.9-27-16.9-27l-2.4-1.3c-2.4-6.1-4.7-6.4-4.7-6.4h-1.3c-16.2,11.1-15.8,14.5-15.8,14.5a81.18,81.18,0,0,0-24.3,17.5c-28.9-35.4-67-45.1-67-45.1" style="fill:#0f9572"/><path d="M817.3,210.49l10.8-3.4,32.7-16.2,7.8-3.7.7.3c-8.1,19.2-8.1,44.2-8.1,44.2l1,5.7h-1l-8.1-6.4c-10.8-3.4-20.6-10.8-20.6-10.8a44.55,44.55,0,0,0-15.2-9.7" style="fill:#0f9572"/><path d="M1273.1,431.29c.3-20.6,1-33,1-33,9.4-2.4,22.9-3.7,22.9-3.7l.3-.7c-8.1-14.5-13.5-19.2-13.5-19.2,18.2-20.2,30.3-29.3,30.3-29.3,10.8-5.1,15.2-8.4,15.2-8.4l27-15.5a280.16,280.16,0,0,0,22.2,33.7c-47.5,6.4-66.4,20.6-66.4,20.6l8.4,11.8,25,41c-43.5-5-72.4,2.7-72.4,2.7" style="fill:#0f9572"/><path d="M340.7,389.19l-13.1,58,11.1,71.1c42.1,77.2,76.2,105.8,76.2,105.8l30,33.4c22.2,48.2,45.2,80.9,45.2,80.9l2,33.4,15.2,5.7c26.3-3,34-5.7,34-5.7l150,28.7,98.4,58,125.7,67,83.6,13.8c65.4-3.7,94.4-15.8,94.4-15.8l19.9-13.8L1086,879l-30-21.9c-59.4-37.8-105.9-52.3-105.9-52.3-138.9-10.1-246.4-28.7-246.4-28.7-119.7-9.1-171.9-23.6-171.9-23.6l-21.2,5.7-6.1-24.6L490.3,707c19.9,11.8,33.4,31.3,33.4,31.3,103.5,23.6,124,13.8,124,13.8l36.4,10.8,76.2,3,31,8.1c50.2-2,79.6,4.7,79.6,4.7l3-15.8,24.3-43.5,43.1-106.5c23.3-75.8,21.2-93.7,21.2-93.7-12.1-51.6-23.3-60-23.3-60L912,439.09l-44.2,11.8-39.1-12.8a60,60,0,0,0-6.7-18.5l.7-1c8.4,6,10.8,11.4,10.8,11.4l22.6-2.4-23.6-40.4c-49.6-.3-86-8.1-86-8.1-49.6,30-88.3,45.8-88.3,45.8l-52.9,57.6L551,529.69l-12.5,19.2-6.4,4.4v21.9l53.9,58c68.4,48.2,116,91,116,91l56.3,28-19.9,5.7-77.2-41.8-56-48.2-40.1-30-49.9-62.4-4-22.9,32-25.6a238.36,238.36,0,0,0-25.6-15.8l-35.1-38.4-33-34.4-40.8-39.1c-18.9-4.4-39.1-12.5-39.1-12.5l-28.9,2.4" style="fill:#fdba26"/><path d="M394.9,998.59c-29-36.7-41.1-38.4-41.1-38.4l-31,1,2-29.7,28-52.2-89.3-46.5c-14.2-28.7-16.2-45.2-16.2-45.2-57.3-13.8-89.3-44.5-89.3-44.5L128,767l-3,4.7a312.23,312.23,0,0,1-34-57.3l8.1-59c17.9,58,40.1,84.9,40.1,84.9,17.1-17.4,37.3-30.5,37.3-30.5,33,41.5,67.4,56.3,67.4,56.3-3-16.9,3-44.5,3-44.5l56.3,2,63.4,35.7-25.3,37.4c-44.2,3.7-62-4.7-62-4.7l1,34.4c61.3,9.1,109.6,28.7,109.6,29.7s-39.4,64.4-39.4,64.4l-8.1,21.9,42.1-3.7c13.1,23.6,33.7,32,33.7,32-13.5,5.7-23.3,27.9-23.3,27.9" style="fill:#fdba26"/><path d="M3445.9,1016.89a57.77,57.77,0,0,1-35.1,5.1l-17.5,27-9.1-15.2s-19.2-53.3-19.6-53.9c-.3-.3-7.4,3.7-18.5,10.8l1.3,28.3,14.5-6.4,17.9,41.5,16.9,15.2,14.2-18.9s6.7-6.4,42.5-6.4C3452.7,1043.79,3443.6,1027.59,3445.9,1016.89Z" style="fill:#0f9572"/><path d="M3294.9,1031.29l-21.2-15.8s13.5-6.7,32.4-34.7l-10.4-32.7L3244.5,969l-28,32.7s13.5,16.9,24.9,22.9c0,0-24.9,13.5-65.4,13.5a188.45,188.45,0,0,0,.7,36.7s-26.6.3-69.8-16.2l31.3,32.7a262.11,262.11,0,0,0,50.2,6.7l-1.3-4v-29.3s33.4-4.7,68.8-32.4c0,0,10.8,6.7,34.7,11.8l55.6-24.9-1.3-28.3A446.66,446.66,0,0,0,3294.9,1031.29Z" style="fill:#ffc224"/><path d="M1193.8,809.49c37.8-10.1,56.6-21.6,56.6-21.6.7,38.1-12.1,55.6-12.1,55.6-7.7-7.7-44.5-34-44.5-34" style="fill:#fdba26"/><path d="M1265.8,1207.29c37.8-10.1,56.6-21.6,56.6-21.6.7,38.1-12.1,55.6-12.1,55.6-7.8-7.7-44.5-34-44.5-34" style="fill:#fdba26"/><path d="M709.1,895.49c41.1-15.5,47.2-24.6,47.2-24.6.7,16.5,9.4,45.5,9.4,45.5-34.7-13.1-56.6-20.9-56.6-20.9" style="fill:#fdba26"/><path d="M508.9,908.29c21.2-5.7,64.4-13.5,64.4-13.5,57.6,12.8,57.3,16.2,57.3,16.2L611,909l-40.8-5.4c-34.7,1-61.3,4.7-61.3,4.7" style="fill:#fdba26"/><path d="M532.8,933.29l-.3-1.3,14.2-3.7,56.6-5.4c45.2,13.8,58.3,24.9,58.3,24.9l-14.5-5.1c-10.8-3-21.6-5.7-21.6-5.7-15.2-7.5-92.7-3.7-92.7-3.7" style="fill:#fdba26"/><path d="M1160.8,747.89c-12.1-18.5-21.2-31-24.3-32a136.16,136.16,0,0,0-37.4-6.4,391.83,391.83,0,0,1,43.1-23.3c-4-8.8-9.4-28-9.4-28l29,19.9a389.84,389.84,0,0,1,39.4-14.2l-14.2,29.7,15.8,24.6c-9.8.3-31.3-.7-31.3-.7-5.3,14.5-10.7,30.4-10.7,30.4" style="fill:#fdba26"/><path d="M1129.5,381.39l-1.3-13.5,3-24.9c18.9,14.5,37.1,27.3,37.1,27.3-32.1,7.1-38.8,11.1-38.8,11.1" style="fill:#fdba26"/><path d="M1207,271.19l-.3-1.3h15.2c33.4,3.7,38.4,2.4,38.4,2.4l1.7,1.7-1.3,2s-4,24.6-4,25.6c-.3,1.3-2.4,17.2-2.4,17.2l-1.7,5.7-1,5.7-1.3,8.4-1.7,1.3-.3-9.1,1.3-28,1.3-5.7.3-9.1,1.3-8.4-33.4-7.8-12.1-.6" style="fill:#fdba26"/><path d="M725.3,1085.59l8.1,28.7,6.7,6.4,5.1,30.7-5.1,2.7,3.4-39.4c-6.1-15.2-7.8-16.5-7.8-16.5l-10.4-12.6" style="fill:#fdba26"/><polygon points="804.5 1119.29 791.7 1115.99 788.3 1101.79 785.6 1090.69 796.1 1108.89 804.5 1119.29" style="fill:#fdba26"/><path d="M841.9,1062.39l23.6,15.2,17.5,4.7-4,2.7-.7,2.4c-20.6,13.1-36.4,35.1-36.4,35.1l-1.3.3v-12.5l1-22.2c1.7-16.3.3-25.7.3-25.7" style="fill:#fdba26"/><path d="M692.6,1404.19l1-1.3,10.4-.7,26-1.3,25.3,1.7,17.9,2.4,21.6,3,8.4-.3,10.4,1.7,18.9-.3-4.4,1.7-8.1,1.3H804.2c-13.1,1.7-19.2,4.4-19.2,4.4-52.2-10.8-68.4-11.1-68.4-11.1l-14.8-.7-9.2-.5" style="fill:#fff"/><path d="M858.4,948.79l7.4,2,31,8.4c19.6,8.4,29,6.4,29,6.4,5.1,4,28.3,9.8,28.3,9.8l26.4,3.4,25.3,3-2.7,1c-30,2-42.8,1-42.8,1-50.9-9.4-61.3-16.9-61.3-16.9l-17.9-5.4-4.4-1.3-16.9-10.1-1.4-1.3" style="fill:#fdba26"/><path d="M902.6,1006.69l4,1.7-7.4,3.4-11.5-.3c-23.6-5.1-52.2-20.2-52.2-20.2l2.4-.7,16.2,6.4,36.4,9.1,12.1.6" style="fill:#fdba26"/><path d="M107.1,1389.69l-1.7-1c4.7-10.8,7.8-19.2,7.8-19.2,5.1-14.2,7.8-32,7.8-32l1-.3.7,15.5-.3,13.8-1.7,8.4.3,1,17.2-4,12.8,9.8-1,.7-13.1-2.7c-15.2,6.4-23.3,7.8-23.3,7.8l-6.5,2.2" style="fill:#fdba26"/><path d="M204.2,1397.39l-1-.7,3.7-2,8.4-3,6.7-1,10.8-3,5.7,2.7c-21.5,3-34.3,7-34.3,7" style="fill:#fff"/><path d="M200.1,1312.49l-5.7-31.3c6.4-38.1,4.7-78.2,4.7-78.2l1.7.7c3,25.3,1.3,60.3,1.3,60.3l1,14.8-1.3,15.2.7,18.5h-2.4" style="fill:#fdba26"/><path d="M415.5,1270.29l-1-7.8c-12.5-9.4-17.9-16.5-17.9-16.5l-1.3-4.7,1.7-.3c10.8,6.1,21.9,16.9,21.9,16.9l.3,2.4,3,6.4,4,19.6-1.3.3c-4.7-11.2-9.4-16.3-9.4-16.3" style="fill:#fdba26"/><path d="M417.9,1128.09l7.8-1.7,28.7-3.7c25.3,5.4,14.8,11.5,14.8,11.5l-1.3.7-6.4-2c-19-5.5-43.6-4.8-43.6-4.8" style="fill:#fdba26"/><path d="M196.4,1030.69l-1.3-1,6.1-3,27-19.9,4-3,1.3.3,2.4,10.8c2.4,21.2,6.4,32,6.4,32l-6.4-3c-27.6-13.5-27.3-11.8-30.7-12.5-6.8-1.4-8.8-.7-8.8-.7" style="fill:#fdba26"/><path d="M259.1,1014.19c-2-10.1-1-14.8-1-14.8,2-12.5,1.3-19.6,1.3-19.6l-1.3-16.2,7.8-38.1c1-6.1,3.4-12.5,4-17.9,1-7.4,8.1-17.2,8.1-17.2l2-.3c-11.1,28.7-8.4,42.1-8.4,42.1l-6.4,47.5c1,12.8.3,17.5.3,17.5-4,5.7-4.7,17.5-4.7,17.5l-1.7-.5" style="fill:#fdba26"/><path d="M154.6,454.89l-8.1-19.6-4-11.8-4,2L183.3,438c-15.9-.3-28.7,16.9-28.7,16.9" style="fill:#fdba26"/><path d="M140.8,552.29l12.1-25.6,2-11.5,2-10.1,1.3-1-1.3,19.6c0,24.3-3,36.1-3,36.1l3,4.4,4,27,1.7-3.7c-16.1-31.1-21.8-35.2-21.8-35.2" style="fill:#fdba26"/><path d="M415.5,394.59,428.6,373c5.1-6.7.3-11.8.3-11.8l-18.2-28.7.3-1.3,11.1,3,22.2,3.7,6.4,2c7.8-13.8,13.1-18.5,13.1-18.5l6.7-12.5,1.3.7a246.06,246.06,0,0,1,4.7,35.4l.3,1.3,5.1,1.7,26.6,18.9c1,1.3-1,2-1,2-10.8,4.7-29.3,12.1-29.3,12.1,1,17.5.3,33,.3,33l-4.7-3.4L450.2,387c-23.2,3.2-34.7,7.6-34.7,7.6" style="fill:#fdba26"/><path d="M658.9,375.69h0l-6.7-5.4-28-15.8-40.8-25.6-6.4-3.4c16.5-19.6,36.7-37.1,36.7-37.1l6.7,2c12.5.3,23.6,7.4,23.6,7.4h2.4l-1-8.8c-3.4-12.8-13.8-25.6-13.8-25.6l36.1-6.7c2,2.4,4.7,10.4,4.7,10.4,8.8,21.9,1.3,36.4,1.3,36.4-.3,3.4-1,3.4-1,3.4l-.7,3,4,2c20.6,10.8,48.2,36.7,48.2,36.7-13.1,8.4-26.3,25.3-26.3,25.3l-1.3-.7-12.1-24.5a125.62,125.62,0,0,1-14.8-16.2H669l-1.7,17.9-8.4,25.3" style="fill:#fdba26"/><path d="M748.2,293.09a96.83,96.83,0,0,0,21.9-3l26.3,3-12.8,1c-13.5,1.7-35.4-1-35.4-1" style="fill:#fff"/><path d="M115.8,327.49l-2-.3-4.4-10.4c-1-14.2.7-20.6.7-20.6l-4.4-25.3,1.3-2,8.1,2.4h12.1c17.9,2,19.9,4.7,19.9,4.7a9.14,9.14,0,0,0,5.4.7l24.3,4.7c10.8,3.7,22.6-.3,22.6-.3l16.5,2.7,30-.3,15.5-4.4,22.2-3.7,9.8-3.7,6.4,2,4,2,5.4,1.3,8.8,2.4,11.8,4-4.4.7-14.5-2.4-6.7-.3-3-.3-10.1-.3a42.5,42.5,0,0,0-15.2,4.7l-16.9,2a111.21,111.21,0,0,1-23.9,2.7l-14.5-.3-29-5.4a305.49,305.49,0,0,1-39.4-.7,30.6,30.6,0,0,0-8.8-2.4c-13.8-.7-28.3-5.1-28.3-5.1l-1.3.3a40.57,40.57,0,0,0,0,11.8l.3,5.1c-2.3,41.1,1.7,34,1.7,34" style="fill:#fdba26"/><path d="M278,780.89l-.3-48.2c9.1,2,21.9,1,21.9,1,17.9,8.4,33,26.6,33,26.6-18.5,16.2-24.6,14.8-24.6,14.8-19.2,6.5-30,5.8-30,5.8" style="fill:#0f9572"/><path d="M992.3,1374.19l40.8-40.5,45.2-22.9a154.68,154.68,0,0,0-31.7-30l-.7-2.4,4-3,27.3-37.4,1.3-13.1,4.4-22.2-5.4,2.4-49.9,17.2-46.1,4.6,10.1-43.5a103.15,103.15,0,0,0,9.8-27.6c17.2-18.2,25.3-33,25.3-33l22.6-19.9a10.86,10.86,0,0,1,3,3c1,1.3,35.7,32.4,35.7,32.4,7.8,22.2,6.7,36.7,6.7,36.7l1.3,1.7,35.7-24.9,5.1-3.4v-1.3l-5.1-6.4-18.9-30.3-11.1-21.2-2.4-3.7,5.7-2.4,17.5-8.1c24.6-18.5,30-32.4,30-32.4a116.05,116.05,0,0,0,32,28c-26.3,17.2-49.6,22.9-49.6,22.9l-.3,3,2,11.5.3,11.5,5.4,9.1c14.5,12.8,16.2,18.2,16.2,18.2l5.4,5.7-14.2,10.3-29.7,21.9-9.8,5.4-13.5,6.7c1.3,39.4-3,57.3-3,57.3-12.5,24.6-19.6,31.3-19.6,31.3l-.3,1.3c24.6,17.5,38.4,30.7,38.4,30.7l-9.1,6.4-20.6,16.2-26.6,17.2-11.1,9.1c-5.1,6.7-8.8,8.4-8.8,8.4,29,12.5,45.2,23.3,45.2,23.3a87.92,87.92,0,0,0,13.1,13.8c-37.8-.3-46.5,1-46.5,1-31.3-27.2-55.5-38.6-55.5-38.6" style="fill:#0f9572"/><path d="M1039.8,1128.79l33.4,24.3,1,9.1,6.4,21.9-17.9,6.7-4,2-33.4,10.8-6.7,2.7a431.64,431.64,0,0,0,20.2-75.8l1-1.7" style="fill:#0f9572"/><path d="M1448,358.49l-34-11.8-25.3-19.2a96,96,0,0,0-8.1,26.3l-1,1-3-1.3-28.3-5.1-7.8,2.7-13.8,3.4,3,2.4,23.3,23.3,15.5,24.5-27.3,6.4a76.73,76.73,0,0,0-18.2,2c-15.2-4.7-25.6-5.1-25.6-5.1l-17.5-7.1a8.16,8.16,0,0,1,1-2.7c.3-1,8.4-29,8.4-29,10.4-10.4,18.9-13.8,18.9-13.8l.7-1.3L1285.3,341l-3.4-2-.7.3-2.4,4.7-11.8,18.9-8.8,12.1-1.3,2.4-3-2.7-9.4-7.8c-17.2-8.8-26.6-8.1-26.6-8.1a74.48,74.48,0,0,0,7.1-25.6c16.7,10.2,26.1,21.6,26.1,21.6l1.7-.7,5.7-4.4,6.4-3.4,3.7-5.7c3.4-11.8,5.7-14.2,5.7-14.2l1.7-4.7,9.8,5.4,20.6,10.8,5.7,4,7.4,5.7c21.9-11.5,33-13.8,33-13.8,17.2.3,23.3,2.4,23.3,2.4l1-.3a226.07,226.07,0,0,1,6.7-30l6.1,3.4,14.8,7.1,16.9,10.1,8.1,3.7c5.4,1,7.1,2.7,7.1,2.7-1-19.9.7-31.7.7-31.7a50.38,50.38,0,0,0,4-11.1c10.1,21.2,13.5,26,13.5,26-7,25.2-6.7,42.4-6.7,42.4" style="fill:#fdba26"/><path d="M1296.7,399l4.4-25.6,4.7-3,10.4-9.8,8.8,8.1,2.4,1.7,15.1,15.8,3.4,3a275.44,275.44,0,0,0-48.2,9.4l-1,.4" style="fill:#0f9572"/><path d="M1919.1,464.09l47.6,16.5,35.4,26.9a131.11,131.11,0,0,0,11.3-36.8l1.4-1.4,4.2,1.9,39.6,7.1,10.8-3.8,19.3-4.7-4.2-3.3L2052,434l-21.7-34.4,38.2-9a107.92,107.92,0,0,0,25.5-2.8c21.2,6.6,35.8,7.1,35.8,7.1l24.5,9.9a13.87,13.87,0,0,1-1.4,3.8c-.5,1.4-11.8,40.5-11.8,40.5-14.6,14.6-26.4,19.3-26.4,19.3l-.9,1.9,33,18.4,4.7,2.8.9-.5,3.3-6.6,16.5-26.4,12.3-17,1.9-3.3,4.2,3.8,13.2,10.8c24,12.3,37.2,11.3,37.2,11.3a102.8,102.8,0,0,0-9.9,35.8c-23.6-14.1-36.8-30.2-36.8-30.2l-2.4.9-8,6.1-9,4.7-5.2,8c-4.7,16.5-8,19.8-8,19.8l-2.4,6.6-13.7-7.5-28.8-15.1-8-5.7-10.4-8c-30.6,16-46.2,19.3-46.2,19.3-24-.5-32.5-3.3-32.5-3.3l-1.4.5c-4.2,25.9-9.4,41.9-9.4,41.9l-8.5-4.7-20.7-9.9-23.6-14.1-11.3-5.2c-7.5-1.4-9.9-3.8-9.9-3.8,1.4,27.8-.9,44.3-.9,44.3a73.54,73.54,0,0,0-5.7,15.6c-14.1-29.7-18.9-36.3-18.9-36.3,10.2-35.2,9.7-59.2,9.7-59.2" style="fill:#fdba26"/><path d="M2130.8,407.49l-6.1,35.8-6.6,4.2-14.6,13.7-12.3-11.3-3.3-2.4-21.2-22.2-4.7-4.2a384.57,384.57,0,0,0,67.4-13.2l1.4-.4" style="fill:#0f9572"/><path d="M1177,1423.69l11.8-34,19.2-25.3a95,95,0,0,0-26.3-8.1l-1-1,1.3-3,5.1-28.3-2.7-7.8-3.4-13.8-2.4,3-23.3,23.3-24.6,15.5-6.4-27.3a76.73,76.73,0,0,0-2-18.2c4.7-15.2,5.1-25.6,5.1-25.6l7.1-17.5a8.16,8.16,0,0,1,2.7,1c1,.3,29,8.4,29,8.4,10.4,10.4,13.8,18.9,13.8,18.9l1.3.7,13.1-23.6,2-3.4-.3-.7-4.7-2.4-18.9-11.8-12.1-8.8-2.4-1.3,2.7-3,7.8-9.4c8.8-17.2,8.1-26.6,8.1-26.6a74.48,74.48,0,0,0,25.6,7.1c-10.1,16.9-21.6,26.3-21.6,26.3l.7,1.7,4.4,5.7,3.4,6.4,5.7,3.7c11.8,3.4,14.2,5.7,14.2,5.7l4.7,1.7-5.4,9.8-10.8,20.6-4,5.7-5.7,7.4c11.5,21.9,13.8,33,13.8,33-.3,17.2-2.4,23.3-2.4,23.3l.3,1a226.07,226.07,0,0,1,30,6.7l-3.4,6.1-7.1,14.8-10.1,16.9-3.7,8.1c-1,5.4-2.7,7.1-2.7,7.1,19.9-1,31.7.7,31.7.7a50.38,50.38,0,0,0,11.1,4c-21.2,10.1-26,13.5-26,13.5-25.1-7.2-42.3-6.9-42.3-6.9" style="fill:#fdba26"/><path d="M1136.5,1272.39l25.6,4.4,3,4.7,9.8,10.4-8.1,8.8-1.7,2.4-15.8,15.2-3,3.4a275.44,275.44,0,0,0-9.4-48.2l-.4-1.1" style="fill:#0f9572"/><path d="M2769.7,278l4.7.7,1-2a137.11,137.11,0,0,1-2.7-40.8l45.5,13.1,53.6-1.7s-9.4-23.3-13.5-62.4c0,0-7.1-4.7-32.7-29a103.08,103.08,0,0,1,.3,17.9s4.4,17.5,16.2,44.5c0,0-3.4-1.3-11.1.3l-13.1-1-29-5.1-24.6-2-10.4-1.3s1,17.9,6.7,45.5l-1,.7s-9.4,0-33.4,9.1a150.74,150.74,0,0,0-12.8,10.4l29,8.8Z" style="fill:#0f9572"/><path d="M2687.5,301.59l-13.5-3.7-10.1-2.4-34-4-16.5-2v7.4s-2.4,4.7-.7,22.9l-2,9.8-7.1,8.1-5.7,9.1-2.4,2s-19.2-10.8-48.2-15.8a102.38,102.38,0,0,1,4,39.4s12.5-6.1,41.1-3l17.2,5.7,5.4,2,.7-4,5.7-21.6,6.4-32.7.7-7.8,1-1,5.7,1,40.1,5.7v2s-9.8,9.4-18.5,29.3c0,0,3.7,43.1,3.7,44.8a16,16,0,0,0,0,4l28,.7s14.8-5.1,38.4-6.7a108,108,0,0,1,24.3-12.8l34.4-23.2-34.7-26-44.8-19.9-5.4-2,17.2-12.1,9.4-8.1,14.8-3-29-8.8C2707,280.29,2698.3,289.09,2687.5,301.59Zm19.2,25.9,4,1.3,29.7,13.8,6.4,2.4a384,384,0,0,0-62,39.1l-1.7.3-7.4-37.8,5.1-6.7,9.4-18.9Z" style="fill:#ffc224"/><path d="M2680.7,340l-5.1,6.7,7.4,37.8,1.7-.3a429.73,429.73,0,0,1,62-39.1l-6.4-2.4-29.7-13.8-4-1.3-16.5-6.7Z" style="fill:#0f9572"/><path d="M3277,960.89l5.4,26.6-3.4,4.7-6.4,13.5-11.8-4.7-3-1-20.9-9.8-4.4-1.7a278.18,278.18,0,0,0,43.5-27.3l1-.3" style="fill:#0f9572"/><path d="M607.3,327.49l1.7-7.8-.3-9.8,1-.7a103.23,103.23,0,0,0,22.6-.3,73.3,73.3,0,0,0,13.5,6.4l.3,1.3c-2.4,9.8-1.7,23.6-1.7,23.6l-1.3.7-4.4-2a90.6,90.6,0,0,0-22.9-11.1l-8.1.3-.4-.6" style="fill:#0f9572"/><path d="M826.8,762.29c-16.5-8.4-39.4-13.5-39.4-13.5a113.8,113.8,0,0,1,28-3.4c-9.4-15.2-25.3-29-25.3-29a330.32,330.32,0,0,0,41.5,5.7,156.4,156.4,0,0,0-32.7-31.7c23.9,3.7,46.5,5.1,46.5,5.1-18.9-23.9-28-32-28-32,27.3,6.4,45.5,6.7,45.5,6.7l-26.3-28c30,2.4,43.5,0,43.5,0-20.6-22.9-34.4-31.3-34.4-31.3l48.2.3c-21.6-26.3-37.4-38.4-37.4-38.4,33.7,3,50.2-.3,50.2-.3-20.2-31-32.4-32.4-32.4-32.4a134.49,134.49,0,0,1,36.7,4c-5.7-20.2-21.9-32.7-21.9-32.7a109,109,0,0,1,31,9.1c-10.8-21.2-20.6-34-20.6-34,23.6,11.8,33,24.9,33,24.9-6.1,47.2-10.4,56-10.4,56L910,605.29c-13.8,43.5-32.3,73.5-32.3,73.5l-27.6,54.3a190.46,190.46,0,0,0-23.3,29.2" style="fill:#0f9572"/><path d="M825.7,850.69C884,877,922.8,907,922.8,907l86,3.4c40.1-10.4,55.3-9.4,55.3-9.4-26.6-17.5-44.2-40.8-44.2-40.8l4.4,31.3c-22.3-22.3-40.8-33.4-40.8-33.4,9.8,19.2,10.1,35.1,10.1,35.1-35.1-22.2-49.6-39.4-49.6-39.4a127.36,127.36,0,0,0,11.5,38c-34.4-30.7-38.4-44.5-38.4-44.5-1.3,16.9,2,44.8,2,44.8l-40.8-42.5,4.4,20.2c-23.9-11.4-57-19.1-57-19.1" style="fill:#0f9572"/><path d="M488,698.29l-5.1-16.9c-10.8-18.2-29.7-35.1-29.7-35.1,17.9,25.3,25.3,39.1,25.3,39.1,2.4,6.2,9.5,12.9,9.5,12.9" style="fill:#3d3c3e"/><path d="M196.58,22H155.7V4.1H278.19V22H237.31V177.4h-41V22Z" style="fill:#0f9572"/><path d="M540,21.12H458.44V81h61.13v17.9H458.44v59.85H540V176.6H458.44c-22.53,0-40.88-7.88-40.88-17.89V21.12c0-9.93,18.12-17.9,40.88-17.9H540Z" style="fill:#0f9572"/><path d="M712.33,90.79,666.6,4.1H708l20.93,44.52a96.31,96.31,0,0,1,3.87,11.53h1a95.26,95.26,0,0,1,3.87-11.53L758.6,4.1H800L754.28,90.79,800,177.48H758.68L737.74,133a101.31,101.31,0,0,1-3.87-11.53h-1A99.51,99.51,0,0,1,729,133l-20.93,44.52H666.68Z" style="fill:#0f9572"/><path d="M926.54,29.43c0-14.87,27.61-27.08,61.13-27.08s61.13,12.29,61.13,27.08v148h-41V99.74H966.89v77.74H926v-148ZM967.2,81.84h40.88V22H967.2Z" style="fill:#0f9572"/><path d="M1190,132.2h41v27.07h40.88V99.43H1231c-22.53,0-40.88-7.89-40.88-17.9V29.35c0-14.86,27.6-27.07,61.13-27.07s61.13,12.28,61.13,27.07V49.07h-40.88V22h-40.88V81.84h40.88c22.52,0,40.88,7.88,40.88,17.9v52.18c0,14.86-27.61,27.07-61.13,27.07S1190,166.71,1190,151.84Z" style="fill:#0f9572"/><path d="M1661.67,1.52h40.88v155.4h40.88v-36h40.88v53.92H1661.9V1.52Z" style="fill:#0f9572"/><path d="M1909.4,27.08C1909.4,12.21,1937,0,1970.53,0s61.13,12.29,61.13,27.08V149.57c0,14.86-27.61,27.07-61.13,27.07s-61.13-12.28-61.13-27.07ZM1991,19.42h-40.88V157H1991Z" style="fill:#0f9572"/><path d="M2200.67,19.42h-40.88V1.52h122.49v17.9h-41v155.4h-41V19.42Z" style="fill:#0f9572"/><path d="M2440,19.42h-40.88V1.52h122.41v17.9h-40.88v155.4h-40.88V19.42Z" style="fill:#0f9572"/><path d="M2774.61,19.42h-81.54V79.26h61.13v17.9h-61.13V157h81.54v17.9h-81.54c-22.52,0-40.88-7.89-40.88-17.9V19.42c0-9.94,18.13-17.9,40.88-17.9h81.54Z" style="fill:#0f9572"/><path d="M2908.7,1.52h81.54c22.52,0,40.88,7.88,40.88,17.9v55c0,8.2-8.2,11.53-18.13,13.81,9.93,1.82,18.13,5.38,18.13,16.08v57.79c0,4.85,4.32,8.42,9.93,12.82h-41.94c-4.32-3.57-8.72-8.42-8.72-12.82V97.16h-40.88V174.9h-40.88V1.52Zm40.88,77.74h40.88V19.42h-40.88Z" style="fill:#0f9572"/><path d="M3213.25,97.69c-12.81-2.28-22.52-5.61-29.65-9.94-7.13-4.62-11-9.93-11-15.62V1.59h40.88v78h40.88v-78h40.88V72.13c0,5.61-3.87,11-11,15.62-7.13,4.33-17.14,7.66-29.65,9.94v77.44h-40.88V97.69Z" style="fill:#0f9572"/><polygon points="1505 669.29 1508 702.99 1541 710.39 1510 723.59 1513.1 757.29 1490.8 731.99 1460.1 745.19 1477.3 716.19 1455.1 690.89 1487.8 698.29 1505 669.29" style="fill:#ffc224"/><polygon points="3155.9 329.59 3178.8 354.19 3209.5 340.09 3193 369.39 3215.9 394.39 3182.9 387.59 3166.4 417.29 3162.3 383.59 3129.3 377.19 3160 362.99 3155.9 329.59" style="fill:#ffc224"/><polygon points="3407.5 678.79 3425 707.69 3457.7 699.99 3435.8 725.59 3453 754.29 3422 741.09 3400.1 766.69 3403.1 732.99 3372.1 720.19 3404.8 712.49 3407.5 678.79" style="fill:#0f9572"/><polygon points="1819.5 1399.79 1876.1 1358.99 1804 1343.49 1819.5 1399.79" style="fill:#ffc224"/><polygon points="2766.4 1318.19 2728.9 1302.69 2753.9 1349.59 2766.4 1318.19" style="fill:#ffc224"/><polygon points="3196.1 761.99 3158.7 746.49 3183.6 793.39 3196.1 761.99" style="fill:#ffc224"/><polygon points="1979.6 318.09 1957.7 305.59 1941.8 336.89 1979.6 318.09" style="fill:#ffc224"/><path d="M1724.8,592.69c-42.1-35.3-95.7-54-150.7-54h-97.4v665.7h109.6c3.4,0,1.7-163.5,1.7-163.5,94.4-5.1,165.2-126.4,165.2-126.4C1868.9,760.69,1795.9,652.29,1724.8,592.69Zm-135.2,348.7V693.69s94.4,11.8,92.7,107.9S1589.6,941.39,1589.6,941.39Z" style="fill:#fff"/><rect x="1859.2" y="629.59" width="114.6" height="576.4" style="fill:#fff"/><polygon points="2686.8 1106.59 2568.8 922.89 2683.4 735.79 2590.7 636.39 2479.5 840.69 2479.5 639.69 2364.9 639.69 2364.9 1216.19 2479.5 1216.19 2479.5 971.19 2605.9 1227.99 2686.8 1106.59" style="fill:#fff"/><path d="M2287.3,769.49c4.8-1.6-16.9-146.6-16.9-146.6s-230.9,119.7-241,293.3,74.2,345.5,257.9,296.6v-136.5s-138.2-8.4-141.6-106.2S2189.6,801.49,2287.3,769.49Z" style="fill:#fff"/><path d="M2769.4,670.09s-67.4-92.7-8.4-158.4,256.2-215.7,359-134.8-91,380.9-91,380.9,205.6,107.9,182,276.4-171.9,379.2-323.6,241c0,0-27-99.4,91-70.8s158.4-187.1,158.4-187.1-59-134.8-182-143.3,27-175.3,27-175.3l86-173.6s25.3-84.3-82.6-23.6-131.5,47.2-146.6,121.4S2769.4,670.09,2769.4,670.09Z" style="fill:#fff"/><path d="M1893.27,1265.59a30,30,0,0,0-16.38-30.51,102.61,102.61,0,0,0-22.2-7.73,121.85,121.85,0,0,0-27.94-3.07h-.13a111.31,111.31,0,0,0-30.28,4,94.19,94.19,0,0,0-19.49,7.87,30,30,0,0,0-21.35-8.95l-34.36,0h0a30,30,0,0,0-17.16,5.39,30,30,0,0,0-17.17-5.42l-26.1,0,.92-7.51a30,30,0,0,0-29.75-33.67l-34.36,0h0a30,30,0,0,0-29.77,26.33l-2.38,19.32a64.71,64.71,0,0,0-31.14-7.51h-.07a74.92,74.92,0,0,0-25.2,4.21,29.69,29.69,0,0,0-8.67-1.29l-34.36,0h0a30,30,0,0,0-29.77,26.33l-18,145.86a30,30,0,0,0,29.75,33.66l34.36,0h0a30,30,0,0,0,29.77-26.34l1.32-10.7h.82a75.32,75.32,0,0,0,42.08-12.82c.18.22.35.44.54.66a30,30,0,0,0,22.46,10.13l34.36,0h0a29.94,29.94,0,0,0,21.45-9c8.53,6.57,20.87,12,38.34,12h.08a73.88,73.88,0,0,0,25.46-4.31,29.84,29.84,0,0,0,9,1.39l34.36,0h0a29.93,29.93,0,0,0,15.92-4.57,131.37,131.37,0,0,0,13.78,4.13,126.08,126.08,0,0,0,29.81,3.44l.08-30,0,30h.1a117.21,117.21,0,0,0,31.15-3.82,92.64,92.64,0,0,0,25.89-11.5,69.11,69.11,0,0,0,20.48-20.13,63.11,63.11,0,0,0,10.1-27.13c1.56-12.62-.46-22.61-3.59-30.16a29.87,29.87,0,0,0,3.92-11.56Z" style="fill:#fff"/><rect x="2609.39" y="1541.44" width="120.63" height="118.64" transform="matrix(0.09, -1, 1, 0.09, 831.81, 4113.11)" style="fill:#fff"/><g style="clip-path:url(#b24afa3d-7b7d-4602-8051-9a4d18c505ce)"><path d="M2855.42,1694.83a115.64,115.64,0,0,1-55.83-13.46,156,156,0,0,1-107.67-249.24,144.08,144.08,0,0,1,79.76-82.75,164.49,164.49,0,0,1,72.28-15h30.4l17.95,2.49a98.65,98.65,0,0,0,19.44,0,18.92,18.92,0,0,0,17.44-9.47,23.45,23.45,0,0,1,18.95-9.47h6a23.44,23.44,0,0,1,17.45,19.94,83.78,83.78,0,0,1-7,49.85h10.46a270.74,270.74,0,0,0,125.62-26.42,21.32,21.32,0,0,1,9.47,0,24.79,24.79,0,0,1,13,4,23.93,23.93,0,0,1,11,20.43,68.35,68.35,0,0,1-9.47,30.41,299.27,299.27,0,0,1-56.33,68.79l9.47,6.48,8,5a24.44,24.44,0,0,1,10.46,24.93,23.91,23.91,0,0,1-19.44,18.44,49.83,49.83,0,0,0-33.89,22.93,104.67,104.67,0,0,1-26.92,26.42,24,24,0,0,1,0,12,192.45,192.45,0,0,1-160.51,93.72" style="fill:#fff;fill-rule:evenodd"/><path d="M2948.14,1297a49.85,49.85,0,0,0-37.89,19,92.8,92.8,0,0,1-13.95,0h-19.44a269.51,269.51,0,0,0-32.9,0,190.34,190.34,0,0,0-82.25,17.44,168,168,0,0,0-91.22,92.72,179.46,179.46,0,0,0,122.12,278.65,138.62,138.62,0,0,0,62.81,14.45,217.32,217.32,0,0,0,110.66-34.39,181.45,181.45,0,0,0,68.29-71.29,41.43,41.43,0,0,0,2.5-8.47,138.22,138.22,0,0,0,22.43-23.93c9.47-12,11-13,19.44-14.45a46.86,46.86,0,0,0,38.38-37.39,49.85,49.85,0,0,0-14-44.36,287.31,287.31,0,0,0,39.88-53.84h0a87.2,87.2,0,0,0,12-41.87,47.21,47.21,0,0,0-47.35-48.35,45.76,45.76,0,0,0-19.44,4.49,249.25,249.25,0,0,1-92.72,23.42,125.69,125.69,0,0,0,0-30.4,49.85,49.85,0,0,0-47.35-40.88m0,49.85c4,29.91-4.49,42.87-28.91,69.79h54.33a299.16,299.16,0,0,0,134.59-28.42,39.47,39.47,0,0,1-6.48,19.44,267.39,267.39,0,0,1-55.83,66.8,295.48,295.48,0,0,1-32.9,23.43h7.48a86.17,86.17,0,0,1,49.84,21.43c-43.86,7.48-44.86,39.38-73.27,55.33a86.26,86.26,0,0,1-49.85,14h-4a33.92,33.92,0,0,0,24.43,11,82.2,82.2,0,0,0,21.93-4.49,172.49,172.49,0,0,1-135.09,76.27,91.75,91.75,0,0,1-49.84-13.46,132.1,132.1,0,0,1-93.72-215.34h0a120.15,120.15,0,0,1,67.8-70.79,149.64,149.64,0,0,1,65.3-16.45h27.91c14.46,0,27.42,5,39.88,5a41.4,41.4,0,0,0,36.39-18.94" style="fill:#fff"/></g><path d="M2431.22,1561.23a74.27,74.27,0,1,0,88.23-73.77,82.25,82.25,0,0,0-88.23,73.77" style="fill:#fff"/><path d="M2432.22,1485c-7-37.39,4-70.78,24.92-74.77S2501,1433.13,2507,1470s-3.49,70.29-24.43,74.28-43.86-22.43-49.84-59.32" style="fill:#fff"/><path d="M2588.24,1487.46c12.46-35.39,6-70.28-14-76.76s-46.36,16-58.82,49.84-6,70.29,14,77.27,46.86-16.45,58.82-49.85" style="fill:#fff"/><g style="clip-path:url(#b24afa3d-7b7d-4602-8051-9a4d18c505ce)"><path d="M1356,1610.09a45.85,45.85,0,1,0,11.42,7.51,45.86,45.86,0,0,0-11.42-7.51" style="fill:#fff"/><path d="M1263.3,1664.42c-28.42,10.47-45.36,34.89-37.89,54.83s35.89,27.92,64.31,18,44.86-35.4,37.88-55.33a49.84,49.84,0,0,0-64.3-17.45" style="fill:#fff"/><path d="M1393.9,1664.42c27.91,10.47,44.86,34.89,37.88,54.83a49.85,49.85,0,0,1-64.3,18c-28.41-10.47-45.36-35.4-37.89-55.33s35.89-27.92,64.31-17.45" style="fill:#fff"/><path d="M1203.48,1722.24a20.91,20.91,0,0,1-15-6.48,20.42,20.42,0,0,1-4-16l49.85-256.71a19.44,19.44,0,0,1,18.94-15.46h145.05a19,19,0,0,1,19.37,18.52,19.23,19.23,0,0,1-.42,4.41l-12,54.84a18.44,18.44,0,0,1-18.44,14.95h-66.8l-2.49,14h54.83a18.4,18.4,0,0,1,14.46,7,19.44,19.44,0,0,1,4,15.45l-11,51.34a18.93,18.93,0,0,1-18.44,15.45h-60.82l-16.45,83.75a18.44,18.44,0,0,1-18.44,15Z" style="fill:#fff"/><path d="M1397.39,1408.7H1251.83a37.39,37.39,0,0,0-36.88,30.91l-49.85,256.71a39.88,39.88,0,0,0,8,31.41,38.41,38.41,0,0,0,29.41,13.45h62.31a37.39,37.39,0,0,0,37.39-30.4l13-68.29h46.36a37.89,37.89,0,0,0,37.38-30.91l9.47-49.85a42.81,42.81,0,0,0,0-8.47,34.3,34.3,0,0,0-5-18.44,39.41,39.41,0,0,0,18.94-25.92l12.46-53.34a37.91,37.91,0,0,0-8-31.41,36.89,36.89,0,0,0-29.41-14m0,37.88-10.47,53.34h-82.25l-10.47,49.85h78.26l-10,53.83h-77.76l-18.94,99.7h-62.31l49.85-256.72h145.55" style="fill:#fff"/></g><path d="M1389.91,1722.24a19.43,19.43,0,0,1-14.46-6.48,17.46,17.46,0,0,1-4-16l49.84-256.71a19.45,19.45,0,0,1,19-15.46h62.3a18.45,18.45,0,0,1,14.46,7,17,17,0,0,1,4,16l-49.85,256.22a19.44,19.44,0,0,1-18.94,15.45Z" style="fill:#fff"/><path d="M1501.07,1408.7h-62.31a37.89,37.89,0,0,0-37.39,30.91l-49.84,256.71a39.88,39.88,0,0,0,8,31.41,38.89,38.89,0,0,0,29.41,13.45h62.31a37.89,37.89,0,0,0,37.39-30.4l49.84-256.72a38.87,38.87,0,0,0-8-31.4,37.9,37.9,0,0,0-29.41-14m0,37.89-49.85,256.71h-61.31l49.85-256.71h62.31" style="fill:#fff"/><path d="M1611.73,1539.8a20,20,0,0,0,16.45-20.44c0-4-3.49-6.48-11-6.48h0Zm11.46,182.44a18.94,18.94,0,0,1-18.44-14,507.55,507.55,0,0,1-6.48-63.8,54.22,54.22,0,0,0-3.49-18.94l-15.45,79.26a19,19,0,0,1-18.44,15.45h-61.32a19,19,0,0,1-20-17.86,20.2,20.2,0,0,1,0-2.58l49.85-249.24a19.45,19.45,0,0,1,14-15,341.47,341.47,0,0,1,73.27-7,137.1,137.1,0,0,1,77.27,17.95,75.25,75.25,0,0,1,34.89,63.8,90.21,90.21,0,0,1-43.37,79.26,99.72,99.72,0,0,1,10,38.38V1654a354.76,354.76,0,0,0,5,42.37,18.94,18.94,0,0,1-17.45,25.92Z" style="fill:#fff"/><path d="M1616.22,1405.71a375.43,375.43,0,0,0-77.27,7.48A38.38,38.38,0,0,0,1510,1443.1l-49.85,249.23a39.92,39.92,0,0,0,8,31.41,38.92,38.92,0,0,0,29.41,13.46h61.31a38.41,38.41,0,0,0,31.41-16,36.89,36.89,0,0,0,30.9,16h63.31a37.91,37.91,0,0,0,31.4-16.45,38.4,38.4,0,0,0,4.49-34.4,380.13,380.13,0,0,1-4-38.38c0-8.47,0-18-2.49-25.92a155.06,155.06,0,0,0-5.49-29.91,110.15,110.15,0,0,0,39.38-85.74,93.21,93.21,0,0,0-45.86-82.25,162,162,0,0,0-85.73-18.44m-27.42,152.53h16.45a40.37,40.37,0,0,0,41.84-38.85c0-.51,0-1,0-1.52,0-15.46-12-25.42-29.91-25.42h-16.94l-11.47,64.8m27.42-114.65a125.62,125.62,0,0,1,67.29,15,55.82,55.82,0,0,1,27.91,49.85,75.78,75.78,0,0,1-54.83,73.28h0c13.46,7,19.44,21.93,21.44,45.36a638.76,638.76,0,0,0,8.47,78.76h-63.31a476.39,476.39,0,0,1-6-59.82c0-29.41-10-37.39-27.91-37.39h-10l-18.44,97.21h-61.32l49.85-249.24a338.71,338.71,0,0,1,68.79-6.48" style="fill:#fff"/><path d="M1716.91,1722.24a19.43,19.43,0,0,1-14.46-6.48,18.93,18.93,0,0,1-4.48-16l49.84-256.71a19.45,19.45,0,0,1,19-15.46h146.55a19.94,19.94,0,0,1,14.45,7,20.43,20.43,0,0,1,4,16l-11.47,54.84a18.94,18.94,0,0,1-18.94,14.95h-67.79v7.48h56.83a19.41,19.41,0,0,1,14.95,7,19.92,19.92,0,0,1,4,16l-10.47,49.84a19,19,0,0,1-18.44,15.46h-65.3l-3,14h66.29a19.47,19.47,0,0,1,14.46,6.48,20.48,20.48,0,0,1,4,16l-10.47,53.83a18.93,18.93,0,0,1-18.44,15Z" style="fill:#fff"/><path d="M1912.31,1408.7H1765.76a37.89,37.89,0,0,0-37.39,30.91l-49.84,256.71a39.88,39.88,0,0,0,8,31.41,38.88,38.88,0,0,0,29.41,13.45h149.54a37.88,37.88,0,0,0,37.39-30.4l10-52.84a44.31,44.31,0,0,0,0-8,36.93,36.93,0,0,0-10.47-25.92,34.42,34.42,0,0,0,9.47-18.94l16.45-49.85a36.87,36.87,0,0,0-2.49-21.93,37.86,37.86,0,0,0,15-23.43l10.47-49.85a53.73,53.73,0,0,0,0-9,37.88,37.88,0,0,0-37.88-37.88m-1.5,33.4-11,53.33H1818.1l-9,45.36h79.75l-10.47,52.84h-78.76L1789.19,1648h89.22l-10,56.83H1718.9l49.85-256.72H1915.3" style="fill:#fff"/><path d="M2020,1526.84c6.48,0,13-4.49,13-11s0-4.48-9-4.48h0ZM1998.05,1637c8.47,0,21.43-4.48,21.43-16s0-9.47-16-10Zm-26.92,86.74a344.18,344.18,0,0,1-68.29-5,18.44,18.44,0,0,1-14.51-21.67c0-.09,0-.17.05-.26l46.86-249.24a19.45,19.45,0,0,1,15-14.95,367.61,367.61,0,0,1,70.29-6.48,136.08,136.08,0,0,1,74.27,16.45,71.27,71.27,0,0,1,38.88,62.81,78.25,78.25,0,0,1-31.9,63.8,77.81,77.81,0,0,1,20.44,53.84,89.77,89.77,0,0,1-42.37,74.77,189.47,189.47,0,0,1-108.67,24.92" style="fill:#fff"/><path d="M2020.48,1405.71a368.77,368.77,0,0,0-74.27,7,37.87,37.87,0,0,0-29.41,29.91l-47.36,249.23a38.39,38.39,0,0,0,29.91,44.37,376.94,376.94,0,0,0,71.78,5.48,206.84,206.84,0,0,0,119.13-28.41,108.67,108.67,0,0,0,49.85-90.72,99.68,99.68,0,0,0-14-49.85,94.16,94.16,0,0,0,26.42-67.29,90.23,90.23,0,0,0-49.84-80.26,158,158,0,0,0-82.25-19.44M1991.57,1655c25.42,0,46.85-12,46.85-35.39s-16.45-29.41-39.38-29.41h-11.46l-9.47,64.8h16m5.48-109.67H2012c26.92,0,42.37-12,42.37-30.9s-10.46-23.43-27.91-23.43a76.24,76.24,0,0,0-17,0l-10,52.84m23.43-99.7a120.17,120.17,0,0,1,64.8,14,52.33,52.33,0,0,1,29.41,49.85,64.3,64.3,0,0,1-49.85,61.31h0a54.33,54.33,0,0,1,37.39,55.33,72.28,72.28,0,0,1-33.4,59.32,173.92,173.92,0,0,1-99.69,21.43,317.8,317.8,0,0,1-64.31-4.48l47.36-249.24a321.53,321.53,0,0,1,66.3-6.48" style="fill:#fff"/><path d="M2254.76,1722.24a18.94,18.94,0,0,1-18.94-18.44v-39.38h-29.41L2188,1710.78a18,18,0,0,1-17.45,11.46h-66.3a18.45,18.45,0,0,1-15.95-8.47,17.93,17.93,0,0,1,0-18l116.14-256.71a18.46,18.46,0,0,1,17-11.47h79.26a19,19,0,0,1,18.94,17.95L2339,1701.8a18.91,18.91,0,0,1-5,14.46,18,18,0,0,1-14,6Z" style="fill:#fff"/><path d="M2299.62,1408.7h-79.25a38.4,38.4,0,0,0-34.4,22.43l-116.14,256.72a37.88,37.88,0,0,0,2.49,36.39,38.87,38.87,0,0,0,31.9,16.94h65.3a37.86,37.86,0,0,0,35.39-23.42l11.47-29.41v16.45a37.87,37.87,0,0,0,37.88,36.88h64.31a36.41,36.41,0,0,0,27.91-12,35.39,35.39,0,0,0,10-28.41L2337,1444.59a37.89,37.89,0,0,0-37.89-35.39m-90.22,190.42h42.87V1494.44h0c-6.48,17-14.46,41.37-20.44,55.33l-19.44,49.85m90.23-152.54,16.94,257.72h-64.3V1647H2193l-23.43,57.83h-65.3l116.15-256.72h79.25" style="fill:#fff"/><path d="M2344.49,1722.24a19.43,19.43,0,0,1-14.46-6.48,20.4,20.4,0,0,1-3-16l49.85-256.71a18.94,18.94,0,0,1,18.44-15.46h62.31a19.44,19.44,0,0,1,15,7,19.9,19.9,0,0,1,4,16L2442.19,1630h62.31a18.94,18.94,0,0,1,19.26,18.62,19.58,19.58,0,0,1-.32,3.82L2511,1704.8a19,19,0,0,1-18.45,15.45Z" style="fill:#fff"/><path d="M2455.65,1408.7h-62.31a38.39,38.39,0,0,0-37.39,30.91l-49.85,256.71a36.43,36.43,0,0,0,8,31.41,37.87,37.87,0,0,0,28.91,13.45h149.54a38.38,38.38,0,0,0,37.39-30.9l10-52.84a49.91,49.91,0,0,0,0-8.47,37.88,37.88,0,0,0-37.88-37.89h-39.88l29.9-157a35.4,35.4,0,0,0-8-31.4,36.89,36.89,0,0,0-29.41-14m0,37.89L2416.27,1649h85.23l-9,55.83H2343l49.85-256.72h62.31" style="fill:#fff"/><path d="M2521.44,1722.24a20.93,20.93,0,0,1-15-6.48,20.46,20.46,0,0,1-4-16l49.85-256.71a19.44,19.44,0,0,1,18.94-15.46h62.31a18.47,18.47,0,0,1,14.46,7,19.93,19.93,0,0,1,4,16L2618.15,1630h62.31a18.45,18.45,0,0,1,14.45,7,19.47,19.47,0,0,1,4,15.46l-11,52.34a19.44,19.44,0,0,1-18.94,15.45Z" style="fill:#fff"/><path d="M2632.6,1408.7h-62.31a37.89,37.89,0,0,0-37.38,30.91l-49.85,256.71a39.89,39.89,0,0,0,8,31.41,38.86,38.86,0,0,0,29.41,13.45H2670a37.86,37.86,0,0,0,37.38-30.9l10-52.84a49.91,49.91,0,0,0,0-8.47,37.88,37.88,0,0,0-37.88-37.89h-39.38l29.91-157a38.87,38.87,0,0,0-8-31.4,37.88,37.88,0,0,0-29.41-14m0,37.89L2594.22,1649h85.24L2669,1704.8H2519.45l49.85-256.72h62.31" style="fill:#fff"/><polygon points="1200.49 1706.79 1250.34 1446.09 1400.38 1446.09 1388.41 1503.91 1306.17 1503.91 1297.19 1551.27 1374.95 1551.27 1363.99 1608.09 1286.72 1608.09 1267.29 1706.79 1200.49 1706.79" style="fill:#fbba07"/><path d="M1402.87,1444.09H1248.34v3.49L1198.5,1704.3v5h71.28v-4.48l18.44-95.71H1366v-4l10-52.34v-5h-76.26l8.47-43.37h82.25v-3.49l11-53.34Zm-5.48,4-10.47,53.34h-82.25l-10.47,49.85h78.26l-10,53.83h-77.76l-18.94,99.7h-62.31l49.85-256.72h145.55" style="fill:#fbba07"/><polygon points="1387.42 1706.79 1436.77 1446.09 1503.56 1446.09 1454.21 1706.79 1387.42 1706.79" style="fill:#fbba07"/><path d="M1506.05,1444.09h-70.78v3.49l-49.85,256.72v5h71.28v-3.49l49.85-256.71Zm-5,4-49.85,256.72h-61.31l49.85-256.72h62.31" style="fill:#fbba07"/><path d="M1605.25,1558.74a37.89,37.89,0,0,0,39.83-35.84c0-.68.05-1.36.05-2,0-14-11-23.43-27.92-23.43h-15l-11,60.32Zm16.45,149.54h0a409.35,409.35,0,0,1-6-60.31c0-29.91-10.47-35.39-25.92-35.39h-10.47l-18.44,99.69h-63.81l49.85-255.71h0a336.45,336.45,0,0,1,69.29-6.48,118.07,118.07,0,0,1,68.29,15.45,57.34,57.34,0,0,1,29.41,49.85,75.27,75.27,0,0,1-53.84,73.77c12,7.48,18,21.43,19.94,45.86,0,7.48,0,16.45,2.49,24.92a249.6,249.6,0,0,0,6,49.85v3Z" style="fill:#fbba07"/><path d="M1604.25,1500.42h13c15.46,0,25.92,8.48,25.92,20.94a36.39,36.39,0,0,1-36.85,35.92l-1,0h-11.46Zm12-57.82a342.68,342.68,0,0,0-69.79,6.48h-2.49v3l-49.85,251.73v5h69.79v-4l17.94-94.22h6.48c14.46,0,21.93,5.49,23.43,33.4a485.87,485.87,0,0,0,7.48,60.82v3H1692l-1.49-3a286.48,286.48,0,0,1-6-46.86v-25.42a64.87,64.87,0,0,0-18-44.87,77.25,77.25,0,0,0,49.85-74.27,59.8,59.8,0,0,0-30.41-53.83,121.63,121.63,0,0,0-69.29-15.46m-27.41,118.64h16.45a40.37,40.37,0,0,0,41.84-38.85q0-.77,0-1.53c0-15.45-12-25.42-29.91-25.42h-17l-11.46,64.8m27.41-114.65a125.74,125.74,0,0,1,67.3,15,55.82,55.82,0,0,1,27.91,49.85,75.26,75.26,0,0,1-54.83,73.27h0c13.46,7,19.44,21.93,21.44,45.36a640.83,640.83,0,0,0,8,74.28h-63.31a463.31,463.31,0,0,1-6-59.82c0-29.41-10-37.39-27.91-37.39h-10l-18.44,99.7h-61.32l49.85-249.24a340.14,340.14,0,0,1,68.79-6.48" style="fill:#fbba07"/><polygon points="1714.41 1706.79 1763.76 1446.09 1914.8 1446.09 1903.34 1503.91 1820.09 1503.91 1811.62 1544.79 1891.87 1544.79 1880.41 1601.61 1801.15 1601.61 1791.68 1648.97 1881.4 1648.97 1870.44 1706.79 1714.41 1706.79" style="fill:#fbba07"/><path d="M1917.29,1444.09h-155v3.49l-49.85,256.72v5h160v-4.48L1882.9,1651v-5h-88.23l8.47-43.37h79.26v-2.49l10.47-49.85v-5h-78.76l7.48-36.88h83.24v-3.49l10.47-53.34Zm-5,4-11,53.34H1818.1l-9,45.36h79.75l-10.47,52.84h-78.76l-10.46,49.84h89.22l-10,55.34H1718.9l49.85-256.72H1915.3" style="fill:#fbba07"/><path d="M2009.51,1545.78c25.42,0,40.38-10.47,40.38-27.91s-10-21.44-25.92-21.44a57.63,57.63,0,0,0-15,0l-9.47,49.85ZM1978.11,1655h13.46c22.43,0,44.36-10.47,44.36-33.4s-12-26.92-36.89-26.92h-9.47Zm-7,53.33a351.49,351.49,0,0,1-64.8-4.48h0l49.85-252.73h0a377.7,377.7,0,0,1,66.79-6,127.6,127.6,0,0,1,66.3,14,55.34,55.34,0,0,1,29.91,49.85,65.32,65.32,0,0,1-46.86,61.31,57.81,57.81,0,0,1,35.39,55.83,72.28,72.28,0,0,1-34.89,60.81,176,176,0,0,1-99.7,22.43" style="fill:#fbba07"/><path d="M1991.07,1597.62h8c31.41,0,34.9,14.46,34.9,24.93s-11,31.4-42.37,31.4h-11Zm19.44-99.69H2024c15,0,23.43,7,23.43,19.44s-14,25.92-37.89,25.92H2002Zm10-56.33a337.67,337.67,0,0,0-67.3,6h-3v3l-46.85,249.24v4h4a362.41,362.41,0,0,0,65.3,4.48,178.36,178.36,0,0,0,99.7-22.43,76.27,76.27,0,0,0,35.89-62.8,59.79,59.79,0,0,0-30.41-53.34,66.3,66.3,0,0,0,43.87-61.81,56.83,56.83,0,0,0-31.9-49.85,123.69,123.69,0,0,0-66.8-14m-28.91,215.34c25.42,0,46.86-12,46.86-35.39s-16.45-28.91-39.38-28.91h-11.47l-12,62.31h16m5.48-109.66H2012c26.92,0,42.37-12,42.37-30.41s-10.46-23.93-27.91-23.93a76.24,76.24,0,0,0-17,0l-10,52.84m23.43-99.69a120.16,120.16,0,0,1,64.8,14,52.35,52.35,0,0,1,29.41,47.36,64.3,64.3,0,0,1-49.85,61.31h0a54.33,54.33,0,0,1,37.39,55.33,72.28,72.28,0,0,1-33.4,59.32,173.92,173.92,0,0,1-99.69,21.43,317.8,317.8,0,0,1-64.31-4.48l47.36-249.24a321.53,321.53,0,0,1,66.3-6.48" style="fill:#fbba07"/><path d="M2249.78,1598.62v-93.21l-5,15.45c-4,11.46-8.47,22.93-12,31.4l-17.95,45.86Zm3,108.67v-57.83H2194L2171,1707.29h-69.79l118.14-261.2h82.25l19.94,261.2Z" style="fill:#fbba07"/><path d="M2215.88,1596.13l16.95-42.87c3.49-8,8-19.94,12-31.4a15.67,15.67,0,0,1,0-4v78.26Zm87.73-149.54h-85.74L2100.73,1704.8l-3,6h74.77v-2.5l21.94-55.33h53.83v57.83h73.28v-6l-19.44-256.72Zm-94.21,156.52h42.87V1497.93h0c-6.48,17-14.46,41.37-20.44,55.33l-19.44,49.85m90.22-152.54,16.45,254.23h-64.3V1647H2193l-23.43,57.83h-65.3l116.15-256.72h79.25" style="fill:#fbba07"/><polygon points="2341.99 1706.79 2391.84 1446.09 2458.64 1446.09 2419.76 1648.47 2505.49 1648.47 2494.03 1706.79 2341.99 1706.79" style="fill:#fbba07"/><path d="M2461.13,1444.09h-71.28v3.49L2340,1704.3v5h156.52v-4.48l10.47-54.34V1645h-84.24l37.38-199.39Zm-5.48,4-38.39,202.38h85.24l-10,54.34H2343l49.85-256.72h62.31" style="fill:#fbba07"/><polygon points="2518.45 1706.79 2568.3 1446.09 2635.1 1446.09 2596.71 1648.47 2681.95 1648.47 2670.99 1706.79 2518.45 1706.79" style="fill:#fbba07"/><path d="M2637.59,1444.09h-71.28v3.49l-49.85,256.72v5H2673l3-4.48,10-54.34V1645h-86.73l37.38-199.39Zm-5,4-38.38,202.38h85.24L2669,1704.8H2519.45l49.85-256.72h62.31" style="fill:#fbba07"/><path d="M2990,1592.64a38.9,38.9,0,0,1-45.86-6,86.26,86.26,0,0,0,49.85-14c28.41-16,29.41-49.85,72.77-54.83a79.26,79.26,0,0,0-56.82-21.44,338.27,338.27,0,0,0,32.4-23.42,271.85,271.85,0,0,0,55.33-65.8,39.42,39.42,0,0,0,6.48-19.94,331.59,331.59,0,0,1-187.43,26.42c23.93-26.92,32.4-39.88,28.42-69.29-20.94,28.41-46.36,16.95-75.27,14a157.48,157.48,0,0,0-90.23,11.46,119.12,119.12,0,0,0-67.29,69.79h0A131.1,131.1,0,0,0,2807.57,1655c67.29,41.37,167-25.92,182.44-62.81" style="fill:#fbba07;fill-rule:evenodd"/><g style="clip-path:url(#b24afa3d-7b7d-4602-8051-9a4d18c505ce)"><path d="M2855.92,1678.87a99.75,99.75,0,0,1-49.85-13.45,139.57,139.57,0,0,1-99.69-226.31h0a126.6,126.6,0,0,1,71.78-75.27,167,167,0,0,1,97.2-12.46h16.95c21.43,4,37.38,6.48,49.85-12.46l13-17.45v20.94a70.3,70.3,0,0,1-18.45,63.3,316.42,316.42,0,0,0,166.49-26.42l12-5.48v13.46a41.88,41.88,0,0,1-7.48,22.93,261.91,261.91,0,0,1-57.33,68.79,91.31,91.31,0,0,1-13.45,10.46,118.79,118.79,0,0,1,29.41,15.46l26.41,16.95-21.93,4a60.83,60.83,0,0,0-42.87,28.42,88.28,88.28,0,0,1-26.92,25.42h4.49l-7.48,17a169.44,169.44,0,0,1-96.7,73.27,152.59,152.59,0,0,1-44.86,8M2845,1365.83a136.09,136.09,0,0,0-58.32,12,111.14,111.14,0,0,0-60.81,65.8l-2.49,5A122.62,122.62,0,0,0,2810.56,1648h4a102.67,102.67,0,0,0,83.24,5,178.43,178.43,0,0,0,75.27-49.84,41.87,41.87,0,0,1-32.4-12.47l-16.95-15.45h22.93a77.73,77.73,0,0,0,49.85-13,74.78,74.78,0,0,0,21.93-21.43,87.13,87.13,0,0,1,34.4-28.91,49.87,49.87,0,0,0-35.89-9.48l-31.91,3,26.42-19,12-8a171.7,171.7,0,0,0,19.94-15,273.11,273.11,0,0,0,49.34-57.82h0a351.83,351.83,0,0,1-174,19.44h-17.45l11.47-13c17.44-19.44,25.42-29.91,26.91-43.86a68.32,68.32,0,0,1-49.84,5H2847m24.42,283.13-4-7.47-3.49-8h0v0l7,15.45h.5Z" style="fill:#fbba07"/></g><path d="M2942.16,1588.65c-15.46,4-24.43,4.49-35.4-6.48a65.83,65.83,0,0,0,41.38-8.47c21.93-11,24.42-35.39,58.32-39.38-15.95-11.47-23.93-19.44-43.37-18.45a212.11,212.11,0,0,0,25.92-16.94,206.26,206.26,0,0,0,45.36-49.85,26.91,26.91,0,0,0,5.49-15,253.23,253.23,0,0,1-145.06,12.47c19.94-19.44,26.92-29.41,24.92-49.85-17.44,20.93-36.38,11-58.82,7.48a122.57,122.57,0,0,0-69.28,5,92.71,92.71,0,0,0-54.84,49.85h0a99.69,99.69,0,0,0,62.81,168.48c49.85,34.9,129.61-13,143.06-40.87" style="fill:#f28e00;fill-rule:evenodd"/><path d="M2839,1643a74.23,74.23,0,0,1-41.87-12.46,102.23,102.23,0,0,1-63.31-170h0a93.75,93.75,0,0,1,55.33-49.84,125.55,125.55,0,0,1,70.29-5l12.46,2.49c17,3.49,31.4,7,44.86-10h0c0,22.93-5,32.9-23.42,49.85a249.25,249.25,0,0,0,142.56-12.46h0a35.85,35.85,0,0,1-6,15.45,218.25,218.25,0,0,1-45.36,49.85,134.4,134.4,0,0,1-17,11l-6,4a49.88,49.88,0,0,1,33.89,14.46l6,4h0a53.8,53.8,0,0,0-37.88,21.93,67.78,67.78,0,0,1-19.94,17.45,74.82,74.82,0,0,1-38.88,9,29.91,29.91,0,0,0,31.9,4h0a129.61,129.61,0,0,1-73.77,49.84,121.75,121.75,0,0,1-28.41,4m-8-240.76a107.27,107.27,0,0,0-40.38,7.48,90.73,90.73,0,0,0-54.33,49.84h0a99.69,99.69,0,0,0,61.81,166.49h0a82.27,82.27,0,0,0,68.79,8.48,130.59,130.59,0,0,0,71.28-46.36,29.42,29.42,0,0,1-33.4-7.48h3a66.28,66.28,0,0,0,40.38-8.47,58.24,58.24,0,0,0,19.44-17,56.32,56.32,0,0,1,36.39-21.93l-4-3a49.83,49.83,0,0,0-33.89-14h-3l9.47-6a93.3,93.3,0,0,0,16.45-11,211.8,211.8,0,0,0,44.86-49.85,27.93,27.93,0,0,0,5.48-13,255.72,255.72,0,0,1-144.06,12h0c18.45-18.45,25.92-27.92,24.43-49.85-14,15.45-28.91,12-45.36,8.47l-10.47,1a192.44,192.44,0,0,0-28.41,0" style="fill:#f28e00"/><path d="M2907.76,1529.33a99.7,99.7,0,1,1-99.69-99.69,99.7,99.7,0,0,1,99.69,99.69" style="fill:#e24a11;fill-rule:evenodd"/><path d="M1567.55,1308.88q-3.15,25.56-18.48,41.23t-35,15.64a48.43,48.43,0,0,1-14.11-1.81,57.38,57.38,0,0,1-12.27-5.62l-5.48,44.47-34.36,0,18-145.85,34.36,0-1.37,11.12a94.32,94.32,0,0,1,16.67-10.16,43.62,43.62,0,0,1,18.65-3.88q19.14,0,27.83,14.76T1567.55,1308.88Zm-35.23.63q1.92-15.59-2.17-22.62t-14.6-7a32.37,32.37,0,0,0-9.36,1.41,42.32,42.32,0,0,0-9.51,4.27l-6.61,53.69a22.9,22.9,0,0,0,5.84,1.62,53.57,53.57,0,0,0,7.75.48q12.55,0,19.63-7.92T1532.32,1309.51Z" style="fill:#29a184"/><path d="M1613.62,1363.75l-34.37,0,18.21-147.85,34.37,0Z" style="fill:#29a184"/><path d="M1742.33,1363.87l-34.36,0,1.45-11.78a111.22,111.22,0,0,1-17.75,11,42.14,42.14,0,0,1-18.23,3.74q-16.39,0-24.34-10t-5.47-30.18l8.56-69.46,34.56,0-6.52,52.93q-1,8.27-1.22,13.49a25,25,0,0,0,1,8.84,9,9,0,0,0,4.24,5c2,1.14,5,1.72,9,1.72a29.1,29.1,0,0,0,8.8-1.7,43.08,43.08,0,0,0,9.76-4.65l9.31-75.64,34.37,0Z" style="fill:#29a184"/><path d="M1801.86,1366.87a95.77,95.77,0,0,1-22.71-2.58,78.84,78.84,0,0,1-17.18-6l3.47-28.12h2.84q2.23,1.81,5.11,4a42.65,42.65,0,0,0,8.17,4.57,59.71,59.71,0,0,0,10.39,3.76,49.6,49.6,0,0,0,12.92,1.58,37.15,37.15,0,0,0,13.08-2.17q5.8-2.19,6.4-6.94c.3-2.47-.32-4.33-1.86-5.6s-4.71-2.48-9.48-3.63q-3.81-.95-9.66-2a85.32,85.32,0,0,1-10.29-2.52q-12.48-3.92-18.07-11.57t-4-20.1a31,31,0,0,1,5-13.44,41.49,41.49,0,0,1,11.35-11.25,59.71,59.71,0,0,1,17.2-7.69,81.4,81.4,0,0,1,22.19-2.83,91.46,91.46,0,0,1,21,2.26,73.61,73.61,0,0,1,15.73,5.38l-3.32,27h-2.75a53.93,53.93,0,0,0-5.16-3.56,66.38,66.38,0,0,0-7-3.86,48.26,48.26,0,0,0-9.28-3.14,46.27,46.27,0,0,0-10.8-1.25,31.25,31.25,0,0,0-12.92,2.46q-5.46,2.46-6,6.55a6.22,6.22,0,0,0,1.85,5.71q2.29,2.09,10.59,4.09,4.29,1,9.91,2a74.88,74.88,0,0,1,10.71,2.72q11.43,3.72,16.68,10.9t3.79,19.06a33.26,33.26,0,0,1-5.39,14.29,38.92,38.92,0,0,1-11.72,11.44,62.17,62.17,0,0,1-17.61,7.78A87.26,87.26,0,0,1,1801.86,1366.87Z" style="fill:#29a184"/></g></g></svg>