<svg xmlns="http://www.w3.org/2000/svg" xmlns:xlink="http://www.w3.org/1999/xlink" viewBox="0 0 200.38 168.69"><defs><style>.cls-1{fill:#fff;}.cls-2{fill:url(#radial-gradient);}.cls-3{fill:url(#radial-gradient-2);}.cls-4{fill:url(#linear-gradient);}.cls-5{fill:url(#radial-gradient-3);}.cls-6{fill:url(#linear-gradient-2);}.cls-7{fill:url(#linear-gradient-3);}.cls-8{fill:#0077a3;}.cls-9{fill:url(#linear-gradient-4);}.cls-10{fill:url(#linear-gradient-5);}.cls-11{fill:url(#linear-gradient-6);}.cls-12{fill:url(#linear-gradient-7);}.cls-13{fill:url(#linear-gradient-8);}.cls-14{fill:url(#linear-gradient-9);}.cls-15{fill:#00bcf2;}.cls-16{fill:url(#linear-gradient-10);}.cls-17{fill:url(#linear-gradient-11);}.cls-18{fill:#59d0f6;}.cls-19{fill:url(#linear-gradient-12);}.cls-20{fill:#01bcf1;}.cls-21{fill:#fa9d0f;}.cls-22{fill:#01bbf1;}</style><radialGradient id="radial-gradient" cx="104.07" cy="63.98" r="61.34" gradientUnits="userSpaceOnUse"><stop offset="0.65" stop-color="#fef100"/><stop offset="1" stop-color="#ffd600"/></radialGradient><radialGradient id="radial-gradient-2" cx="104.07" cy="63.98" r="61.34" gradientUnits="userSpaceOnUse"><stop offset="0.66" stop-color="#ab8b00"/><stop offset="0.75" stop-color="#dcad09" stop-opacity="0"/></radialGradient><linearGradient id="linear-gradient" x1="89.99" y1="102.66" x2="118.15" y2="25.3" gradientUnits="userSpaceOnUse"><stop offset="0" stop-color="#dd5d1b"/><stop offset="0.04" stop-color="#e1691c"/><stop offset="0.13" stop-color="#ea7f1f"/><stop offset="0.24" stop-color="#f19121"/><stop offset="0.38" stop-color="#f69d23"/><stop offset="0.56" stop-color="#f8a424"/><stop offset="1" stop-color="#f9a624"/></linearGradient><radialGradient id="radial-gradient-3" cx="104.07" cy="63.98" r="41.15" gradientUnits="userSpaceOnUse"><stop offset="0" stop-color="#ffca09"/><stop offset="1" stop-color="#ffca09" stop-opacity="0"/></radialGradient><linearGradient id="linear-gradient-2" x1="89.36" y1="51.55" x2="114.44" y2="26.47" gradientUnits="userSpaceOnUse"><stop offset="0" stop-color="#ffd033" stop-opacity="0"/><stop offset="1" stop-color="#ffd033"/></linearGradient><linearGradient id="linear-gradient-3" x1="69.18" y1="64.26" x2="142.02" y2="64.26" gradientUnits="userSpaceOnUse"><stop offset="0" stop-color="#c15911"/><stop offset="0.02" stop-color="#c15d10"/><stop offset="0.11" stop-color="#c3680d"/><stop offset="0.2" stop-color="#c36c0c"/><stop offset="0.26" stop-color="#c25f0f"/><stop offset="0.32" stop-color="#c15911"/><stop offset="0.37" stop-color="#c25f0f"/><stop offset="0.5" stop-color="#c3690d"/><stop offset="0.67" stop-color="#c36c0c"/><stop offset="0.71" stop-color="#be5e0f"/><stop offset="0.76" stop-color="#ba5211"/><stop offset="0.83" stop-color="#b84b13"/><stop offset="1" stop-color="#b74913"/></linearGradient><linearGradient id="linear-gradient-4" x1="91.53" y1="22.51" x2="91.11" y2="20.13" gradientUnits="userSpaceOnUse"><stop offset="0" stop-color="#00c9f1"/><stop offset="1" stop-color="#0076a0"/></linearGradient><linearGradient id="linear-gradient-5" x1="84.07" y1="54.03" x2="87.38" y2="53.32" gradientUnits="userSpaceOnUse"><stop offset="0" stop-color="#0076a0"/><stop offset="1" stop-color="#00c9f1"/></linearGradient><linearGradient id="linear-gradient-6" x1="121.89" y1="79.84" x2="121.28" y2="76.38" xlink:href="#linear-gradient-5"/><linearGradient id="linear-gradient-7" x1="147.84" y1="61.24" x2="150.04" y2="60.77" xlink:href="#linear-gradient-4"/><linearGradient id="linear-gradient-8" x1="107.2" y1="37.04" x2="109.1" y2="36.64" xlink:href="#linear-gradient-4"/><linearGradient id="linear-gradient-9" x1="129.35" y1="52.83" x2="129.01" y2="50.89" xlink:href="#linear-gradient-4"/><linearGradient id="linear-gradient-10" x1="98.23" y1="55.4" x2="92.46" y2="22.69" gradientUnits="userSpaceOnUse"><stop offset="0.28" stop-color="#7fd9f8"/><stop offset="0.33" stop-color="#73d7f8"/><stop offset="0.55" stop-color="#42d0f7"/><stop offset="0.74" stop-color="#1ecaf6"/><stop offset="0.9" stop-color="#08c7f5"/><stop offset="1" stop-color="#00c6f5"/></linearGradient><linearGradient id="linear-gradient-11" x1="128.66" y1="56.65" x2="128.22" y2="54.15" gradientUnits="userSpaceOnUse"><stop offset="0" stop-color="#0accf6"/><stop offset="1" stop-color="#7fd9f8"/></linearGradient><linearGradient id="linear-gradient-12" x1="92.35" y1="25.22" x2="91.95" y2="22.9" gradientUnits="userSpaceOnUse"><stop offset="0" stop-color="#23cef6"/><stop offset="0.2" stop-color="#48d4f7"/><stop offset="0.44" stop-color="#6edbf8"/><stop offset="0.66" stop-color="#89dff9"/><stop offset="0.85" stop-color="#99e2fa"/><stop offset="1" stop-color="#9fe3fa"/></linearGradient></defs><g id="Layer_2" data-name="Layer 2"><g id="Layer_1-2" data-name="Layer 1"><path class="cls-1" d="M167.43,51.63a2.58,2.58,0,0,0-2.58-1c-8.16-1.56-12.76-3.62-13.69-6.14s1.11-6.67,6.13-12.89a2.52,2.52,0,0,0,.92-1.27l.07-.21a2.6,2.6,0,0,0-1.22-3.07,2.56,2.56,0,0,0-2.74.16c-8.09,1.9-13.14,1.89-15,0s-1.7-6.54.36-14.27A2.52,2.52,0,0,0,140,11.4l0-.22a2.59,2.59,0,0,0-4.8-1c-6.62,5-11.23,7.07-13.73,6.07S117.23,10.92,116,3a2.59,2.59,0,0,0-.33-1.53l-.11-.19a2.59,2.59,0,0,0-4.82,1c-4,7.29-7.38,11-10.06,11.13s-6-3.12-10.37-9.82a2.5,2.5,0,0,0-.92-1.26l-.18-.13a2.59,2.59,0,0,0-4,2.87c-.7,8.28-2.27,13.07-4.67,14.26s-6.75-.41-13.46-4.76a2.61,2.61,0,0,0-1.36-.77l-.22-.05A2.58,2.58,0,0,0,63,18c2.73,7.85,3.25,12.87,1.53,14.93S58.2,35.3,50.3,34.06a2.51,2.51,0,0,0-1.56-.15l-.21,0A2.59,2.59,0,0,0,48,38.84c5.69,6,8.2,10.43,7.47,13s-4.82,4.74-12.54,6.82a2.6,2.6,0,0,0-1.49.49l-.17.13A2.59,2.59,0,0,0,42.74,64c7.67,3.21,11.74,6.19,12.12,8.84s-2.47,6.29-8.67,11.34a2.56,2.56,0,0,0-1.16,1l-.11.19a2.58,2.58,0,0,0,3.26,3.67c8.31-.18,13.24.88,14.67,3.16s.31,6.75-3.32,13.88a2.65,2.65,0,0,0-.64,1.54,2.59,2.59,0,0,0,4.47,2.14c7.51-3.54,12.45-4.58,14.68-3.09s3,6,2.62,14a2.63,2.63,0,0,0,0,1.57l.07.21a2.59,2.59,0,0,0,4.92,0c5.42-6.29,9.51-9.25,12.16-8.79S103,118,105.9,125.5a2.51,2.51,0,0,0,.65,1.43l.14.17a2.6,2.6,0,0,0,4.51-2c2.39-8,4.93-12.32,7.53-13s6.51,1.8,12.18,7.44a2.57,2.57,0,0,0,1.16,1l.21.09a2.59,2.59,0,0,0,3.31-3.64c-1.05-8.24-.51-13.26,1.6-14.92s6.68-1,14.15,1.85a2.55,2.55,0,0,0,1.49.48h.23a2.58,2.58,0,0,0,1.54-4.66c-4.31-7.11-5.85-11.91-4.6-14.29s5.7-3.63,13.68-4.06a2.62,2.62,0,0,0,1.56-.17l.2-.09a2.59,2.59,0,0,0-.48-4.89c-6.83-4.74-10.2-8.5-10-11.18s3.72-5.64,10.84-9.28a2.55,2.55,0,0,0,1.36-.79l.15-.16A2.6,2.6,0,0,0,167.43,51.63Zm-2.21,1.73-.13,0c-16.29,8.21-17.32,14.41-1,25.55l.3,0-.2.09-.1-.07c-18.22.87-21.69,6.11-11.31,22.92l.28.11h-.22l-.06-.11c-17-6.61-22.3-3.23-19.66,16.35l.21.21-.2-.09s0-.08,0-.12c-12.84-13-19.06-12-24.61,6.93l.11.29-.15-.16a.65.65,0,0,0,0-.13C102.05,108,96,106.35,83.21,121.41c0,.1,0,.2,0,.31l-.06-.21a.39.39,0,0,1,.08-.1c1-18.21-3.81-22.21-21.62-13.65l-.14.28,0-.22.11-.06C70,91.55,67.14,85.93,47.39,86.51l-.24.19.11-.19h.13c14.23-11.42,14-17.7-4.32-25.2l-.3.08.18-.13.12.05C60.71,56.67,63,50.82,49.36,36.53l-.3-.05.22,0,.08.09c18,2.94,22.49-1.47,15.83-20.07l-.25-.17.21.05a.56.56,0,0,1,0,.12c15.26,10,21.14,7.8,22.63-11.9,0-.09-.11-.17-.17-.26l.18.13s0,.08,0,.13C97.69,19.9,104,20.28,113.33,2.89c0-.1,0-.2,0-.3l.11.19-.06.11c2.77,18,8.35,20.93,24,8.85,0-.1.05-.19.08-.29l0,.22-.1.07c-4.81,17.6-.89,22.52,18.31,17.84l.19-.23-.07.21-.12,0c-11.55,14.13-10,20.21,9.46,23.75l.28-.14Z"/><path class="cls-2" d="M61.45,108C70,91.57,67.24,85.9,47.26,86.51l-.11.19C61.66,75.13,61.45,68.83,43,61.26l-.18.13c18-4.67,20.33-10.51,6.51-25l-.22,0c18.3,3.05,22.85-1.33,16.09-20.14l-.21-.05C80.42,26.51,86.35,24.36,87.83,4.43l-.18-.13c10,15.64,16.28,16.09,25.74-1.52l-.11-.19c2.77,18.34,8.33,21.31,24.14,9.08l0-.22c-4.94,17.88-1.07,22.86,18.35,18.11l.07-.21c-11.79,14.32-10.27,20.45,9.4,24l.15-.17c-16.6,8.3-17.7,14.51-1.18,25.76l.2-.09c-18.53.83-22.07,6.06-11.55,23h.22c-17.27-6.78-22.62-3.44-19.93,16.36l.2.09c-13-13.21-19.26-12.35-24.86,6.85l.15.16C102.11,108,96,106.25,83.13,121.51l.06.21c1.12-18.52-3.71-22.59-21.71-13.9"/><path class="cls-3" d="M61.45,108C70,91.57,67.24,85.9,47.26,86.51l-.11.19C61.66,75.13,61.45,68.83,43,61.26l-.18.13c18-4.67,20.33-10.51,6.51-25l-.22,0c18.3,3.05,22.85-1.33,16.09-20.14l-.21-.05C80.42,26.51,86.35,24.36,87.83,4.43l-.18-.13c10,15.64,16.28,16.09,25.74-1.52l-.11-.19c2.77,18.34,8.33,21.31,24.14,9.08l0-.22c-4.94,17.88-1.07,22.86,18.35,18.11l.07-.21c-11.79,14.32-10.27,20.45,9.4,24l.15-.17c-16.6,8.3-17.7,14.51-1.18,25.76l.2-.09c-18.53.83-22.07,6.06-11.55,23h.22c-17.27-6.78-22.62-3.44-19.93,16.36l.2.09c-13-13.21-19.26-12.35-24.86,6.85l.15.16C102.11,108,96,106.25,83.13,121.51l.06.21c1.12-18.52-3.71-22.59-21.71-13.9"/><circle class="cls-4" cx="104.07" cy="63.98" r="41.15"/><circle class="cls-5" cx="104.07" cy="63.98" r="41.15"/><ellipse class="cls-6" cx="101.9" cy="39.01" rx="22.29" ry="11.49"/><path class="cls-7" d="M88.62,89.63l-12-56.29a41.61,41.61,0,0,0-7.4,8.79c8.66,11.22,16,28.64,16.21,53.06,0,0,23.59-12.57,52-7.15A41.64,41.64,0,0,0,142,79.85Z"/><polygon class="cls-8" points="75.27 27.19 77.51 22.7 104.89 17.7 112.83 53.91 147.17 47.7 152.82 73.63 150.63 78.3 88.63 89.65 75.27 27.19"/><polygon class="cls-9" points="103.77 20.3 104.83 17.7 77.41 22.71 80.93 24.38 103.77 20.3"/><polygon class="cls-10" points="80.93 24.38 77.41 22.71 90.86 85.31 93.39 81.6 80.93 24.38"/><polygon class="cls-11" points="150.09 71.3 93.39 81.6 90.86 85.31 152.82 73.88 150.09 71.3"/><polygon class="cls-12" points="147.12 47.7 145.44 49.96 150.09 71.3 152.82 73.88 147.12 47.7"/><polygon class="cls-13" points="104.83 17.7 103.77 20.3 111.24 56.02 112.78 53.91 104.83 17.7"/><polygon class="cls-14" points="112.78 53.91 111.24 56.02 111.33 56.01 145.44 49.96 147.12 47.7 112.78 53.91"/><polygon class="cls-15" points="93.39 81.6 150.09 71.3 145.44 49.96 111.24 56.02 103.77 20.3 80.93 24.38 93.39 81.6"/><path class="cls-16" d="M108.27,47.53l-5.77-26.6L81.4,24.78,88.59,57.1C91.76,53.4,98.68,47,108.27,47.53Z"/><path class="cls-17" d="M145.26,51.36l0-.2-34,6.08C112.29,59.9,143.58,55.23,145.26,51.36Z"/><path class="cls-18" d="M94,80.87,148.94,71C148.29,68,93.11,76.15,94,80.87Z"/><path class="cls-19" d="M102.5,21,81.4,24.9C81.65,27.82,103.77,24,102.5,21Z"/><path class="cls-1" d="M150.73,111.29v-.61a2.87,2.87,0,0,0-2.87-2.87h-9a2.87,2.87,0,0,0-2.87,2.87v6.39c0,4.63,0,9.42,0,14.12a3.5,3.5,0,0,1-2,3.44,3.89,3.89,0,0,1-1.83.43,6.31,6.31,0,0,1-1.49-.2,2.32,2.32,0,0,1-1.65-1.31,5.17,5.17,0,0,1-.53-2.4V110.66a2.87,2.87,0,0,0-2.87-2.86h-9a2.85,2.85,0,0,0-2.86,2.72s0,.1,0,.15,0,.28,0,.45v5.14c0,4.81,0,9.79,0,14.69a26,26,0,0,0,.28,3.63h0l-.74,0c-.45,0-.87,0-1.24-.09-1.26-.15-1.5-.66-1.66-1.26a7.68,7.68,0,0,1-.27-2c0-9.39,0-18.93,0-28.16V95.14a2.86,2.86,0,0,0-2.86-2.86H98.13a2.86,2.86,0,0,0-2.87,2.86v2.41a8.23,8.23,0,0,0-.66-.8,7.32,7.32,0,0,0-4.78-2.25,5,5,0,0,0-.55,0v0h0a7.6,7.6,0,0,0-4.79,1.69A6.82,6.82,0,0,0,82,100.76a36.56,36.56,0,0,0-.12,4v1.55a5.25,5.25,0,0,0,0,.64.28.28,0,0,1,0,.09,2.9,2.9,0,0,0,.77,1.74,2.89,2.89,0,0,0-.7,1.88v10.9a20.37,20.37,0,0,0-19.7-14.68h0c-.56,0-1.14,0-1.72.06A20.84,20.84,0,0,0,52.64,109a19.92,19.92,0,0,0-6.42,5.12,23.06,23.06,0,0,0-2.1,3,37.56,37.56,0,0,0-1-4.71A22.3,22.3,0,0,0,21.22,95.66c-2.29,0-4.8-.06-7.9-.06H3.43l-.57,0H2.72A2.87,2.87,0,0,0,0,98.51V145.6a2.86,2.86,0,0,0,2.86,2.87h9.59c2.92,0,5.29,0,7.44,0a32.51,32.51,0,0,0,4.73-.33,21.82,21.82,0,0,0,12.62-6.27,22.59,22.59,0,0,0,4.9-7.41,20.64,20.64,0,0,0,6,9.72,18.34,18.34,0,0,0,12.76,5.06c.38,0,.77,0,1.15,0a17.41,17.41,0,0,0,7.2-1.9,2.87,2.87,0,0,0,2.31,1.16h8.49a2.88,2.88,0,0,0,2.39-1.28,2.85,2.85,0,0,0,2.37,1.26H93.7a2.86,2.86,0,0,0,2.86-2.86v-6.91a15.4,15.4,0,0,0,2.5,4.46,14.37,14.37,0,0,0,3.6,3.13,16.71,16.71,0,0,0,8.67,2.28,20.56,20.56,0,0,0,2.91-.21,2.86,2.86,0,0,0,2.46-2.83v-3.55a15,15,0,0,0,6.52,5.7h-6.11a2.86,2.86,0,0,0-2.83,3.34,17.26,17.26,0,0,0,9.79,12.79,19.78,19.78,0,0,0,8.29,1.81,22,22,0,0,0,4.22-.42A16.75,16.75,0,0,0,147,158.88a18.26,18.26,0,0,0,3.74-11.4c0-8.74,0-17.62,0-26.2Z"/><path class="cls-1" d="M197.51,123.83h-2.59v-29a2.87,2.87,0,0,0-2.86-2.87H186.5l-5.24,0h0a3.81,3.81,0,0,0-3.36,1.88c-2.54,4-5.14,8.16-7.64,12.13l-1.59,2.52-2,3.12c-2.72,4.32-5.53,8.78-8.29,13.18a4.73,4.73,0,0,0-.71,2.45c0,2,0,4,0,6v1.4c0,.22,0,.4,0,.59a1.41,1.41,0,0,1,0,.21,2.87,2.87,0,0,0,2.87,2.74h19.51v7.46a2.86,2.86,0,0,0,2.86,2.86h9.14a2.87,2.87,0,0,0,2.87-2.86v-7.48h2.57a2.86,2.86,0,0,0,2.87-2.86V126.7A2.87,2.87,0,0,0,197.51,123.83Z"/><path class="cls-20" d="M46.81,158.43c0-1.17,0-2.33,0-3.49,0-.34-.07-.47-.43-.45-1.32,0-2.65,0-4,0-.25,0-.45,0-.45.34.06,2.18-.07,4.37.07,6.55a1.39,1.39,0,0,0,1.61,1.49c.42,0,.81-.07,1.22-.09.13,0,.36-.18.36.11s.16.5-.16.64a5.62,5.62,0,0,1-3.49.54,1.8,1.8,0,0,1-1.51-1.56,5.8,5.8,0,0,1-.1-1.11q0-3.22,0-6.46c0-.36-.09-.52-.47-.47a5,5,0,0,1-1,0c-.16,0-.41.11-.46-.1a2.69,2.69,0,0,1,0-.85s.11-.07.18-.07a1.71,1.71,0,0,1,.32,0c.46,0,1.09.22,1.36-.1s.07-.92.09-1.38,0-.95,0-1.44c0-.26.07-.39.36-.37.5,0,1.14-.2,1.48.09s.07.93.11,1.41,0,.92,0,1.38.11.41.43.41c1.34,0,2.68,0,4,0,.34,0,.46-.07.44-.43,0-.8,0-1.63,0-2.43,0-.32.07-.45.41-.43a9.77,9.77,0,0,0,1.21,0c.29,0,.36.09.36.36,0,.82,0,1.66,0,2.48,0,.36.11.45.45.43.74,0,1.49,0,2.22,0,.45,0,.36.27.36.52s.09.55-.36.53c-.75,0-1.52,0-2.27,0-.31,0-.4.09-.38.4,0,2,0,4.1,0,6.14,0,1.43.54,1.9,2,1.84.31,0,.59-.07.9-.09.14,0,.35-.12.37.13s.15.5-.18.64a5.73,5.73,0,0,1-3.43.54,1.92,1.92,0,0,1-1.61-2.11c-.08-1.15,0-2.33-.06-3.51Z"/><path class="cls-20" d="M76.06,161.33c.84-1.94,1.61-3.76,2.33-5.62.35-.93.23-1.15-.7-1.47l-.31-.09c-.28-.07-.18-.3-.18-.48s.17-.24.33-.24h3.22c.16,0,.37-.05.37.24s0,.41-.25.5a2.67,2.67,0,0,0-1.63,1.68c-1.37,3.17-2.57,6.39-4.08,9.51a9.32,9.32,0,0,1-1.62,2.45,2.45,2.45,0,0,1-2.55.78,1.43,1.43,0,0,1-1-.75,1.21,1.21,0,0,1,.23-1.38,1.1,1.1,0,0,1,1.33-.14,2.49,2.49,0,0,1,.86.91c.12.22.25.29.44.09A10.42,10.42,0,0,0,74.93,164c.07-.16-.05-.31-.11-.45-1.11-2.67-2.22-5.33-3.31-8A2.05,2.05,0,0,0,70,154.2c-.34-.09-.34-.28-.34-.53s.26-.25.43-.25h4c.22,0,.43,0,.41.3s0,.48-.37.48a1.6,1.6,0,0,0-.47.11c-.3.09-.45.25-.3.59C74.3,157,75.16,159.11,76.06,161.33Z"/><path class="cls-20" d="M26.53,154.94v6.71c0,1.07.2,1.34,1.26,1.54.32.05.32.21.34.46s-.17.29-.38.29H23.31c-.21,0-.37,0-.37-.29s0-.41.35-.44c1.11-.13,1.26-.27,1.26-1.38V150.46c0-1.45-.27-1.79-1.7-2-.31,0-.47-.1-.45-.46s.28-.29.48-.31c1-.07,2.08-.1,3.12-.19.41,0,.55.09.55.52C26.52,150.28,26.53,152.61,26.53,154.94Z"/><path class="cls-21" d="M4.7,158.52a5.92,5.92,0,0,0,.82,3.17,2.9,2.9,0,0,0,4.6.46,6.21,6.21,0,0,0,.61-.73c.16-.25.27-.4.61-.18s.28.36.1.62a4.83,4.83,0,0,1-7.24,1.22,5.46,5.46,0,0,1-1.67-3.67,5.52,5.52,0,0,1,3.26-5.94,4.32,4.32,0,0,1,4.42.5,2.36,2.36,0,0,1,.75,2.58,1,1,0,0,1-1.27.68,1.11,1.11,0,0,1-1.06-1.11,4.43,4.43,0,0,1,.2-1.2c.13-.47-.07-.73-.52-.88a2.34,2.34,0,0,0-2.84,1.15A6.41,6.41,0,0,0,4.7,158.52Z"/><path class="cls-20" d="M64.82,155a6.13,6.13,0,0,1,1.27-1.2,3.71,3.71,0,0,1,1.41-.57,1.52,1.52,0,0,1,1.63.63,1.81,1.81,0,0,1,0,1.9,1.06,1.06,0,0,1-1.27.35,1,1,0,0,1-.77-1,1.72,1.72,0,0,1,0-.46c.07-.27,0-.3-.25-.29a2.46,2.46,0,0,0-2,2.22v4.82c0,1.41.18,1.64,1.62,1.75.35,0,.44.16.42.48s-.08.27-.28.27h-5c-.23,0-.32-.09-.31-.3s0-.41.25-.43a3,3,0,0,0,.43,0,.9.9,0,0,0,.9-1c0-2.17,0-4.33,0-6.52a1.33,1.33,0,0,0-1.24-1.39c-.25,0-.44-.06-.44-.43s.25-.36.48-.38c.91,0,1.83-.09,2.74-.18.39,0,.5.13.48.49A6.63,6.63,0,0,0,64.82,155Z"/><path class="cls-21" d="M22.08,163.3c0-.29-.22-.22-.38-.24-1.16-.07-1.45-.35-1.43-1.54,0-1.73.07-3.45.07-5.19a2.74,2.74,0,0,0-1.66-2.86,5.3,5.3,0,0,0-5.09.59,2,2,0,0,0-.89,1.22,1.16,1.16,0,0,0,1.77,1.32,1,1,0,0,0,.48-1.18c0-.25-.09-.48-.14-.71a.36.36,0,0,1,.18-.45,2.06,2.06,0,0,1,3.27,1.34,9.73,9.73,0,0,1,.09,1.22.52.52,0,0,1-.39.59l-2.29.82a10.19,10.19,0,0,0-2.24.93,2.86,2.86,0,0,0-1.2,3.15,2.47,2.47,0,0,0,2.28,1.9,4.08,4.08,0,0,0,3.07-.86l.76-.64c.6,1.25,1.18,1.61,2.43,1.46a6.74,6.74,0,0,0,1.07-.28C22.15,163.76,22.08,163.53,22.08,163.3Zm-3.82-1.63a.42.42,0,0,1-.1.28,2.78,2.78,0,0,1-2.29,1.1C14.63,163,14,162,14.38,160.68a2.45,2.45,0,0,1,1-1.36,10.28,10.28,0,0,1,2.86-1.18Z"/><path class="cls-20" d="M38.36,157.25a4.67,4.67,0,0,0-3.5-3.9,5,5,0,0,0-5.46,1.55,5.91,5.91,0,0,0-1.08,5.44A4.73,4.73,0,0,0,32,164.08,4.92,4.92,0,0,0,37,162.65a6,6,0,0,0,1.45-4.1A8.18,8.18,0,0,0,38.36,157.25Zm-2.66,4.47a2.52,2.52,0,0,1-4.75.07,7.76,7.76,0,0,1-.59-3.86,5.82,5.82,0,0,1,.61-2.49A2.55,2.55,0,0,1,33.44,154a2.46,2.46,0,0,1,2.26,1.65,7.42,7.42,0,0,1,.55,3.1A7.29,7.29,0,0,1,35.7,161.72Z"/><path class="cls-20" d="M60.72,161.2c-.41-.27-.48,0-.61.27A3,3,0,0,1,57,163.05a3.18,3.18,0,0,1-2.79-2.38,9.15,9.15,0,0,1-.32-1.87c0-.35.09-.44.43-.44h3.06c1,0,2.07,0,3.11,0,.32,0,.45-.07.43-.42s0-.87-.09-1.32a3.79,3.79,0,0,0-2.08-3.06A4.72,4.72,0,0,0,53,154.9a6.3,6.3,0,0,0-1.13,5,4.79,4.79,0,0,0,3.71,4.24,4.92,4.92,0,0,0,5.37-2.18C61.1,161.58,61.08,161.42,60.72,161.2Zm-6.87-4a3.88,3.88,0,0,1,1-2.57,2.1,2.1,0,0,1,3.58.87,7.25,7.25,0,0,1,.25,1.67c0,.28-.1.32-.34.32H54.17C54,157.46,53.81,157.46,53.85,157.19Z"/><path class="cls-20" d="M81.68,154.77a1,1,0,0,1,.5.13.93.93,0,0,1,.38.38,1,1,0,0,1,0,1,1,1,0,0,1-.37.38,1,1,0,0,1-1,0,.93.93,0,0,1-.38-.38,1,1,0,0,1,0-1,.93.93,0,0,1,.38-.38A1,1,0,0,1,81.68,154.77Zm0,.17a.94.94,0,0,0-.42.11.77.77,0,0,0-.31.31.81.81,0,0,0,0,.85.71.71,0,0,0,.31.31.86.86,0,0,0,.84,0,.8.8,0,0,0,.32-.31.94.94,0,0,0,.11-.42.85.85,0,0,0-.12-.43.77.77,0,0,0-.31-.31A.94.94,0,0,0,81.68,154.94Zm-.44,1.41v-1.09h.37a.94.94,0,0,1,.28,0,.28.28,0,0,1,.14.1.33.33,0,0,1,0,.16.29.29,0,0,1-.09.21.32.32,0,0,1-.22.1l.09.06a1.11,1.11,0,0,1,.16.21l.13.22h-.21l-.1-.17a1,1,0,0,0-.18-.26.29.29,0,0,0-.14,0h-.11v.47Zm.17-.62h.22a.37.37,0,0,0,.21,0,.17.17,0,0,0,0-.12.14.14,0,0,0,0-.09.11.11,0,0,0-.07-.06l-.18,0h-.2Z"/><path class="cls-22" d="M2.86,145.6V98.51c.2,0,.38,0,.57,0,5.91,0,11.83,0,17.74,0A19.45,19.45,0,0,1,40.38,113.2,31.84,31.84,0,0,1,40,131.89a20,20,0,0,1-4.82,7.94,18.94,18.94,0,0,1-11,5.46,31.19,31.19,0,0,1-4.33.3c-5.43,0-10.87,0-16.31,0Zm9-38.69v30.31l.26,0c3.09,0,6.19.06,9.27-.08a10.2,10.2,0,0,0,9.66-6.83,23.22,23.22,0,0,0,.46-15.58c-1.47-4.85-4.85-7.5-9.92-7.79-3.18-.19-6.37-.08-9.56-.1A.68.68,0,0,0,11.89,106.91Z"/><path class="cls-22" d="M116.63,110.66h9v20.49a8.06,8.06,0,0,0,.84,3.7,5.23,5.23,0,0,0,3.51,2.79,7.36,7.36,0,0,0,5.34-.47,6.35,6.35,0,0,0,3.54-6c0-6.6,0-13.2,0-19.8v-.72h9v.61c0,12.06,0,24.12,0,36.18a15.47,15.47,0,0,1-3.14,9.66,14,14,0,0,1-8.67,5.21,17.33,17.33,0,0,1-10.78-1.19,14.39,14.39,0,0,1-8.15-10.66h9.29a4.51,4.51,0,0,0,2.19,3,7.85,7.85,0,0,0,4.49.84,6.3,6.3,0,0,0,3.39-1.2,6,6,0,0,0,2.33-4.54c.12-1.59,0-3.2,0-4.86-.52.33-1,.67-1.48,1A13.12,13.12,0,0,1,127,145.93c-5.44-1.42-8.61-5.1-9.85-10.47a20.22,20.22,0,0,1-.49-4.53c0-6.6,0-13.2,0-19.81C116.61,111,116.62,110.86,116.63,110.66Z"/><path class="cls-22" d="M160.56,135.23c0-.27,0-.48,0-.68q0-3.66,0-7.33a1.87,1.87,0,0,1,.27-1q5.12-8.16,10.26-16.3,4.6-7.32,9.22-14.65a1,1,0,0,1,1-.53c3.38,0,6.76,0,10.13,0h.69v31.9h5.45v8.51h-5.44v10.34h-9.14V135.23Zm22.36-28.33-.12-.05-12.51,19.81h12.63Z"/><path class="cls-22" d="M80.05,145.57H71.56V142l-1,.91a13.78,13.78,0,0,1-8.66,3.39,15.54,15.54,0,0,1-11.81-4.27,18,18,0,0,1-5.83-11.87A18.51,18.51,0,0,1,48.42,116a17,17,0,0,1,12.31-6.17,17.57,17.57,0,0,1,18.89,14.29,24.09,24.09,0,0,1,.41,4.48c0,5.42,0,10.84,0,16.26ZM53.17,128.19a10.57,10.57,0,0,0,1.2,5,8.54,8.54,0,0,0,13.44,2.61,10.67,10.67,0,0,0,.75-14.55,8.29,8.29,0,0,0-11.36-1.44C54.38,121.87,53.26,124.79,53.17,128.19Z"/><path class="cls-22" d="M113.83,137.43v8c-5.91.83-12.18-1.18-14.6-7.86a17.78,17.78,0,0,1-1.06-6q0-17.93,0-35.83v-.61h9.09v.72q0,17.65,0,35.32a11.68,11.68,0,0,0,.37,2.76,4.39,4.39,0,0,0,4.09,3.35C112.38,137.38,113.09,137.39,113.83,137.43Z"/><path class="cls-22" d="M93.7,145.56H84.81V110.68H93.7Z"/><path class="cls-22" d="M93.71,106.83h-9a4.09,4.09,0,0,1,0-.46c0-1.77-.07-3.56.11-5.31a4.5,4.5,0,0,1,8.93.63c0,1.64,0,3.28,0,4.92A1.34,1.34,0,0,1,93.71,106.83Z"/></g></g></svg>