<svg xmlns="http://www.w3.org/2000/svg" xmlns:xlink="http://www.w3.org/1999/xlink" viewBox="0 0 107.72 60.16"><defs><clipPath id="clip-path" transform="translate(0 0.01)"><path d="M80.44.85a20.38,20.38,0,0,1-1.68,5.59,21.29,21.29,0,0,1-1.67,3c-.74,1.11-2,1.42-2.55.75-.33-.39-.66-.81-1-1.25A18.26,18.26,0,0,1,71.08,4.2c-.15-.42-.33-.74-.43-.71s-.08.39,0,.82a18.33,18.33,0,0,1,.42,5.33c0,.64-.11,1.27-.21,1.88a2,2,0,0,1-2.71,1.21A21,21,0,0,1,64.52,11,20.39,20.39,0,0,1,60,7.4c-.33-.35-.65-.59-.73-.52s.09.43.38.82a20.31,20.31,0,0,1,2.77,5.13,21.48,21.48,0,0,1,.93,3.29c.25,1.31-.4,2.41-1.27,2.34-.52-.05-1.05-.11-1.58-.2a18.26,18.26,0,0,1-5.1-1.58c-.4-.19-.75-.29-.8-.2s.22.34.6.57a18.67,18.67,0,0,1,4.05,3.47c.43.49.83,1,1.19,1.48.62.85,2.81,4.84,1.6,5.41s.69,1-.67,1.33c-.71.19-3.5-.37-6.28-.92a38.21,38.21,0,0,0-6-.95c-.89.05-.9.22,0,.4A40.56,40.56,0,0,1,55.29,29a20.86,20.86,0,0,1,3,1.67c1.11.74,1.42,2,.75,2.54a15.45,15.45,0,0,1-1.25,1,18.57,18.57,0,0,1-4.72,2.49c-.42.15-.74.33-.71.43s.39.08.82,0a18.69,18.69,0,0,1,5.33-.41c.64,0,1.27.11,1.88.21a2,2,0,0,1,1.21,2.72,20.83,20.83,0,0,1-1.71,3.63,20.46,20.46,0,0,1-3.62,4.58c-.35.32-.59.64-.52.73s.43-.09.82-.39a20.62,20.62,0,0,1,5.13-2.76A21.48,21.48,0,0,1,65,44.41c1.31-.26,2.41.4,2.34,1.27,0,.52-.11,1-.2,1.58a18.26,18.26,0,0,1-1.58,5.1c-.19.4-.29.75-.2.8s.34-.22.57-.6a18.71,18.71,0,0,1,3.47-4.06,17.78,17.78,0,0,1,1.48-1.18,2,2,0,0,1,2.77,1.07A21,21,0,0,1,75,52.16a49.23,49.23,0,0,1,.63,7.09c0,.89.19.9.37,0a48.56,48.56,0,0,1,1.8-6.87,21.33,21.33,0,0,1,1.68-3c.74-1.11,2-1.42,2.54-.75a15.45,15.45,0,0,1,1,1.25,18.57,18.57,0,0,1,2.49,4.72c.15.42.32.74.42.71s.08-.39,0-.83a18.59,18.59,0,0,1-.41-5.32c0-.64.11-1.27.2-1.88a2,2,0,0,1,2.72-1.21A20.58,20.58,0,0,1,92,47.83a19.9,19.9,0,0,1,4.57,3.62c.33.35.65.59.74.52s-.09-.43-.39-.82A20.3,20.3,0,0,1,94.2,46a21.48,21.48,0,0,1-.93-3.29c-.26-1.32.4-2.41,1.27-2.34.52,0,1,.11,1.58.19a18.6,18.6,0,0,1,5.1,1.59c.39.19.75.29.8.2s-.22-.34-.6-.57a18.71,18.71,0,0,1-4.06-3.47c-.43-.49-.82-1-1.19-1.48a2,2,0,0,1,1.08-2.77A21,21,0,0,1,101,32.71a20,20,0,0,1,5.8-.67c.48,0,.88,0,.89-.15s-.37-.24-.85-.31a20.38,20.38,0,0,1-5.59-1.68,21.29,21.29,0,0,1-3-1.67c-1.11-.74-1.42-2-.75-2.55.39-.33.81-.66,1.25-1a18.57,18.57,0,0,1,4.72-2.49c.42-.15.74-.33.71-.43s-.4-.07-.83,0a18.59,18.59,0,0,1-5.32.41A18.83,18.83,0,0,1,96.18,22,2,2,0,0,1,95,19.31a21.24,21.24,0,0,1,1.7-3.64c1.06-1.81,5.76-6.44,5.68-6.53s-5.52,3.64-7.48,4.37a21.28,21.28,0,0,1-3.3.93c-1.31.26-2.4-.4-2.33-1.27,0-.52.11-1.05.19-1.58A18.94,18.94,0,0,1,91,6.49c.2-.4.3-.75.21-.8s-.34.22-.57.6a18.94,18.94,0,0,1-3.47,4.06c-.49.42-1,.82-1.48,1.18a2,2,0,0,1-2.77-1.07,20.79,20.79,0,0,1-1.37-3.78A20.34,20.34,0,0,1,80.89.89c0-.48,0-.88-.15-.89h0c-.11,0-.23.38-.3.85" style="fill:none"/></clipPath><clipPath id="clip-path-2" transform="translate(0 0.01)"><path d="M61.46,29.7A16.95,16.95,0,1,0,78.41,12.75a17,17,0,0,0-16.95,17" style="fill:none"/></clipPath><clipPath id="clip-path-3" transform="translate(0 0.01)"><rect x="13.09" y="41.66" width="40.1" height="8.98" style="fill:none"/></clipPath></defs><g id="Layer_2" data-name="Layer 2"><g id="Layer_1-2" data-name="Layer 1"><g style="clip-path:url(#clip-path)"><rect x="48.12" width="59.6" height="60.16" style="fill:#0d9489"/><path d="M102,30A24,24,0,1,1,78,6a24,24,0,0,1,24,24" transform="translate(0 0.01)" style="fill:#0d9489"/><path d="M101.94,30A23.92,23.92,0,1,1,78,6.05,23.92,23.92,0,0,1,101.94,30" transform="translate(0 0.01)" style="fill:#139589"/><path d="M101.9,30A23.88,23.88,0,1,1,78,6.08,23.88,23.88,0,0,1,101.9,30" transform="translate(0 0.01)" style="fill:#19968a"/><path d="M101.87,30A23.85,23.85,0,1,1,78,6.12,23.84,23.84,0,0,1,101.87,30" transform="translate(0 0.01)" style="fill:#1c968b"/><path d="M101.83,30A23.81,23.81,0,1,1,78,6.16,23.8,23.8,0,0,1,101.83,30" transform="translate(0 0.01)" style="fill:#20968b"/><path d="M101.79,30A23.77,23.77,0,1,1,78,6.2,23.77,23.77,0,0,1,101.79,30" transform="translate(0 0.01)" style="fill:#23978c"/><path d="M101.75,30A23.73,23.73,0,1,1,78,6.24,23.72,23.72,0,0,1,101.75,30" transform="translate(0 0.01)" style="fill:#27988c"/><path d="M101.71,30A23.69,23.69,0,1,1,78,6.28,23.69,23.69,0,0,1,101.71,30" transform="translate(0 0.01)" style="fill:#29988d"/><path d="M101.67,30A23.65,23.65,0,1,1,78,6.31,23.65,23.65,0,0,1,101.67,30" transform="translate(0 0.01)" style="fill:#2c998e"/><path d="M101.64,30A23.62,23.62,0,1,1,78,6.35,23.62,23.62,0,0,1,101.64,30" transform="translate(0 0.01)" style="fill:#2f998e"/><path d="M101.6,30A23.58,23.58,0,1,1,78,6.39,23.58,23.58,0,0,1,101.6,30" transform="translate(0 0.01)" style="fill:#319a8f"/><path d="M101.56,30A23.54,23.54,0,1,1,78,6.43,23.54,23.54,0,0,1,101.56,30" transform="translate(0 0.01)" style="fill:#339a8f"/><path d="M101.52,30A23.5,23.5,0,1,1,78,6.47,23.5,23.5,0,0,1,101.52,30" transform="translate(0 0.01)" style="fill:#369b90"/><path d="M101.48,30A23.46,23.46,0,1,1,78,6.5,23.46,23.46,0,0,1,101.48,30" transform="translate(0 0.01)" style="fill:#389b91"/><path d="M101.44,30A23.42,23.42,0,1,1,78,6.54,23.41,23.41,0,0,1,101.44,30" transform="translate(0 0.01)" style="fill:#3a9c91"/><path d="M101.41,30A23.39,23.39,0,1,1,78,6.58,23.38,23.38,0,0,1,101.41,30" transform="translate(0 0.01)" style="fill:#3c9c92"/><path d="M101.37,30A23.35,23.35,0,1,1,78,6.62,23.35,23.35,0,0,1,101.37,30" transform="translate(0 0.01)" style="fill:#3e9d92"/><path d="M101.33,30A23.31,23.31,0,1,1,78,6.66,23.31,23.31,0,0,1,101.33,30" transform="translate(0 0.01)" style="fill:#409d93"/><path d="M101.29,30A23.27,23.27,0,1,1,78,6.7,23.27,23.27,0,0,1,101.29,30" transform="translate(0 0.01)" style="fill:#429e94"/><path d="M101.25,30A23.23,23.23,0,1,1,78,6.73,23.23,23.23,0,0,1,101.25,30" transform="translate(0 0.01)" style="fill:#449e94"/><path d="M101.21,30A23.19,23.19,0,1,1,78,6.77,23.19,23.19,0,0,1,101.21,30" transform="translate(0 0.01)" style="fill:#469f95"/><path d="M101.18,30A23.16,23.16,0,1,1,78,6.81,23.15,23.15,0,0,1,101.18,30" transform="translate(0 0.01)" style="fill:#489f95"/><path d="M101.14,30A23.12,23.12,0,1,1,78,6.85,23.12,23.12,0,0,1,101.14,30" transform="translate(0 0.01)" style="fill:#4aa096"/><path d="M101.1,30A23.08,23.08,0,1,1,78,6.89,23.08,23.08,0,0,1,101.1,30" transform="translate(0 0.01)" style="fill:#4ba097"/><path d="M101.06,30a23,23,0,1,1-23-23,23,23,0,0,1,23,23" transform="translate(0 0.01)" style="fill:#4da197"/><path d="M101,30A23,23,0,1,1,78,7a23,23,0,0,1,23,23" transform="translate(0 0.01)" style="fill:#4fa298"/><path d="M101,30A23,23,0,1,1,78,7a23,23,0,0,1,23,23" transform="translate(0 0.01)" style="fill:#50a298"/><path d="M101,30A22.93,22.93,0,1,1,78,7,22.93,22.93,0,0,1,101,30" transform="translate(0 0.01)" style="fill:#52a399"/><path d="M100.91,30A22.89,22.89,0,1,1,78,7.08,22.89,22.89,0,0,1,100.91,30" transform="translate(0 0.01)" style="fill:#54a39a"/><path d="M100.87,30A22.85,22.85,0,1,1,78,7.12,22.85,22.85,0,0,1,100.87,30" transform="translate(0 0.01)" style="fill:#56a49a"/><path d="M100.83,30A22.81,22.81,0,1,1,78,7.16,22.81,22.81,0,0,1,100.83,30" transform="translate(0 0.01)" style="fill:#57a49b"/><path d="M100.79,30A22.77,22.77,0,1,1,78,7.19,22.76,22.76,0,0,1,100.79,30" transform="translate(0 0.01)" style="fill:#59a59b"/><path d="M100.75,30A22.73,22.73,0,1,1,78,7.23,22.72,22.72,0,0,1,100.75,30" transform="translate(0 0.01)" style="fill:#5aa59c"/><path d="M100.72,30A22.7,22.7,0,1,1,78,7.27,22.69,22.69,0,0,1,100.72,30" transform="translate(0 0.01)" style="fill:#5ca69d"/><path d="M100.68,30A22.66,22.66,0,1,1,78,7.31,22.66,22.66,0,0,1,100.68,30" transform="translate(0 0.01)" style="fill:#5da69d"/><path d="M100.64,30A22.62,22.62,0,1,1,78,7.35,22.62,22.62,0,0,1,100.64,30" transform="translate(0 0.01)" style="fill:#5fa79e"/><path d="M100.6,30A22.58,22.58,0,1,1,78,7.39,22.58,22.58,0,0,1,100.6,30" transform="translate(0 0.01)" style="fill:#60a89f"/><path d="M100.56,30A22.54,22.54,0,1,1,78,7.42,22.54,22.54,0,0,1,100.56,30" transform="translate(0 0.01)" style="fill:#62a89f"/><path d="M100.52,30A22.5,22.5,0,1,1,78,7.46,22.5,22.5,0,0,1,100.52,30" transform="translate(0 0.01)" style="fill:#63a9a0"/><path d="M100.49,30A22.47,22.47,0,1,1,78,7.5,22.46,22.46,0,0,1,100.49,30" transform="translate(0 0.01)" style="fill:#65a9a0"/><path d="M100.45,30A22.43,22.43,0,1,1,78,7.54,22.43,22.43,0,0,1,100.45,30" transform="translate(0 0.01)" style="fill:#66aaa1"/><path d="M100.41,30A22.39,22.39,0,1,1,78,7.58,22.38,22.38,0,0,1,100.41,30" transform="translate(0 0.01)" style="fill:#68aaa2"/><path d="M100.37,30A22.35,22.35,0,1,1,78,7.62,22.35,22.35,0,0,1,100.37,30" transform="translate(0 0.01)" style="fill:#69aba2"/><path d="M100.33,30A22.31,22.31,0,1,1,78,7.65,22.31,22.31,0,0,1,100.33,30" transform="translate(0 0.01)" style="fill:#6aaba3"/><path d="M100.29,30A22.27,22.27,0,1,1,78,7.69,22.27,22.27,0,0,1,100.29,30" transform="translate(0 0.01)" style="fill:#6caca4"/><path d="M100.26,30A22.24,22.24,0,1,1,78,7.73,22.24,22.24,0,0,1,100.26,30" transform="translate(0 0.01)" style="fill:#6daca4"/><path d="M100.22,30A22.2,22.2,0,1,1,78,7.77,22.2,22.2,0,0,1,100.22,30" transform="translate(0 0.01)" style="fill:#6fada5"/><path d="M100.18,30A22.16,22.16,0,1,1,78,7.81,22.16,22.16,0,0,1,100.18,30" transform="translate(0 0.01)" style="fill:#70aea5"/><path d="M100.14,30A22.12,22.12,0,1,1,78,7.85,22.12,22.12,0,0,1,100.14,30" transform="translate(0 0.01)" style="fill:#71aea6"/><path d="M100.1,30A22.08,22.08,0,1,1,78,7.88,22.07,22.07,0,0,1,100.1,30" transform="translate(0 0.01)" style="fill:#73afa7"/><path d="M100.06,30a22,22,0,1,1-22-22,22,22,0,0,1,22,22" transform="translate(0 0.01)" style="fill:#74afa7"/><path d="M100,30A22,22,0,1,1,78,8a22,22,0,0,1,22,22" transform="translate(0 0.01)" style="fill:#75b0a8"/><path d="M100,30A22,22,0,1,1,78,8a22,22,0,0,1,22,22" transform="translate(0 0.01)" style="fill:#77b0a9"/><path d="M100,30A21.93,21.93,0,1,1,78,8,21.93,21.93,0,0,1,100,30" transform="translate(0 0.01)" style="fill:#78b1a9"/><path d="M99.91,30A21.89,21.89,0,1,1,78,8.08,21.89,21.89,0,0,1,99.91,30" transform="translate(0 0.01)" style="fill:#79b2aa"/><path d="M99.87,30A21.85,21.85,0,1,1,78,8.11,21.85,21.85,0,0,1,99.87,30" transform="translate(0 0.01)" style="fill:#7bb2aa"/><path d="M99.83,30A21.81,21.81,0,1,1,78,8.15,21.8,21.8,0,0,1,99.83,30" transform="translate(0 0.01)" style="fill:#7cb3ab"/><path d="M99.8,30A21.78,21.78,0,1,1,78,8.19,21.77,21.77,0,0,1,99.8,30" transform="translate(0 0.01)" style="fill:#7db3ac"/><path d="M99.76,30A21.74,21.74,0,1,1,78,8.23,21.74,21.74,0,0,1,99.76,30" transform="translate(0 0.01)" style="fill:#7fb4ac"/><path d="M99.72,30A21.7,21.7,0,1,1,78,8.27,21.7,21.7,0,0,1,99.72,30" transform="translate(0 0.01)" style="fill:#80b5ad"/><path d="M99.68,30A21.66,21.66,0,1,1,78,8.31,21.66,21.66,0,0,1,99.68,30" transform="translate(0 0.01)" style="fill:#81b5ae"/><path d="M99.64,30A21.62,21.62,0,1,1,78,8.34,21.62,21.62,0,0,1,99.64,30" transform="translate(0 0.01)" style="fill:#82b6ae"/><path d="M99.6,30A21.58,21.58,0,1,1,78,8.38,21.58,21.58,0,0,1,99.6,30" transform="translate(0 0.01)" style="fill:#84b6af"/><path d="M99.57,30A21.55,21.55,0,1,1,78,8.42,21.54,21.54,0,0,1,99.57,30" transform="translate(0 0.01)" style="fill:#85b7b0"/><path d="M99.53,30A21.51,21.51,0,1,1,78,8.46,21.51,21.51,0,0,1,99.53,30" transform="translate(0 0.01)" style="fill:#86b7b0"/><path d="M99.49,30A21.47,21.47,0,1,1,78,8.5,21.47,21.47,0,0,1,99.49,30" transform="translate(0 0.01)" style="fill:#87b8b1"/><path d="M99.45,30A21.43,21.43,0,1,1,78,8.54,21.42,21.42,0,0,1,99.45,30" transform="translate(0 0.01)" style="fill:#88b8b1"/><path d="M99.41,30A21.39,21.39,0,1,1,78,8.57,21.38,21.38,0,0,1,99.41,30" transform="translate(0 0.01)" style="fill:#89b9b2"/><path d="M99.37,30A21.35,21.35,0,1,1,78,8.61,21.35,21.35,0,0,1,99.37,30" transform="translate(0 0.01)" style="fill:#8bbab3"/><path d="M99.34,30A21.32,21.32,0,1,1,78,8.65,21.32,21.32,0,0,1,99.34,30" transform="translate(0 0.01)" style="fill:#8cbab3"/><path d="M99.3,30A21.28,21.28,0,1,1,78,8.69,21.28,21.28,0,0,1,99.3,30" transform="translate(0 0.01)" style="fill:#8dbbb4"/><path d="M99.26,30A21.24,21.24,0,1,1,78,8.73,21.24,21.24,0,0,1,99.26,30" transform="translate(0 0.01)" style="fill:#8ebbb5"/><path d="M99.22,30A21.2,21.2,0,1,1,78,8.77,21.2,21.2,0,0,1,99.22,30" transform="translate(0 0.01)" style="fill:#8fbcb5"/><path d="M99.18,30A21.16,21.16,0,1,1,78,8.8,21.16,21.16,0,0,1,99.18,30" transform="translate(0 0.01)" style="fill:#90bcb6"/><path d="M99.14,30A21.12,21.12,0,1,1,78,8.84,21.11,21.11,0,0,1,99.14,30" transform="translate(0 0.01)" style="fill:#91bdb6"/><path d="M99.11,30A21.09,21.09,0,1,1,78,8.88,21.08,21.08,0,0,1,99.11,30" transform="translate(0 0.01)" style="fill:#93beb7"/><path d="M99.07,30a21,21,0,1,1-21-21,21.05,21.05,0,0,1,21,21" transform="translate(0 0.01)" style="fill:#94beb8"/><path d="M99,30A21,21,0,1,1,78,9,21,21,0,0,1,99,30" transform="translate(0 0.01)" style="fill:#95bfb8"/><path d="M99,30A21,21,0,1,1,78,9,21,21,0,0,1,99,30" transform="translate(0 0.01)" style="fill:#96bfb9"/><path d="M99,30A20.93,20.93,0,1,1,78,9,20.93,20.93,0,0,1,99,30" transform="translate(0 0.01)" style="fill:#97c0ba"/><path d="M98.91,30A20.89,20.89,0,1,1,78,9.07,20.89,20.89,0,0,1,98.91,30" transform="translate(0 0.01)" style="fill:#98c0ba"/><path d="M98.88,30A20.86,20.86,0,1,1,78,9.11,20.85,20.85,0,0,1,98.88,30" transform="translate(0 0.01)" style="fill:#99c1bb"/><path d="M98.84,30A20.82,20.82,0,1,1,78,9.15,20.82,20.82,0,0,1,98.84,30" transform="translate(0 0.01)" style="fill:#9ac1bc"/><path d="M98.8,30A20.78,20.78,0,1,1,78,9.19,20.78,20.78,0,0,1,98.8,30" transform="translate(0 0.01)" style="fill:#9bc2bc"/><path d="M98.76,30A20.74,20.74,0,1,1,78,9.23,20.73,20.73,0,0,1,98.76,30" transform="translate(0 0.01)" style="fill:#9cc3bd"/><path d="M98.72,30A20.7,20.7,0,1,1,78,9.26,20.7,20.7,0,0,1,98.72,30" transform="translate(0 0.01)" style="fill:#9ec3bd"/><path d="M98.68,30A20.66,20.66,0,1,1,78,9.3,20.66,20.66,0,0,1,98.68,30" transform="translate(0 0.01)" style="fill:#9fc4be"/><path d="M98.65,30A20.63,20.63,0,1,1,78,9.34,20.63,20.63,0,0,1,98.65,30" transform="translate(0 0.01)" style="fill:#a0c4bf"/><path d="M98.61,30A20.59,20.59,0,1,1,78,9.38,20.59,20.59,0,0,1,98.61,30" transform="translate(0 0.01)" style="fill:#a1c5bf"/><path d="M98.57,30A20.55,20.55,0,1,1,78,9.42,20.55,20.55,0,0,1,98.57,30" transform="translate(0 0.01)" style="fill:#a2c5c0"/><path d="M98.53,30A20.51,20.51,0,1,1,78,9.46,20.51,20.51,0,0,1,98.53,30" transform="translate(0 0.01)" style="fill:#a3c6c0"/><path d="M98.49,30A20.47,20.47,0,1,1,78,9.49,20.46,20.46,0,0,1,98.49,30" transform="translate(0 0.01)" style="fill:#a4c7c1"/><path d="M98.45,30A20.43,20.43,0,1,1,78,9.53,20.42,20.42,0,0,1,98.45,30" transform="translate(0 0.01)" style="fill:#a5c7c2"/><path d="M98.42,30A20.4,20.4,0,1,1,78,9.57,20.39,20.39,0,0,1,98.42,30" transform="translate(0 0.01)" style="fill:#a6c8c2"/><path d="M98.38,30A20.36,20.36,0,1,1,78,9.61,20.37,20.37,0,0,1,98.38,30" transform="translate(0 0.01)" style="fill:#a7c8c3"/><path d="M98.34,30A20.32,20.32,0,1,1,78,9.65,20.32,20.32,0,0,1,98.34,30" transform="translate(0 0.01)" style="fill:#a8c9c4"/><path d="M98.3,30A20.28,20.28,0,1,1,78,9.69,20.28,20.28,0,0,1,98.3,30" transform="translate(0 0.01)" style="fill:#a9c9c4"/><path d="M98.26,30A20.24,20.24,0,1,1,78,9.72,20.24,20.24,0,0,1,98.26,30" transform="translate(0 0.01)" style="fill:#aacac5"/><path d="M98.22,30A20.2,20.2,0,1,1,78,9.76,20.2,20.2,0,0,1,98.22,30" transform="translate(0 0.01)" style="fill:#abcbc6"/><path d="M98.19,30A20.17,20.17,0,1,1,78,9.8,20.16,20.16,0,0,1,98.19,30" transform="translate(0 0.01)" style="fill:#accbc6"/><path d="M98.15,30A20.13,20.13,0,1,1,78,9.84,20.13,20.13,0,0,1,98.15,30" transform="translate(0 0.01)" style="fill:#adcbc7"/><path d="M98.11,30A20.09,20.09,0,1,1,78,9.88,20.08,20.08,0,0,1,98.11,30" transform="translate(0 0.01)" style="fill:#aeccc7"/><path d="M98.07,30a20,20,0,1,1-20-20,20,20,0,0,1,20,20" transform="translate(0 0.01)" style="fill:#afcdc8"/><path d="M98,30A20,20,0,1,1,78,10,20,20,0,0,1,98,30" transform="translate(0 0.01)" style="fill:#b0cdc9"/><path d="M98,30A20,20,0,1,1,78,10,20,20,0,0,1,98,30" transform="translate(0 0.01)" style="fill:#b1cec9"/><path d="M98,30A19.94,19.94,0,1,1,78,10,19.93,19.93,0,0,1,98,30" transform="translate(0 0.01)" style="fill:#b2ceca"/><path d="M97.92,30A19.9,19.9,0,1,1,78,10.07,19.9,19.9,0,0,1,97.92,30" transform="translate(0 0.01)" style="fill:#b3cfcb"/><path d="M97.88,30A19.86,19.86,0,1,1,78,10.11,19.86,19.86,0,0,1,97.88,30" transform="translate(0 0.01)" style="fill:#b4d0cb"/><path d="M97.84,30A19.82,19.82,0,1,1,78,10.15,19.82,19.82,0,0,1,97.84,30" transform="translate(0 0.01)" style="fill:#b5d0cc"/><path d="M97.8,30A19.78,19.78,0,1,1,78,10.18,19.77,19.77,0,0,1,97.8,30" transform="translate(0 0.01)" style="fill:#b6d1cd"/><path d="M97.76,30A19.74,19.74,0,1,1,78,10.22,19.74,19.74,0,0,1,97.76,30" transform="translate(0 0.01)" style="fill:#b7d1cd"/><path d="M97.73,30A19.71,19.71,0,1,1,78,10.26,19.7,19.7,0,0,1,97.73,30" transform="translate(0 0.01)" style="fill:#b8d2ce"/><path d="M97.69,30A19.67,19.67,0,1,1,78,10.3,19.67,19.67,0,0,1,97.69,30" transform="translate(0 0.01)" style="fill:#b9d2ce"/><path d="M97.65,30A19.63,19.63,0,1,1,78,10.34,19.63,19.63,0,0,1,97.65,30" transform="translate(0 0.01)" style="fill:#bad3cf"/><path d="M97.61,30A19.59,19.59,0,1,1,78,10.38,19.59,19.59,0,0,1,97.61,30" transform="translate(0 0.01)" style="fill:#bbd4d0"/><path d="M97.57,30A19.55,19.55,0,1,1,78,10.41,19.55,19.55,0,0,1,97.57,30" transform="translate(0 0.01)" style="fill:#bcd4d0"/><path d="M97.53,30A19.51,19.51,0,1,1,78,10.45,19.5,19.5,0,0,1,97.53,30" transform="translate(0 0.01)" style="fill:#bdd5d1"/><path d="M97.5,30A19.48,19.48,0,1,1,78,10.49,19.47,19.47,0,0,1,97.5,30" transform="translate(0 0.01)" style="fill:#bed5d2"/><path d="M97.46,30A19.44,19.44,0,1,1,78,10.53,19.44,19.44,0,0,1,97.46,30" transform="translate(0 0.01)" style="fill:#bfd6d2"/><path d="M97.42,30A19.4,19.4,0,1,1,78,10.57,19.4,19.4,0,0,1,97.42,30" transform="translate(0 0.01)" style="fill:#c0d6d3"/><path d="M97.38,30A19.36,19.36,0,1,1,78,10.61,19.36,19.36,0,0,1,97.38,30" transform="translate(0 0.01)" style="fill:#c1d7d3"/><path d="M97.34,30A19.32,19.32,0,1,1,78,10.64,19.32,19.32,0,0,1,97.34,30" transform="translate(0 0.01)" style="fill:#c2d8d4"/><path d="M97.3,30A19.28,19.28,0,1,1,78,10.68,19.28,19.28,0,0,1,97.3,30" transform="translate(0 0.01)" style="fill:#c3d8d5"/><path d="M97.27,30A19.25,19.25,0,1,1,78,10.72,19.24,19.24,0,0,1,97.27,30" transform="translate(0 0.01)" style="fill:#c4d9d5"/><path d="M97.23,30A19.21,19.21,0,1,1,78,10.76,19.21,19.21,0,0,1,97.23,30" transform="translate(0 0.01)" style="fill:#c4d9d6"/><path d="M97.19,30A19.17,19.17,0,1,1,78,10.8,19.17,19.17,0,0,1,97.19,30" transform="translate(0 0.01)" style="fill:#c5dad6"/><path d="M97.15,30A19.13,19.13,0,1,1,78,10.84,19.12,19.12,0,0,1,97.15,30" transform="translate(0 0.01)" style="fill:#c6dad7"/><path d="M97.11,30A19.09,19.09,0,1,1,78,10.87,19.09,19.09,0,0,1,97.11,30" transform="translate(0 0.01)" style="fill:#c7dbd8"/><path d="M97.07,30a19,19,0,1,1-19-19A19,19,0,0,1,97.07,30" transform="translate(0 0.01)" style="fill:#c8dbd8"/><path d="M97,30A19,19,0,1,1,78,11,19,19,0,0,1,97,30" transform="translate(0 0.01)" style="fill:#c9dcd9"/><path d="M97,30A19,19,0,1,1,78,11,19,19,0,0,1,97,30" transform="translate(0 0.01)" style="fill:#cadcd9"/><path d="M97,30A18.94,18.94,0,1,1,78,11,18.94,18.94,0,0,1,97,30" transform="translate(0 0.01)" style="fill:#cbddda"/><path d="M96.92,30A18.9,18.9,0,1,1,78,11.07,18.9,18.9,0,0,1,96.92,30" transform="translate(0 0.01)" style="fill:#cbddda"/><path d="M96.88,30A18.86,18.86,0,1,1,78,11.1,18.85,18.85,0,0,1,96.88,30" transform="translate(0 0.01)" style="fill:#ccdedb"/><path d="M96.84,30A18.82,18.82,0,1,1,78,11.14,18.81,18.81,0,0,1,96.84,30" transform="translate(0 0.01)" style="fill:#cddedc"/><path d="M96.81,30A18.79,18.79,0,1,1,78,11.18,18.78,18.78,0,0,1,96.81,30" transform="translate(0 0.01)" style="fill:#cedfdc"/><path d="M96.77,30A18.75,18.75,0,1,1,78,11.22,18.75,18.75,0,0,1,96.77,30" transform="translate(0 0.01)" style="fill:#cfdfdd"/><path d="M96.73,30A18.71,18.71,0,1,1,78,11.26,18.71,18.71,0,0,1,96.73,30" transform="translate(0 0.01)" style="fill:#d0e0dd"/><path d="M96.69,30A18.67,18.67,0,1,1,78,11.3,18.67,18.67,0,0,1,96.69,30" transform="translate(0 0.01)" style="fill:#d0e0de"/><path d="M96.65,30A18.63,18.63,0,1,1,78,11.33,18.63,18.63,0,0,1,96.65,30" transform="translate(0 0.01)" style="fill:#d1e1df"/><path d="M96.61,30A18.59,18.59,0,1,1,78,11.37,18.59,18.59,0,0,1,96.61,30" transform="translate(0 0.01)" style="fill:#d2e2df"/><path d="M96.58,30A18.56,18.56,0,1,1,78,11.41,18.55,18.55,0,0,1,96.58,30" transform="translate(0 0.01)" style="fill:#d3e2e0"/><path d="M96.54,30A18.52,18.52,0,1,1,78,11.45,18.52,18.52,0,0,1,96.54,30" transform="translate(0 0.01)" style="fill:#d4e3e0"/><path d="M96.5,30A18.48,18.48,0,1,1,78,11.49,18.48,18.48,0,0,1,96.5,30" transform="translate(0 0.01)" style="fill:#d4e3e1"/><path d="M96.46,30A18.44,18.44,0,1,1,78,11.53,18.43,18.43,0,0,1,96.46,30" transform="translate(0 0.01)" style="fill:#d5e4e1"/><path d="M96.42,30A18.4,18.4,0,1,1,78,11.56,18.4,18.4,0,0,1,96.42,30" transform="translate(0 0.01)" style="fill:#d6e4e2"/><path d="M96.38,30A18.36,18.36,0,1,1,78,11.6,18.36,18.36,0,0,1,96.38,30" transform="translate(0 0.01)" style="fill:#d7e5e3"/><path d="M96.35,30A18.33,18.33,0,1,1,78,11.64,18.33,18.33,0,0,1,96.35,30" transform="translate(0 0.01)" style="fill:#d8e5e3"/><path d="M96.31,30A18.29,18.29,0,1,1,78,11.68,18.29,18.29,0,0,1,96.31,30" transform="translate(0 0.01)" style="fill:#d9e6e4"/><path d="M96.27,30A18.25,18.25,0,1,1,78,11.72,18.25,18.25,0,0,1,96.27,30" transform="translate(0 0.01)" style="fill:#d9e6e4"/><path d="M96.23,30A18.21,18.21,0,1,1,78,11.76,18.21,18.21,0,0,1,96.23,30" transform="translate(0 0.01)" style="fill:#dae7e5"/><path d="M96.19,30A18.17,18.17,0,1,1,78,11.79,18.16,18.16,0,0,1,96.19,30" transform="translate(0 0.01)" style="fill:#dbe7e5"/><path d="M96.16,30A18.14,18.14,0,1,1,78,11.83,18.13,18.13,0,0,1,96.16,30" transform="translate(0 0.01)" style="fill:#dce8e6"/><path d="M96.12,30A18.1,18.1,0,1,1,78,11.87,18.09,18.09,0,0,1,96.12,30" transform="translate(0 0.01)" style="fill:#dde8e7"/><path d="M96.08,30A18.06,18.06,0,1,1,78,11.91,18.06,18.06,0,0,1,96.08,30" transform="translate(0 0.01)" style="fill:#dee9e7"/><path d="M96,30A18,18,0,1,1,78,12,18,18,0,0,1,96,30" transform="translate(0 0.01)" style="fill:#dee9e8"/><path d="M96,30A18,18,0,1,1,78,12,18,18,0,0,1,96,30" transform="translate(0 0.01)" style="fill:#dfeae8"/><path d="M96,30A17.94,17.94,0,1,1,78,12,17.94,17.94,0,0,1,96,30" transform="translate(0 0.01)" style="fill:#e0eae9"/><path d="M95.93,30A17.91,17.91,0,1,1,78,12.06,17.9,17.9,0,0,1,95.93,30" transform="translate(0 0.01)" style="fill:#e1ebe9"/><path d="M95.89,30A17.87,17.87,0,1,1,78,12.1,17.86,17.86,0,0,1,95.89,30" transform="translate(0 0.01)" style="fill:#e1ebea"/><path d="M95.85,30A17.83,17.83,0,1,1,78,12.14,17.83,17.83,0,0,1,95.85,30" transform="translate(0 0.01)" style="fill:#e2eceb"/><path d="M95.81,30A17.79,17.79,0,1,1,78,12.18,17.78,17.78,0,0,1,95.81,30" transform="translate(0 0.01)" style="fill:#e3eceb"/><path d="M95.77,30A17.75,17.75,0,1,1,78,12.21,17.75,17.75,0,0,1,95.77,30" transform="translate(0 0.01)" style="fill:#e4edec"/><path d="M95.73,30A17.71,17.71,0,1,1,78,12.25,17.71,17.71,0,0,1,95.73,30" transform="translate(0 0.01)" style="fill:#e5eeec"/><path d="M95.7,30A17.68,17.68,0,1,1,78,12.29,17.68,17.68,0,0,1,95.7,30" transform="translate(0 0.01)" style="fill:#e5eeed"/><path d="M95.66,30A17.64,17.64,0,1,1,78,12.33,17.63,17.63,0,0,1,95.66,30" transform="translate(0 0.01)" style="fill:#e6efed"/><path d="M95.62,30A17.6,17.6,0,1,1,78,12.37,17.6,17.6,0,0,1,95.62,30" transform="translate(0 0.01)" style="fill:#e7efee"/><path d="M95.58,30A17.56,17.56,0,1,1,78,12.41,17.56,17.56,0,0,1,95.58,30" transform="translate(0 0.01)" style="fill:#e8f0ef"/><path d="M95.54,30A17.52,17.52,0,1,1,78,12.44,17.51,17.51,0,0,1,95.54,30" transform="translate(0 0.01)" style="fill:#e8f0ef"/><path d="M95.5,30A17.48,17.48,0,1,1,78,12.48,17.47,17.47,0,0,1,95.5,30" transform="translate(0 0.01)" style="fill:#e9f1f0"/><path d="M95.47,30A17.45,17.45,0,1,1,78,12.52,17.44,17.44,0,0,1,95.47,30" transform="translate(0 0.01)" style="fill:#eaf1f0"/><path d="M95.43,30A17.41,17.41,0,1,1,78,12.56,17.4,17.4,0,0,1,95.43,30" transform="translate(0 0.01)" style="fill:#eaf1f1"/><path d="M95.39,30A17.37,17.37,0,1,1,78,12.6,17.37,17.37,0,0,1,95.39,30" transform="translate(0 0.01)" style="fill:#ebf2f1"/><path d="M95.35,30A17.33,17.33,0,1,1,78,12.64,17.33,17.33,0,0,1,95.35,30" transform="translate(0 0.01)" style="fill:#ecf2f2"/><path d="M95.31,30A17.29,17.29,0,1,1,78,12.67,17.29,17.29,0,0,1,95.31,30" transform="translate(0 0.01)" style="fill:#edf3f2"/><path d="M95.27,30A17.25,17.25,0,1,1,78,12.71,17.25,17.25,0,0,1,95.27,30" transform="translate(0 0.01)" style="fill:#edf3f3"/><path d="M95.24,30A17.22,17.22,0,1,1,78,12.75,17.21,17.21,0,0,1,95.24,30" transform="translate(0 0.01)" style="fill:#eef4f3"/><path d="M95.2,30A17.18,17.18,0,1,1,78,12.79,17.17,17.17,0,0,1,95.2,30" transform="translate(0 0.01)" style="fill:#eff4f4"/><path d="M95.16,30A17.14,17.14,0,1,1,78,12.83,17.14,17.14,0,0,1,95.16,30" transform="translate(0 0.01)" style="fill:#eff5f4"/><path d="M95.12,30A17.1,17.1,0,1,1,78,12.87,17.1,17.1,0,0,1,95.12,30" transform="translate(0 0.01)" style="fill:#f0f5f5"/><path d="M95.08,30A17.06,17.06,0,1,1,78,12.9,17.06,17.06,0,0,1,95.08,30" transform="translate(0 0.01)" style="fill:#f1f6f5"/><path d="M95,30a17,17,0,1,1-17-17A17,17,0,0,1,95,30" transform="translate(0 0.01)" style="fill:#f2f6f6"/><path d="M95,30A17,17,0,1,1,78,13,17,17,0,0,1,95,30" transform="translate(0 0.01)" style="fill:#f2f7f6"/><path d="M95,30A16.95,16.95,0,1,1,78,13,16.94,16.94,0,0,1,95,30" transform="translate(0 0.01)" style="fill:#f3f7f7"/><path d="M94.93,30A16.91,16.91,0,1,1,78,13.06,16.91,16.91,0,0,1,94.93,30" transform="translate(0 0.01)" style="fill:#f4f8f7"/><path d="M94.89,30A16.87,16.87,0,1,1,78,13.1,16.87,16.87,0,0,1,94.89,30" transform="translate(0 0.01)" style="fill:#f4f8f8"/><path d="M94.85,30A16.83,16.83,0,1,1,78,13.13,16.82,16.82,0,0,1,94.85,30" transform="translate(0 0.01)" style="fill:#f5f8f8"/><path d="M94.81,30A16.79,16.79,0,1,1,78,13.17,16.79,16.79,0,0,1,94.81,30" transform="translate(0 0.01)" style="fill:#f6f9f9"/><path d="M94.78,30A16.76,16.76,0,1,1,78,13.21,16.75,16.75,0,0,1,94.78,30" transform="translate(0 0.01)" style="fill:#f6f9f9"/><path d="M94.74,30A16.72,16.72,0,1,1,78,13.25,16.73,16.73,0,0,1,94.74,30" transform="translate(0 0.01)" style="fill:#f7faf9"/><path d="M94.7,30A16.68,16.68,0,1,1,78,13.29,16.68,16.68,0,0,1,94.7,30" transform="translate(0 0.01)" style="fill:#f8fafa"/><path d="M94.66,30A16.64,16.64,0,1,1,78,13.33,16.64,16.64,0,0,1,94.66,30" transform="translate(0 0.01)" style="fill:#f8fafa"/><path d="M94.62,30A16.6,16.6,0,1,1,78,13.36,16.6,16.6,0,0,1,94.62,30" transform="translate(0 0.01)" style="fill:#f9fbfb"/><path d="M94.58,30A16.56,16.56,0,1,1,78,13.4,16.55,16.55,0,0,1,94.58,30" transform="translate(0 0.01)" style="fill:#f9fbfb"/><path d="M94.55,30A16.53,16.53,0,1,1,78,13.44,16.52,16.52,0,0,1,94.55,30" transform="translate(0 0.01)" style="fill:#fafcfc"/><path d="M94.51,30A16.49,16.49,0,1,1,78,13.48,16.49,16.49,0,0,1,94.51,30" transform="translate(0 0.01)" style="fill:#fbfcfc"/><path d="M94.47,30A16.45,16.45,0,1,1,78,13.52,16.45,16.45,0,0,1,94.47,30" transform="translate(0 0.01)" style="fill:#fbfdfd"/><path d="M94.43,30A16.41,16.41,0,1,1,78,13.56,16.41,16.41,0,0,1,94.43,30" transform="translate(0 0.01)" style="fill:#fcfdfd"/><path d="M94.39,30A16.37,16.37,0,1,1,78,13.59,16.37,16.37,0,0,1,94.39,30" transform="translate(0 0.01)" style="fill:#fcfdfd"/><path d="M94.35,30A16.33,16.33,0,1,1,78,13.63,16.33,16.33,0,0,1,94.35,30" transform="translate(0 0.01)" style="fill:#fdfefe"/><path d="M94.32,30A16.3,16.3,0,1,1,78,13.67,16.29,16.29,0,0,1,94.32,30" transform="translate(0 0.01)" style="fill:#fdfefe"/><path d="M94.28,30A16.26,16.26,0,1,1,78,13.71,16.26,16.26,0,0,1,94.28,30" transform="translate(0 0.01)" style="fill:#fefefe"/><path d="M94.24,30A16.22,16.22,0,1,1,78,13.75,16.22,16.22,0,0,1,94.24,30" transform="translate(0 0.01)" style="fill:#fefefe"/><path d="M94.2,30A16.18,16.18,0,1,1,78,13.79,16.17,16.17,0,0,1,94.2,30" transform="translate(0 0.01)" style="fill:#fff"/><path d="M94.16,30A16.14,16.14,0,1,1,78,13.82,16.13,16.13,0,0,1,94.16,30" transform="translate(0 0.01)" style="fill:#fff"/></g><path d="M96.7,29.7A18.29,18.29,0,1,0,78.41,48,18.29,18.29,0,0,0,96.7,29.7" transform="translate(0 0.01)" style="fill:#fff"/><g style="clip-path:url(#clip-path-2)"><rect x="61.46" y="12.76" width="33.91" height="33.91" style="fill:silver"/><path d="M95.36,29.7a17,17,0,1,1-17-16.95,17,17,0,0,1,17,17" transform="translate(0 0.01)" style="fill:silver"/><path d="M95.3,29.7A16.89,16.89,0,1,1,78.41,12.81,16.89,16.89,0,0,1,95.3,29.7" transform="translate(0 0.01)" style="fill:#c2c2c2"/><path d="M95.24,29.7A16.83,16.83,0,1,1,78.41,12.87,16.83,16.83,0,0,1,95.24,29.7" transform="translate(0 0.01)" style="fill:#c5c4c4"/><path d="M95.18,29.7A16.77,16.77,0,1,1,78.41,12.93,16.77,16.77,0,0,1,95.18,29.7" transform="translate(0 0.01)" style="fill:#c7c6c6"/><path d="M95.12,29.7A16.71,16.71,0,1,1,78.41,13,16.71,16.71,0,0,1,95.12,29.7" transform="translate(0 0.01)" style="fill:#c8c8c8"/><path d="M95.06,29.7A16.65,16.65,0,1,1,78.41,13.05,16.65,16.65,0,0,1,95.06,29.7" transform="translate(0 0.01)" style="fill:#cacaca"/><path d="M95,29.7A16.58,16.58,0,1,1,78.41,13.12,16.58,16.58,0,0,1,95,29.7" transform="translate(0 0.01)" style="fill:#ccc"/><path d="M94.93,29.7A16.52,16.52,0,1,1,78.41,13.18,16.52,16.52,0,0,1,94.93,29.7" transform="translate(0 0.01)" style="fill:#cecece"/><path d="M94.87,29.7A16.46,16.46,0,1,1,78.41,13.24,16.46,16.46,0,0,1,94.87,29.7" transform="translate(0 0.01)" style="fill:#d0d0d0"/><path d="M94.81,29.7a16.4,16.4,0,1,1-16.4-16.4,16.4,16.4,0,0,1,16.4,16.4" transform="translate(0 0.01)" style="fill:#d2d2d1"/><path d="M94.75,29.7A16.34,16.34,0,1,1,78.41,13.36,16.35,16.35,0,0,1,94.75,29.7" transform="translate(0 0.01)" style="fill:#d3d3d3"/><path d="M94.69,29.7A16.28,16.28,0,1,1,78.41,13.42,16.28,16.28,0,0,1,94.69,29.7" transform="translate(0 0.01)" style="fill:#d5d5d5"/><path d="M94.62,29.7A16.21,16.21,0,1,1,78.41,13.48,16.21,16.21,0,0,1,94.62,29.7" transform="translate(0 0.01)" style="fill:#d7d7d6"/><path d="M94.56,29.7A16.15,16.15,0,1,1,78.41,13.55,16.15,16.15,0,0,1,94.56,29.7" transform="translate(0 0.01)" style="fill:#d8d8d8"/><path d="M94.5,29.7A16.09,16.09,0,1,1,78.41,13.61,16.09,16.09,0,0,1,94.5,29.7" transform="translate(0 0.01)" style="fill:#dadad9"/><path d="M94.44,29.7a16,16,0,1,1-16-16,16,16,0,0,1,16,16" transform="translate(0 0.01)" style="fill:#dbdbdb"/><path d="M94.38,29.7a16,16,0,1,1-16-16,16,16,0,0,1,16,16" transform="translate(0 0.01)" style="fill:#dddcdc"/><path d="M94.32,29.7A15.91,15.91,0,1,1,78.41,13.79,15.91,15.91,0,0,1,94.32,29.7" transform="translate(0 0.01)" style="fill:#dedede"/><path d="M94.26,29.7A15.85,15.85,0,1,1,78.41,13.85,15.85,15.85,0,0,1,94.26,29.7" transform="translate(0 0.01)" style="fill:#dfdfdf"/><path d="M94.19,29.7A15.78,15.78,0,1,1,78.41,13.92,15.77,15.77,0,0,1,94.19,29.7" transform="translate(0 0.01)" style="fill:#e0e0e0"/><path d="M94.13,29.7A15.72,15.72,0,1,1,78.41,14,15.72,15.72,0,0,1,94.13,29.7" transform="translate(0 0.01)" style="fill:#e2e2e2"/><path d="M94.07,29.7A15.66,15.66,0,1,1,78.41,14,15.66,15.66,0,0,1,94.07,29.7" transform="translate(0 0.01)" style="fill:#e3e3e3"/><path d="M94,29.7a15.6,15.6,0,1,1-15.6-15.6A15.6,15.6,0,0,1,94,29.7" transform="translate(0 0.01)" style="fill:#e4e4e4"/><path d="M94,29.7A15.54,15.54,0,1,1,78.41,14.16,15.54,15.54,0,0,1,94,29.7" transform="translate(0 0.01)" style="fill:#e5e5e5"/><path d="M93.89,29.7A15.48,15.48,0,1,1,78.41,14.22,15.48,15.48,0,0,1,93.89,29.7" transform="translate(0 0.01)" style="fill:#e6e6e6"/><path d="M93.82,29.7A15.41,15.41,0,1,1,78.41,14.28,15.41,15.41,0,0,1,93.82,29.7" transform="translate(0 0.01)" style="fill:#e7e7e7"/><path d="M93.76,29.7A15.35,15.35,0,1,1,78.41,14.35,15.35,15.35,0,0,1,93.76,29.7" transform="translate(0 0.01)" style="fill:#e9e9e8"/><path d="M93.7,29.7A15.29,15.29,0,1,1,78.41,14.41,15.29,15.29,0,0,1,93.7,29.7" transform="translate(0 0.01)" style="fill:#eaeaea"/><path d="M93.64,29.7A15.23,15.23,0,1,1,78.41,14.47,15.23,15.23,0,0,1,93.64,29.7" transform="translate(0 0.01)" style="fill:#ebebea"/><path d="M93.58,29.7A15.17,15.17,0,1,1,78.41,14.53,15.17,15.17,0,0,1,93.58,29.7" transform="translate(0 0.01)" style="fill:#ececeb"/><path d="M93.52,29.7A15.11,15.11,0,1,1,78.41,14.59,15.12,15.12,0,0,1,93.52,29.7" transform="translate(0 0.01)" style="fill:#ececec"/><path d="M93.46,29.7a15,15,0,1,1-15-15,15,15,0,0,1,15,15.05" transform="translate(0 0.01)" style="fill:#ededed"/><path d="M93.39,29.7a15,15,0,1,1-15-15,15,15,0,0,1,15,15" transform="translate(0 0.01)" style="fill:#eee"/><path d="M93.33,29.7A14.92,14.92,0,1,1,78.41,14.78,14.92,14.92,0,0,1,93.33,29.7" transform="translate(0 0.01)" style="fill:#efefef"/><path d="M93.27,29.7A14.86,14.86,0,1,1,78.41,14.84,14.86,14.86,0,0,1,93.27,29.7" transform="translate(0 0.01)" style="fill:#f0f0f0"/><path d="M93.21,29.7a14.8,14.8,0,1,1-14.8-14.8,14.8,14.8,0,0,1,14.8,14.8" transform="translate(0 0.01)" style="fill:#f1f1f1"/><path d="M93.15,29.7A14.74,14.74,0,1,1,78.41,15,14.74,14.74,0,0,1,93.15,29.7" transform="translate(0 0.01)" style="fill:#f2f2f2"/><path d="M93.09,29.7A14.68,14.68,0,1,1,78.41,15,14.68,14.68,0,0,1,93.09,29.7" transform="translate(0 0.01)" style="fill:#f2f2f2"/><path d="M93,29.7A14.61,14.61,0,1,1,78.41,15.08,14.61,14.61,0,0,1,93,29.7" transform="translate(0 0.01)" style="fill:#f3f3f3"/><path d="M93,29.7A14.55,14.55,0,1,1,78.41,15.15,14.54,14.54,0,0,1,93,29.7" transform="translate(0 0.01)" style="fill:#f4f4f4"/><path d="M92.9,29.7A14.49,14.49,0,1,1,78.41,15.21,14.49,14.49,0,0,1,92.9,29.7" transform="translate(0 0.01)" style="fill:#f4f4f4"/><path d="M92.84,29.7A14.43,14.43,0,1,1,78.41,15.27,14.43,14.43,0,0,1,92.84,29.7" transform="translate(0 0.01)" style="fill:#f5f5f5"/><path d="M92.78,29.7A14.37,14.37,0,1,1,78.41,15.33,14.37,14.37,0,0,1,92.78,29.7" transform="translate(0 0.01)" style="fill:#f6f6f6"/><path d="M92.72,29.7A14.31,14.31,0,1,1,78.41,15.39,14.31,14.31,0,0,1,92.72,29.7" transform="translate(0 0.01)" style="fill:#f6f6f6"/><path d="M92.66,29.7A14.25,14.25,0,1,1,78.41,15.45,14.24,14.24,0,0,1,92.66,29.7" transform="translate(0 0.01)" style="fill:#f7f7f7"/><path d="M92.59,29.7A14.18,14.18,0,1,1,78.41,15.52,14.18,14.18,0,0,1,92.59,29.7" transform="translate(0 0.01)" style="fill:#f7f7f7"/><path d="M92.53,29.7A14.12,14.12,0,1,1,78.41,15.58,14.12,14.12,0,0,1,92.53,29.7" transform="translate(0 0.01)" style="fill:#f8f8f8"/><path d="M92.47,29.7A14.06,14.06,0,1,1,78.41,15.64,14.06,14.06,0,0,1,92.47,29.7" transform="translate(0 0.01)" style="fill:#f9f8f8"/><path d="M92.41,29.7a14,14,0,1,1-14-14,14,14,0,0,1,14,14" transform="translate(0 0.01)" style="fill:#f9f9f9"/><path d="M92.35,29.7A13.94,13.94,0,1,1,78.41,15.76,13.94,13.94,0,0,1,92.35,29.7" transform="translate(0 0.01)" style="fill:#f9f9f9"/><path d="M92.29,29.7A13.88,13.88,0,1,1,78.41,15.82,13.89,13.89,0,0,1,92.29,29.7" transform="translate(0 0.01)" style="fill:#fafafa"/><path d="M92.23,29.7A13.82,13.82,0,1,1,78.41,15.88,13.81,13.81,0,0,1,92.23,29.7" transform="translate(0 0.01)" style="fill:#fafafa"/><path d="M92.16,29.7A13.75,13.75,0,1,1,78.41,16,13.75,13.75,0,0,1,92.16,29.7" transform="translate(0 0.01)" style="fill:#fbfbfb"/><path d="M92.1,29.7A13.69,13.69,0,1,1,78.41,16,13.69,13.69,0,0,1,92.1,29.7" transform="translate(0 0.01)" style="fill:#fbfbfb"/><path d="M92,29.7A13.63,13.63,0,1,1,78.41,16.07,13.63,13.63,0,0,1,92,29.7" transform="translate(0 0.01)" style="fill:#fbfbfb"/><path d="M92,29.7A13.57,13.57,0,1,1,78.41,16.13,13.58,13.58,0,0,1,92,29.7" transform="translate(0 0.01)" style="fill:#fcfcfc"/><path d="M91.92,29.7A13.51,13.51,0,1,1,78.41,16.19,13.51,13.51,0,0,1,91.92,29.7" transform="translate(0 0.01)" style="fill:#fcfcfc"/><path d="M91.86,29.7A13.45,13.45,0,1,1,78.41,16.25,13.45,13.45,0,0,1,91.86,29.7" transform="translate(0 0.01)" style="fill:#fcfcfc"/><path d="M91.79,29.7A13.38,13.38,0,1,1,78.41,16.32,13.38,13.38,0,0,1,91.79,29.7" transform="translate(0 0.01)" style="fill:#fdfdfd"/><path d="M91.73,29.7A13.32,13.32,0,1,1,78.41,16.38,13.32,13.32,0,0,1,91.73,29.7" transform="translate(0 0.01)" style="fill:#fdfdfd"/><path d="M91.67,29.7A13.26,13.26,0,1,1,78.41,16.44,13.26,13.26,0,0,1,91.67,29.7" transform="translate(0 0.01)" style="fill:#fdfdfd"/><path d="M91.61,29.7a13.2,13.2,0,1,1-13.2-13.2,13.2,13.2,0,0,1,13.2,13.2" transform="translate(0 0.01)" style="fill:#fdfdfd"/><path d="M91.55,29.7A13.14,13.14,0,1,1,78.41,16.56,13.14,13.14,0,0,1,91.55,29.7" transform="translate(0 0.01)" style="fill:#fdfdfd"/><path d="M91.49,29.7A13.08,13.08,0,1,1,78.41,16.62,13.08,13.08,0,0,1,91.49,29.7" transform="translate(0 0.01)" style="fill:#fefefe"/><path d="M91.42,29.7a13,13,0,1,1-13-13,13,13,0,0,1,13,13" transform="translate(0 0.01)" style="fill:#fefefe"/><path d="M91.36,29.7a13,13,0,1,1-13-12.95,13,13,0,0,1,13,13" transform="translate(0 0.01)" style="fill:#fefefe"/><path d="M91.3,29.7A12.89,12.89,0,1,1,78.41,16.81,12.89,12.89,0,0,1,91.3,29.7" transform="translate(0 0.01)" style="fill:#fefefe"/><path d="M91.24,29.7A12.83,12.83,0,1,1,78.41,16.87,12.83,12.83,0,0,1,91.24,29.7" transform="translate(0 0.01)" style="fill:#fefefe"/><path d="M91.18,29.7A12.77,12.77,0,1,1,78.41,16.93,12.77,12.77,0,0,1,91.18,29.7" transform="translate(0 0.01)" style="fill:#fefefe"/><path d="M91.12,29.7A12.71,12.71,0,1,1,78.41,17,12.71,12.71,0,0,1,91.12,29.7" transform="translate(0 0.01)" style="fill:#fefefe"/><path d="M91.06,29.7A12.65,12.65,0,1,1,78.41,17.05,12.65,12.65,0,0,1,91.06,29.7" transform="translate(0 0.01)" style="fill:#fff"/><path d="M91,29.7A12.58,12.58,0,1,1,78.41,17.12,12.58,12.58,0,0,1,91,29.7" transform="translate(0 0.01)" style="fill:#fff"/><path d="M90.93,29.7A12.52,12.52,0,1,1,78.41,17.18,12.51,12.51,0,0,1,90.93,29.7" transform="translate(0 0.01)" style="fill:#fff"/><path d="M90.87,29.7A12.46,12.46,0,1,1,78.41,17.24,12.46,12.46,0,0,1,90.87,29.7" transform="translate(0 0.01)" style="fill:#fff"/><path d="M90.81,29.7a12.4,12.4,0,1,1-12.4-12.4,12.4,12.4,0,0,1,12.4,12.4" transform="translate(0 0.01)" style="fill:#fff"/><path d="M90.75,29.7A12.34,12.34,0,1,1,78.41,17.36,12.35,12.35,0,0,1,90.75,29.7" transform="translate(0 0.01)" style="fill:#fff"/><path d="M90.69,29.7A12.28,12.28,0,1,1,78.41,17.42,12.28,12.28,0,0,1,90.69,29.7" transform="translate(0 0.01)" style="fill:#fff"/><path d="M90.62,29.7A12.21,12.21,0,1,1,78.41,17.48,12.2,12.2,0,0,1,90.62,29.7" transform="translate(0 0.01)" style="fill:#fff"/><path d="M90.56,29.7A12.15,12.15,0,1,1,78.41,17.55,12.15,12.15,0,0,1,90.56,29.7" transform="translate(0 0.01)" style="fill:#fff"/><path d="M90.5,29.7A12.09,12.09,0,1,1,78.41,17.61,12.09,12.09,0,0,1,90.5,29.7" transform="translate(0 0.01)" style="fill:#fff"/><path d="M90.44,29.7a12,12,0,1,1-12-12,12,12,0,0,1,12,12" transform="translate(0 0.01)" style="fill:#fff"/><path d="M90.38,29.7a12,12,0,1,1-12-12,12,12,0,0,1,12,12" transform="translate(0 0.01)" style="fill:#fff"/><path d="M90.32,29.7A11.91,11.91,0,1,1,78.41,17.79,11.91,11.91,0,0,1,90.32,29.7" transform="translate(0 0.01)" style="fill:#fff"/><path d="M90.26,29.7A11.85,11.85,0,1,1,78.41,17.85,11.85,11.85,0,0,1,90.26,29.7" transform="translate(0 0.01)" style="fill:#fff"/></g><path d="M80.38,35.52c-3.37-.41-7.55-.92-12.23-1.44,0,0,.11-1.27.5-4.29,6.63-6.44,10.53-10.35,10.53-10.35,5.88.94,8.53,1.23,8.53,1.23-.64,4.82-1.13,8.38-1.48,11.37,0,0,1,.13,2.57.28,0,0-.25,1.75-.57,4.2L85.7,36.2c-.26,2.21-.38,3.35-.38,3.35-3.52-.35-5.42-.67-5.42-.67.15-1.16.32-2.26.48-3.36m.56-4.13c.5-3.69.86-6.52,1.08-8.24-3.57,3.54-6.16,6.19-7.36,7.44Z" transform="translate(0 0.01)" style="fill:#1d1d1b"/><path d="M100.61,16.72h-.79v2h-.33v-2h-.8v-.34h1.92Zm3,2h-.34v-2h0l-.81,2h-.22l-.79-2h0v2h-.34V16.38h.57l.68,1.71.7-1.71h.57Z" transform="translate(0 0.01)" style="fill:#1d1d1b"/><path d="M62.15,30.54c1.13-1.42,2.92-3.66,5.34-6.58L70,20.9l-4-.1s-2-.05-5.7-.27l-1-.06-.62.81s-1.13,1.48-3.2,4.13c0-.68,0-1.39,0-2.14l0-2-2,0s-2.25,0-4.93,0l-2,0V23.2a11.8,11.8,0,0,0-7.81-2.6,11.72,11.72,0,0,0-8.65,3.27V20.94H28.27l-4.91,0c-1.95-5.83-9.19-6.8-13.76-6.8a58.39,58.39,0,0,0-7.92.62L0,15l0,1.69C.11,29.34,0,40.27,0,40.38l0,2,2,0c1,0,2.4,0,4,0h2.2l2,0-.09-8.17.8,0c4.68,0,8.23-1.16,10.43-3.31,0,5.65,0,9.5,0,9.56v2l2,0c2.65,0,5.07,0,5.08,0l2,0,0-2v-.8A12,12,0,0,0,39,42.76a12.34,12.34,0,0,0,7.66-2.32v1.63l2,0s2.19-.05,5,0l2,0,0-2s0-.8,0-2.31c.06-.07.12-.15.19-.22l.18-.23c.86,1.39,1.84,3,2.84,4.68l.63,1,1.22-.12s1.73-.17,5.48-.25l3.46-.06-1.88-2.91S65.25,36,62.15,30.54" transform="translate(0 0.01)" style="fill:#fff"/><path d="M1.94,16.71A57.67,57.67,0,0,1,9.6,16.1C17.71,16.1,22,18.82,22,24.27c0,5.86-4.82,8-11.07,8-.89,0-1.8-.06-2.75-.15l.09,8.29s-3.78,0-6.28,0c0,0,.09-10.91,0-23.69M8,27.63a20.66,20.66,0,0,0,2.59.18c3.48,0,5.31-1.13,5.31-3.72,0-2.1-1.44-3.47-5.46-3.47A19.26,19.26,0,0,0,8,20.8c0,2.1,0,3.54,0,6.83" transform="translate(0 0.01)" style="fill:#18988b"/><path d="M1.94,16.71A57.67,57.67,0,0,1,9.6,16.1C17.71,16.1,22,18.82,22,24.27c0,5.86-4.82,8-11.07,8-.89,0-1.8-.06-2.75-.15l.09,8.29s-3.78,0-6.28,0c0,0,.09-10.91,0-23.69M8,27.63a20.66,20.66,0,0,0,2.59.18c3.48,0,5.31-1.13,5.31-3.72,0-2.1-1.44-3.47-5.46-3.47A19.26,19.26,0,0,0,8,20.8c0,2.1,0,3.54,0,6.83" transform="translate(0 0.01)" style="fill:#18988b"/><path d="M23.17,22.9l5.11,0s0,8.38.13,17.5c0,0-2.45,0-5.14,0,0,0,0-7.7-.1-17.5" transform="translate(0 0.01)" style="fill:#18988b"/><path d="M29.24,31.67c0-5.62,3.65-9.14,9.62-9.14,5.54,0,8.56,3,9.14,7-4.13.25-5.59.3-5.59.3a3.5,3.5,0,0,0-3.68-3.27c-2.67,0-4,2.16-4,5s1.49,5.11,4.18,5.11c2.09,0,3.53-1.21,3.88-3.72,3.68.12,5.61.27,5.61.27C48,38,44.55,40.83,39,40.83c-5.74,0-9.77-3.17-9.77-9.16" transform="translate(0 0.01)" style="fill:#18988b"/><path d="M56.13,34c-1.11,1.28-2,2.37-2.54,3,0,2,0,3,0,3-2.85,0-5,0-5,0V23.23c2.72.05,5,0,5,0,0,3,0,5.49,0,7.73,4.33-5.47,6.67-8.54,6.67-8.54,3.76.23,5.77.28,5.77.28-3.12,3.78-5.21,6.42-6.17,7.63C63.31,36.5,66,40.71,66,40.71c-3.91.07-5.64.25-5.64.25-1.89-3.15-3.35-5.52-4.26-7" transform="translate(0 0.01)" style="fill:#18988b"/><rect x="42.19" y="46.6" width="2.43" height="2.39" transform="translate(-8.15 86.66) rotate(-84.76)" style="fill:#fff"/><g style="clip-path:url(#clip-path-3)"><path d="M47.15,49.68A2.33,2.33,0,0,1,46,49.41a3.14,3.14,0,0,1-2.17-5,2.87,2.87,0,0,1,1.61-1.67,3.37,3.37,0,0,1,1.45-.31,4.8,4.8,0,0,1,.62,0l.36,0a3.21,3.21,0,0,0,.39.05.38.38,0,0,0,.35-.19.47.47,0,0,1,.39-.2l.11,0a.48.48,0,0,1,.36.4,1.68,1.68,0,0,1-.14,1h.17A5.43,5.43,0,0,0,52,43.06a.48.48,0,0,1,.2,0,.5.5,0,0,1,.26.08.48.48,0,0,1,.22.41,1.33,1.33,0,0,1-.19.61,5.81,5.81,0,0,1-1.14,1.39l.19.13.16.1a.47.47,0,0,1,.21.5.49.49,0,0,1-.39.38,1,1,0,0,0-.68.46,2.1,2.1,0,0,1-.54.53.5.5,0,0,1,0,.24,3.88,3.88,0,0,1-3.16,1.83" transform="translate(0 0.01)" style="fill:#fff;fill-rule:evenodd"/><path d="M49,41.66a1,1,0,0,0-.77.39L48,42,47.58,42c-.26,0-.47,0-.67,0a3.83,3.83,0,0,0-1.65.36,3.42,3.42,0,0,0-1.84,1.86,3.62,3.62,0,0,0,2.46,5.74,2.82,2.82,0,0,0,1.27.29,4.31,4.31,0,0,0,2.22-.7A3.55,3.55,0,0,0,50.75,48a1.54,1.54,0,0,0,0-.17,4,4,0,0,0,.46-.49c.19-.24.21-.26.38-.29a1,1,0,0,0,.78-.76,1,1,0,0,0-.28-.89,6.12,6.12,0,0,0,.8-1.08h0a1.77,1.77,0,0,0,.25-.84,1,1,0,0,0-.43-.81,1,1,0,0,0-.53-.16,1,1,0,0,0-.39.08A4.77,4.77,0,0,1,50,43.1a2.13,2.13,0,0,0,0-.61,1,1,0,0,0-.71-.8.91.91,0,0,0-.23,0m-1.69,7h0m1.69-6c.08.6-.1.86-.58,1.4a10.72,10.72,0,0,0,1.08,0,6.07,6.07,0,0,0,2.72-.57.82.82,0,0,1-.13.4A5.59,5.59,0,0,1,51,45.23a4.88,4.88,0,0,1-.66.48h.15a1.78,1.78,0,0,1,1,.43c-.89.15-.91.8-1.48,1.12a1.75,1.75,0,0,1-1,.28h-.08a.68.68,0,0,0,.49.22,1.64,1.64,0,0,0,.44-.09,3.46,3.46,0,0,1-2.72,1.53,1.86,1.86,0,0,1-1-.26,2.66,2.66,0,0,1-1.88-4.34s0,0,0,0a2.38,2.38,0,0,1,1.37-1.42,2.85,2.85,0,0,1,1.25-.27l.57,0c.29,0,.55.1.8.1a.85.85,0,0,0,.74-.38" transform="translate(0 0.01)" style="fill:#fff"/></g><path d="M38.59,47a1.66,1.66,0,0,0,1.11,2,1.64,1.64,0,0,0,1.78-1.48A1.5,1.5,0,1,0,38.59,47" transform="translate(0 0.01)" style="fill:#fff"/><path d="M38.62,45.45c-.14-.75.08-1.42.5-1.5s.88.45,1,1.2-.08,1.41-.5,1.5-.88-.46-1-1.2" transform="translate(0 0.01)" style="fill:#fff"/><path d="M41.77,45.5c.24-.71.12-1.41-.29-1.55s-.94.33-1.18,1-.12,1.41.28,1.55.94-.33,1.19-1" transform="translate(0 0.01)" style="fill:#fff"/><g style="clip-path:url(#clip-path-3)"><path d="M16.94,48a.93.93,0,1,0-1,1.53.93.93,0,1,0,1-1.53" transform="translate(0 0.01)" style="fill:#fff"/><path d="M15.06,49.07c-.57.21-.91.7-.76,1.1a1,1,0,0,0,1.3.36c.57-.21.91-.71.76-1.11a1,1,0,0,0-1.3-.35" transform="translate(0 0.01)" style="fill:#fff"/><path d="M17.7,49.07c.56.21.91.7.76,1.1a1,1,0,0,1-1.3.36c-.57-.21-.91-.71-.76-1.11a1,1,0,0,1,1.3-.35" transform="translate(0 0.01)" style="fill:#fff"/><path d="M13.86,50.23a.39.39,0,0,1-.29-.13.38.38,0,0,1-.09-.32l1-5.17a.38.38,0,0,1,.37-.31h2.93a.37.37,0,0,1,.3.14.4.4,0,0,1,.08.32l-.22,1.07a.38.38,0,0,1-.37.31H16.21l-.05.28h1.11a.39.39,0,0,1,.29.13.41.41,0,0,1,.08.32l-.2,1.06a.38.38,0,0,1-.37.31H15.82l-.33,1.68a.38.38,0,0,1-.37.31Z" transform="translate(0 0.01)" style="fill:#fff"/><path d="M17.77,43.92H14.84a.76.76,0,0,0-.75.62l-1,5.17a.8.8,0,0,0,.16.63.76.76,0,0,0,.59.28h1.26a.77.77,0,0,0,.75-.62l.26-1.38h.94a.77.77,0,0,0,.75-.62L18,47a1,1,0,0,0,0-.17.7.7,0,0,0-.1-.38.77.77,0,0,0,.38-.51l.21-1.08a.72.72,0,0,0-.16-.63.74.74,0,0,0-.59-.28m0,.76-.21,1.08H15.9l-.21,1h1.58l-.2,1.06H15.5l-.38,2H13.86l1-5.17h2.93" transform="translate(0 0.01)" style="fill:#fff"/></g><path d="M17.62,50.23a.42.42,0,0,1-.3-.13.41.41,0,0,1-.08-.32l1-5.17a.39.39,0,0,1,.38-.31h1.26a.37.37,0,0,1,.29.14.33.33,0,0,1,.08.31l-1,5.17a.38.38,0,0,1-.37.31Z" transform="translate(0 0.01)" style="fill:#fff"/><path d="M19.86,43.92H18.6a.76.76,0,0,0-.75.62l-1,5.17a.73.73,0,0,0,.16.63.74.74,0,0,0,.59.28h1.26a.77.77,0,0,0,.75-.63l1-5.17a.8.8,0,0,0-.16-.63.78.78,0,0,0-.59-.27m0,.76-1,5.17H17.62l1-5.17h1.26" transform="translate(0 0.01)" style="fill:#fff"/><path d="M22.08,46.56a.43.43,0,0,0,.34-.41c0-.09-.07-.13-.22-.13h0Zm.24,3.67A.38.38,0,0,1,22,50a10.35,10.35,0,0,1-.13-1.29.92.92,0,0,0-.07-.37l-.31,1.63a.39.39,0,0,1-.38.31H19.83a.4.4,0,0,1-.3-.13.41.41,0,0,1-.08-.32l1-5.07a.37.37,0,0,1,.29-.3,6.75,6.75,0,0,1,1.46-.14,2.72,2.72,0,0,1,1.57.36A1.49,1.49,0,0,1,24.48,46a1.81,1.81,0,0,1-.87,1.6,2.37,2.37,0,0,1,.2.77c0,.16,0,.34,0,.52a5.66,5.66,0,0,0,.1.86.42.42,0,0,1,0,.36.4.4,0,0,1-.32.16Z" transform="translate(0 0.01)" style="fill:#fff"/><path d="M22.17,43.89a7,7,0,0,0-1.55.15.76.76,0,0,0-.58.6l-1,5.07a.73.73,0,0,0,.16.63.74.74,0,0,0,.59.28h1.23a.77.77,0,0,0,.63-.33.77.77,0,0,0,.63.33h1.27a.78.78,0,0,0,.64-.34.77.77,0,0,0,.08-.69c0-.12-.06-.51-.08-.77s0-.36,0-.53a3.45,3.45,0,0,0-.12-.6,2.19,2.19,0,0,0,.8-1.73A1.87,1.87,0,0,0,24,44.31a3.22,3.22,0,0,0-1.78-.42M21.62,47H22a.81.81,0,0,0,.84-.8.53.53,0,0,0-.6-.52,1.4,1.4,0,0,0-.34,0L21.62,47m.55-2.3a2.44,2.44,0,0,1,1.36.3,1.13,1.13,0,0,1,.57,1A1.53,1.53,0,0,1,23,47.44v0c.27.14.39.44.43.91a13.08,13.08,0,0,0,.17,1.48H22.32a9.51,9.51,0,0,1-.12-1.21c0-.59-.2-.75-.56-.75h-.21l-.37,2H19.83l1-5.07a6.89,6.89,0,0,1,1.38-.13" transform="translate(0 0.01)" style="fill:#fff"/><path d="M24.21,50.23a.42.42,0,0,1-.3-.13.41.41,0,0,1-.08-.32l1-5.17a.39.39,0,0,1,.38-.31h2.95a.37.37,0,0,1,.3.14.4.4,0,0,1,.08.32l-.22,1.07a.38.38,0,0,1-.37.31H26.56l0,.15h1.15a.39.39,0,0,1,.29.13.41.41,0,0,1,.08.32l-.21,1.06a.38.38,0,0,1-.37.31H26.19l-.06.28h1.34a.37.37,0,0,1,.29.14.32.32,0,0,1,.08.31l-.2,1.08a.39.39,0,0,1-.38.31Z" transform="translate(0 0.01)" style="fill:#fff"/><path d="M28.14,43.92H25.19a.76.76,0,0,0-.75.62l-1,5.17a.73.73,0,0,0,.16.63.74.74,0,0,0,.59.28h3.05A.76.76,0,0,0,28,50l.2-1.06a.47.47,0,0,0,0-.17.8.8,0,0,0-.2-.52.8.8,0,0,0,.19-.38l.21-1a.85.85,0,0,0-.05-.45.77.77,0,0,0,.3-.46l.21-1a1.1,1.1,0,0,0,0-.18.76.76,0,0,0-.77-.76m-.67,4.85h0m.67-4.09-.21,1.08H26.25l-.19.91h1.61l-.2,1.06h-1.6l-.21,1h1.81l-.21,1.08H24.21l1-5.17h2.95" transform="translate(0 0.01)" style="fill:#fff"/><path d="M30.32,46.29c.13,0,.26-.08.26-.21s0-.1-.18-.1h0Zm-.44,2.23c.16,0,.42-.09.42-.32s0-.2-.32-.21Zm-.55,1.75a7.76,7.76,0,0,1-1.37-.1.39.39,0,0,1-.3-.45l.95-5a.39.39,0,0,1,.3-.3,6.67,6.67,0,0,1,1.42-.13,2.73,2.73,0,0,1,1.49.33,1.45,1.45,0,0,1,.79,1.29A1.58,1.58,0,0,1,32,47.17a1.54,1.54,0,0,1,.41,1.08,1.8,1.8,0,0,1-.85,1.51,3.75,3.75,0,0,1-2.19.51" transform="translate(0 0.01)" style="fill:#fff"/><path d="M30.33,43.89a7.48,7.48,0,0,0-1.5.13.8.8,0,0,0-.6.61l-.95,5a.76.76,0,0,0,.6.89,7.69,7.69,0,0,0,1.45.11,4.17,4.17,0,0,0,2.41-.57,2.2,2.2,0,0,0,1-1.83,2.09,2.09,0,0,0-.27-1A2,2,0,0,0,33,45.89a1.85,1.85,0,0,0-1-1.63,3.18,3.18,0,0,0-1.68-.37m-.58,5c.5,0,.93-.25.93-.72s-.33-.59-.79-.59h-.23l-.24,1.29a1.67,1.67,0,0,0,.33,0m.1-2.22h.26c.53,0,.85-.24.85-.61s-.22-.48-.56-.48a1.56,1.56,0,0,0-.35,0l-.2,1.06m.48-2a2.32,2.32,0,0,1,1.3.28,1.06,1.06,0,0,1,.59,1,1.29,1.29,0,0,1-1,1.22v0A1.11,1.11,0,0,1,32,48.25a1.45,1.45,0,0,1-.69,1.2,3.55,3.55,0,0,1-2,.43,7.44,7.44,0,0,1-1.3-.09l1-5a7.31,7.31,0,0,1,1.34-.12" transform="translate(0 0.01)" style="fill:#fff"/><path d="M35.05,50.23a.39.39,0,0,1-.39-.37l0-.79h-.59l-.37.92a.38.38,0,0,1-.35.24H32a.39.39,0,0,1-.33-.17.38.38,0,0,1,0-.37L34,44.52a.39.39,0,0,1,.35-.22H36a.37.37,0,0,1,.38.35l.39,5.17a.35.35,0,0,1-.1.29.36.36,0,0,1-.28.12Z" transform="translate(0 0.01)" style="fill:#fff"/><path d="M36,43.92H34.36a.75.75,0,0,0-.7.45l-2.34,5.17A.76.76,0,0,0,32,50.62h1.32a.77.77,0,0,0,.71-.48l.23-.59v.32a.77.77,0,0,0,.77.75h1.29a.75.75,0,0,0,.56-.25.76.76,0,0,0,.21-.58l-.4-5.17a.76.76,0,0,0-.76-.7m-1.82,3.83H35l0-1c0-.29,0-.78,0-1.11h0c-.13.33-.28.82-.41,1.11l-.39,1M36,44.68l.39,5.17H35.05l0-1.16H33.79l-.46,1.16H32l2.35-5.17H36" transform="translate(0 0.01)" style="fill:#fff"/><path d="M36.86,50.23a.4.4,0,0,1-.3-.13.41.41,0,0,1-.08-.32l1-5.17a.39.39,0,0,1,.38-.31H39.1a.37.37,0,0,1,.29.14.39.39,0,0,1,.08.31l-.69,3.62H40a.4.4,0,0,1,.38.46l-.21,1.09a.39.39,0,0,1-.38.31Z" transform="translate(0 0.01)" style="fill:#fff"/><path d="M39.1,45.45Zm0-1.53H37.84a.75.75,0,0,0-.75.62l-1,5.17a.77.77,0,0,0,.17.63.74.74,0,0,0,.59.28h3a.75.75,0,0,0,.75-.63l.21-1.07a.86.86,0,0,0,0-.16A.76.76,0,0,0,40,48h-.79l.6-3.17a.75.75,0,0,0-.75-.9M40,48.76h0m-.94-4.08-.78,4.08H40l-.21,1.09h-3l1-5.17H39.1" transform="translate(0 0.01)" style="fill:#fff"/><path d="M40.41,50.23a.39.39,0,0,1-.29-.13.41.41,0,0,1-.08-.32l1-5.17a.39.39,0,0,1,.38-.31h1.25a.37.37,0,0,1,.3.14.39.39,0,0,1,.08.31l-.69,3.62H43.6a.37.37,0,0,1,.29.14.34.34,0,0,1,.08.32l-.2,1.09a.39.39,0,0,1-.38.31Z" transform="translate(0 0.01)" style="fill:#fff"/><path d="M42.65,43.92H41.4a.77.77,0,0,0-.76.62l-1,5.17a.8.8,0,0,0,.16.63.77.77,0,0,0,.59.28h3a.76.76,0,0,0,.75-.63l.2-1.07a.44.44,0,0,0,0-.16A.76.76,0,0,0,43.6,48h-.8l.61-3.17a.77.77,0,0,0-.76-.9m0,.76-.77,4.08H43.6l-.21,1.09h-3l1-5.17h1.25" transform="translate(0 0.01)" style="fill:#fff"/><polygon points="13.81 49.94 14.81 44.68 17.82 44.68 17.59 45.84 15.94 45.84 15.75 46.8 17.32 46.8 17.1 47.94 15.54 47.94 15.15 49.94 13.81 49.94" style="fill:#fbba07"/><path d="M17.88,44.63H14.77v.07l-1,5.17V50h1.43V49.9L15.57,48h1.57V47.9l.2-1,0-.11H15.8l.17-.87h1.66V45.8l.22-1.07Zm-.11.08-.21,1.08H15.9l-.21,1h1.58l-.2,1.06H15.5l-.38,2H13.86l1-5.17h2.93" transform="translate(0 0.01)" style="fill:#fbba07"/><polygon points="17.57 49.94 18.57 44.68 19.91 44.68 18.91 49.94 17.57 49.94" style="fill:#fbba07"/><path d="M20,44.63H18.53v.07l-1,5.17,0,.1H19V49.9l1-5.17Zm-.1.08-1,5.17H17.62l1-5.17h1.26" transform="translate(0 0.01)" style="fill:#fbba07"/><path d="M22,46.94a.76.76,0,0,0,.8-.76c0-.29-.22-.47-.56-.47h-.3l-.23,1.22Zm.33,3v0a9.26,9.26,0,0,1-.13-1.22c0-.59-.2-.71-.51-.71h-.17l-.37,2H19.77l1-5.15h0a6.84,6.84,0,0,1,1.39-.13,2.44,2.44,0,0,1,1.39.31,1.17,1.17,0,0,1,.58,1,1.53,1.53,0,0,1-1.07,1.49c.23.15.35.43.4.92,0,.15,0,.33,0,.51a5.92,5.92,0,0,0,.12,1l0,.06Z" transform="translate(0 0.01)" style="fill:#fbba07"/><path d="M21.93,45.76h.27c.31,0,.52.17.52.43a.73.73,0,0,1-.76.72h-.23Zm.24-1.16a6.23,6.23,0,0,0-1.4.13h-.05v.06l-1,5.07,0,.1h1.41l0-.07L21.5,48h.14c.29,0,.44.1.47.67a9.75,9.75,0,0,0,.13,1.23V50h1.47l0-.12a6.21,6.21,0,0,1-.11-1c0-.17,0-.35,0-.51a1.22,1.22,0,0,0-.36-.9,1.59,1.59,0,0,0,1-1.5,1.19,1.19,0,0,0-.61-1.08,2.42,2.42,0,0,0-1.41-.31M21.62,47H22a.81.81,0,0,0,.84-.8.53.53,0,0,0-.6-.52,1.4,1.4,0,0,0-.34,0L21.62,47m.55-2.3a2.53,2.53,0,0,1,1.36.3,1.13,1.13,0,0,1,.57,1A1.53,1.53,0,0,1,23,47.47v0c.27.14.39.44.43.91a13.08,13.08,0,0,0,.17,1.48H22.32a9.51,9.51,0,0,1-.12-1.21c0-.59-.2-.75-.56-.75h-.21l-.37,2H19.83l1-5.07a6.89,6.89,0,0,1,1.38-.13" transform="translate(0 0.01)" style="fill:#fbba07"/><polygon points="24.16 49.94 25.15 44.68 28.2 44.68 27.96 45.84 26.28 45.84 26.12 46.66 27.73 46.66 27.5 47.81 25.91 47.81 25.72 48.77 27.52 48.77 27.3 49.94 24.16 49.94" style="fill:#fbba07"/><path d="M28.25,44.63H25.12l0,.07-1,5.17,0,.1h3.23l0-.07.2-1.08,0-.1h-1.8l.17-.88h1.6v-.07l.21-1.05,0-.11H26.17l.15-.74H28V45.8l.22-1.07Zm-.11.08-.21,1.08H26.25l-.19.91h1.61l-.2,1.06h-1.6l-.21,1h1.81l-.21,1.08H24.21l1-5.17h2.95" transform="translate(0 0.01)" style="fill:#fbba07"/><path d="M30.11,46.68c.5,0,.8-.21.8-.57s-.19-.43-.51-.43a1.28,1.28,0,0,0-.31,0l-.18,1Zm-.64,2.21h.28c.44,0,.89-.21.89-.67s-.25-.55-.75-.55H29.7ZM29.33,50a6.89,6.89,0,0,1-1.3-.1H28l1-5.08h0a6.77,6.77,0,0,1,1.35-.12,2.48,2.48,0,0,1,1.33.28,1.12,1.12,0,0,1,.61,1,1.34,1.34,0,0,1-1,1.24A1.15,1.15,0,0,1,32,48.28a1.48,1.48,0,0,1-.7,1.23,3.54,3.54,0,0,1-2,.45" transform="translate(0 0.01)" style="fill:#fbba07"/><path d="M29.73,47.72h.16c.63,0,.71.29.71.51s-.23.62-.85.62h-.23Zm.4-2a1,1,0,0,1,.27,0c.29,0,.47.14.47.39s-.28.53-.76.53H30Zm.2-1.14a6.88,6.88,0,0,0-1.36.12h-.06v.06l-.95,5,0,.08.09,0a7.18,7.18,0,0,0,1.31.09,3.6,3.6,0,0,0,2-.45,1.53,1.53,0,0,0,.72-1.27,1.2,1.2,0,0,0-.64-1.12,1.34,1.34,0,0,0,.88-1.24,1.15,1.15,0,0,0-.64-1,2.48,2.48,0,0,0-1.34-.28m-.58,4.34c.5,0,.93-.25.93-.71s-.33-.59-.79-.59h-.23l-.24,1.28a1.67,1.67,0,0,0,.33,0m.1-2.22h.26c.53,0,.85-.24.85-.61s-.22-.48-.56-.48a1.56,1.56,0,0,0-.35,0l-.2,1.06m.48-2a2.41,2.41,0,0,1,1.3.28,1.06,1.06,0,0,1,.59,1,1.29,1.29,0,0,1-1,1.22v0A1.12,1.12,0,0,1,32,48.28a1.45,1.45,0,0,1-.69,1.2,3.47,3.47,0,0,1-2,.43,6.56,6.56,0,0,1-1.3-.09l1-5a7.31,7.31,0,0,1,1.34-.12" transform="translate(0 0.01)" style="fill:#fbba07"/><path d="M35,47.74l0-.94c0-.19,0-.45,0-.71v-.21a2.65,2.65,0,0,0-.11.3c-.08.23-.16.47-.24.64l-.36.92Zm0,2.19,0-1.17H33.82l-.46,1.17H32l2.38-5.26H36l.4,5.26Z" transform="translate(0 0.01)" style="fill:#fbba07"/><path d="M34.26,47.69l.34-.86a6.05,6.05,0,0,0,.24-.63l0-.08c0,.25,0,.5,0,.68l0,.89ZM36,44.63H34.3l0,0-2.34,5.17-.06.12h1.51l0,0,.44-1.12h1.08l0,1.09V50h1.48v-.09L36,44.71Zm-1.9,3.15H35l0-1c0-.29,0-.78,0-1.11h0c-.13.33-.28.83-.41,1.11l-.39,1M36,44.71l.39,5.17H35.05l0-1.16H33.79l-.46,1.16H32l2.35-5.17H36" transform="translate(0 0.01)" style="fill:#fbba07"/><polygon points="36.8 49.94 37.8 44.68 39.15 44.68 38.37 48.75 40.09 48.75 39.87 49.94 36.8 49.94" style="fill:#fbba07"/><path d="M39.2,44.63H37.77l0,.07-1,5.17,0,.1H39.9l0-.07.2-1.1,0-.1H38.43l.75-4Zm-.1.08-.78,4.08H40l-.21,1.09h-3l1-5.17H39.1" transform="translate(0 0.01)" style="fill:#fbba07"/><polygon points="40.36 49.94 41.36 44.68 42.71 44.68 41.93 48.75 43.65 48.75 43.43 49.94 40.36 49.94" style="fill:#fbba07"/><path d="M42.76,44.63H41.32v.07l-1,5.17,0,.1h3.15l0-.07.2-1.1,0-.1H42l.76-4Zm-.11.08-.77,4.08H43.6l-.21,1.09h-3l1-5.17h1.25" transform="translate(0 0.01)" style="fill:#fbba07"/><path d="M47.33,48.63h0m2.52-1a.78.78,0,0,1-.92-.12A1.74,1.74,0,0,0,50,47.25c.57-.32.59-1,1.47-1.11-.43-.27-.64-.47-1.15-.42.31-.23.38-.25.65-.48a5.58,5.58,0,0,0,1.12-1.33.9.9,0,0,0,.13-.39,6.74,6.74,0,0,1-3.78.52c.49-.54.66-.8.58-1.39-.43.57-.94.34-1.53.28a3.17,3.17,0,0,0-1.81.23,2.38,2.38,0,0,0-1.35,1.41s0,0,0,0a2.62,2.62,0,0,0-.39,2.71,2.66,2.66,0,0,0,2.26,1.6c1.36.83,3.36-.53,3.67-1.27" transform="translate(0 0.01)" style="fill:#fbba07;fill-rule:evenodd"/><g style="clip-path:url(#clip-path-3)"><path d="M47.15,49.35a2.13,2.13,0,0,1-1-.26,2.82,2.82,0,0,1-2-4.57h0A2.57,2.57,0,0,1,45.6,43a3.47,3.47,0,0,1,1.9-.25l.34,0c.43.08.75.13,1-.26l.25-.34.06.42a1.47,1.47,0,0,1-.39,1.27,6.31,6.31,0,0,0,3.35-.53l.24-.11v.27a.84.84,0,0,1-.15.46,5.54,5.54,0,0,1-1.16,1.39,3.32,3.32,0,0,1-.27.22,2.06,2.06,0,0,1,.59.3l.54.35-.44.07a1.28,1.28,0,0,0-.87.57,1.63,1.63,0,0,1-.55.52h0l.1,0-.15.34a3.46,3.46,0,0,1-2,1.48,2.93,2.93,0,0,1-.9.15m-.23-6.28a2.83,2.83,0,0,0-1.18.24,2.24,2.24,0,0,0-1.26,1.31l0,.09a2.45,2.45,0,0,0-.36,2.54,2.48,2.48,0,0,0,2.11,1.5l.08,0a2,2,0,0,0,1.68.1,3.68,3.68,0,0,0,1.52-1,.83.83,0,0,1-.66-.25l-.34-.31h.46a1.68,1.68,0,0,0,1-.26,1.64,1.64,0,0,0,.44-.43,1.74,1.74,0,0,1,.7-.59,1,1,0,0,0-.73-.19l-.65.06.54-.38.24-.16a3.44,3.44,0,0,0,.4-.3,5.2,5.2,0,0,0,1.07-1.28h0a7,7,0,0,1-3.51.39l-.35,0,.23-.26a1.73,1.73,0,0,0,.55-.88,1.4,1.4,0,0,1-1.06.1l-.33,0a4.89,4.89,0,0,0-.54,0m.51,5.71-.1-.15-.06-.16.06.16-.06-.16h0l0,0v0l.14.31,0,0Z" transform="translate(0 0.01)" style="fill:#fbba07"/></g><path d="M46.88,48.19h0m2-.65c-.31.08-.49.09-.71-.13a1.29,1.29,0,0,0,.83-.17c.45-.22.49-.72,1.18-.79-.33-.23-.48-.39-.87-.38a5.19,5.19,0,0,0,.52-.34,4.14,4.14,0,0,0,.91-1,.68.68,0,0,0,.12-.3,5.26,5.26,0,0,1-2.93.25c.4-.4.54-.59.5-1.05-.35.43-.73.22-1.18.15a2.5,2.5,0,0,0-1.4.11,1.82,1.82,0,0,0-1.1,1s0,0,0,0A2,2,0,0,0,46,48.37c1,.69,2.61-.27,2.88-.83" transform="translate(0 0.01)" style="fill:#f28e00;fill-rule:evenodd"/><path d="M46.81,48.63a1.5,1.5,0,0,1-.84-.24A2.06,2.06,0,0,1,44.7,45h0v0a1.82,1.82,0,0,1,1.11-1,2.44,2.44,0,0,1,1.41-.11l.26.05c.34.08.63.14.91-.19l0,0v.06c0,.45-.11.65-.48,1a5.14,5.14,0,0,0,2.87-.25h0v0a.72.72,0,0,1-.12.31,4.22,4.22,0,0,1-.92,1,2.67,2.67,0,0,1-.33.22l-.13.08a1.1,1.1,0,0,1,.69.29l.12.09,0,0h-.05a1.05,1.05,0,0,0-.76.44,1.29,1.29,0,0,1-.41.35,1.38,1.38,0,0,1-.67.18h-.11a.6.6,0,0,0,.64.08h0l0,0a2.54,2.54,0,0,1-1.49,1,2.08,2.08,0,0,1-.58.08m-.16-4.85a2,2,0,0,0-.81.16,1.8,1.8,0,0,0-1.09,1v0A2,2,0,0,0,46,48.34h0a1.69,1.69,0,0,0,1.38.16,2.63,2.63,0,0,0,1.45-.93.61.61,0,0,1-.68-.15l0,0h.06a1.3,1.3,0,0,0,.81-.17,1.47,1.47,0,0,0,.4-.34,1.12,1.12,0,0,1,.73-.45l-.08,0a1,1,0,0,0-.73-.29h-.08l.06-.05.2-.11.33-.22a4.27,4.27,0,0,0,.9-1,.6.6,0,0,0,.11-.26,5.15,5.15,0,0,1-2.9.24h0l0,0c.37-.37.52-.56.5-1a.84.84,0,0,1-.92.17l-.25-.05a3.9,3.9,0,0,0-.58,0m.24,4.43,0,0h0l0,0h0" transform="translate(0 0.01)" style="fill:#f28e00"/><path d="M48.2,46.35a2,2,0,1,1-2-2,2,2,0,0,1,2,2" transform="translate(0 0.01)" style="fill:#e24a11;fill-rule:evenodd"/><path d="M2.05,49a.25.25,0,0,1-.19-.09.25.25,0,0,1-.05-.19l.48-3.06a.24.24,0,0,1,.24-.2H3.94A1.35,1.35,0,0,1,5,45.84a1.16,1.16,0,0,1,.23,1,1.38,1.38,0,0,1-1.41,1.22H3.47l-.11.71a.25.25,0,0,1-.24.21Zm1.62-2.2,0,0h0Z" transform="translate(0 0.01)" style="fill:#18988b"/><path d="M3.94,45.67c.71,0,1.18.36,1.06,1.12a1.14,1.14,0,0,1-1.17,1H3.26l-.14.91H2.05l.48-3H3.94M3.38,47h.11c.2,0,.41,0,.45-.28s-.19-.26-.37-.26h-.1L3.38,47m.56-1.86H2.53a.49.49,0,0,0-.48.41l-.48,3.06a.44.44,0,0,0,.11.39.47.47,0,0,0,.37.17H3.12a.48.48,0,0,0,.48-.41l.08-.51h.15a1.62,1.62,0,0,0,1.65-1.42,1.43,1.43,0,0,0-.28-1.19,1.62,1.62,0,0,0-1.26-.5" transform="translate(0 0.01)" style="fill:#fff"/><path d="M5.15,49A.23.23,0,0,1,5,48.88a.22.22,0,0,1-.06-.19l.49-3.06a.24.24,0,0,1,.24-.2H6.74a.23.23,0,0,1,.18.08.24.24,0,0,1,.06.2L6.69,47.5h.65a.25.25,0,0,1,.19.09.25.25,0,0,1,0,.19l-.15,1a.25.25,0,0,1-.24.21Z" transform="translate(0 0.01)" style="fill:#18988b"/><path d="M6.74,45.67l-.33,2.07h.93l-.15,1H5.14l.49-3H6.74m0-.49H5.63a.49.49,0,0,0-.48.41l-.49,3.06a.47.47,0,0,0,.12.39.46.46,0,0,0,.36.17H7.19a.48.48,0,0,0,.48-.41l.15-1a.5.5,0,0,0-.11-.39.48.48,0,0,0-.37-.17H7l.24-1.52a.5.5,0,0,0-.11-.39.5.5,0,0,0-.37-.17" transform="translate(0 0.01)" style="fill:#fff"/><path d="M8.88,49a1.51,1.51,0,0,1-1.21-.45,1.35,1.35,0,0,1-.24-1.13l.29-1.81a.24.24,0,0,1,.24-.2H9.07a.23.23,0,0,1,.18.08.24.24,0,0,1,.06.2L9,47.41a.78.78,0,0,0,0,.16H9c.09,0,.1,0,.13-.24l.28-1.7a.23.23,0,0,1,.24-.2h1.11a.23.23,0,0,1,.18.08.24.24,0,0,1,.06.2l-.29,1.8A1.71,1.71,0,0,1,8.88,49" transform="translate(0 0.01)" style="fill:#18988b"/><path d="M10.79,45.67l-.29,1.81a1.46,1.46,0,0,1-1.62,1.29c-.85,0-1.35-.4-1.21-1.29L8,45.67H9.07l-.27,1.7c0,.24-.06.45.23.45s.34-.21.38-.45l.27-1.7h1.11m0-.49H9.68a.49.49,0,0,0-.31.11.46.46,0,0,0-.3-.11H8a.49.49,0,0,0-.48.41L7.19,47.4a1.56,1.56,0,0,0,.3,1.33,1.74,1.74,0,0,0,1.39.53A1.94,1.94,0,0,0,11,47.55l.29-1.8a.51.51,0,0,0-.11-.4.48.48,0,0,0-.37-.17" transform="translate(0 0.01)" style="fill:#fff"/><path d="M11.8,49a2.71,2.71,0,0,1-1.24-.31.25.25,0,0,1-.1-.33l.47-.87.06-.07a.9.9,0,0,1-.18-.73,1.73,1.73,0,0,1,1.75-1.33,1.83,1.83,0,0,1,1.06.31.24.24,0,0,1,.08.31l-.42.79,0,0a.92.92,0,0,1,.3.89A1.67,1.67,0,0,1,11.8,49" transform="translate(0 0.01)" style="fill:#18988b"/><path d="M12.56,45.62a1.61,1.61,0,0,1,.92.27l-.42.78a1,1,0,0,0-.61-.23c-.09,0-.24,0-.26.16s.11.13.2.15l.24.06c.45.1.75.35.67.87a1.42,1.42,0,0,1-1.5,1.09,2.42,2.42,0,0,1-1.13-.28l.48-.86,0,0a1,1,0,0,0,.65.27c.11,0,.29,0,.31-.18s-.12-.15-.22-.17l-.22,0c-.42-.08-.74-.33-.67-.81a1.48,1.48,0,0,1,1.51-1.13m0-.49a1.94,1.94,0,0,0-2,1.55,1.15,1.15,0,0,0,.13.76l-.45.82a.48.48,0,0,0,.19.66,3,3,0,0,0,1.36.34,1.9,1.9,0,0,0,2-1.5,1.18,1.18,0,0,0-.23-1l.36-.67a.49.49,0,0,0-.16-.64,2.08,2.08,0,0,0-1.19-.35" transform="translate(0 0.01)" style="fill:#fff"/><path d="M54.93,45.15a1.16,1.16,0,0,1-1.18,1.17,1.17,1.17,0,1,1,0-2.33,1.15,1.15,0,0,1,1.18,1.16m-2.08,0a.9.9,0,1,0,.9-.93.89.89,0,0,0-.9.93m.71.6h-.27V44.6a2.48,2.48,0,0,1,.45,0,.68.68,0,0,1,.4.09.3.3,0,0,1,.11.25.28.28,0,0,1-.24.27h0a.35.35,0,0,1,.22.28.73.73,0,0,0,.08.29H54a1.29,1.29,0,0,1-.09-.28c0-.12-.09-.18-.24-.18h-.13Zm0-.65h.13c.14,0,.27-.05.27-.17s-.08-.18-.25-.18l-.15,0Z" transform="translate(0 0.01)" style="fill:#fff"/></g></g></svg>