<svg version="1.1" id="Layer_1" xmlns="http://www.w3.org/2000/svg" xlink="http://www.w3.org/1999/xlink" x="0px" y="0px" viewBox="123.8 173.3 802.72207 354.90000000000003" enable-background="123.8 173.3 802.72207 354.90000000000003" space="preserve">
<g>
	<path fill="#FFFFFF" d="M902.9,309.2c-0.2-0.2-0.4-0.3-0.6-0.5c9-12,13.7-25.9,13.7-40.9c0-15.7-5.5-38.2-32-56.2
		c-3.3-2.2-6.7-4.1-10.3-5.9c-4.3-4.9-9.6-9.7-16.2-14.3c-18-12-39.9-18.1-65.2-18.1c-20.5,0-38.9,5.1-54.7,15.3
		c-24.7,15.9-29.5,35.3-29.2,48.8l0,0.3c0.2,5.6,1.1,10.7,2.7,15.5c-1.3,0.1-2.5,0.2-3.7,0.2c-4.8,0-6.9-0.3-7.5-0.5
		c-5.6-1.1-9.9-1.6-13.5-1.6c-5.2,0-10.2,1.3-14.7,3.6c-4.9-2.5-10.3-3.6-15.6-3.6c-3.4,0-7.1,0.3-11,0.8c-11.3,1.2-14,1.3-14.2,1.3
		c-1.2,0-2.3,0-3.2-0.1c-0.6-25-17.8-32.1-28.4-32.3c-4.9-15.6-18.4-20.2-27.1-20.2c-3.4,0-7.4,0.4-12.7,1.4
		c-3.4,0.6-4.6,0.7-4.5,0.7c-2,0-4.3-0.2-6.7-0.7c-4.5-0.9-8.3-1.3-11.8-1.3c-8,0-15.2,2.5-21.3,7.1c-1.5-2.3-3.2-4.5-5.1-6.6
		c-9.1-9.8-21-15-34.5-15c-12.8,0-24.5,5.1-33.8,14.8c-9.1,9.4-13.8,21.1-13.8,33.6c0,9.1,2.1,17.6,6.1,25.1
		c-2.1,1.8-3.9,3.8-5.6,6.1c-0.7,1-1.4,2.1-2.1,3.2c-1-1.3-2.1-2.5-3.2-3.7c-11.8-12.1-29.9-18.2-53.5-18.2
		c-16.6,0-30.7,3.3-42.2,9.6c-9-13.1-20-22.6-32.9-28.4c-15.3-17.7-35.3-27-58.9-27c-6.4,0-11.7,0.2-16.1,0.7l-16.3,1.8
		c-5.8,0.6-9.1,0.8-10.7,0.8c-1.4,0-4.8-0.2-11.4-1.2l-0.6-0.1c-10.6-1.4-14.3-1.8-16-1.9c-1-0.1-2.1-0.1-3.1-0.1
		c-11.5,0-21.7,5.4-28.8,15.3c-5.9,8.2-8.9,18.2-8.9,29.7c0,9.7,2.4,18.4,7.1,25.8c5.3,8.4,13,13.9,21.7,15.6v73.4
		c-8.7,1.7-16.3,7.2-21.7,15.6c-4.7,7.4-7.1,16.1-7.1,25.8c0,11.4,3,21.3,8.9,29.3c5.9,8,13.9,13,23.1,14.7c1,1.9,2.1,3.8,3.4,5.6
		c7.3,9.9,17.9,15.3,29.9,15.3c2.2,0,4.8-0.2,19.1-2.3c1.9-0.3,5.3-0.6,10.8-0.6c4.1,0,7.8,0.2,10.8,0.5c21.7,2.2,28.8,2.5,32.2,2.5
		c23.2,0,43.3-9.1,58.3-26.1c3.6,2.4,7.5,4.3,11.6,5.8c0.8,1.1,1.6,2.2,2.5,3.3c11.3,13.5,27,20.6,45.7,20.6
		c9.3,0,21.2-1.9,33.3-9.1c7.9,5.9,17.6,9.1,28.5,9.1c9.5,0,18.3-2.5,25.7-7.3c4.6,2.3,9.7,3.5,15.1,3.5c4.2,0,9.1-0.6,15.5-1.9
		c2.4-0.5,5.1-0.7,8-0.7c3.8,0,7.2,0.3,10.2,0.8c6.9,1.3,12,1.9,16.2,1.9c4.9,0,10.1-1,15-3.2c4.4,2.1,9.3,3.2,14.5,3.2
		c2.4,0,5.5-0.3,11.7-1.4c2.7,9.5,7.6,17.9,14.7,25c5.9,5.9,12.8,10.2,20.5,13c1.8,2.5,3.8,4.9,6.1,7.2c11.1,11,25.6,16.8,42.2,16.8
		c18.1,0,43.8-7.1,63.6-41.1c4.8-8.2,8.7-16.3,11.6-24.1c1.9-5.1,4.5-13.2,7.9-24.7c3.8,3.7,8.4,7.4,13.9,10.9l0.4,0.3
		c16,9.6,35.3,14.4,57.1,14.4c29.5,0,55.6-7.4,77.3-22c31-20.5,37.4-46.5,37.4-64.6C926.8,355.7,924.3,326.3,902.9,309.2z"/>
	<g>
		<g>
			<path fill="#231F20" d="M329.1,344.1c0,15.8-2.2,30.9-6.6,45.4c-4.4,14.5-10.4,26.3-18,35.3c-10.9,13-24.9,19.5-42.2,19.5
				c-4.6,0-14.6-0.8-29.9-2.4c-3.9-0.4-8.3-0.6-13.2-0.6c-5.7,0-10.4,0.3-14.3,0.9c-9.1,1.4-14.3,2.1-15.6,2.1
				c-4.8,0-8.6-2-11.6-6.1c-3-4-4.5-9.3-4.5-15.8c0-5.3,1.2-9.9,3.6-13.6c2.4-3.7,5.2-5.6,8.5-5.6c1.5,0,3.2,0.3,5.2,0.9
				c2,0.6,4,0.9,5.9,0.9c3.7,0,5.6-6.6,5.6-19.8v-81.9c0-13.2-1.9-19.8-5.6-19.8c-1.2,0-3,0.3-5.5,1c-2.5,0.7-4.4,1-5.7,1
				c-3.3,0-6.1-1.9-8.5-5.6c-2.4-3.7-3.6-8.3-3.6-13.6c0-6.7,1.5-12.2,4.6-16.4c3-4.2,6.9-6.2,11.5-5.8c2.5,0.2,7.5,0.8,15,1.8
				c6.3,1,11.2,1.5,15,1.5c3.3,0,7.7-0.3,13.2-0.9l16.3-1.8c3.6-0.4,8.1-0.6,13.6-0.6c21.7,0,38.5,10.5,50.5,31.6
				C323.7,295.1,329.1,317.8,329.1,344.1z M287.4,344.1c0-22.1-3.8-38.3-11.4-48.8c-6.4-8.9-13.8-13.3-22.2-13.3
				c-4.9,0-8.3,1.1-10.1,3.3c-1.8,2.2-2.7,6.3-2.7,12.4v93.1c0,6.1,0.9,10.3,2.7,12.4c1.8,2.2,5.2,3.3,10.3,3.3
				c8.4,0,15.7-4.4,22-13.3C283.6,382.5,287.4,366.1,287.4,344.1z"/>
			<path fill="#231F20" d="M465.5,425.7c0,6.5-2.2,11.8-6.6,16c-4.4,4.1-9.9,6.2-16.6,6.2c-12.2,0-20.5-6.5-24.8-19.5
				c-10.4,13-22.8,19.5-37.1,19.5c-11.9,0-21.3-4.1-28.2-12.4c-6.9-8.3-10.4-19.4-10.4-33.4c0-13.6,3-23.7,8.9-30.3
				c6-6.6,16.4-11.7,31.5-15.2c10.6-2.4,17.7-5.1,21.5-8.3c3.8-3.1,5.7-7.8,5.7-13.9c0-4.7-1.4-8.6-4.3-11.7
				c-2.9-3.1-6.4-4.6-10.7-4.6c-4.7,0-7.1,2.1-7.1,6.2v5.3c0,5.5-1.7,10.1-5.2,13.7c-3.4,3.6-7.8,5.5-13,5.5
				c-5.8,0-10.7-2.4-14.7-7.1c-4-4.7-6-10.5-6-17.4c0-10.6,4.2-19,12.7-25.1c8.5-6.1,20.2-9.2,35-9.2c17.4,0,29.8,3.8,37.3,11.4
				c7.4,7.6,11.2,20.2,11.2,37.7v61.5c0,6.5,1.2,9.8,3.6,9.8l3.6-0.6c0.3-0.2,0.8-0.3,1.6-0.3c3.4,0,6.3,1.6,8.6,4.7
				C464.4,417.3,465.5,421.1,465.5,425.7z M409.5,385.5v-7.8c-2.4,2-9.1,4.7-20.2,8.1c-7.7,2.4-11.5,6.7-11.5,12.8
				c0,9.1,4.1,13.7,12.2,13.7c5.9,0,10.6-2.4,14.2-7.3C407.7,400.2,409.5,393.7,409.5,385.5z"/>
			<path fill="#231F20" d="M546.5,423.9c0,13.4-4.5,20.1-13.6,20.1c-2.7,0-6.7-0.5-12.1-1.5c-4.3-0.8-9.1-1.2-14.3-1.2
				c-4.5,0-8.6,0.4-12.5,1.2c-4.8,1-8.4,1.5-10.9,1.5c-4,0-7.3-1.8-9.8-5.3c-2.5-3.5-3.8-8.1-3.8-13.8c0-11.3,3.5-17,10.5-17
				c1,0,2.3,0.2,3.8,0.5c2.2,0.8,3.6,1.3,4,1.3c2.5,0,3.8-5.5,3.8-16.6v-47.9c0-11.2-1.3-16.9-3.8-16.9l-4,1.2
				c-1,0.6-2.3,0.9-3.8,0.9c-7,0-10.5-5.7-10.5-17.1c0-5.7,1.3-10.3,3.9-13.9c2.6-3.5,6.1-5.3,10.4-5.3c1.8,0,4.1,0.3,6.9,0.9
				c4.8,1,8.8,1.5,12.1,1.5c3.3,0,6.6-0.4,10-1.2c3.4-0.8,5.7-1.2,6.7-1.2c4.2,0,6.3,3.8,6.3,11.5v88.7c0,10.3,1.5,15.4,4.5,15.4
				c0.7,0,1.8-0.3,3.1-0.9c1.3-0.6,2.6-0.9,3.8-0.9C543.4,407.9,546.5,413.2,546.5,423.9z"/>
			<path fill="#231F20" d="M527.1,255.9c0,7.5-2.4,13.8-7.2,19.1c-4.8,5.2-10.7,7.8-17.6,7.8c-6.9,0-12.8-2.7-17.6-8.1
				c-4.8-5.4-7.2-12.1-7.2-20c0-6.7,2.5-12.7,7.5-17.9c5-5.2,10.8-7.8,17.3-7.8c7.1,0,13,2.6,17.8,7.7
				C524.7,241.9,527.1,248.3,527.1,255.9z"/>
			<path fill="#231F20" d="M625.8,423.7c0,13.5-4.5,20.3-13.6,20.3c-2.4,0-6.4-0.4-12.1-1.2c-7-1-12.1-1.5-15.4-1.5
				c-4.2,0-7.7,0.3-10.7,0.9c-6,1.2-9.8,1.8-11.6,1.8c-4,0-7.3-1.8-9.8-5.3c-2.5-3.5-3.8-8.2-3.8-13.9c0-11.4,3.5-17.1,10.5-17.1
				c1,0,2.3,0.2,3.8,0.6c2.2,1,3.6,1.5,4,1.5c2.5,0,3.8-5.5,3.8-16.6v-98.5c0-11.2-1.3-16.9-3.8-16.9l-4,1.2c-1,0.6-2.3,0.9-3.8,0.9
				c-7,0-10.5-5.7-10.5-17.1c0-5.7,1.3-10.3,3.9-13.9c2.6-3.5,6.1-5.3,10.4-5.3c1.9,0,4.4,0.3,7.4,0.9c3.9,0.8,7.6,1.2,11.2,1.2
				c1.9,0,4.8-0.3,8.6-1c3.8-0.7,6.7-1,8.6-1c4.2,0,6.2,3.6,6.2,10.9v139.8c0,10.3,1.4,15.4,4.2,15.4c0.7,0,1.9-0.3,3.5-1
				c1.6-0.7,2.8-1,3.7-1C622.7,407.6,625.8,413,625.8,423.7z"/>
			<path fill="#231F20" d="M768.7,313.3c0,4.5-1,8.5-3.1,12c-2.1,3.5-4.5,5.2-7.1,5.2c-0.3,0-1.2-0.2-2.8-0.7
				c-1.6-0.5-2.6-0.7-3.2-0.7c-2.2,0-4.2,2.3-6,6.8c-0.3,1.2-0.4,1.9-0.4,2.1l-1.1,3.5l-0.9,3.5l-1.1,3.5l-19.2,66.2
				c-5.7,19.7-9.7,32.9-12.2,39.5c-2.5,6.6-5.8,13.5-9.9,20.5c-11.6,19.9-26.3,29.9-44,29.9c-10.6,0-19.3-3.4-26.1-10.2
				c-6.8-6.8-10.3-15.4-10.3-25.9c0-6.9,1.7-12.7,5.2-17.4c3.5-4.7,7.8-7.1,13.1-7.1c4.6,0,8.4,1.8,11.4,5.5c3,3.6,4.5,8.3,4.5,14
				c0,1.2-0.2,3.3-0.7,6.5c1.9,1.2,3.9,1.8,5.8,1.8c3.9,0,7.6-3,11.3-9c3.6-6,5.5-11.5,5.5-16.6c0-1.8-1.1-6.8-3.3-15
				c-1.3-5.1-2.8-9.9-4.2-14.4l-20.8-65.4c-1.8-5.7-3.6-11.3-5.6-16.8c-1.2-2.7-2.5-4.1-4-4.1c-1.3,0-2.4,0-3.1,0
				c-0.7,0-1.5,0-2.2,0c-7.6,0-11.4-5.5-11.4-16.6c0-5.7,1.3-10.4,4-14.2c2.7-3.7,6-5.6,10-5.6c1.6,0,3.9,0.3,6.9,0.9
				c3.9,0.8,8.6,1.2,14.1,1.2c2.4,0,8-0.5,17-1.5c3-0.4,5.7-0.6,8.3-0.6c8,0,12.1,5.7,12.1,17.1c0,7.9-3.2,12.5-9.6,13.9
				c-3.1,0.6-4.7,2.3-4.7,5c0,2,0.4,4.8,1.3,8.6l15.4,63.6l15-60.9c1.3-5.5,2-9.2,2-10.9c0-2-1.2-3.5-3.6-4.7
				c-3.3-1.6-5.6-3.3-6.9-5.2c-1.3-1.9-2-5-2-9.3c0-4.9,1.1-9,3.2-12.3c2.2-3.3,4.9-4.9,8.1-4.9c2.1,0,5.1,0.4,9.2,1.2
				c3,0.6,6.9,0.9,11.8,0.9c3.4,0,7.1-0.3,10.9-0.9c5.2-0.8,8.5-1.2,9.8-1.2C764,294.1,768.7,300.5,768.7,313.3z"/>
		</g>
		<path fill="#231F20" d="M888.6,326.8c-8.6-7.1-21.2-9.2-40.7-8.3c12.4-4.4,21.9-9.6,28.9-15.7c11-9.8,16.5-21.7,16.5-35.2
			c0-14.9-7.3-27.4-21.9-37.3c-14.2-9.5-31.9-14.3-52.5-14.3c-16.1,0-30.4,3.9-42.4,11.7c-12.7,8.2-19,17.9-18.7,29.1
			c0.8,21.1,15.9,24.3,24.8,24.3h1.4c14,0,22.5-6.9,24.1-19.4l0-0.3v-0.3c0-7.2-3.4-13.4-9.8-18.1l-0.1-0.1l-0.2-0.1
			c-1.8-1.2-3-2-3.8-2.7c0.9-0.6,2.3-1.5,4.3-2.5c4.3-2.1,9.3-3.2,15-3.2c9.6,0,16.3,2.5,20.7,7.6c4.4,5,6.6,13.1,6.6,24
			c0,13.8-3.5,25-10.3,33.4c-6.1,7.3-14.5,11-25.9,11.3l-12.1,0.4v19.9h3.7c18.6,0,32.2,3.8,40.6,11.3c8.1,7.3,12.2,19.5,12.2,36.2
			c0,13.7-3.6,24.4-10.8,32l-0.1,0.1c-6.7,7.5-16,11.2-28.3,11.2c-8,0-14.9-1.1-20.5-3.4l-0.2-0.1l-0.2-0.1
			c-1.4-0.5-4.3-1.5-5.3-2.9c0.8-0.7,2.4-2,5.3-3.9c6.8-4.2,10.6-10.3,11.2-18.3l0-0.3l0-0.4c-0.9-14.1-9.6-21.9-24.4-21.9h-2.2
			c-9.7,0-26.2,3.5-27.3,27.3c-0.3,12,6.5,22.4,20.3,31.1c12.5,7.4,27.8,11.2,45.4,11.2c25,0,46.7-6.1,64.7-18.2
			c18.1-12,27.3-27.4,27.3-45.7C904.1,359.1,902.1,337.5,888.6,326.8z"/>
		<g>
			<g>
				<path fill="#F9A13A" d="M302.6,323.8c0,15.8-2.2,30.9-6.6,45.4c-4.4,14.5-10.4,26.3-18,35.3c-10.9,13-24.9,19.5-42.2,19.5
					c-4.6,0-14.6-0.8-29.9-2.4c-3.9-0.4-8.3-0.6-13.2-0.6c-5.7,0-10.4,0.3-14.3,0.9c-9.1,1.4-14.3,2.1-15.6,2.1
					c-4.8,0-8.6-2-11.6-6.1c-3-4-4.5-9.3-4.5-15.8c0-5.3,1.2-9.9,3.6-13.6c2.4-3.7,5.2-5.6,8.5-5.6c1.5,0,3.2,0.3,5.2,0.9
					s4,0.9,5.9,0.9c3.7,0,5.6-6.6,5.6-19.8V283c0-13.2-1.9-19.8-5.6-19.8c-1.2,0-3,0.3-5.5,1c-2.5,0.7-4.4,1-5.7,1
					c-3.3,0-6.1-1.9-8.5-5.6c-2.4-3.7-3.6-8.3-3.6-13.6c0-6.7,1.5-12.2,4.6-16.4c3-4.2,6.9-6.2,11.5-5.8c2.5,0.2,7.5,0.8,15,1.8
					c6.3,1,11.2,1.5,15,1.5c3.3,0,7.7-0.3,13.2-0.9l16.3-1.8c3.6-0.4,8.1-0.6,13.6-0.6c21.7,0,38.5,10.5,50.5,31.6
					C297.1,274.9,302.6,297.6,302.6,323.8z M260.8,323.8c0-22.1-3.8-38.3-11.4-48.8c-6.4-8.9-13.8-13.3-22.2-13.3
					c-4.9,0-8.3,1.1-10.1,3.3c-1.8,2.2-2.7,6.3-2.7,12.4v93.1c0,6.1,0.9,10.3,2.7,12.4c1.8,2.2,5.2,3.3,10.3,3.3
					c8.4,0,15.7-4.4,22-13.3C257,362.3,260.8,345.9,260.8,323.8z"/>
				<path fill="#F9A13A" d="M439,405.4c0,6.5-2.2,11.8-6.6,16c-4.4,4.1-9.9,6.2-16.6,6.2c-12.2,0-20.5-6.5-24.8-19.5
					c-10.4,13-22.8,19.5-37.1,19.5c-11.9,0-21.3-4.1-28.2-12.4s-10.4-19.4-10.4-33.4c0-13.6,3-23.7,8.9-30.3
					c6-6.6,16.4-11.7,31.5-15.2c10.6-2.4,17.7-5.1,21.5-8.3c3.8-3.1,5.7-7.8,5.7-13.9c0-4.7-1.4-8.6-4.3-11.7
					c-2.9-3.1-6.4-4.6-10.7-4.6c-4.7,0-7.1,2.1-7.1,6.2v5.3c0,5.5-1.7,10.1-5.2,13.7c-3.4,3.6-7.8,5.5-13,5.5
					c-5.8,0-10.7-2.4-14.7-7.1c-4-4.7-6-10.5-6-17.4c0-10.6,4.2-19,12.7-25.1c8.5-6.1,20.2-9.2,35-9.2c17.4,0,29.8,3.8,37.3,11.4
					c7.4,7.6,11.2,20.2,11.2,37.7v61.5c0,6.5,1.2,9.8,3.6,9.8l3.6-0.6c0.3-0.2,0.8-0.3,1.6-0.3c3.4,0,6.3,1.6,8.6,4.7
					C437.8,397.1,439,400.9,439,405.4z M382.9,365.3v-7.8c-2.4,2-9.1,4.7-20.2,8.1c-7.7,2.4-11.5,6.7-11.5,12.8
					c0,9.1,4.1,13.7,12.2,13.7c5.9,0,10.6-2.4,14.2-7.3C381.2,380,382.9,373.4,382.9,365.3z"/>
				<path fill="#F9A13A" d="M520,403.7c0,13.4-4.5,20.1-13.6,20.1c-2.7,0-6.7-0.5-12.1-1.5c-4.3-0.8-9.1-1.2-14.3-1.2
					c-4.5,0-8.6,0.4-12.5,1.2c-4.8,1-8.4,1.5-10.9,1.5c-4,0-7.3-1.8-9.8-5.3c-2.5-3.5-3.8-8.1-3.8-13.8c0-11.3,3.5-17,10.5-17
					c1,0,2.3,0.2,3.8,0.5c2.2,0.8,3.6,1.3,4,1.3c2.5,0,3.8-5.5,3.8-16.6V325c0-11.2-1.3-16.9-3.8-16.9l-4,1.2
					c-1,0.6-2.3,0.9-3.8,0.9c-7,0-10.5-5.7-10.5-17.1c0-5.7,1.3-10.3,3.9-13.9c2.6-3.5,6.1-5.3,10.4-5.3c1.8,0,4.1,0.3,6.9,0.9
					c4.8,1,8.8,1.5,12.1,1.5c3.3,0,6.6-0.4,10-1.2c3.4-0.8,5.7-1.2,6.7-1.2c4.2,0,6.3,3.8,6.3,11.5v88.7c0,10.3,1.5,15.4,4.5,15.4
					c0.7,0,1.8-0.3,3.1-0.9c1.3-0.6,2.6-0.9,3.8-0.9C516.9,387.7,520,393,520,403.7z"/>
				<path fill="#F9A13A" d="M500.6,235.7c0,7.5-2.4,13.8-7.2,19.1c-4.8,5.2-10.7,7.8-17.6,7.8c-6.9,0-12.8-2.7-17.6-8.1
					c-4.8-5.4-7.2-12.1-7.2-20c0-6.7,2.5-12.7,7.5-17.9c5-5.2,10.8-7.8,17.3-7.8c7.1,0,13,2.6,17.8,7.7
					C498.2,221.6,500.6,228,500.6,235.7z"/>
				<path fill="#F9A13A" d="M599.2,403.5c0,13.5-4.5,20.3-13.6,20.3c-2.4,0-6.4-0.4-12.1-1.2c-7-1-12.1-1.5-15.4-1.5
					c-4.2,0-7.7,0.3-10.7,0.9c-6,1.2-9.8,1.8-11.6,1.8c-4,0-7.3-1.8-9.8-5.3c-2.5-3.5-3.8-8.2-3.8-13.9c0-11.4,3.5-17.1,10.5-17.1
					c1,0,2.3,0.2,3.8,0.6c2.2,1,3.6,1.5,4,1.5c2.5,0,3.8-5.5,3.8-16.6v-98.5c0-11.2-1.3-16.9-3.8-16.9l-4,1.2
					c-1,0.6-2.3,0.9-3.8,0.9c-7,0-10.5-5.7-10.5-17.1c0-5.7,1.3-10.3,3.9-13.9c2.6-3.5,6.1-5.3,10.4-5.3c1.9,0,4.4,0.3,7.4,0.9
					c3.9,0.8,7.6,1.2,11.2,1.2c1.9,0,4.8-0.3,8.6-1c3.8-0.7,6.7-1,8.6-1c4.2,0,6.2,3.6,6.2,10.9v139.8c0,10.3,1.4,15.4,4.2,15.4
					c0.7,0,1.9-0.3,3.5-1c1.6-0.7,2.8-1,3.7-1C596.1,387.4,599.2,392.8,599.2,403.5z"/>
				<path fill="#F9A13A" d="M742.1,293.1c0,4.5-1,8.5-3.1,12c-2.1,3.5-4.5,5.2-7.1,5.2c-0.3,0-1.2-0.2-2.8-0.7
					c-1.6-0.5-2.6-0.7-3.2-0.7c-2.2,0-4.2,2.3-6,6.8c-0.3,1.2-0.4,1.9-0.4,2.1l-1.1,3.5l-0.9,3.5l-1.1,3.5L697,394.5
					c-5.7,19.7-9.7,32.9-12.2,39.5c-2.5,6.6-5.8,13.5-9.9,20.5c-11.6,19.9-26.3,29.9-44,29.9c-10.6,0-19.3-3.4-26.1-10.2
					c-6.8-6.8-10.3-15.4-10.3-25.9c0-6.9,1.7-12.7,5.2-17.4c3.5-4.7,7.8-7.1,13.1-7.1c4.6,0,8.4,1.8,11.4,5.5c3,3.6,4.5,8.3,4.5,14
					c0,1.2-0.2,3.3-0.7,6.5c1.9,1.2,3.9,1.8,5.8,1.8c3.9,0,7.6-3,11.3-9c3.6-6,5.5-11.5,5.5-16.6c0-1.8-1.1-6.8-3.3-15
					c-1.3-5.1-2.8-9.9-4.2-14.4l-20.8-65.4c-1.8-5.7-3.6-11.3-5.6-16.8c-1.2-2.7-2.5-4.1-4-4.1c-1.3,0-2.4,0-3.1,0
					c-0.7,0-1.5,0-2.2,0c-7.6,0-11.4-5.5-11.4-16.6c0-5.7,1.3-10.4,4-14.2c2.7-3.7,6-5.6,10-5.6c1.6,0,3.9,0.3,6.9,0.9
					c3.9,0.8,8.6,1.2,14.1,1.2c2.4,0,8-0.5,17-1.5c3-0.4,5.7-0.6,8.3-0.6c8,0,12.1,5.7,12.1,17.1c0,7.9-3.2,12.5-9.6,13.9
					c-3.1,0.6-4.7,2.3-4.7,5c0,2,0.4,4.8,1.3,8.6l15.4,63.6l15-60.9c1.3-5.5,2-9.2,2-10.9c0-2-1.2-3.5-3.6-4.7
					c-3.3-1.6-5.6-3.3-6.9-5.2c-1.3-1.9-2-5-2-9.3c0-4.9,1.1-9,3.2-12.3c2.2-3.3,4.9-4.9,8.1-4.9c2.1,0,5.1,0.4,9.2,1.2
					c3,0.6,6.9,0.9,11.8,0.9c3.4,0,7.1-0.3,10.9-0.9c5.2-0.8,8.5-1.2,9.8-1.2C737.5,273.9,742.1,280.3,742.1,293.1z"/>
			</g>
			<path fill="#9ACD66" d="M862.1,306.6c-8.6-7.1-21.2-9.2-40.7-8.3c12.4-4.4,21.9-9.6,28.9-15.7c11-9.8,16.5-21.7,16.5-35.2
				c0-14.9-7.3-27.4-21.9-37.3c-14.2-9.5-31.9-14.3-52.5-14.3c-16.1,0-30.4,3.9-42.4,11.7c-12.7,8.2-19,17.9-18.7,29.1
				c0.8,21.1,15.9,24.3,24.8,24.3h1.4c14,0,22.5-6.9,24.1-19.4l0-0.3V241c0-7.2-3.4-13.4-9.8-18.1l-0.1-0.1l-0.2-0.1
				c-1.8-1.2-3-2-3.8-2.7c0.9-0.6,2.3-1.5,4.3-2.5c4.3-2.1,9.3-3.2,15-3.2c9.6,0,16.3,2.5,20.7,7.6c4.4,5,6.6,13.1,6.6,24
				c0,13.8-3.5,25-10.3,33.4c-6.1,7.3-14.5,11-25.9,11.3L766,291v19.9h3.7c18.6,0,32.2,3.8,40.6,11.3c8.1,7.3,12.2,19.5,12.2,36.2
				c0,13.7-3.6,24.4-10.8,32l-0.1,0.1c-6.7,7.5-16,11.2-28.3,11.2c-8,0-14.9-1.1-20.5-3.4l-0.2-0.1l-0.2-0.1
				c-1.4-0.5-4.3-1.5-5.3-2.9c0.8-0.7,2.4-2,5.3-3.9c6.8-4.2,10.6-10.3,11.2-18.3l0-0.3l0-0.4c-0.9-14.1-9.6-21.9-24.4-21.9h-2.2
				c-9.7,0-26.2,3.5-27.3,27.3c-0.3,12,6.5,22.4,20.3,31.1c12.5,7.4,27.8,11.2,45.4,11.2c25,0,46.7-6.1,64.7-18.2
				c18.1-12,27.3-27.4,27.3-45.7C877.5,338.9,875.5,317.3,862.1,306.6z"/>
		</g>
	</g>
</g>
</svg>
