<svg id="uuid-13f3c253-ec64-494e-908f-92a1af4c666d" xmlns="http://www.w3.org/2000/svg" width="154.54" height="104.05" xmlns:xlink="http://www.w3.org/1999/xlink" viewBox="0 0 154.54 104.05"><defs><linearGradient id="uuid-983881d6-7235-4aca-8d11-6b51f6980a29" x1="98.28" y1="90.13" x2="120.37" y2="90.13" gradientTransform="matrix(1, 0, 0, 1, 0, 0)" gradientUnits="userSpaceOnUse"><stop offset="0" stop-color="#d9232b"/><stop offset="1" stop-color="#efad2b"/></linearGradient><linearGradient id="uuid-f5c302ef-1700-4f70-bbc4-692ab1ec9514" x1="95.97" y1="22.1" x2="118.58" y2="61.27" gradientTransform="matrix(1, 0, 0, 1, 0, 0)" gradientUnits="userSpaceOnUse"><stop offset="0" stop-color="#fff"/><stop offset="1" stop-color="#cdcdcd"/></linearGradient><linearGradient id="uuid-9086a828-7d39-49b9-85c7-891e15ddeee9" x1="10.01" y1="71.22" x2="128.68" y2="71.22" xlink:href="#uuid-f5c302ef-1700-4f70-bbc4-692ab1ec9514"/><linearGradient id="uuid-4085eaab-b0a2-4fd4-b0b9-3c866667b3c3" x1="111.36" y1="25.28" x2="130.9" y2="59.13" xlink:href="#uuid-f5c302ef-1700-4f70-bbc4-692ab1ec9514"/><linearGradient id="uuid-a44c0a15-0232-4f89-8586-ea15ecd18b2b" x1="121.36" y1="27.04" x2="139.38" y2="58.26" xlink:href="#uuid-f5c302ef-1700-4f70-bbc4-692ab1ec9514"/></defs><g id="uuid-3a76e311-bb3f-4cd1-82cc-4ca3b0a9e1bf"><path d="M62.7,104.05c-6.99,0-13.86-.38-20.43-1.13-.09-.01-.17-.03-.25-.05-3.45-1.13-4.74-3.25-5.22-4.53-.93-.1-2.81-.3-6.63-.71-3.04-.34-4.72-2.8-4.97-5.84-.1-1.35-.21-2.92-.22-4.05-6.58-1.7-18.64-8.18-20.93-11.7-.22-.34-.45-.73-.69-1.15-1.98-2.17-4.8-7.28-2.53-17.71,.62-3.2,1.25-6.44,1.87-9.67,.85-4.36,1.69-8.72,2.53-13.08,.89-4.71,3.35-8.71,7-11.46-.24-.19-.46-.41-.66-.64-1.03-1.21-1.45-2.85-1.12-4.41h0s.04-.2,.14-.99l.54-3.91c.33-2.41,2.34-4.27,4.77-4.42h.16c.1-.01,.21-.02,.31-.02,.34,0,40.55-1.87,46.39-2.38,.37-.94,1.02-2.37,1.56-3,1-1.14,2.43-1.79,3.92-1.79,.28,0,2.84,.23,4.19,.48,1.16-.64,3.76-1.87,5.71-1.91,.06,0,.13,0,.19,0,1.72,0,2.67,.66,3.35,1.15l.18,.13c.47,.32,2.59,1.85,3.39,3.63,.59-.02,1.31-.04,2.02-.06,1.11-.03,2.27-.06,2.75-.09,34.08-1.95,34.14-1.95,34.19-1.95,.86,0,2.65,.38,3.27,1.83,.43,1,.29,2.21,.14,3.49-.04,.34-.08,.7-.11,1.05,3.79,.88,16.33,4.29,21.84,11.73,6.15,8.3,5.66,14.37,4.3,22.03-1.02,5.73-3.25,11.36-6.46,16.28-2.97,5.03-7.67,10.52-12.89,15.06-4.33,3.76-10.09,7.99-14.04,9.65,.79,.45,1.63,1.05,2.44,1.82,2.41,2.32,2.86,5.24,1.22,8.01-2.19,3.84-7.59,3.68-9.32,3.68-1.54,0-3.05-.4-4.38-1.17-.64,.19-1.31,.3-1.99,.32-.84,1.01-1.96,1.9-3.33,2.64-.74,.4-5.94,1.74-7.17,1.92h0c-12.02,1.93-23.81,2.9-35.05,2.9" style="fill:#c6d100;"/><g><path d="M121.39,90.27c-.16-.14-1-.81-2.39-.86-.08-.33-.26-.64-.54-.86-.28-.22-.62-.33-.95-.33s-.64,.1-.92,.3c-.52,.38-.75,.43-.9,.43-.77,0-3.31-1.62-4.06-2.57-.75-.95-1.99-2.19-3.14-2.55-1.15-.36-1.79-.66-4.09-.66-2.3,0-4.08,.14-5.43,.8-1.35,.66-2.06,1.68-2.2,3.01-1.76,1.2-3.1,3.18-3.45,5.37-.09,.55-.1,1.09-.06,1.61-.41,.05-1.02,.13-1.61,.21-.17-2.61-.36-5.67-.37-5.98,0-.44-.19-.87-.52-1.16-.28-.25-.65-.39-1.02-.39-.06,0-.13,0-.2,.01l-2.02,.26c-.4,.05-.77,.25-1.02,.58-.25,.32-.36,.72-.31,1.13,.03,.33,.23,3.6,.38,6.21-.31,.04-.64,.08-.98,.12-.14-2.62-.3-5.69-.3-6,0-.44-.19-.86-.52-1.16-.28-.25-.65-.39-1.02-.39-.06,0-.13,0-.19,.01l-2.1,.26c-.41,.05-.78,.25-1.03,.57h0c-.29-.35-.72-.57-1.19-.57-.05,0-.1,0-.15,0l-1.64,.15c-.53,.05-1,.38-1.24,.86l-.99,2.04c-.11-.36-.28-.7-.52-1-.47-.59-1.4-1.29-3.19-1.29-.11,0-.23,0-.35,0l-2.83,.13c-.08,0-.15,.02-.22,.03-.17-.06-.35-.1-.53-.1-.03,0-.06,0-.1,0-.4,.02-1.37,.06-2.27,.06h-2.94c-.63,0-1.18,.39-1.41,.95-.61-.58-1.64-1.15-3.35-1.15h-2.8c-.16,0-.32,.03-.46,.08-.13-.04-.26-.07-.39-.08l-2.08-.11s-.06,0-.08,0c-.07,0-.14,0-.21,.02-.14-.04-.28-.07-.42-.07-.02,0-.04,0-.07,0-.49,0-3.42-.21-5.16-.35-.04,0-.08,0-.12,0-.74,0-1.38,.53-1.51,1.27l-.04,.21c-.04,.23-.09,.55-.16,.89-.05-.03-.1-.07-.15-.1,.21-.44,.19-.96-.05-1.39-.24-.44-.68-.73-1.18-.79l-1.1-.12c-.06,0-.11-.01-.17-.01-.5,0-.97,.24-1.26,.66-.05,.06-.11,.15-.16,.21h-.01l-.78-.09c-.32-.46-.82-.77-1.4-.83-.08,0-.15-.01-.23-.01h0c-.86,0-1.65,.53-2.01,1.32l-.18-.02c-.05,0-.11,0-.16,0-.15,0-.31,.02-.45,.07-.18-.11-.39-.18-.61-.2l-.48-.05c-.06,0-.11,0-.17,0h0c-.15,0-.31,.02-.45,.07-.18-.1-.37-.16-.58-.18l-1.11-.12c-.06,0-.11,0-.17,0-.43,0-.84,.18-1.14,.5-.33,.36-.47,.86-.37,1.35,.02,.1,.03,.25,.04,.43l.23,2.79c.06,.73,.63,1.32,1.36,1.4l.21,.02c.06,0,.11,0,.17,0h0c.27,0,.54-.07,.77-.21,.23,.22,.54,.36,.87,.4l.19,.02c.06,0,.11,0,.17,0h0c.3,0,.59-.09,.84-.25,.23,.2,.52,.33,.83,.36l1,.11c.06,0,.11,0,.17,0,.24,0,.47-.06,.67-.16,.34,.23,.75,.39,1.21,.44,.2,.02,.37,.03,.51,.03h.1s.09,0,.13,0c.06,0,.11,0,.17-.01,.09,.03,.18,.05,.27,.06l1.01,.11c.06,0,.11,.01,.17,.01,.12,0,.24-.01,.35-.04,.16,.08,.33,.13,.51,.15l.97,.11c-.11,.45-.3,1.13-.61,2.12-.14,.44-.07,.92,.19,1.31,.26,.38,.67,.63,1.14,.68l2.15,.2s.1,0,.14,0c.74,0,1.38-.53,1.51-1.27,.09-.49,.31-1.71,.52-2.56l.02-.09c.35,0,.65,0,.89,.01-.22,.87-.51,1.93-.61,2.23-.14,.45-.06,.94,.21,1.33,.27,.39,.71,.63,1.18,.66l2.09,.11s.06,0,.08,0c.11,0,.23-.02,.33-.04,.18,.08,.37,.12,.56,.13,0,0,2.08,.06,2.1,.06,.66,0,1.23-.42,1.45-1.02,.07,.16,.14,.3,.21,.42,.27,.47,.77,.76,1.31,.77,0,0,2.46,.03,2.47,.03,.02,0,.04,0,.06,0,.03,0,.05,0,.08,0h2.91c.91,0,1.86,.03,2.23,.05,.03,0,.07,0,.1,0,.14,0,.28-.02,.41-.06,.13,.04,.27,.06,.42,.06,0,0,2.91-.06,2.92-.06,.74-.04,1.46-.19,2.11-.44,.27,.22,.62,.35,.98,.35,.04,0,.08,0,.12,0l2.14-.17c.53-.04,1-.36,1.25-.83,.12-.24,.58-1.09,.91-1.72l.99-.12c.08,.43,.14,.79,.15,.94,.04,.41,.25,.79,.57,1.04,.27,.22,.61,.33,.96,.33,.06,0,.12,0,.19-.01l2.43-.3c.11-.01,.22-.04,.32-.08,.01,0,.02,0,.03,0,.07,0,.14,0,.2-.01,2.36-.32,5.04-.65,5.46-.67h.04c.18,0,.36-.04,.52-.1,.03,0,.05,0,.08,0,2.36-.37,5.05-.76,5.46-.78h.03c.42,0,.82-.17,1.11-.48,.14-.14,.24-.32,.31-.5,.77,.51,1.69,.78,2.68,.78h0c.17,0,.34,0,.51-.02,1.15-.11,2.26-.56,3.24-1.25,.18,.07,.37,.11,.57,.11,.25,0,.5-.06,.73-.19,.64-.35,1.52-.92,2.06-1.69,.77-1.07,1.42-1.2,1.51-1.22,.39,0,.76-.16,1.03-.42,.26,.06,.52,.1,.78,.1,.9,0,1.61-.4,1.98-.78,.25-.26,.39-.58,.42-.92,.05-.02,.09-.04,.14-.06,.11,.11,.25,.21,.39,.28,.02,.01,.04,.02,.07,.03,.02,.04,.03,.09,.05,.13,.42,.8,1.65,2.16,3.58,2.16,.91,0,1.85-.3,2.8-.9,.06-.04,.11-.07,.16-.12,.51-.42,1.4-.93,1.77-.96,.15,.04,.3,.07,.45,.07,.53,0,1.04-.28,1.33-.76,.37-.63,.25-1.44-.3-1.93" style="fill:#fff;"/><g><path d="M36.08,90.7l.1-.14-.6-.07-.09,.15-.32-.04c-.03,.06-.11,.18-.22,.32l-.84,1.15-.12-1.13v-.62l-.5-.06-.42,.62-.81,1-.03-1.14c0-.15,0-.3,.02-.45l-.33-.04v-.15l-.61-.07v.15l-.17-.02c.05,.22,.06,.46,.08,.72l.04,.5-.07,2.06,.24,.03v.1l.22,.02,.07-.09h.02l.13-.19,1.32-1.6,.22,1.69v.29h.04v.1l.21,.02,.07-.09,.24,.03,1.88-2.71c.1-.11,.19-.23,.28-.32h-.06Z" style="fill:#123d66;"/><g><path d="M37.41,90.7l-.61-.07-.05,.15-.25-.03c-.1,.16-.28,.39-.41,.51l.34,.04-.66,1.93c-.08,.24-.19,.55-.26,.69l1,.11c.03-.13,.13-.45,.22-.7l.61-1.78c.08-.25,.19-.54,.26-.69l-.23-.03,.05-.15Z" style="fill:#123d66;"/><path d="M37.59,89.32c-.29-.03-.6,.17-.7,.47-.1,.29,.05,.54,.34,.57,.29,.03,.6-.17,.69-.45,.1-.29-.05-.55-.34-.58Z" style="fill:#123d66;"/></g><path d="M39.19,91.85l.86,.09,.26-.77-.33-.04,.05-.15-.53-.06,.03-.08c.08-.23,.16-.45,.23-.61l-.36-.04,.09-.25-.65,.09-.03,.09h-.03c-.04,.16-.11,.39-.19,.61l-.03,.08-.51-.06-.16,.46h.04l-.16,.47,.46,.05-.42,1.24c-.02,.07-.03,.13-.05,.19-.11,.34-.13,.62-.03,.8,.09,.18,.29,.29,.57,.33,.04,0,.07,0,.11,0,.04,0,.09,.02,.13,.03,.25,.03,.44,0,.58,.02l.27-.81c-.06,.04-.22,.05-.31,.03-.28-.03-.41-.22-.26-.67l.36-1.05Z" style="fill:#123d66;"/><path d="M42.88,91.42c-.16-.15-.37-.23-.55-.25-.16-.02-.32,0-.48,.05l.35-1.03c.08-.24,.17-.49,.27-.69l-1.1-.12s-.06,.09-.11,.15h-.12l-.1,.27s-.06,.07-.09,.1h.05l-1.52,4.47,.26,.03v.02l1,.11c.04-.19,.14-.51,.2-.7l.37-1.1c.14-.41,.42-.66,.79-.62,.19,.02,.3,.13,.34,.29-.02,.1-.04,.21-.08,.32l-.65,1.9h.06v.02l1,.11c.04-.19,.14-.51,.21-.7l.37-1.09c.27-.78,.14-1.38-.5-1.54Z" style="fill:#123d66;"/></g><g><path d="M43.46,98.84c.13-.42,.47-1.53,.69-2.46l1.08-4.45c.23-.94,.42-2.12,.49-2.52,0,0,4.91,.38,5.34,.35l-.42,1.73c-.42-.04-1.36-.05-2.29-.05h-.93l-.58,2.06h.8c.91,0,1.64-.03,2.06-.05l-.42,1.73c-.4-.04-1.13-.05-2.03-.05h-.8l-.31,1.26c-.22,.93-.46,2.24-.54,2.66l-2.15-.2Z" style="fill:#123d66;"/><path d="M52.18,96.38c-.22,.93-.61,2.66-.68,3.09l-2.09-.11c.13-.42,.57-2.05,.79-2.97l1.08-4.45c.22-.93,.34-1.72,.41-2.13l2.08,.11c-.13,.41-.29,1.09-.52,2.01l-1.08,4.45Z" style="fill:#123d66;"/><path d="M55.07,96.84c-.22,.93-.52,2.35-.58,2.77l-2.05-.06c.13-.42,.43-1.79,.66-2.72l1.09-4.48c.22-.93,.47-2.03,.54-2.44h2.8c2.25,0,3.19,1.22,2.78,2.91-.36,1.47-1.4,2.22-2.47,2.53,.78,1.2,1.19,3.37,2.1,4.44l-2.45-.03c-.43-.73-1.12-2.94-1.42-4.1-.1,.01-.18,.01-.26,.01h-.45l-.28,1.14Zm.62-2.54h.75c.89,0,1.65-.58,1.85-1.4,.18-.74-.19-1.42-1.25-1.42h-.67l-.68,2.82Z" style="fill:#123d66;"/><path d="M62.38,98.18h1c.95,0,1.94-.01,2.36-.04l-.42,1.73c-.41-.03-1.39-.05-2.33-.05h-2.91c.21-.75,2.13-9.28,2.2-9.69h2.94c.93,0,1.93-.04,2.36-.07l-.42,1.74c-.41-.04-1.4-.05-2.33-.05h-.89l-.49,2.03h.78c.93,0,1.85-.03,2.28-.05l-.42,1.73c-.42-.03-1.32-.05-2.25-.05h-.78l-.66,2.79Z" style="fill:#123d66;"/><path d="M66.14,99.87c.14-.44,.43-1.58,.66-2.55l.99-4.29c.23-.98,.56-2.47,.61-2.9l2.83-.13c2.24-.11,2.79,1.06,2.52,2.22-.21,.91-.86,1.61-1.59,1.94,.8,.29,1.5,1.1,1.19,2.42-.37,1.59-1.96,3.12-4.36,3.24l-2.85,.06Zm2.45-1.72l.67-.03c1.04-.05,1.86-.58,2.07-1.5,.21-.91-.35-1.42-1.31-1.37l-.77,.04-.66,2.87Zm1-4.35l.68-.03c.67-.03,1.29-.45,1.46-1.18,.16-.7-.3-1.1-1.06-1.06l-.56,.03-.52,2.25Z" style="fill:#123d66;"/><path d="M79.25,99.2c-.03-.33-.17-1.07-.25-1.49l-.19-.99-3.21,.39s-1.09,2.05-1.3,2.44l-2.14,.17c.47-.67,1-1.42,1.51-2.28l3.92-8.06,1.64-.15,1.76,7.32c.19,.76,.48,1.81,.68,2.35l-2.43,.3Zm-1.38-6.42l-1.27,2.59,1.92-.23-.65-2.36Z" style="fill:#123d66;"/><path d="M84.15,96.69s3.22-.42,3.62-.44l.14,1.88c-.41-.03-5.7,.68-5.7,.68-.02-.75-.51-9.19-.56-9.6l2.1-.26c0,.41,.39,7.74,.39,7.74" style="fill:#123d66;"/><path d="M90.22,95.92s3.19-.45,3.6-.47l.2,1.8c-.41-.03-5.73,.8-5.73,.8-.02-.75-.51-9.19-.56-9.6l2.02-.26c0,.41,.48,7.74,.48,7.74" style="fill:#123d66;"/></g><g><path d="M105.82,92.24s.34-.76,1.17-.76c.24,0,.53,.07,.86,.24,0,0,1.02,.71,1.59,.45,0,0-.68,.7-1.92,0-1.24-.7-1.69,.07-1.69,.07m.05-6.62s.45-.77,1.69-.07c1.24,.7,1.92,0,1.92,0-.57,.26-1.59-.45-1.59-.45-.33-.17-.62-.24-.86-.24-.83,0-1.17,.76-1.17,.76m-6.27-.25c-1.21,.55-1.32,1.63-1.32,2.01h.02c.05-.3,.26-.97,1.26-1.37,1.29-.52,1.48-1.64,1.48-1.64-.31,.68-1.44,1.01-1.44,1.01m-.87,1.8c.47-.2,.96-.35,1.46-.43,.1-.02,.2-.02,.29-.02,1.66-1,2.73-.96,2.73-.96-.65,.2-1.14,.77-1.52,1.09,.64,.17,1.21,.49,1.68,.94,2.3-.67,4.54,.42,4.54,.42-.74,.02-2.27,.42-3.68,.84,.37,.84,.48,1.82,.32,2.87-.24,1.5-1.03,2.91-2.1,3.96,.64-.35,1.23-.79,1.55-1.23,1.37-1.91,2.74-1.86,2.74-1.86-1.49-.74-2.26,.27-2.28,.3,2.65-3.59,5.97-2.22,5.97-2.22-.35-.98-.95-.92-.95-.92,1.12-.52,2.71,1.2,2.71,1.2,3.88,1.95,5.32-1.41,5.32-1.41-1.8,1.34-2.92,.99-6.84-2.17-3.92-3.16-7.01-1.13-7.01-1.13,.38-1.16,1.8-1.57,1.8-1.57-.32-.03-.63-.04-.92-.04-2.79,0-4.72,1.22-5.8,2.32m17.72,4.63c-2.46,1.68-3.47,.19-3.47,.19,0,0,1.31,2.49,4.2,.67,0,0,2.01-1.66,3.19-1.24,0,0-.54-.48-1.52-.48-.63,0-1.44,.2-2.41,.86" style="fill:url(#uuid-983881d6-7235-4aca-8d11-6b51f6980a29);"/><path d="M100.03,87.34c-2.45,.22-4.77,2.58-5.2,5.26-.43,2.68,1.21,4.67,3.66,4.44,2.45-.23,4.77-2.58,5.2-5.26,.43-2.68-1.21-4.67-3.66-4.44" style="fill:#e20613;"/></g></g><path d="M148.35,21.67c-5.65-7.63-19.59-11.01-22.15-11.48,0-1.98,.6-3.94,.13-5.05-.34-.79-1.5-1.05-2.09-1.05-.08,0-34.12,1.95-34.12,1.95-1.02,.06-4.57,.12-5.75,.18-.01,0-.1-.27-.11-.32-.31-1.43-2.38-3.07-3.11-3.57-.73-.5-1.41-1.09-2.97-1.05-2.06,.05-5.27,1.8-5.53,1.99-.58-.22-4.02-.56-4.4-.56-1.13,0-2.2,.49-2.95,1.35-.54,.62-1.43,2.79-1.59,3.32-.09,.32-46.71,2.49-47.33,2.49-.08,0-.15,0-.23,0h-.16c-1.83,.12-3.33,1.5-3.58,3.32l-.54,3.9c-.11,.79-.15,1.03-.16,1.08-.25,1.17,.06,2.39,.84,3.3,.6,.7,1.42,1.14,2.3,1.29-4.32,2.46-7.37,6.65-8.36,11.89-.84,4.36-1.69,8.72-2.53,13.08-.63,3.23-1.25,6.46-1.88,9.7-2.11,9.71,.32,14.81,2.64,16.99,1.56,1.47,6.29,5.93,25.52,9.05,10.29,1.67,22.8,2.63,34.33,2.63,6.71,0,12.72-.31,17.86-.93,12.38-1.48,22.75-3.17,30.83-5.02,12.04-3.03,18.86-7.25,20.89-8.71,2.03-1.46,6.41-5.99,8.53-8.4,4.94-5.63,8.39-12.85,9.72-20.35,1.4-7.91,1.59-13.41-4.07-21.05" style="fill:#123d66;"/><g><path d="M20.61,36.33c-1.39,7.31-2.83,14.6-4.26,21.9-.19,.9-.55,2.82,.86,2.83,1.39,0,1.67-1.86,1.91-2.85,.58-2.97,1.17-5.94,1.75-8.92,2.25-.04,4.5-.08,6.75-.14-.62,3.16-1.25,6.32-1.88,9.47-.93,4.8-4.76,7.52-9.53,7.55-4.54,.03-7.52-2.53-6.57-7.24,1.47-7.6,2.95-15.2,4.42-22.81,.91-4.81,4.66-7.75,9.46-8.05,4.74-.29,7.67,2.41,6.73,7.27-.57,3.08-1.15,6.16-1.74,9.24-2.25,.07-4.51,.12-6.76,.17,.55-2.85,1.1-5.7,1.63-8.55,.18-.82,.66-3.06-.85-2.95-1.36,.1-1.77,1.99-1.93,3.07" style="fill:#c6d100;"/><path d="M35.47,27.81c4.56-.3,9.12-.61,13.69-.91-1.55,12.71-3.22,25.39-4.93,38.07-2.09,.13-4.19,.25-6.28,.38,.51-3.85,1.03-7.7,1.56-11.56-1.34,.1-2.68,.19-4.02,.28-.99,3.86-1.99,7.72-2.97,11.58-2.29,.06-4.58,.09-6.87,.07,3.34-12.62,6.63-25.25,9.83-37.91m1.29,20.97c1.19-.08,2.38-.17,3.57-.26,.74-5.38,1.41-10.78,2.09-16.17-.68,.05-1.02,.07-1.7,.12-1.3,5.44-2.59,10.88-3.96,16.31" style="fill:#c6d100;"/><path d="M47.11,57.53c.53-2.57,1.06-5.15,1.59-7.72,2.22-.19,4.43-.38,6.65-.57-.5,2.43-1.01,4.85-1.51,7.28-.23,.87-.69,2.99,.81,2.89,1.54-.11,2.03-1.92,2.25-3.17,.37-1.8,.74-3.6,1.11-5.39,.89-4.05-4.91-4.9-6.59-7.59-.85-1.69-.66-3.49-.4-5.31,.25-1.35,.5-2.71,.76-4.07,.89-4.86,4.45-7.93,9.35-8.25,4.62-.3,7.37,2.41,6.44,7.1-.38,2-.75,3.99-1.13,5.99-2.23,.17-4.47,.31-6.7,.47,.34-1.82,.69-3.64,1.03-5.46,.14-.67,.77-3.03-.62-2.94-1.37,.08-1.66,2.08-1.82,3.11-.26,1.38-.52,2.75-.78,4.13-.58,3.4,4.17,4.37,6.05,6.18,1.73,1.68,1.43,4.12,1.11,6.29-.35,1.85-.7,3.7-1.04,5.56-.94,5.08-5.13,8.32-10.16,8.78-4.82,.44-7.39-2.62-6.39-7.3" style="fill:#c6d100;"/><path d="M82.92,43.49c.72-4.04,2.2-7.92,4.24-11.43,.51-2.57,1.02-5.14,1.51-7.71-2.22,.14-4.43,.28-6.64,.43-.99,5.1-1.96,10.21-2.94,15.31-1.16,.09-1.74,.14-2.9,.24,.98-5.12,1.95-10.24,2.94-15.36-2.27,.15-4.54,.29-6.81,.44-2.4,12.49-4.75,24.98-7.09,37.48,2.3-.41,4.59-.88,6.88-1.38,1-5.29,2.08-10.56,3.06-15.86,1.16-.1,1.74-.15,2.89-.25-.96,5.16-2.07,10.29-3.05,15.44,2.21-.52,4.41-1.08,6.61-1.64,.41-1.99,.82-3.97,1.23-5.96-.55-2.97-.57-6.25,.05-9.74" style="fill:#c6d100;"/></g><g><path d="M111.9,15.63c-12.6,.86-24.89,13.23-27.44,27.62-2.55,14.39,5.59,25.35,18.19,24.49,12.6-.86,24.89-13.23,27.44-27.62,2.46-13.86-5-24.54-16.81-24.54-.45,0-.91,.01-1.38,.05" style="fill:url(#uuid-f5c302ef-1700-4f70-bbc4-692ab1ec9514);"/><path d="M100.17,30.34c.84-4.36,2.27-8.66,10.23-9.17,7.9-.51,7.74,3.71,6.98,7.66l-.89,4.62c-.69,3.54-1.91,5.54-3.97,6.33,2.18,.72,2.84,2.86,2.03,7.07l-1.09,5.64c-1.02,5.28-5,8.28-10.42,8.63-5.67,.36-8.69-2.18-7.67-7.46l1.08-5.59,7.12-.46-.99,5.13c-.51,2.62-.04,2.99,1.35,2.9,1.57-.1,2-.79,2.45-3.15l.84-4.36c.59-3.03,.51-4.8-1.36-4.68l-3.92,.25,1.04-5.39,4.16-.27c.85-.05,1.4-.75,1.65-2.08l1.6-8.26c.21-1.08-.11-1.56-.96-1.51-.78,.05-1.43,.6-1.63,1.68l-1.21,6.26-7.24,.47,.82-4.26Z" style="fill:#123d66;"/><path d="M10.01,68.86c8.21,7.74,49.1,11.4,71.52,8.71s41.94-6.53,47.15-11.43c-3.63,3-17.04,6.72-28.84,6.11-11.8-.61-17.52-8.26-17.52-8.26-12.1,5.05-52.97,8.33-72.31,4.87" style="fill:url(#uuid-9086a828-7d39-49b9-85c7-891e15ddeee9);"/><path d="M129.28,21.85c4.73,4.18,7.01,11.35,5.53,19.74-2.24,12.61-12.24,23.61-23.17,26.12,12.07-.95,23.8-12.8,26.25-26.59,2.17-12.22-3.67-21.87-13.4-23.42,1.85,1.05,3.47,2.45,4.79,4.15" style="fill:url(#uuid-4085eaab-b0a2-4fd4-b0b9-3c866667b3c3);"/><path d="M137.14,24.13c4.23,3.74,6.28,10.16,4.95,17.67-2,11.29-9.79,21.95-19.57,24.19,10.81-.85,20.13-12.27,22.32-24.62,1.94-10.94-3.29-19.57-11.99-20.96,1.66,.94,3.1,2.19,4.29,3.72" style="fill:url(#uuid-a44c0a15-0232-4f89-8586-ea15ecd18b2b);"/></g><g><path d="M80.85,8.73s-1.08,.31-1.16,.37c-.08,.06-.74,.22-.91,.23-.17,0-.72-.04-.84-.02-.11,.02-.5,.07-.6,.11-.1,.04-.38,.16-.38,.16,0,0-.14,.16-.16,.23-.02,.07-.02,.15-.02,.15,0,0,.28-.05,.53-.01,.25,.04,.68,.07,.9,.13s.55-.04,.73-.13c.18-.08,.68-.52,.74-.55,.06-.03,.49-.47,1.17-.67" style="fill:#fff;"/><path d="M81.3,9.31s.46-.21,.7-.23c.24-.01,.54-.05,.88,.08,.33,.14,.49,.37,.75,.37,.25,0,.62-.11,.7-.17,.09-.06-.42,.26-.48,.88-.06,.62-.07,1.1-.16,1.31-.09,.21-.54,.79-.93,.99-.39,.2-1.65,.71-1.79,.85-.14,.14-.57,.64-.57,.64l-1.25-.62,.18-2.28s1.18-1.42,1.96-1.82" style="fill:#fff;"/><path d="M80.39,14.1h-.01l-1.25-.63s-.04-.04-.03-.06l.18-2.28s0-.03,.02-.04c.05-.06,1.2-1.43,1.98-1.84h0s.48-.22,.73-.24c.02,0,.05,0,.07,0,.23-.02,.52-.04,.83,.09,.14,.06,.25,.13,.35,.2,.13,.09,.24,.16,.37,.16,.24,0,.59-.1,.66-.15h0s.03-.02,.03-.02c.03,0,.06,.01,.07,.04,0,.02,0,.06-.04,.09h0c-.06,.05-.4,.33-.44,.82-.02,.17-.03,.33-.04,.48-.03,.4-.05,.69-.12,.85-.1,.24-.57,.83-.97,1.03-.15,.08-.42,.2-.71,.32-.42,.18-.99,.44-1.06,.51-.13,.14-.56,.63-.56,.64-.02,.02-.05,.03-.07,.03m-1.16-.74l1.17,.58c.11-.13,.42-.49,.53-.6,.09-.09,.5-.27,1.11-.55,.29-.13,.56-.24,.7-.32,.38-.2,.82-.77,.9-.95,.06-.14,.08-.44,.11-.81,.01-.14,.02-.31,.04-.48,.03-.31,.16-.54,.29-.7-.14,.04-.31,.07-.45,.07-.17,0-.3-.08-.44-.18-.09-.06-.2-.13-.33-.19-.28-.12-.54-.1-.77-.08-.03,0-.05,0-.08,0-.22,.01-.65,.21-.68,.22-.71,.37-1.78,1.62-1.92,1.78l-.18,2.22Z" style="fill:#7b7b7e;"/><path d="M64.8,13.16c-.62-.37-1.28-.6-2-.22-.67,.35-1.33,.79-1.93,1.26-.5,.39-.85,.98-1.22,1.48-.42,.58-.69,1.08-.96,1.74-.07,.17-.13,.34-.21,.51-.02,.05-.15,.24-.14,.29,.02,.22,.91,.22,1.09,.23,.37,.03,.74,.12,1.11,.03,.48-.11,.96-.31,1.42-.47,.87-.31,1.75-.6,2.62-.89,.18-.06,.64-.12,.78-.26,.07-.07,.05-.12,.03-.24-.13-1.17-.39-2.32-.6-3.47" style="fill:#c6d100;"/><path d="M58.57,18.44c-.18-.04-.29-.11-.3-.21,0-.05,.03-.12,.11-.24,.02-.03,.04-.06,.04-.08,.06-.14,.11-.28,.17-.41l.04-.1c.27-.68,.55-1.19,.97-1.76,.08-.1,.15-.21,.23-.32,.3-.42,.61-.86,1.01-1.18,.64-.5,1.32-.94,1.94-1.26,.8-.42,1.52-.1,2.07,.22,.02,0,.03,.02,.03,.04,.05,.27,.1,.54,.16,.81,.17,.87,.35,1.77,.45,2.66,0,.02,0,.04,0,.05,.01,.08,.02,.16-.06,.24-.11,.11-.37,.17-.6,.22-.08,.02-.16,.04-.21,.05l-.07,.02c-.84,.28-1.7,.56-2.55,.86-.11,.04-.23,.08-.34,.13-.35,.13-.72,.27-1.09,.35-.3,.07-.59,.03-.87,0-.08,0-.17-.02-.26-.03-.03,0-.08,0-.14,0-.3-.01-.54-.03-.72-.07m-.16-.23s.15,.13,.89,.16c.06,0,.11,0,.14,0,.09,0,.18,.02,.26,.03,.28,.03,.55,.07,.83,0,.36-.08,.72-.22,1.07-.35,.11-.04,.23-.09,.34-.13,.85-.3,1.71-.59,2.55-.86l.07-.02c.06-.02,.13-.04,.22-.06,.19-.04,.44-.1,.53-.18,.03-.03,.03-.04,.02-.12v-.06c-.11-.89-.28-1.78-.45-2.65-.05-.26-.1-.52-.15-.78-.54-.32-1.19-.58-1.91-.21-.62,.32-1.28,.75-1.92,1.25-.39,.3-.69,.73-.98,1.14-.08,.11-.15,.22-.23,.33-.41,.56-.68,1.05-.95,1.72l-.04,.1c-.05,.14-.11,.28-.17,.42,0,.02-.03,.05-.05,.09-.03,.04-.08,.13-.09,.16" style="fill:#7b7b7e;"/><path d="M58.35,18.23s-.02,0-.03-.02c-.02-.03-.02-.07,0-.1,.38-.34,2.89-2.42,3.56-2.81,.62-.36,2.28-.83,2.37-.81,.04,0,.06,.05,.05,.08,0,.03-.04,.05-.07,.05-.11,.02-1.67,.43-2.28,.79-.66,.39-3.15,2.45-3.53,2.79-.02,.02-.04,.02-.06,.02" style="fill:#7b7b7e;"/><path d="M69.75,17.71c-.6,.13-1.2,.26-1.78,.48-.53,.2-.9,.59-1.31,.97-.36,.33-.69,.67-.88,1.12-.22,.53-.31,1.1-.53,1.64-.21,.52-.34,.9-.31,1.44,0,.13,.04,1.18,.19,1.15,.08-.02,.34-.69,.39-.76,.25-.38,.62-.71,.98-.98,.62-.45,1.39-.53,2.06-.87,.46-.24,1.13-.6,1.44-1.04,.25-.35,.4-.84,.59-1.24l-.84-1.91Z" style="fill:#c6d100;"/><path d="M65.09,24.58s-.03,0-.04-.02c-.07-.05-.14-.23-.18-1.15v-.05c-.03-.56,.11-.96,.32-1.47,.1-.26,.18-.53,.25-.79,.08-.28,.16-.58,.28-.85,.21-.49,.57-.85,.9-1.15,.06-.05,.11-.1,.16-.15,.36-.33,.7-.65,1.17-.83,.52-.2,1.06-.32,1.59-.44l.2-.04s.06,0,.07,.04l.84,1.91s0,.04,0,.06c-.06,.12-.11,.25-.16,.39-.12,.3-.25,.61-.43,.86-.33,.46-1.04,.84-1.47,1.06-.29,.15-.59,.25-.89,.35-.42,.14-.81,.27-1.16,.52-.29,.21-.7,.55-.97,.96-.01,.02-.05,.11-.09,.2-.21,.47-.27,.58-.35,.6-.01,0-.03,0-.04,0m4.62-6.79l-.15,.03c-.52,.12-1.06,.24-1.57,.43-.45,.17-.78,.48-1.13,.8-.05,.05-.11,.1-.16,.15-.4,.37-.69,.68-.86,1.1-.11,.27-.19,.56-.27,.84-.07,.26-.15,.54-.26,.8-.2,.51-.34,.88-.31,1.41v.05c.03,.72,.09,.95,.12,1.02,.06-.09,.18-.35,.23-.49,.06-.13,.09-.19,.1-.22,.28-.42,.7-.78,1-1,.37-.27,.79-.41,1.2-.54,.29-.09,.59-.19,.86-.34,.41-.22,1.11-.58,1.42-1.01,.17-.24,.29-.54,.41-.83,.05-.13,.1-.25,.15-.36l-.8-1.83Z" style="fill:#7b7b7e;"/><path d="M65.06,24.58s-.04-.02-.05-.05c-.09-.34,.52-2.29,.79-2.78,.27-.48,.83-1.11,1.67-1.87,.79-.71,2.05-1.3,2.06-1.31,.04-.02,.07,0,.09,.03,.01,.03,0,.08-.04,.09-.01,0-1.25,.59-2.02,1.29-.82,.74-1.39,1.37-1.64,1.83-.26,.48-.85,2.4-.77,2.68,0,.04-.01,.08-.05,.09-.01,0-.02,0-.04,0" style="fill:#7b7b7e;"/><path d="M69.63,13.14c.03,.24-.21,.53-.34,.71-.45,.62-.91,1.2-1.29,1.88-.49,.87-1.08,1.89-1.17,2.88-.1,1.16,.13,2.55,.63,3.57,.36,.73,.84,1.42,1.26,2.11,.47,.77,.98,1.53,1.4,2.33-.03-.96,.05-1.87,.26-2.82,.14-.63,.43-1.11,.8-1.64,.29-.42,.71-.88,.88-1.36,.13-.38,.03-.86,0-1.24-.03-.36-.05-.73-.11-1.08-.1-.54-.27-1.06-.41-1.59-.18-.7-.36-1.4-.54-2.1l-1.37-1.65Z" style="fill:#c6d100;"/><path d="M70.1,26.68s-.03-.02-.04-.03c-.3-.56-.64-1.12-.98-1.65-.14-.22-.28-.45-.42-.67-.12-.19-.24-.38-.36-.57-.31-.5-.64-1.01-.91-1.55-.49-.99-.74-2.4-.64-3.6,.08-.98,.65-1.97,1.14-2.85l.03-.06c.29-.51,.63-.98,.97-1.43,.11-.15,.22-.3,.33-.46,.01-.02,.03-.04,.05-.06,.12-.16,.3-.41,.28-.59,0-.03,.01-.06,.04-.08,.03-.01,.06,0,.08,.01l1.37,1.65s.01,.02,.01,.03l.54,2.1c.04,.17,.09,.34,.14,.51,.1,.35,.2,.72,.27,1.08,.05,.27,.07,.56,.09,.84,0,.08,.01,.16,.02,.25,0,.08,.02,.16,.03,.24,.04,.33,.08,.71-.03,1.03-.13,.38-.39,.72-.65,1.06-.08,.11-.16,.22-.24,.32-.37,.53-.65,1.01-.79,1.61-.2,.9-.29,1.82-.26,2.8,0,.03-.02,.06-.05,.07-.01,0-.02,0-.04,0m-.42-13.36c-.05,.18-.18,.37-.29,.51l-.05,.06c-.11,.15-.22,.31-.33,.46-.35,.47-.67,.91-.96,1.41l-.03,.06c-.49,.86-1.04,1.83-1.12,2.79-.1,1.18,.15,2.57,.63,3.53,.26,.53,.59,1.04,.9,1.53,.12,.19,.24,.38,.36,.57,.14,.22,.28,.45,.42,.67,.29,.46,.58,.93,.85,1.41,0-.89,.08-1.73,.27-2.55,.14-.63,.43-1.12,.81-1.67,.07-.11,.16-.21,.24-.32,.25-.33,.51-.66,.63-1.02,.1-.29,.05-.65,.02-.97,0-.08-.02-.16-.03-.24,0-.08-.01-.16-.02-.25-.02-.27-.04-.56-.09-.82-.07-.36-.17-.72-.27-1.07-.05-.17-.1-.34-.14-.51l-.54-2.08-1.25-1.51Z" style="fill:#7b7b7e;"/><path d="M70.09,26.58s-.03-.01-.04-.03c-.65-1.26-1.07-3.27-1.26-4.24-.19-.92,.12-3.13,.3-4.44l.02-.13c.17-1.23,1.01-3.64,1.02-3.67,.01-.04,.05-.06,.09-.05,.04,.01,.05,.05,.04,.09,0,.02-.85,2.42-1.02,3.64l-.02,.13c-.17,1.22-.48,3.5-.3,4.4,.2,.96,.61,2.97,1.25,4.21,.02,.03,0,.08-.03,.09-.02,0-.03,.01-.05,0" style="fill:#7b7b7e;"/><path d="M80.49,15.96c-.12,.76,.04,1.42,.32,2.1,.38,.93,.99,1.54,1.86,2.02,1.28,.7,3.23,1.01,3.77,2.57,.44-1.43,.54-3.47-.34-4.71-.39-.55-1.14-1.01-1.74-1.31-.37-.19-3.42-1.07-3.75-2.15l-.12,1.49Z" style="fill:#c6d100;"/><path d="M86.42,22.72s-.04-.02-.05-.04c-.39-1.12-1.52-1.58-2.61-2.03-.4-.16-.78-.32-1.12-.51-.94-.51-1.52-1.14-1.89-2.05-.33-.81-.43-1.44-.32-2.13l.12-1.49s.03-.06,.06-.07,.06,.01,.07,.04c.26,.85,2.27,1.58,3.24,1.93,.24,.09,.41,.15,.48,.19,.85,.44,1.44,.88,1.76,1.33,.88,1.23,.81,3.28,.35,4.77,0,.03-.03,.05-.06,.05,0,0-.01,0-.02,0m-5.76-7.98l-.1,1.23h0c-.1,.67,0,1.28,.31,2.07,.36,.88,.93,1.49,1.84,1.99,.33,.18,.71,.34,1.11,.5,1.06,.43,2.15,.88,2.61,1.92,.4-1.43,.42-3.31-.39-4.45-.31-.43-.89-.87-1.72-1.3-.07-.03-.24-.1-.47-.18-.9-.33-2.68-.98-3.2-1.77" style="fill:#7b7b7e;"/><path d="M86.43,22.59s-.05-.03-.05-.06c-.13-1.38-.68-2.56-1.84-3.94-1.05-1.25-2.62-2.21-2.63-2.22-.03-.02-.04-.06-.02-.09,.02-.03,.06-.04,.09-.03,.02,.01,1.59,.98,2.66,2.24,1.18,1.4,1.74,2.6,1.87,4.02,0,.04-.02,.07-.06,.08,0,0-.02,0-.03,0" style="fill:#7b7b7e;"/><path d="M78.04,19.35c.24,.41,.52,.81,.85,1.16,.51,.53,1.28,.68,1.98,.84,.77,.18,1.48,.23,2.18,.62,.27,.15,1.1,.59,1.03,1-.01-1-.33-1.92-.68-2.82-.3-.79-.84-1.28-1.49-1.77l-3.87,.99Z" style="fill:#c6d100;"/><path d="M84.06,23.03s-.05-.03-.05-.06c0-.04,0-.07,0-.11-.08-.32-.72-.68-.95-.81l-.04-.02c-.5-.28-1.02-.38-1.56-.49-.19-.04-.39-.08-.59-.12l-.13-.03c-.68-.16-1.39-.32-1.88-.83-.29-.3-.57-.69-.86-1.17-.01-.02-.01-.04,0-.06,0-.02,.03-.04,.05-.04l3.87-.99s.04,0,.06,.01c.72,.55,1.22,1.04,1.51,1.8,.32,.85,.64,1.75,.68,2.72,0,.04,.01,.09,0,.14,0,.03-.04,.06-.07,.06h-.01m-2.02-1.51c.36,.08,.7,.19,1.05,.39l.04,.03c.22,.12,.63,.35,.85,.61-.08-.84-.36-1.63-.65-2.38-.28-.72-.76-1.2-1.44-1.73l-3.74,.95c.26,.43,.53,.78,.79,1.06,.46,.48,1.15,.64,1.82,.8l.13,.03c.2,.04,.4,.08,.59,.12,.19,.04,.37,.07,.56,.11" style="fill:#7b7b7e;"/><path d="M84.03,22.79s-.04-.02-.05-.05c-.09-.58-.66-1.51-1.02-1.79-.37-.29-1.22-.75-1.72-.99-.51-.25-.88-.71-.9-.73-.02-.03-.02-.07,.01-.1,.03-.02,.07-.02,.1,0,0,0,.37,.47,.86,.7,.46,.22,1.35,.69,1.74,1,.38,.3,.97,1.26,1.07,1.88,0,.04-.02,.07-.06,.08,0,0-.02,0-.03,0" style="fill:#7b7b7e;"/><path d="M80.82,16.71c.5-.15,1.02-.32,1.49-.56,.51-.27,.88-.97,1.16-1.46,.19-.33,.03-.21-.25-.22-.4-.02-.84-.3-1.2-.45-.28-.11-.43-.19-.74-.13-.25,.05-.5,.13-.74,.21l-1.16,2.11s.09,.76,1.43,.5" style="fill:#c6d100;"/><path d="M79.94,16.8c-.13-.03-.25-.08-.35-.15-.25-.18-.28-.41-.28-.42,0-.01,0-.03,0-.04l1.16-2.11s.02-.03,.04-.03c.24-.08,.49-.16,.75-.21,.31-.06,.47,0,.71,.11l.07,.03c.1,.04,.21,.09,.32,.15,.28,.14,.58,.28,.85,.29,.07,0,.13,0,.18,0,.09,0,.16-.01,.2,.04,.04,.06,0,.14-.08,.28l-.05,.09c-.27,.48-.64,1.14-1.14,1.4-.48,.25-1,.41-1.5,.57h-.01c-.35,.07-.65,.08-.89,.02m-.48-.58c.01,.05,.06,.2,.22,.32,.24,.17,.63,.21,1.12,.11,.5-.15,1.01-.31,1.48-.56,.46-.24,.82-.88,1.08-1.34l.05-.09c.04-.07,.06-.11,.07-.13-.02,0-.04,0-.07,0-.05,0-.12,.01-.2,0-.3-.01-.62-.17-.9-.3-.11-.05-.22-.1-.32-.15l-.07-.03c-.24-.1-.37-.15-.64-.1-.24,.05-.48,.12-.7,.2l-1.13,2.06Z" style="fill:#7b7b7e;"/><path d="M80.48,15.18h0s-.06-.05-.05-.08c.01-.04,.05-.06,.08-.05h0s.78,.18,1.25,.13h.09c.47-.06,1.04-.13,1.67-.75,.03-.03,.07-.03,.1,0,.03,.03,.02,.07,0,.1-.67,.65-1.27,.72-1.76,.78h-.09c-.48,.07-1.24-.11-1.29-.12" style="fill:#7b7b7e;"/><path d="M72.65,8.02s-.25-.38-.44-.73c-.18-.35-.41-.85-.8-1-.39-.15-.74-.27-1.37-.19-.63,.08-.76,.12-1.02,.06-.26-.07-.78-.23-.78-.23,0,0,.15,.34,.06,.62-.1,.28-.75,1.18-.83,1.44-.07,.26-.31,1.04-.07,1.44,.24,.39,.95,2.05,1.21,2.21,.26,.16,3.58,1.92,4.08,1.94,.5,.03,1.44-.19,1.44-.19,0,0-.04-2.47-.04-2.7,0-.23-.62-1.75-.78-1.92-.16-.17-.68-.74-.68-.74" style="fill:#fff;"/><path d="M72.61,13.62c-.74-.17-3.79-1.8-4.02-1.94-.18-.11-.47-.69-.86-1.5-.16-.32-.29-.6-.37-.73-.25-.41-.03-1.18,.05-1.47v-.02c.05-.14,.23-.44,.43-.76,.17-.27,.35-.56,.4-.69,.09-.25-.05-.56-.05-.56-.01-.02,0-.05,.01-.08,.02-.02,.05-.03,.07-.02,0,0,.53,.16,.78,.23,.19,.05,.3,.03,.63-.01,.1-.01,.22-.03,.36-.05,.63-.08,.99,.04,1.4,.2,.38,.15,.61,.59,.79,.95l.04,.08c.17,.33,.4,.68,.43,.72,.04,.05,.53,.58,.68,.74,.15,.17,.8,1.7,.8,1.96,0,.22,.04,2.67,.04,2.7,0,.03-.02,.07-.06,.07-.04,0-.96,.22-1.46,.19-.02,0-.05,0-.09-.01m-4.25-7.59c.04,.13,.07,.34,0,.53-.05,.14-.23,.42-.41,.72-.18,.28-.38,.6-.41,.72v.02c-.08,.25-.29,1.01-.07,1.36,.08,.14,.22,.42,.38,.74,.28,.57,.65,1.35,.81,1.45,.32,.2,3.58,1.91,4.05,1.93,.41,.02,1.15-.13,1.36-.17,0-.39-.04-2.43-.04-2.64,0-.2-.61-1.71-.76-1.87-.16-.17-.68-.74-.68-.74h0s-.26-.39-.44-.74l-.04-.09c-.17-.34-.39-.75-.72-.89-.39-.15-.73-.26-1.33-.19-.14,.02-.26,.03-.35,.05-.34,.04-.47,.06-.69,0-.17-.05-.47-.13-.65-.19" style="fill:#7b7b7e;"/><path d="M69.49,11.03s.52,.41,.54,.45c.02,.03-.07,.4,.34,.67,.4,.27,.73,.77,1.03,.88,.3,.11,1.18,.21,1.38,.26l.51,.12,.4,.32s.17,.67-.03,1c-.2,.33-2.5,1.17-2.62,1.23-.13,.06-.99,.3-1.12,.39-.13,.09-.5,.33-.57,.61-.07,.28-.08,.72-.28,.78-.2,.06-1.09,.15-1.33,.1-.24-.05-.45,.06-.76-.07s-.88-.35-1.16-.54c-.28-.19-1-.92-1.33-1.53-.33-.61-.6-1.34-.49-1.7,.1-.36,.48-1.15,.8-1.45,.31-.3,.64-.73,1.49-1,.85-.27,2.5-1.44,2.54-1.5,.04-.06,.53,.87,.69,.96" style="fill:#fff;"/><path d="M67.06,17.89s-.09-.02-.14-.04c-.31-.12-.88-.35-1.17-.55-.28-.2-1.01-.93-1.35-1.55-.15-.29-.64-1.26-.5-1.75,.11-.39,.5-1.18,.82-1.48,.04-.04,.09-.08,.13-.13,.28-.29,.64-.65,1.39-.89,.82-.26,2.4-1.37,2.5-1.47,.01-.02,.04-.03,.06-.03,.06,0,.09,.03,.32,.4,.13,.21,.33,.53,.41,.58h0c.53,.42,.55,.46,.55,.47,.01,.02,.01,.04,.01,.08,0,.11,0,.36,.3,.57,.19,.13,.35,.3,.51,.46,.18,.18,.35,.36,.5,.41,.19,.07,.65,.14,.99,.19,.18,.03,.31,.05,.38,.06l.51,.12s.02,0,.03,.01l.4,.32s.02,.02,.02,.03c0,.03,.17,.71-.04,1.05-.16,.25-1.3,.73-2.4,1.16-.13,.05-.23,.09-.25,.1-.05,.03-.2,.07-.43,.14-.26,.08-.62,.2-.69,.24h0c-.13,.09-.46,.32-.53,.57-.02,.07-.03,.15-.05,.24-.04,.26-.09,.54-.29,.6-.21,.07-1.11,.15-1.37,.1-.09-.02-.17-.01-.26,0-.11,0-.23,.01-.38-.02m1.74-7.73c-.31,.26-1.75,1.23-2.52,1.48-.72,.23-1.06,.57-1.33,.85-.05,.05-.09,.09-.13,.13-.29,.28-.67,1.05-.78,1.41-.08,.29,.11,.93,.49,1.64,.31,.58,1.02,1.3,1.31,1.51,.27,.19,.84,.42,1.14,.53,.18,.07,.32,.06,.46,.05,.09,0,.19-.01,.29,0,.23,.04,1.1-.04,1.3-.1,.11-.03,.15-.27,.18-.48,.01-.08,.03-.17,.05-.25,.08-.31,.44-.55,.59-.65h0c.08-.06,.35-.15,.73-.27,.18-.06,.36-.11,.41-.14,.02-.01,.1-.04,.27-.11,.54-.21,2.18-.85,2.33-1.1,.15-.24,.07-.73,.03-.92l-.37-.3-.49-.11c-.06-.01-.2-.04-.37-.06-.34-.05-.81-.12-1.01-.2-.18-.06-.36-.25-.55-.44-.16-.16-.32-.32-.5-.44-.36-.24-.36-.56-.36-.68v-.02c-.06-.06-.33-.27-.51-.42-.1-.06-.25-.29-.45-.62-.07-.12-.16-.25-.21-.32m-.06-.12h0" style="fill:#7b7b7e;"/><path d="M73.53,16.38s.18,.44,.22,.62c.05,.17,.27,.79,.24,.9-.03,.11-.28,.79-.36,1.01-.07,.22-.45,.99-.54,1.13-.09,.14-.66,.61-.79,.72-.14,.11-.76,.62-1.44,.63s-.97,.05-1.21-.35c-.24-.4-.58-.93-.45-1.6,.12-.68,.09-1.2,.06-1.5-.03-.3-.13-1,.16-1.23,.28-.24,.47-.39,.93-.53,.45-.14,.92-.4,1.1-.54,.19-.14,2.09,.74,2.09,.74" style="fill:#fff;"/><path d="M70.05,21.44c-.19-.04-.34-.14-.46-.36l-.02-.04c-.24-.39-.56-.93-.44-1.61,.12-.65,.09-1.16,.06-1.48v-.05c-.04-.35-.11-.99,.18-1.24,.28-.23,.48-.4,.95-.54,.43-.13,.89-.39,1.08-.53,.19-.14,1.44,.4,2.16,.73,.01,0,.03,.02,.03,.03,0,.02,.18,.45,.23,.62,.01,.04,.03,.11,.06,.2,.14,.43,.2,.65,.18,.74-.02,.06-.09,.27-.18,.5-.07,.2-.15,.41-.18,.52-.07,.23-.45,1-.55,1.15-.1,.17-.73,.68-.81,.74h-.01c-.52,.42-1.02,.64-1.47,.65h-.12c-.29,0-.51,.01-.69-.03m1.59-5.72c-.08-.02-.14-.02-.17-.01-.19,.14-.67,.41-1.12,.55-.44,.13-.62,.29-.9,.52-.24,.2-.17,.82-.14,1.12v.05c.04,.33,.07,.84-.05,1.52-.12,.63,.18,1.12,.42,1.52l.02,.04c.21,.34,.45,.34,1.04,.32h.12c.42-.01,.89-.21,1.39-.61h.01c.16-.14,.7-.59,.78-.71,.09-.14,.46-.9,.53-1.12,.04-.11,.11-.32,.19-.52,.08-.21,.16-.43,.17-.49,.01-.07-.12-.49-.18-.66-.03-.08-.05-.16-.06-.2-.04-.14-.18-.49-.21-.59-.71-.33-1.49-.64-1.83-.72" style="fill:#7b7b7e;"/><path d="M78.18,4.49s.09,.12,.11,.22c.02,.1,.06,.23,.11,.23,.04,0,.25-.06,.33-.05,.08,0,.31,.02,.46,.06,.16,.05,.61,.19,.78,.36,.17,.17,.44,.61,.46,.71,.02,.1,.09,.56,.13,.81,.04,.25,.1,.69,.17,.85,.07,.16,.19,.48,.21,.57,.02,.09-.06,.44-.1,.48-.04,.04-.42,.12-.52,.15-.09,.02-.64,.23-.8,.28-.16,.05-.79,.19-.95,.17-.16-.02-.63-.02-.76-.01-.13,.01-.77,.2-.85,.26-.08,.06-.25,.28-.19,.47,.07,.19,.22,.81,.2,.95-.02,.14-.08,.56-.12,.63-.04,.07-.35,.68-.6,.9-.25,.22-.96,.56-1.1,.63-.14,.07-.55,.19-.68,.17-.13-.02-.25-.05-.28-.09s.02-2.62-.25-3.18c-.27-.57-.56-1.03-.59-1.17s-.21-.8-.11-.99c.1-.19,.66-1.15,.97-1.45,.3-.3,.68-.74,1-.89,.32-.16,.94-.51,1.17-.6,.23-.09,.7-.31,.9-.33,.2-.01,.75-.07,.88-.14" style="fill:#fff;"/><path d="M74.34,13.37c-.11-.03-.17-.06-.19-.1-.01-.02-.01-.02-.02-.4,0-.71-.03-2.37-.23-2.79-.13-.28-.27-.53-.38-.73-.12-.22-.2-.37-.22-.44v-.04c-.15-.55-.18-.86-.11-1,.1-.19,.67-1.16,.98-1.47,.06-.06,.11-.12,.17-.18,.27-.28,.58-.59,.85-.73,.12-.06,.29-.15,.47-.24,.28-.15,.56-.3,.71-.35,.06-.02,.15-.06,.24-.1,.25-.11,.53-.22,.69-.24,.29-.02,.75-.08,.85-.13,.03-.02,.07,0,.09,.02,0,0,.1,.13,.12,.24,.02,.09,.04,.15,.06,.18h.07c.11-.04,.19-.05,.25-.04,.02,0,.05,0,.08,0,.11,0,.27,.02,.39,.06,.23,.07,.64,.2,.81,.38,.17,.17,.45,.62,.48,.74,.01,.07,.04,.26,.08,.47,.02,.12,.04,.25,.05,.34l.02,.11c.04,.23,.09,.59,.15,.72,.07,.16,.19,.48,.22,.58,.03,.11-.06,.48-.12,.55-.04,.04-.14,.08-.48,.15-.03,0-.06,.01-.07,.02-.05,.01-.24,.08-.4,.14-.16,.06-.31,.12-.39,.14-.16,.05-.81,.19-.98,.17-.15-.02-.62-.02-.75,0-.14,.01-.75,.2-.81,.25-.06,.05-.21,.23-.16,.39,.05,.15,.23,.82,.2,.98v.08c-.06,.32-.1,.51-.13,.57h0c-.16,.33-.4,.74-.61,.92-.22,.19-.77,.46-1.03,.59-.04,.02-.07,.03-.09,.05-.14,.07-.57,.2-.72,.18-.05,0-.09-.02-.13-.02m-.07-.17s.07,.03,.23,.06c.1,.02,.49-.09,.63-.16,.02-.01,.05-.03,.09-.05,.24-.12,.79-.39,1-.57,.15-.13,.35-.43,.58-.86h0c.03-.07,.08-.41,.1-.54v-.08c.03-.11-.11-.71-.19-.92-.08-.23,.11-.47,.21-.55,.1-.08,.76-.26,.89-.28,.13-.01,.62,0,.78,.01,.14,.02,.76-.11,.92-.16,.07-.02,.23-.08,.38-.14,.23-.08,.37-.14,.42-.15,.02,0,.04-.01,.08-.02,.09-.02,.35-.08,.4-.11,.03-.06,.1-.35,.08-.41-.02-.09-.14-.4-.21-.56-.06-.14-.12-.49-.16-.75l-.02-.11c-.01-.09-.03-.22-.05-.34-.03-.2-.06-.4-.08-.47-.02-.09-.27-.51-.44-.68-.16-.16-.62-.3-.76-.34-.11-.03-.26-.05-.37-.05-.04,0-.07,0-.09,0-.04,0-.14,.02-.21,.03-.06,.01-.09,.02-.12,.02-.03,0-.11,0-.17-.28-.01-.05-.04-.11-.07-.15-.24,.08-.84,.12-.85,.13-.13,0-.42,.13-.64,.23-.09,.04-.18,.07-.24,.1-.14,.05-.42,.2-.69,.35-.18,.1-.35,.19-.48,.25-.25,.12-.55,.43-.81,.7-.06,.06-.12,.12-.18,.18-.29,.29-.85,1.22-.95,1.43-.03,.07-.04,.28,.11,.9v.04c.02,.06,.11,.22,.21,.41,.11,.2,.25,.46,.38,.74,.21,.45,.24,2.07,.25,2.85,0,.15,0,.29,0,.34" style="fill:#7b7b7e;"/><path d="M73.1,8.95s.15-.22,.16-.44c0-.22-.08-.49-.32-.61-.23-.12-.81-.37-1.14-.48-.33-.1-.84-.32-1-.41s-.48-.23-.67-.26c-.2-.04-.44,.05-.54,.12-.09,.08-.11,.29-.22,.32-.11,.03-.27-.11-.44-.05-.17,.06-.26,.26-.24,.4s.19,.66,.21,.8c.02,.14-.05,1.46-.07,1.53s-.03,.2-.03,.2c0,0,.19,.59,.41,.75,.22,.16,.81,.72,.98,.78,.17,.06,.59,.07,.87,.08,.27,0,.57-.1,.78,.09,.2,.19,.76,1.13,.88,1.21,.11,.08,.45,.37,.54,.37,.09,0,.33-.3,.33-.3l.03-.39s-.46-.67-.54-.82c-.08-.14-.19-.46-.35-.7-.16-.24-.34-.83-.17-1.2,.17-.37,.55-1,.55-1" style="fill:#fff;"/><path d="M73.22,13.42c-.07-.02-.19-.1-.41-.28-.06-.04-.11-.08-.14-.11-.06-.04-.18-.22-.39-.53-.18-.28-.39-.59-.49-.68-.12-.12-.29-.1-.49-.09-.08,0-.16,.01-.25,.01h-.09c-.28-.01-.63-.03-.8-.08-.11-.04-.34-.23-.64-.49-.14-.12-.28-.24-.36-.3-.24-.17-.43-.76-.44-.78,0,0,0-.02,0-.03,0,0,0-.13,.03-.21,.02-.09,.09-1.37,.07-1.5,0-.06-.05-.21-.09-.35-.06-.19-.11-.37-.12-.45-.02-.17,.09-.4,.29-.47,.12-.04,.23,0,.32,.02,.05,.02,.1,.03,.13,.02,.03,0,.06-.07,.08-.13,.03-.07,.06-.13,.11-.18,.11-.1,.39-.18,.59-.14,.22,.04,.54,.19,.69,.27,.15,.09,.66,.3,.99,.41,.33,.1,.91,.35,1.15,.48,.26,.14,.36,.44,.35,.67-.01,.23-.16,.45-.17,.48-.02,.03-.38,.64-.55,.99-.15,.32,0,.88,.16,1.13,.11,.16,.19,.35,.26,.51,.04,.08,.07,.15,.09,.2,.08,.14,.53,.81,.54,.81,0,.01,.01,.03,.01,.04l-.03,.39s0,.03-.02,.04c-.12,.15-.28,.33-.38,.32,0,0-.01,0-.02,0m-1.55-1.82c.08,.02,.15,.05,.21,.11,.11,.11,.32,.41,.51,.71,.14,.21,.31,.47,.36,.5,.03,.02,.08,.06,.14,.11,.1,.08,.3,.23,.36,.25,.04-.02,.15-.13,.26-.25l.02-.35c-.08-.11-.46-.67-.53-.8-.03-.05-.06-.13-.1-.21-.06-.15-.15-.33-.25-.48-.18-.27-.35-.88-.17-1.27,.17-.37,.54-.98,.56-1h0s.14-.21,.15-.41c0-.19-.07-.44-.28-.55-.24-.13-.81-.37-1.13-.47-.32-.1-.84-.32-1.02-.42-.15-.08-.46-.22-.65-.26-.17-.03-.4,.04-.48,.11-.03,.02-.05,.07-.07,.12-.04,.09-.08,.19-.18,.21-.07,.02-.13,0-.2-.03-.08-.02-.16-.05-.23-.02-.14,.05-.2,.22-.19,.32,0,.07,.06,.26,.11,.43,.05,.16,.09,.3,.1,.37,.02,.16-.05,1.48-.07,1.56-.02,.05-.02,.14-.03,.17,.06,.17,.22,.59,.39,.71,.09,.06,.22,.18,.37,.31,.22,.19,.5,.43,.6,.46,.15,.05,.5,.06,.76,.07h.09c.07,0,.15,0,.23,0,.12-.01,.25-.02,.37,0" style="fill:#7b7b7e;"/><path d="M75.93,20.65c-.28-.06-.55-.14-.69-.24-.2-.13-.38-.39-.54-.61-.08-.12-.16-.23-.23-.31-.25-.28-.4-.58-.45-.9-.05-.28-.19-.91-.24-1.12l-.02-.07s.02-.07,.05-.09c.04,0,.07,.01,.08,.05l.02,.08c.06,.26,.21,.75,.39,.89,.27,.2,.5,.3,.86,.35,.18,.03,.37,.02,.56,.01,.21,0,.4-.01,.57,.03,.08,.02,.16,.03,.25,.05,.23,.04,.48,.08,.94,.26,.35,.14,.52,.24,.67,.33,.11,.07,.21,.13,.38,.19,.1,.04,.22,.09,.34,.14,.34,.14,.73,.31,.92,.32,.26,.02,.74-.07,.75-.07,.04,0,.07,.01,.08,.05,0,.04-.02,.07-.05,.08-.06,.02-1.53,.48-1.74,.51-.04,0-.14,.02-.26,.04-.54,.08-1.53,.23-1.81,.18h-.06c-.19-.04-.48-.09-.76-.16m-1.83-2.34c.02,.09,.03,.18,.05,.25,.05,.3,.19,.57,.42,.83,.08,.09,.16,.2,.24,.32,.15,.22,.32,.46,.5,.58,.27,.17,1.06,.31,1.4,.37h.06c.26,.05,1.28-.1,1.77-.17,.13-.02,.22-.03,.26-.04,.1-.01,.58-.15,1.03-.29-.03,0-.05,0-.08,0-.21-.02-.61-.19-.96-.33-.12-.05-.24-.1-.33-.14-.17-.07-.28-.13-.4-.2-.14-.09-.31-.19-.65-.32-.44-.17-.69-.22-.91-.25-.09-.01-.17-.03-.26-.05-.15-.04-.34-.03-.54-.02-.19,0-.39,.01-.58-.02-.38-.06-.63-.16-.91-.38-.04-.03-.08-.08-.12-.13" style="fill:#7b7b7e;"/><path d="M80.54,20.02s-1.52,.48-1.72,.5c-.2,.02-1.71,.28-2.05,.22-.34-.06-1.19-.2-1.49-.39-.3-.19-.54-.67-.76-.91-.21-.24-.38-.52-.44-.87-.06-.35-.25-1.2-.25-1.2,0,0,.17,.8,.44,1.01,.26,.2,.5,.31,.88,.37s.81-.03,1.12,.04c.31,.07,.56,.06,1.18,.3,.62,.24,.67,.38,1.05,.53,.38,.15,1,.44,1.28,.47,.28,.02,.77-.07,.77-.07" style="fill:#fff;"/><path d="M75.93,20.65c-.28-.06-.55-.14-.69-.24-.2-.13-.38-.39-.54-.61-.08-.12-.16-.23-.23-.31-.25-.28-.4-.58-.45-.9-.05-.28-.19-.91-.24-1.12l-.02-.07s.02-.07,.05-.09c.04,0,.07,.01,.08,.05l.02,.08c.06,.26,.21,.75,.39,.89,.27,.2,.5,.3,.86,.35,.18,.03,.37,.02,.56,.01,.21,0,.4-.01,.57,.03,.08,.02,.16,.03,.25,.05,.23,.04,.48,.08,.94,.26,.35,.14,.52,.24,.67,.33,.11,.07,.21,.13,.38,.19,.1,.04,.22,.09,.34,.14,.34,.14,.73,.31,.92,.32,.26,.02,.74-.07,.75-.07,.04,0,.07,.01,.08,.05,0,.04-.02,.07-.05,.08-.06,.02-1.53,.48-1.74,.51-.04,0-.14,.02-.26,.04-.54,.08-1.53,.23-1.81,.18h-.06c-.19-.04-.48-.09-.76-.16m-1.83-2.34c.02,.09,.03,.18,.05,.25,.05,.3,.19,.57,.42,.83,.08,.09,.16,.2,.24,.32,.15,.22,.32,.46,.5,.58,.27,.17,1.06,.31,1.4,.37h.06c.26,.05,1.28-.1,1.77-.17,.13-.02,.22-.03,.26-.04,.1-.01,.58-.15,1.03-.29-.03,0-.05,0-.08,0-.21-.02-.61-.19-.96-.33-.12-.05-.24-.1-.33-.14-.17-.07-.28-.13-.4-.2-.14-.09-.31-.19-.65-.32-.44-.17-.69-.22-.91-.25-.09-.01-.17-.03-.26-.05-.15-.04-.34-.03-.54-.02-.19,0-.39,.01-.58-.02-.38-.06-.63-.16-.91-.38-.04-.03-.08-.08-.12-.13" style="fill:#7b7b7e;"/><path d="M79.96,13.01s.47,.16,.59,.52c.11,.36,.31,1.41,.67,1.86s.77,1.12,1.07,1.41c.3,.29,.54,.59,.55,.76,.02,.18-.18,.95-.24,1.13-.06,.18-.32,.47-.97,.81-.65,.34-1.25,.6-1.44,.61-.19,0-.94-.09-1.34-.26-.4-.17-1.1-.67-1.4-.75-.3-.08-.7-.23-1.06-.27-.36-.03-1.25-.03-1.47-.06-.23-.03-.82-.38-.93-.74-.11-.36-.22-.97-.31-1.22-.08-.25-.31-.6-.31-.6l.58-1.84s.22-.51,.51-.49c.29,.02,.44-.04,.84,.08,.4,.12,.97,.46,1.24,.54,.27,.08,.57,.17,.88,.07,.31-.1,.81-.5,.92-.62,.11-.12,.42-.52,.58-.61,.15-.09,.62-.41,1.04-.33" style="fill:#fff;"/><path d="M79.27,20.06c-.17-.04-.33-.09-.45-.14-.18-.08-.43-.22-.66-.36-.28-.17-.57-.34-.73-.38-.09-.02-.18-.05-.28-.08-.24-.07-.52-.16-.77-.18-.18-.02-.48-.02-.77-.03-.3,0-.59-.01-.71-.03-.26-.04-.87-.4-.99-.78-.06-.19-.12-.44-.17-.68-.05-.22-.1-.42-.14-.54-.08-.24-.3-.59-.3-.59-.01-.02-.01-.04,0-.06l.59-1.84h0s.25-.57,.58-.55c.08,0,.15,0,.22,0,.17,0,.34,0,.63,.08,.22,.07,.49,.2,.74,.32,.2,.1,.38,.19,.5,.22,.26,.08,.54,.17,.84,.07,.29-.09,.77-.47,.89-.6,.03-.03,.07-.08,.12-.13,.19-.23,.36-.43,.48-.49,.02,0,.04-.02,.06-.04,.2-.12,.62-.37,1.02-.3h0s.5,.18,.63,.56c.03,.08,.06,.2,.09,.34,.12,.46,.3,1.16,.57,1.5,.15,.19,.31,.41,.46,.63,.22,.31,.43,.6,.6,.77,.2,.2,.55,.57,.57,.8,.02,.2-.19,1-.25,1.16-.05,.15-.25,.45-1,.85-.53,.28-1.23,.61-1.47,.62-.14,0-.54-.04-.91-.12m-2.55-1.24c.16,.04,.32,.09,.47,.13,.1,.03,.19,.06,.28,.08,.17,.05,.46,.22,.76,.4,.23,.14,.47,.28,.65,.36,.39,.17,1.12,.26,1.31,.26,.17,0,.76-.26,1.41-.6,.76-.4,.9-.69,.93-.77,.06-.18,.26-.95,.24-1.1-.01-.14-.21-.41-.54-.72-.18-.17-.39-.47-.61-.79-.15-.22-.31-.44-.46-.62-.29-.36-.47-1.07-.59-1.55-.03-.13-.06-.25-.09-.33-.1-.31-.5-.46-.54-.48-.34-.06-.73,.17-.92,.28-.03,.02-.05,.03-.07,.04-.1,.06-.31,.31-.44,.46-.05,.06-.09,.11-.12,.14-.11,.12-.62,.54-.96,.64-.34,.11-.65,.01-.92-.07-.13-.04-.31-.13-.52-.23-.24-.12-.51-.25-.72-.31-.27-.08-.42-.08-.59-.08-.07,0-.14,0-.23,0-.19-.01-.38,.31-.44,.45l-.57,1.8c.05,.09,.22,.37,.3,.59,.04,.12,.09,.33,.14,.55,.05,.24,.11,.48,.17,.67,.1,.33,.69,.67,.88,.7,.11,.02,.39,.02,.69,.03,.29,0,.6,.01,.78,.03,.11,0,.22,.03,.33,.06" style="fill:#7b7b7e;"/><path d="M73.17,11.99c.03-.18,.13-.18,.14-.35s-.01-.32-.01-.32l.02-.11-.13-.16s.13,0,.2,0c.07,0,.04-.29,.06-.31,.01-.02,.35,0,.35,0,0,0-.19-.26-.18-.28,0-.02,.4,.05,.44,.04,.04-.01,.06-.34,.09-.35s.21,.26,.21,.26l.11-.34s.14,.22,.2,.24c.06,.02,.24-.04,.26-.04,.02,0-.04,.2-.03,.22s.13,.08,.13,.1c0,.01-.22,.25-.22,.26,0,.02,.32,.07,.33,.1,.01,.03-.03,.1-.03,.1l-.05,.1h-.05l.1,.07-.14,.12s.18,.1,.2,.12c.02,.02-.32,.22-.29,.26,.03,.04,.2,.12,.22,.19,.02,.07,0,.26,0,.26,0,0-.19-.24-.22-.22s0,.57,0,.57l.02,.19s-.56,.13-.58,.18c-.02,.05-.12,.29-.12,.32,0,.03,.13,.31,.13,.41,0,.1-.05,.17-.05,.17,0,0-.52-.05-.65-.04-.13,.01-.39,.06-.39,.06,0,0-.1-.17,.06-.4,.16-.23,.08-.74,0-.93-.08-.19-.13-.3-.1-.48" style="fill:#d9ac00;"/><path d="M73.19,13.87s-.03-.01-.04-.03c0,0-.12-.21,.06-.48,.13-.19,.08-.68,0-.86-.09-.19-.14-.32-.1-.52,.02-.1,.06-.16,.09-.2,.03-.04,.05-.07,.05-.14,.01-.16-.01-.3-.01-.3,0,0,0-.02,0-.02v-.08l-.1-.14s-.02-.05,0-.08c.01-.03,.04-.04,.07-.04,0,0,.1,0,.16,0,0-.04,0-.13,.01-.17,0-.06,0-.08,.01-.1,.02-.04,.03-.06,.27-.05-.12-.18-.12-.2-.11-.22,.02-.07,.07-.07,.32-.03,.05,0,.11,.01,.14,.02,0-.04,.02-.09,.02-.13,.02-.14,.03-.19,.07-.21,.05-.03,.08-.04,.22,.16l.06-.2s.03-.05,.06-.05c.03,0,.05,0,.07,.03,.07,.1,.15,.2,.17,.22,.02,0,.12-.02,.16-.03,.05-.01,.07-.02,.09-.01,.07,.02,.05,.09,.03,.18,0,.02-.01,.05-.01,.07,.01,0,.03,.02,.04,.02,.06,.04,.1,.07,.09,.12,0,.02-.01,.03-.1,.12-.02,.02-.05,.06-.08,.09h.04c.19,.06,.23,.07,.24,.11,.02,.05,0,.11-.03,.16l-.04,.07h.01s.03,.04,.03,.06c0,.02,0,.04-.03,.06l-.06,.05c.11,.06,.13,.08,.13,.08,.01,.01,.02,.04,.02,.06,0,.04-.04,.07-.14,.14-.03,.02-.08,.06-.12,.09h.01c.09,.07,.16,.12,.18,.19,.02,.08,0,.25,0,.29,0,.03-.02,.05-.05,.06-.03,0-.05,0-.07-.02-.03-.04-.07-.09-.11-.13,0,.11,0,.28,.01,.42l.02,.18s-.02,.07-.06,.08c-.22,.05-.47,.12-.53,.15v.03c-.03,.06-.09,.2-.11,.25,0,.02,.02,.05,.03,.08,.06,.14,.1,.26,.09,.33,0,.11-.06,.2-.07,.21-.01,.02-.04,.04-.07,.03-.14-.01-.54-.05-.64-.04-.13,.01-.38,.06-.38,.06,0,0-.02,0-.03,0m.18-2.56s.03,.18,.01,.33c0,.1-.05,.16-.08,.21-.03,.04-.05,.08-.06,.15-.03,.16,.01,.26,.09,.44,.09,.21,.17,.74,0,1-.09,.13-.08,.23-.07,.29,.08-.02,.24-.04,.34-.05,.11,0,.48,.02,.62,.03,0-.02,.02-.06,.02-.1,0-.05-.05-.19-.09-.27-.04-.09-.05-.12-.04-.14,0-.02,.02-.07,.1-.29l.02-.05s.03-.08,.57-.21v-.12c-.05-.61-.02-.62,.03-.65,.03-.02,.06-.03,.19,.11,0-.02,0-.04,0-.06,0-.03-.09-.08-.13-.11-.04-.03-.06-.04-.08-.06-.01-.02-.02-.04-.02-.06,0-.05,.06-.1,.21-.2l.04-.03s-.08-.05-.13-.07c-.02-.01-.03-.03-.03-.05,0-.02,0-.04,.03-.06l.06-.05h-.02s-.04-.05-.03-.08c0-.03,.03-.05,.06-.06h.02l.03-.07s0-.02,.01-.03c-.04-.01-.1-.03-.14-.04-.14-.04-.17-.04-.18-.08-.01-.05,0-.07,.16-.24l.03-.04h0s-.07-.05-.09-.07c-.02-.03,0-.07,0-.16h0c-.08,.02-.16,.03-.21,.01-.04-.02-.1-.08-.15-.15l-.06,.2s-.03,.05-.06,.05c-.03,0-.05,0-.07-.03-.04-.06-.08-.12-.12-.17v.03c-.03,.16-.04,.23-.11,.25-.03,0-.06,0-.23-.02-.03,0-.07,0-.1-.01,.03,.05,.08,.11,.12,.16,.02,.02,.02,.05,0,.07s-.04,.04-.07,.04c-.1,0-.21,0-.27,0h0c0,.13,0,.24-.05,.29-.02,.02-.04,.03-.07,.03h-.04l.03,.04s.02,.03,.01,.05l-.02,.1Zm.99,1.58h0" style="fill:#7b7b7e;"/><path d="M74.47,13.39s-.03-.02-.04-.03c-.01-.02,0-.05,0-.08,0,0,.56-.69,.61-.75,.05-.06,.56-.65,.65-.73,.1-.08,.45-.25,.68-.29,.24-.04,.49,.1,.5,.1,.03,.02,.04,.06,.02,.09-.09,.18-.44,.74-.58,.87-.14,.13-1,.58-1.19,.67-.21,.1-.62,.14-.63,.14,0,0-.01,0-.02,0m2.12-1.73c-.06-.01-.13-.02-.2,0-.21,.04-.54,.19-.61,.26-.08,.06-.58,.64-.63,.71-.04,.05-.34,.42-.5,.62,.13-.02,.32-.06,.42-.11,.22-.11,1.03-.54,1.15-.65,.11-.09,.39-.54,.52-.77-.04-.02-.09-.04-.15-.05" style="fill:#7b7b7e;"/><path d="M74.07,10.76s-.02,0-.02-.02c0-.02,0-.04,.02-.05h.02v-.02h.02v-.02h.03l.02-.02h.01v-.02h.03l.03-.03s.03-.02,.05-.04,.04-.03,.05-.04c.01-.01,.02-.02,.03-.03,.02-.01,.04,0,.05,0,.01,.02,0,.04,0,.05l-.02,.02s-.03,.03-.05,.05c-.02,.02-.04,.03-.06,.04l-.03,.02h-.02l-.02,.03h-.02v.02h-.02v.02h-.01s-.01,.02-.02,.02h0s-.02,.01-.03,0" style="fill:#7b7b7e;"/><path d="M74.18,10.81h-.04l-.02-.02h-.01v-.02l-.03-.02s-.03-.03-.02-.05c0-.02,.03-.03,.05-.02,0,0,.02,0,.02,.02h.01v.02h.03l.02,.02h.01s.02,0,.04,0c.02,0,.03,.02,.03,.04s-.02,.03-.04,.03c-.02,0-.03,0-.03,0h-.02" style="fill:#7b7b7e;"/><path d="M74.44,10.85h-.02s-.01-.02-.02-.02h-.01s0-.03,0-.03h0l.04-.03h-.04s0-.01,0-.03c0-.02,0-.03,0-.05,0-.01,0-.03,.01-.06v-.05s.03-.04,.05-.04c.02,0,.04,.02,.03,.04v.03h0v.04s-.02,.04-.02,.05c0,.01,0,.03,0,.04,0,.01,0,.02,0,.02h0l.02,.02s.02,.03,0,.05c0,.01-.03,.02-.04,.02" style="fill:#7b7b7e;"/><path d="M74.43,10.86h0s-.02-.03-.01-.05h0l.03-.06,.06-.07,.02-.03,.04-.05,.02-.02,.02-.02s.02-.03,.05-.06c.01-.02,.04-.02,.05,0,.02,.01,.02,.04,0,.05-.03,.04-.05,.06-.05,.06v.02l-.03,.02-.02,.03v.02h-.02l-.02,.03-.06,.07-.03,.04h0s-.03,.03-.04,.02" style="fill:#7b7b7e;"/><path d="M74.28,11.32s-.03-.02-.03-.04v-.06l.02-.04s0-.04,0-.05c0-.01,0-.02,0-.03v-.08s0-.04,0-.06v-.05h0s0-.04,.03-.05c.02,0,.04,0,.04,.03h0v.02h0s0,.03,0,.05c0,.02,0,.04,0,.06,0,.02,0,.04,0,.05v.06s0,.03-.01,.05c0,.02,0,.04,0,.05v.05s-.04,.04-.06,.03h0" style="fill:#7b7b7e;"/><path d="M74.28,11.3s-.02,0-.02-.02c0-.02,0-.04,.01-.05h.02v-.02l.05-.02h.02v-.02h.02s.01-.02,.02-.03c.01-.01,.02-.02,.02-.03l.02-.03s.02-.03,.02-.04l.02-.04s.03-.03,.05-.02c.02,0,.03,.03,.02,.05l-.02,.04s-.02,.03-.03,.05c-.01,.02-.02,.03-.02,.04l-.03,.03s-.03,.03-.03,.03h-.02l-.02,.02h-.02l-.04,.03s-.02,0-.03,.01h0s-.02,0-.03,0" style="fill:#7b7b7e;"/><path d="M74.6,11.31h0s-.03-.03-.02-.05c.01-.03,.02-.06,.02-.06s.01-.04,.02-.08c.01-.05,.02-.08,.02-.09,0-.01,0-.04,.01-.07,0-.05,.01-.06,.02-.07,0-.02,.03-.03,.05-.02,.02,0,.03,.03,.02,.05,0,0,0,.01-.01,.05,0,.03-.01,.06-.02,.08,0,.02-.01,.05-.02,.09-.02,.06-.02,.08-.03,.09,0,0-.01,.03-.02,.06,0,.02-.03,.03-.05,.03" style="fill:#7b7b7e;"/><path d="M74.61,11.3s-.01,0-.01,0c-.01-.01-.02-.04,0-.05h.01l.07-.08h.02l.03-.05s.03-.04,.06-.07c.01-.02,.04-.02,.05,0,.02,.01,.02,.04,0,.05-.02,.03-.04,.05-.06,.07l-.02,.03h0v.02h-.02l-.07,.07h0s-.02,.02-.04,.02" style="fill:#7b7b7e;"/><path d="M73.71,11.11s-.02,0-.02-.01c-.01-.02,0-.04,.01-.05l.04-.03s.03-.02,.04-.03c.02-.01,.03-.02,.04-.03,.01-.01,.02-.02,.03-.03l.03-.03s.03-.03,.03-.03h.02s.04-.01,.05,0c0,.02,0,.04-.02,.05h-.02l-.02,.03-.03,.03s-.02,.02-.03,.03c-.01,.01-.03,.03-.05,.04-.02,.01-.03,.02-.04,.03l-.04,.03s-.02,0-.03,0" style="fill:#7b7b7e;"/><path d="M73.8,11.16h-.04l-.03-.02h-.02s-.03-.03-.03-.05c0-.02,.02-.03,.04-.03,0,0,.02,0,.03,0h.03l.02,.02h.06s.02,0,.03,0h.03l.02-.02h.02s.04,0,.05,.01c0,.02,0,.04-.02,.05-.01,0-.02,0-.02,0h-.02l-.02,.02s-.02,0-.03,0c-.01,0-.02,0-.03,0h-.06" style="fill:#7b7b7e;"/><path d="M74.01,11.48h0s-.03-.02-.03-.04c0-.02,0-.03,0-.05,0-.01,0-.03,.02-.06v-.04l.02-.03v-.04l.02-.03v-.02s.04-.03,.06-.02c.02,0,.02,.03,.01,.05h0v.04l-.02,.04v.03l-.02,.05v.03h0v-.02l.04,.02-.03-.02h0v-.02l.02-.02v-.02l.03-.02h.01s.04-.03,.05-.02c.02,.01,.02,.04,0,.05h0v.03l-.03,.02v.02s-.02,.01-.03,.02h-.01v.02h-.02s-.01,.02-.02,.03h-.02v.02s-.03,0-.04,.01c0,0-.02,0-.03,0" style="fill:#7b7b7e;"/><path d="M74.48,11.79h0s-.03-.03-.02-.05v-.02h.02v-.04l.02-.02h0v-.06s0-.03,0-.06c0-.04,0-.05-.01-.06,0-.01,0-.03-.01-.04l-.02-.04v-.03s-.02-.04,0-.05c.02-.01,.04,0,.05,0,0,.01,.01,.02,.02,.03,0,.01,.01,.03,.02,.04l.02,.05s0,.04,.01,.07c0,.03,0,.06,0,.07v.08l-.02,.03h0v.03h-.01v.03h-.01s-.03,.04-.04,.03" style="fill:#7b7b7e;"/><path d="M74.49,11.77h-.01s-.02-.04,0-.06h0s.01-.02,.03-.04c.01-.02,.03-.04,.04-.06h0l.02-.05,.02-.03h0l.02-.04v-.03h.02v-.03l.02-.03v-.02l.02-.05s.03-.03,.05-.03c.02,0,.03,.03,.02,.05l-.02,.05v.02s-.01,.02-.02,.03v.02h-.01l-.02,.04-.02,.04h0l-.02,.04s-.02,.02-.03,.04h0s-.03,.05-.04,.07c-.02,.03-.03,.04-.03,.04,0,.01-.03,.02-.04,.01" style="fill:#7b7b7e;"/><path d="M73.98,11.89h-.02s-.01-.02-.02-.03h0s0-.02,0-.02v-.18s0-.05,.01-.06h0s.02-.05,.04-.05c.02,0,.03,.02,.03,.04v.02s0,.02,0,.05c0,.03,0,.06,0,.08v.04h0v-.03l.03-.03v-.02l.03-.03,.02-.03,.02-.02h0l.02-.05s.02-.03,.03-.04h0v-.02h.02l.02-.04s.04-.02,.05,0,.02,.04,0,.05c-.02,.02-.03,.03-.03,.03h0v.02l-.03,.03-.02,.03v.02l-.03,.02-.02,.03-.02,.03v.02l-.03,.03v.02l-.02,.02v.02l-.02,.02s-.02,.02-.03,.03c-.02,0-.03,.02-.04,.01h0" style="fill:#7b7b7e;"/><path d="M73.63,11.84s-.02-.01-.02-.02h0s-.01-.05-.02-.06v-.05l-.02-.02v-.04s-.01-.02-.01-.04c0-.02,0-.04,0-.06h0v-.03h0v-.05h.02c.03-.05,.04-.06,.04-.06h.01v-.02s.04-.01,.05-.02c.01,0,.02,0,.03-.01h.05s.04,0,.04,.02c0,.02-.02,.04-.04,.04h-.03l-.03,.02h-.03l-.02,.02s-.01,.02-.03,.03v.02h0s0,0,0,.02h0s0,.04,0,.06c0,.02,0,.03,0,.03v.02h0v.04l.02,.05v.04h.01v.02s0,.04-.02,.05c0,0-.01,0-.02,0" style="fill:#7b7b7e;"/><path d="M73.34,12.85s-.03-.02-.03-.03c0-.03,0-.06,0-.09,0-.02,0-.04,0-.05,0-.01,0-.02,0-.03v-.03s0-.02-.01-.03v-.06l-.02-.04v-.05h0s0-.04,0-.06c0-.02,0-.05,.01-.08,0-.03,.01-.06,.02-.08,0-.02,.01-.04,.02-.05,0-.02,.02-.03,.03-.05,0-.01,.02-.03,.04-.05,.01-.02,.03-.04,.04-.05l.03-.04,.02-.02h0l.02-.04s.04-.02,.05,0c.02,.01,.02,.03,0,.05v.02l-.03,.02-.02,.03-.03,.04s-.02,.03-.04,.05c-.01,.02-.02,.03-.03,.05,0,.01-.02,.03-.03,.04,0,.01-.01,.03-.02,.04,0,.01-.01,.04-.02,.06,0,.03,0,.05-.01,.07,0,.02,0,.03,0,.03v.06l.02,.04v.05s.02,.02,.02,.03v.12s.02,.05,.02,.09c0,.02-.01,.04-.04,.04,0,0,0,0-.01,0" style="fill:#7b7b7e;"/><path d="M73.54,12.98s-.02,0-.02-.02c0-.02-.01-.04-.02-.05v-.05l-.02-.03v-.03l-.02-.02v-.03s-.01-.02-.02-.03c0-.02,0-.04,0-.06v-.06s0-.02,0-.03h0v-.04l.02-.02v-.03l.02-.02v-.03s.02-.03,.02-.06c0-.02,0-.04,0-.05v-.05s0-.04,0-.06v-.15s0-.08,0-.09c0-.02,0-.03,0-.05v-.06h0s.02-.05,.04-.05c.02,0,.03,.02,.03,.04v.11s0,.05,0,.09c0,.05,0,.07,0,.08v.07s0,.03,0,.06,0,.04,0,.05c0,0,0,.03,0,.06,0,.03-.01,.05-.02,.06v.04l-.02,.03v.03l-.02,.02v.02h-.01v.08s0,.03,0,.05v.04l.02,.02v.03l.02,.03v.05l.03,.05s0,.04-.02,.05c0,0-.02,0-.02,0" style="fill:#7b7b7e;"/><path d="M73.87,12.94v-.07l-.02-.02v-.04l-.02-.02v-.02h0v-.04l-.03-.03v-.02h-.02v-.02s-.01-.03-.02-.04v-.04l-.03-.06s-.01-.04-.01-.05v-.03s-.01-.02-.02-.04c0-.02,0-.04-.01-.05v-.04s-.02-.03-.03-.05c0-.02-.02-.04-.02-.04v-.02s-.02-.04,0-.05c.02-.01,.04,0,.05,0v.02s.03,.03,.04,.05c.01,.03,.02,.05,.02,.06v.04l.03,.05s0,.03,.01,.04v.03l.02,.05,.02,.06v.04l.02,.03h0v.03s.02,.02,.03,.04v.03l.02,.02h0v.03h.01v.04s.02,.02,.02,.03v.02h0v.05h-.03l-.04,.02Z" style="fill:#7b7b7e;"/><path d="M73.9,12.95s-.03-.02-.03-.04l.02-.06s.02-.06,.03-.09c0-.03,.01-.05,.02-.07v-.06s.02-.05,.02-.08c0-.03,0-.05,0-.07s0-.03,0-.05c0-.02,0-.04,0-.07,0-.03,0-.05,0-.06,0-.01,0-.03-.01-.05,0-.02-.01-.03-.02-.04v-.04l-.03-.04v-.02l-.03-.03s-.02-.03-.03-.05c-.01-.01-.03-.03-.04-.05l-.03-.03h-.01s-.03-.04-.02-.06c0-.02,.03-.03,.05-.02h0s.02,0,.03,.01h.01l.04,.05s.03,.03,.05,.05c.01,.02,.03,.03,.04,.05l.02,.04s0,.02,.02,.03c0,.01,.01,.02,.02,.04l.02,.04,.02,.05s.01,.04,.01,.06c0,.01,0,.04,0,.07,0,.03,0,.05,0,.07,0,.02,0,.04,0,.06s0,.04,0,.07c0,.03,0,.06,0,.09v.07s-.02,.04-.03,.07c0,.03-.02,.06-.03,.1,0,.03-.02,.05-.02,.05,0,.02-.03,.03-.05,.03h0m-.15-1.05h0Z" style="fill:#7b7b7e;"/><path d="M73.96,13.17h0s-.03-.03-.02-.05l.03-.05v-.02l.06-.12s.01-.03,.02-.05l.02-.06,.02-.05v-.05s.02-.04,.03-.06c0-.01,0-.03,0-.04,0-.01,0-.03,0-.05v-.1s0-.02,0-.03c0-.01,0-.02,0-.03v-.03l-.03-.03v-.03l-.03-.04s-.02-.03-.03-.04c0,0-.02-.02-.06-.07-.05-.05-.06-.07-.07-.07-.01-.01-.02-.02-.04-.04-.01-.01-.03-.03-.05-.05-.02-.02-.03-.03-.04-.04,0,0-.02-.02-.04-.03-.02-.01-.02-.04,0-.05,.01-.02,.04-.02,.05,0,.02,.01,.03,.03,.04,.04l.04,.04s.03,.04,.05,.05c.01,.01,.03,.03,.04,.04,.01,.01,.03,.03,.07,.07,.05,.05,.06,.07,.07,.08,0,.01,.02,.03,.03,.05l.02,.04s0,.02,.01,.03v.03l.03,.04s0,.03,.01,.04c0,.01,0,.03,0,.04,0,.01,0,.03,0,.04v.08s0,.04,0,.05c0,.02,0,.03,0,.04,0,.01,0,.03-.01,.06v.05s-.02,.03-.03,.05l-.02,.07s-.01,.04-.02,.05l-.02,.06v.02l-.03,.04v.02l-.04,.04s-.03,.03-.04,.02" style="fill:#7b7b7e;"/><path d="M73.95,13.19h0s-.02-.03-.01-.05v-.02s.03-.02,.03-.03l.04-.05,.1-.14s.03-.04,.05-.07c.02-.03,.03-.05,.04-.06v-.02l.02-.03s.02-.04,.02-.05c0-.02,.01-.03,.02-.05,0-.02,.01-.04,.02-.07,0-.02,0-.04,0-.05v-.06s0-.02,0-.04v-.05s0-.02-.01-.03c0-.01,0-.02,0-.03v-.03s-.02-.02-.02-.03v-.02h-.01v-.04s0-.04,.01-.05c.02,0,.04,0,.05,.02v.04l.02,.03s.01,.03,.01,.04v.03l.02,.03s0,.02,0,.04c0,.01,0,.03,0,.05,0,.02,0,.04,0,.05v.03s0,.02,0,.03c0,0,0,.03,0,.06,0,.03-.01,.05-.02,.07,0,.02-.01,.04-.02,.06,0,.02-.02,.04-.03,.06h0v.04h-.02s-.02,.04-.04,.07c-.02,.03-.04,.05-.05,.07l-.1,.14-.04,.05s-.02,.03-.03,.04c0,.02-.03,.03-.04,.02" style="fill:#7b7b7e;"/><path d="M74.2,12.14h-.02v-.02s-.02-.01-.03-.02c0,0,0-.02,0-.02v-.03s0-.03,0-.05c0-.02,0-.04,0-.05v-.02h0v-.02s.02-.04,.04-.03c.02,0,.03,.02,.03,.04h0s0,.02,0,.03v.04s0,.03,0,.04v.02h.04s.02,0,.04-.01l.04-.02h0l.02-.02s.04,0,.05,.01c0,.02,0,.04-.02,.05h-.02v.02s-.03,0-.06,.02c-.04,.02-.05,.02-.05,.02h-.02s-.02,0-.03,0h-.02" style="fill:#7b7b7e;"/><path d="M74.68,12.19h-.03s-.02-.02-.02-.03h-.01s0-.03-.01-.04c0,0,0-.02,0-.03,0,0,0-.02,0-.03v-.07s-.02-.03-.02-.05c0-.02,0-.03,0-.04,0-.01,0-.03,0-.05,0-.02,0-.04,0-.05,0-.02,.01-.04,.03-.05,.02,0,.04,0,.04,.03v.15l.02,.04v.06l.02,.03s0,.01,0,.02h0v.02h.03s.02-.02,.03-.02c0-.01,.01-.02,.02-.03s.01-.03,.02-.04v-.03l.02-.04s.03-.03,.05-.03c.02,0,.03,.03,.02,.05v.04l-.02,.04s-.01,.03-.02,.04c0,.02-.02,.03-.03,.05-.01,.01-.03,.03-.04,.04-.02,.01-.03,.02-.04,.02h-.03m.03-.08h0" style="fill:#7b7b7e;"/><path d="M74.6,12.49h0s-.02-.01-.03-.03v-.05h-.01v-.02h0v-.04h-.01v-.03h-.01v-.03l-.02-.02-.02-.02s-.01-.01-.02-.01h-.02l-.02-.02s-.02,0-.03-.01c-.02,0-.02-.03,0-.05,.01-.02,.03-.02,.05-.01h.01l.03,.02h.02s.01,.02,.03,.03c0,0,.02,.02,.02,.03v.02h.03v.03s.02,.02,.02,.03v.02h0v.03h.02l.03-.05s.01-.01,.02-.03l.02-.02s0,0,.04-.04l.02-.02s.04-.02,.05,0c.02,.01,.02,.04,0,.05l-.02,.02-.03,.03h0l-.02,.03-.02,.02-.03,.04-.02,.03-.02,.03s-.01,.02-.02,.03h0s-.02,.02-.02,.02c0,0-.01,0-.02,0" style="fill:#7b7b7e;"/><path d="M81.31,8.77s-.21-.12-.6,0c-.39,.13-1.08,.76-1.39,.93-.31,.17-.6,.53-1.09,.38-.49-.15-1.21-.16-1.42-.11,.09,.44,.15,.55,.16,.72,0,0,.06,.47-.01,.65-.08,.18-.44,.95-.62,1.14-.18,.18-.95,.63-1.15,.69-.2,.06-.58,.18-.68,.17-.1,0-.31-.13-.31-.13v.56l.25,.12s.35-.05,.51,0c.16,.06,.72,.16,1.13,.38,.4,.22,.75,.34,.89,.36,.14,.02,.67-.06,.91-.26,.24-.19,.81-.69,.91-.84,.1-.15,.32-.38,.58-.44,0,0,.31-.11,.46-.1,.15,.01,.29-.56,.29-.56,0,0,.35-.95,.47-1.1,.12-.14,.45-.44,.6-.7,.15-.26,.44-1.19,.14-1.85" style="fill:#fff;"/><path d="M76.87,14.67c-.17-.04-.48-.16-.84-.35-.28-.15-.65-.25-.9-.31-.1-.03-.18-.05-.22-.06-.12-.04-.39-.02-.48,0-.01,0-.03,0-.04,0l-.25-.12s-.04-.03-.04-.06v-.56s.02-.05,.04-.06c.02-.01,.05-.01,.07,0,.08,.05,.22,.12,.28,.12,.07,0,.36-.08,.54-.13l.11-.03c.18-.05,.94-.5,1.12-.67,.16-.16,.5-.88,.6-1.11,.06-.13,.03-.48,0-.61h0c0-.09-.02-.17-.06-.3-.02-.1-.06-.23-.1-.42,0-.02,0-.04,.01-.05,.01-.02,.03-.03,.05-.03,.23-.05,.96-.04,1.46,.12,.34,.11,.56-.05,.8-.22,.08-.05,.16-.11,.24-.15,.12-.06,.3-.2,.5-.35,.31-.24,.66-.5,.91-.58,.42-.13,.65,0,.66,0,.01,0,.02,.02,.03,.03,.32,.71,0,1.66-.14,1.92-.11,.19-.3,.39-.45,.55-.06,.07-.12,.12-.15,.16-.08,.1-.32,.71-.45,1.07-.06,.24-.18,.62-.37,.61-.11,0-.35,.07-.43,.1h0c-.22,.05-.43,.25-.53,.4-.11,.17-.69,.68-.92,.86-.26,.21-.8,.29-.96,.28-.02,0-.04,0-.07-.01m-1.96-.87s.03,0,.05,.01c.04,.02,.12,.03,.21,.06,.25,.06,.63,.16,.92,.32,.39,.21,.74,.33,.87,.35,.12,.01,.63-.06,.85-.24,.26-.21,.8-.68,.89-.82,.09-.14,.32-.4,.62-.47,.05-.02,.33-.12,.48-.1,.05-.01,.16-.26,.22-.5h0c.04-.11,.36-.98,.48-1.13,.04-.05,.09-.1,.16-.17,.14-.15,.33-.35,.43-.52,.16-.27,.41-1.15,.14-1.77-.05-.02-.24-.08-.53,.01-.22,.07-.56,.33-.86,.56-.21,.16-.39,.29-.52,.36-.07,.04-.15,.09-.22,.14-.24,.17-.52,.36-.92,.24-.43-.13-1.05-.15-1.32-.12,.03,.15,.06,.25,.08,.34,.03,.13,.06,.21,.06,.31,0,.06,.06,.49-.02,.68,0,0-.42,.94-.64,1.16-.2,.19-.97,.65-1.18,.71-.03,0-.07,.02-.11,.03-.28,.08-.5,.14-.59,.14-.06,0-.16-.04-.23-.08v.39l.19,.1c.08,0,.32-.03,.48,0" style="fill:#7b7b7e;"/><path d="M79.79,13.05s-.06-.04-.05-.08c0-.02,.15-.56,.16-.59,0,0,.02-.07,.05-.17,.07-.27,.21-.78,.27-.97,.07-.26,.46-1.01,.48-1.04h0c.2-.29,.51-.77,.54-.91,.05-.19,.02-.41,.02-.42,0-.04,.02-.07,.06-.08,.04,0,.07,.02,.07,.06,0,0,.03,.25-.02,.46-.05,.21-.5,.85-.56,.95-.03,.06-.4,.77-.46,1.01-.05,.19-.19,.69-.27,.96-.03,.09-.04,.16-.05,.17,0,.03-.11,.4-.16,.59,0,.04-.05,.06-.08,.05h0" style="fill:#7b7b7e;"/><path d="M74.79,13.95s-.05-.03-.05-.06c0-.04,.03-.07,.07-.07,.07,0,.21-.09,.33-.16,.1-.06,.19-.12,.27-.15,.17-.06,.97-.31,1.32-.38,.36-.07,1.01,.03,1.26,.11,.25,.07,.63,.36,.65,.37,.03,.02,.03,.07,0,.1-.02,.03-.07,.04-.1,.02,0,0-.37-.29-.6-.35-.26-.07-.88-.17-1.2-.1-.33,.07-1.13,.31-1.3,.37-.06,.02-.16,.08-.24,.13-.15,.09-.29,.18-.4,.18,0,0-.01,0-.02,0" style="fill:#7b7b7e;"/><path d="M75.97,14.32s-.06-.04-.05-.08c0-.04,.05-.06,.08-.05,.32,.06,1.21-.01,1.49-.05,.18-.02,.48-.12,.66-.18-.19-.07-.55-.18-.95-.18-.63,.01-1.14,.14-1.31,.18-.17,.04-.44,.1-.44,.1-.04,0-.07-.01-.08-.05,0-.04,.02-.07,.06-.08,0,0,.27-.06,.44-.1,.17-.04,.7-.17,1.34-.18,.64-.01,1.15,.25,1.17,.26,.02,.01,.04,.04,.03,.07,0,.03-.02,.05-.05,.06-.02,0-.57,.22-.86,.25-.29,.04-1.19,.11-1.53,.05h0" style="fill:#7b7b7e;"/><path d="M74.02,13.7s.34,.1,.51,.24c.17,.14,.38,.64,.44,.78,.06,.14,.08,.44-.03,.65-.11,.21-.5,.55-.9,.79-.4,.24-1.38,.43-1.52,.42-.14,0-.55-.17-.91-.46-.36-.29-.73-.8-.66-1.24,.08-.43,.66-1.87,.7-2.01,.04-.14,0-.43,0-.43,0,0,.23,.44,.24,.55,0,.12,0,.44-.04,.59-.04,.15-.04,.53,.03,.68,.07,.15,.12,.57,.12,.57,0,0,.16,0,.32-.2,.16-.2,.29-.66,.5-.74,.21-.08,.95-.24,1.21-.2" style="fill:#fff;"/><path d="M72.43,16.64c-.2-.05-.55-.21-.87-.46-.4-.32-.76-.85-.68-1.3,.05-.32,.37-1.15,.56-1.65,.07-.18,.12-.33,.13-.36,.03-.1,0-.32,0-.39,0-.03,.01-.07,.05-.08,.03-.01,.07,0,.08,.03,.04,.07,.24,.46,.24,.58,0,.1,0,.44-.04,.61-.04,.14-.03,.51,.03,.63,.06,.12,.1,.39,.12,.52,.05-.02,.13-.06,.21-.16,.06-.07,.11-.18,.17-.29,.1-.2,.2-.41,.36-.47,.22-.09,.97-.24,1.25-.2h0s.36,.11,.53,.26c.17,.14,.36,.56,.46,.8,.06,.15,.08,.48-.04,.71-.11,.22-.51,.57-.93,.82-.41,.24-1.39,.44-1.56,.43-.02,0-.05,0-.08-.01m-.7-3.85s0,.07-.02,.1c-.01,.04-.06,.16-.14,.37-.19,.49-.5,1.32-.56,1.63-.07,.4,.28,.89,.64,1.17,.35,.28,.75,.44,.88,.45,.13,0,1.09-.18,1.48-.41,.39-.23,.77-.56,.87-.76,.1-.19,.08-.47,.03-.59-.16-.39-.32-.67-.42-.75-.15-.12-.44-.22-.49-.23-.26-.03-.97,.11-1.17,.2-.1,.04-.2,.23-.28,.4-.06,.12-.12,.24-.18,.32-.18,.22-.36,.22-.37,.22-.03,0-.06-.02-.06-.06-.01-.11-.06-.43-.11-.55-.08-.17-.08-.58-.03-.73,.04-.13,.04-.44,.04-.57,0-.03-.03-.12-.08-.22" style="fill:#7b7b7e;"/><path d="M71.86,14.9s-.03,0-.04-.01c-.03-.01-.05-.05-.04-.09,.01-.04,.05-.06,.09-.04,.05,.02,.17,.04,.28-.02,.06-.04,.22-.3,.32-.52,.02-.04,.06-.05,.09-.04s.05,.06,.03,.09c-.06,.12-.25,.51-.39,.59-.12,.07-.25,.07-.35,.05" style="fill:#7b7b7e;"/><path d="M15.43,18.65c.06-.25,.14-.82,.22-1.37l.59-3.9h.22l1.82,3.77,1.87-4h.23l.47,3.94c.07,.54,.13,.89,.21,1.23l-.97,.06c0-.22-.03-.51-.07-.95l-.23-2.21-1.45,3.3h-.22l-1.43-3.12-.29,2.25c-.05,.37-.09,.71-.09,.95l-.88,.05Z" style="fill:#fff;"/><path d="M23.51,16.84c0,.51,.01,1.11,.03,1.34l-.91,.05c.01-.23,.03-.83,.03-1.34v-2.44c0-.51-.01-1.11-.03-1.34l.91-.05c-.01,.22-.03,.83-.03,1.34v2.44Z" style="fill:#fff;"/><path d="M27.88,16.5c0,.91-.67,1.57-1.63,1.63-.49,.03-.79-.07-1.18-.1v-1.08c.21,.31,.73,.52,1.2,.49,.45-.03,.71-.35,.71-.76,0-.96-1.73-.89-1.73-2.37,0-.91,.62-1.5,1.56-1.56,.38-.02,.62,.07,.94,.09v1.01c-.17-.31-.54-.44-.93-.42-.41,.02-.69,.28-.69,.71,0,.91,1.76,.89,1.76,2.37" style="fill:#fff;"/><path d="M31.99,16.26c0,.91-.67,1.57-1.63,1.63-.49,.03-.79-.07-1.18-.1v-1.08c.21,.31,.73,.52,1.2,.49,.45-.03,.71-.35,.71-.76,0-.96-1.73-.89-1.73-2.37,0-.91,.62-1.5,1.56-1.56,.38-.02,.62,.07,.94,.09v1.01c-.17-.31-.54-.44-.93-.42-.41,.02-.69,.28-.69,.71,0,.91,1.76,.89,1.76,2.37" style="fill:#fff;"/><path d="M34.39,16.19c0,.51,.01,1.11,.03,1.34l-.91,.05c.01-.23,.03-.83,.03-1.34v-2.44c0-.51-.01-1.11-.03-1.34l.91-.05c-.01,.22-.03,.83-.03,1.34v2.44Z" style="fill:#fff;"/><path d="M38.76,15.86c0,.91-.67,1.57-1.63,1.63-.49,.03-.79-.07-1.18-.1v-1.08c.21,.31,.73,.52,1.2,.49,.45-.03,.71-.35,.71-.76,0-.96-1.73-.89-1.73-2.37,0-.91,.62-1.5,1.56-1.56,.38-.02,.62,.07,.94,.09v1.01c-.17-.31-.54-.44-.93-.42-.41,.02-.69,.28-.69,.71,0,.91,1.76,.89,1.76,2.37" style="fill:#fff;"/><path d="M42.86,15.61c0,.91-.67,1.57-1.63,1.63-.49,.03-.79-.07-1.18-.1v-1.08c.21,.31,.73,.52,1.2,.49,.45-.03,.71-.35,.71-.76,0-.96-1.73-.89-1.73-2.37,0-.91,.62-1.5,1.56-1.56,.38-.02,.62,.07,.94,.09v1.01c-.17-.31-.54-.44-.93-.42-.41,.02-.69,.28-.69,.71,0,.91,1.76,.89,1.76,2.37" style="fill:#fff;"/><path d="M45.27,15.55c0,.51,.01,1.11,.03,1.34l-.91,.05c.01-.23,.03-.83,.03-1.34v-2.44c0-.51-.01-1.11-.03-1.34l.91-.05c-.01,.22-.03,.83-.03,1.34v2.44Z" style="fill:#fff;"/><path d="M47.98,15.39c0,.51,0,1.11,.03,1.34l-.91,.05c.01-.23,.03-.83,.03-1.34v-2.55c0-.51-.01-1.01-.03-1.23l1.37-.08c1.08-.06,1.7,.58,1.7,1.51s-.66,1.64-1.72,1.7l-.47,.03v.57Zm0-1.24l.38-.02c.59-.03,.95-.53,.95-.99,0-.49-.34-.91-.95-.88l-.38,.02v1.87Z" style="fill:#fff;"/><path d="M52.49,15.12c0,.51,0,1.11,.03,1.34l-.91,.05c.01-.23,.03-.83,.03-1.34v-2.55c0-.51-.01-1.01-.03-1.23l1.37-.08c1.08-.06,1.7,.58,1.7,1.51s-.66,1.64-1.72,1.7l-.47,.03v.57Zm0-1.24l.38-.02c.59-.03,.95-.53,.95-.99,0-.49-.34-.91-.95-.88l-.38,.02v1.87Z" style="fill:#fff;"/><path d="M57.03,14.85c0,.51,.01,1.11,.03,1.34l-.91,.05c.01-.23,.03-.83,.03-1.34v-2.44c0-.51-.01-1.11-.03-1.34l.91-.05c-.01,.22-.03,.83-.03,1.34v2.44Z" style="fill:#fff;"/><path d="M89.51,14.05l.83-.05c.51-.03,1.02-.08,1.25-.11v.84c-.23,0-.73,.01-1.25,.04l-1.75,.1c.02-.43,.03-1.05,.03-1.4v-2.56c0-.54-.02-1.16-.03-1.4l.95-.06c-.01,.24-.03,.86-.03,1.4v3.18Z" style="fill:#fff;"/><path d="M95.23,9.03c1.54-.09,2.73,1.08,2.73,2.61s-1.19,2.85-2.73,2.94c-1.53,.09-2.73-1.08-2.73-2.61s1.2-2.85,2.73-2.94m0,4.77c1.02-.06,1.83-1,1.83-2.1s-.8-1.94-1.83-1.88c-1.01,.06-1.82,.99-1.82,2.09s.8,1.95,1.82,1.89" style="fill:#fff;"/><path d="M101.94,8.74c.52-.03,1.11-.08,1.33-.11v.82c-.23,0-.81,.02-1.33,.05l-.42,.02c0,.29,0,.68,0,1.01v2.19c0,.53,.01,1.16,.04,1.4l-.96,.06c.01-.24,.03-.87,.03-1.4v-2.19c0-.33,0-.72-.02-1.01l-.42,.02c-.51,.03-1.08,.08-1.32,.11v-.82c.23,0,.8-.02,1.32-.05l1.76-.1Z" style="fill:#fff;"/><path d="M107.49,8.41c.52-.03,1.11-.08,1.33-.11v.82c-.23,0-.81,.02-1.33,.05l-.42,.02c0,.29,0,.68,0,1.01v2.19c0,.53,.01,1.16,.04,1.4l-.96,.06c.01-.24,.03-.87,.03-1.4v-2.19c0-.33,0-.72-.02-1.01l-.42,.02c-.51,.03-1.08,.08-1.32,.11v-.82c.23,0,.8-.02,1.32-.05l1.76-.1Z" style="fill:#fff;"/><path d="M111.06,12.79l.6-.04c.52-.03,1.07-.07,1.29-.1v.82c-.23,0-.77,.01-1.29,.04l-1.52,.09c.01-.43,.03-1.05,.03-1.4v-2.56c0-.54-.01-1.16-.03-1.39l1.46-.09c.52-.03,1.06-.09,1.29-.12v.83c-.23,0-.77,.01-1.29,.05l-.54,.03v1.39l.5-.03c.52-.03,.99-.07,1.23-.1v.81c-.23,0-.71,.02-1.23,.05l-.5,.03v1.67Z" style="fill:#fff;"/><path d="M115.47,11.92c0,.53,0,1.13,.03,1.37l-.95,.06c.02-.24,.03-.84,.03-1.37v-2.59c0-.53,0-1.16-.03-1.4l1.36-.08c1.2-.07,1.86,.58,1.86,1.52,0,.84-.48,1.3-1.02,1.51,.58,.66,1.17,1.6,1.8,2.17l-1.19,.07c-.36-.46-1.01-1.36-1.38-2.05-.07,.01-.13,.02-.19,.03l-.32,.02v.74Zm0-1.41l.45-.03c.55-.03,.95-.43,.95-.98,0-.48-.33-.9-1-.86l-.39,.02v1.85Z" style="fill:#fff;"/><path d="M120.71,12.98c.01-.24,.02-.75,.02-1.28v-1.15l-1.22-1.84c-.26-.4-.47-.68-.7-.97l1.11-.07c.12,.24,.21,.4,.39,.67l.9,1.39,.87-1.45c.2-.32,.3-.49,.42-.75l1.04-.06c-.24,.33-.49,.72-.75,1.15l-1.17,1.88v1.16c0,.53,0,1.04,.02,1.28l-.94,.06Z" style="fill:#fff;"/><rect x="17.98" y="21.81" width="37.63" height=".36" transform="translate(-1.14 2.02) rotate(-3.1)" style="fill:#fff;"/><rect x="89.47" y="18.73" width="9.92" height=".36" transform="translate(-.8 4.57) rotate(-2.76)" style="fill:#fff;"/></g></g></svg>