<svg version="1.1" id="Layer_1" xmlns="http://www.w3.org/2000/svg" xlink="http://www.w3.org/1999/xlink" x="0px" y="0px" viewBox="-1650.7 957.8 1662.0111 676.9000000000001" enable-background="-1650.7 957.8 1662.0111 676.9000000000001" space="preserve">
<g>

		<linearGradient id="SVGID_1_" gradientUnits="userSpaceOnUse" x1="-1650.7542" y1="-315.5016" x2="-74.3008" y2="-315.5016" gradientTransform="matrix(1 0 0 -1 0 903.8)">
		<stop offset="0" style="stop-color:#FDB202"/>
		<stop offset="0.2245" style="stop-color:#FDAF02"/>
		<stop offset="0.3573" style="stop-color:#FCA703"/>
		<stop offset="0.4663" style="stop-color:#FB9904"/>
		<stop offset="0.5623" style="stop-color:#FA8505"/>
		<stop offset="0.649" style="stop-color:#F86B07"/>
		<stop offset="0.7026" style="stop-color:#F75708"/>
		<stop offset="1" style="stop-color:#F3160C"/>
	</linearGradient>
	<path fill="url(#SVGID_1_)" d="M-184.6,1275.1c0,0,39,57,37,80c0,0,146.4-152.9,25.4-313.9c0,0-160-235.9-885.1,87.5
		c0,0-561.7,277-643.4,351.9c0,0,681-364.4,859.4-395.6c0,0,524.1-175.6,633.6,2.7C-158.1,1087.9-115.8,1153-184.6,1275.1z"/>
	<g>
		<rect x="-1320.6" y="1143.2" fill="#FFFFFF" width="1095.6" height="383.4"/>
		<path fill="#EC1C24" d="M-216.4,1535.4H-1329v-400.7h1112.6V1535.4z M-1312.1,1518.5h1078.7v-366.8h-1078.7V1518.5z"/>
	</g>
	<rect x="-1282.6" y="1166.6" fill="#7FC52E" width="1028.5" height="332.9"/>
	<g>
		<path fill="#0059A9" d="M-1156.5,1220.8h-95.3v237.6h62.7v-67.1h32.5c45.8,0,91.9-29.2,91.9-85.1
			C-1064.6,1250.3-1110.7,1220.8-1156.5,1220.8z M-1156.5,1333h-32.5v-53.6h32.5c14.2,0,29.8,7.1,29.8,27.1
			C-1127,1322.9-1137.8,1333-1156.5,1333z"/>
		<rect x="-1053.4" y="1220.8" fill="#0059A9" width="62.4" height="237.6"/>
		<path fill="#0059A9" d="M-858.2,1217.8c-68.1,0-121.7,53.6-121.7,122s53.6,122,121.7,122c40.7,0,64.7-18,71.2-23.4l2.4-2v-69.5
			l-11.9,14.6c-0.3,0.3-18.3,21.7-55.3,21.7c-32.5,0-65.4-21.7-65.4-63.4c0-37,27.5-63.7,65.4-63.7c36.6,0,55.3,22,55.3,22
			l11.9,14.6v-69.5l-2.4-2C-793.4,1235.7-817.5,1217.8-858.2,1217.8z"/>
		<polygon fill="#0059A9" points="-555.8,1220.8 -637.1,1220.8 -707.3,1298.8 -707.3,1220.8 -769.4,1220.8 -769.4,1458.5
			-707.3,1458.5 -707.3,1389.3 -693.8,1374.1 -632.4,1458.5 -557.8,1458.5 -652.4,1328.3 		"/>
	</g>

		<linearGradient id="SVGID_2_" gradientUnits="userSpaceOnUse" x1="-431.0925" y1="-423.1155" x2="-320.9712" y2="-637.5615" gradientTransform="matrix(1 0 0 -1 0 903.8)">
		<stop offset="0" style="stop-color:#FDFDFD"/>
		<stop offset="0.5127" style="stop-color:#FDFDFD"/>
		<stop offset="0.5863" style="stop-color:#FDFDFD"/>
		<stop offset="0.7655" style="stop-color:#FAFAFA"/>
		<stop offset="0.8854" style="stop-color:#F1F1F1"/>
		<stop offset="0.988" style="stop-color:#E2E2E2"/>
		<stop offset="1" style="stop-color:#E0E0E0"/>
	</linearGradient>
	<circle fill="url(#SVGID_2_)" cx="-384.3" cy="1418.1" r="199.7"/>
	<path fill="#0059A9" d="M-384.3,1201.5c-119.3,0-216.6,97-216.6,216.6c0,119.7,97,216.6,216.6,216.6c119.3,0,216.6-97,216.6-216.6
		C-167.6,1298.5-264.9,1201.5-384.3,1201.5z M-384.3,1600.5c-100.7,0-182.7-82-182.7-182.7c0-100.7,82-182.7,182.7-182.7
		s182.7,82,182.7,182.7S-283.6,1600.5-384.3,1600.5z"/>

		<linearGradient id="SVGID_3_" gradientUnits="userSpaceOnUse" x1="-192.1541" y1="-317.7114" x2="11.5549" y2="-317.7114" gradientTransform="matrix(1 0 0 -1 0 903.8)">
		<stop offset="0" style="stop-color:#FDB202"/>
		<stop offset="0.2245" style="stop-color:#FDAF02"/>
		<stop offset="0.3573" style="stop-color:#FCA703"/>
		<stop offset="0.4663" style="stop-color:#FB9904"/>
		<stop offset="0.5623" style="stop-color:#FA8505"/>
		<stop offset="0.649" style="stop-color:#F86B07"/>
		<stop offset="0.7026" style="stop-color:#F75708"/>
		<stop offset="1" style="stop-color:#F3160C"/>
	</linearGradient>
	<path fill="url(#SVGID_3_)" d="M-141.9,1386.3c0,0-3.4,95.6-7.1,99c0,0,168.5-104.1,160-292.6c0,0,3.1-138-203.4-234.9
		c0,0,202.4,139.3,155.9,269.8C-36.1,1227.6-59.2,1333.4-141.9,1386.3z"/>
	<g>

			<linearGradient id="SVGID_4_" gradientUnits="userSpaceOnUse" x1="-812.4084" y1="-239.8807" x2="-187.7942" y2="-239.8807" gradientTransform="matrix(1 0 0 -1 0 903.8)">
			<stop offset="0" style="stop-color:#FDB202"/>
			<stop offset="0.2245" style="stop-color:#FDAF02"/>
			<stop offset="0.3573" style="stop-color:#FCA703"/>
			<stop offset="0.4663" style="stop-color:#FB9904"/>
			<stop offset="0.5623" style="stop-color:#FA8505"/>
			<stop offset="0.649" style="stop-color:#F86B07"/>
			<stop offset="0.7026" style="stop-color:#F75708"/>
			<stop offset="1" style="stop-color:#F3160C"/>
		</linearGradient>
		<path fill="url(#SVGID_4_)" d="M-288.7,1054.4c0,0-183.7-63.4-523.1,80c0,0-0.3,0-0.7,0.3h156.6c38-9.8,333.9-82.7,392.9,0h46.8
			v111.9l0.3,0.3C-216.1,1246.9-117.5,1092.4-288.7,1054.4z"/>

			<linearGradient id="SVGID_5_" gradientUnits="userSpaceOnUse" x1="-1608.3792" y1="-566.0285" x2="-1329.0436" y2="-566.0285" gradientTransform="matrix(1 0 0 -1 0 903.8)">
			<stop offset="0" style="stop-color:#FDB202"/>
			<stop offset="0.2245" style="stop-color:#FDAF02"/>
			<stop offset="0.3573" style="stop-color:#FCA703"/>
			<stop offset="0.4663" style="stop-color:#FB9904"/>
			<stop offset="0.5623" style="stop-color:#FA8505"/>
			<stop offset="0.649" style="stop-color:#F86B07"/>
			<stop offset="0.7026" style="stop-color:#F75708"/>
			<stop offset="1" style="stop-color:#F3160C"/>
		</linearGradient>
		<path fill="url(#SVGID_5_)" d="M-1608.4,1552.7c0,0,121.7-67.8,279.3-148.5v-17.3C-1436.8,1443.9-1538.5,1502.5-1608.4,1552.7z"/>
	</g>
	<path fill="#EC1C24" d="M-296.8,1330.7l-50.8-15.3l-139,104.4l-13.6,44.1l94.2,24.7l-12.9,48.5l61,17l13.6-48.5l24.7,6.8l11.2-36.6
		l-27.1-10.2L-296.8,1330.7z M-398.5,1448.3l-50.8-13.9l75.6-53.9L-398.5,1448.3z"/>
</g>
</svg>
