<svg xmlns="http://www.w3.org/2000/svg" viewBox="0 0 79.6 41.35"><defs><style>.cls-1,.cls-4{fill:#4f2583;}.cls-1{fill-rule:evenodd;}.cls-2{fill:#ffed00;}.cls-11,.cls-12,.cls-13,.cls-3,.cls-5,.cls-7,.cls-8,.cls-9{fill:none;}.cls-11,.cls-12,.cls-13,.cls-3,.cls-9{stroke:#ffed00;}.cls-12,.cls-3,.cls-9{stroke-miterlimit:10;}.cls-3{stroke-width:0.14px;}.cls-6{fill:#fff;}.cls-7{stroke:#d5e8da;}.cls-11,.cls-13,.cls-7,.cls-8{stroke-width:0.6px;}.cls-8{stroke:#00904a;}.cls-12,.cls-9{stroke-width:0.63px;}.cls-10{fill:#00904a;}.cls-12,.cls-13{stroke-linecap:round;}</style></defs><g id="Layer_2" data-name="Layer 2"><g id="Layer_1-2" data-name="Layer 1"><path class="cls-1" d="M31.4,39.79a1.52,1.52,0,0,1-.27.22l-3.55.28-12,.83c-1,.08-4.75.37-5.06.15L10.42,41c4-.59,8.4-.73,12.69-1.06l5.72-.41c.79,0,1.58-.15,2.26-.11.15,0,.33.09.26.15.09,0,.17.15,0,.18"/><polygon class="cls-2" points="13.84 30.29 14.89 30.61 13.76 30.79 13.71 31.71 13.2 30.9 12.18 31.16 12.95 30.48 12.53 29.79 13.35 30.1 14.1 29.44 13.84 30.29"/><polygon class="cls-2" points="3.67 31.84 5.97 31.49 6.67 33.82 6.99 31.57 8.51 31.45 9.2 33.68 9.53 31.21 11.83 31.21 10.87 37.82 8.83 37.98 8.04 35.47 7.67 38.07 5.61 38.23 3.67 31.84"/><polygon class="cls-3" points="10.69 37.63 8.97 37.76 8.54 36.38 8.35 35.77 7.98 34.59 7.96 34.59 7.49 37.88 5.76 38.01 4.83 34.95 3.93 32.01 5.83 31.72 6.03 32.37 6.73 34.74 6.75 34.74 6.84 34.12 7.17 31.76 8.36 31.66 8.56 32.3 9.27 34.58 9.28 34.58 9.36 33.99 9.71 31.42 11.32 31.41 11.59 31.41 10.69 37.63"/><path class="cls-2" d="M31.43,33.27A2.45,2.45,0,0,0,30,32.75l-.66,0a4.42,4.42,0,0,0-.93.08l-.12,0-.55,1.61.36-.08a4.13,4.13,0,0,1,.9-.12h.23a1,1,0,0,1,.46.12.17.17,0,0,1,.09.13,1.73,1.73,0,0,0-.72-.22h-.18a1.74,1.74,0,0,0-1.36.62,1.72,1.72,0,0,0-.62-.54,1.49,1.49,0,0,0,.4-1.34,1.73,1.73,0,0,0-2-1.55l-.51,0-2.67.33L23,38.22l3-.36a2.31,2.31,0,0,0,1.48-.68,1.25,1.25,0,0,0,.15-.19,1.64,1.64,0,0,0,1.16.61H29a1.61,1.61,0,0,0,.78-.18l0,.27h2l.26-3A1.65,1.65,0,0,0,31.43,33.27Zm-6.64.56-.07-.53h.11c.14,0,.21,0,.24.24s0,.27-.26.3Zm.31,2.3h0L25,35.49h.14c.21,0,.3.08.32.28S25.42,36.1,25.1,36.13Z"/><path class="cls-4" d="M25.27,33.5a.4.4,0,0,0-.44-.41h-.11l-.23,0,.12.94.23,0C25.19,34,25.31,33.81,25.27,33.5Z"/><path class="cls-4" d="M25.13,35.28H25l-.23,0,.12,1,.24,0c.38-.05.58-.23.53-.6A.47.47,0,0,0,25.13,35.28Zm.12.6h0l0-.2h0a.35.35,0,0,1,0,.09A.18.18,0,0,1,25.25,35.88Z"/><path class="cls-4" d="M25.25,35.88a.18.18,0,0,0,0-.09.35.35,0,0,0,0-.09h0l0,.2Z"/><path class="cls-4" d="M25.27,33.5a.4.4,0,0,0-.44-.41h-.11l-.23,0,.12.94.23,0A.76.76,0,0,0,25,34a.39.39,0,0,0,.27-.3A.67.67,0,0,0,25.27,33.5Z"/><path class="cls-4" d="M25.65,35.74a.47.47,0,0,0-.52-.46H25l-.23,0,.12,1,.24,0,.15,0a.47.47,0,0,0,.39-.42A.86.86,0,0,0,25.65,35.74Zm-.42,0a.35.35,0,0,1,0,.09.18.18,0,0,1,0,.09h0l0-.2Z"/><path class="cls-2" d="M29.56,35.74a.19.19,0,0,0-.21.16.19.19,0,0,0,0,.14.2.2,0,0,0,.16.07h0a.2.2,0,0,0,.2-.18.18.18,0,0,0,0-.13.19.19,0,0,0-.16-.07h0"/><path class="cls-4" d="M29.58,36.32A.38.38,0,0,0,30,36a.39.39,0,0,0-.38-.43h0a.38.38,0,0,0-.41.35.39.39,0,0,0,.38.44h0"/><path class="cls-5" d="M27,35.7a1.8,1.8,0,0,1,.29-.82,1.61,1.61,0,0,0-.77-.48,1.29,1.29,0,0,0,.6-1.37,1.54,1.54,0,0,0-1.76-1.37,3.87,3.87,0,0,0-.48,0L22.43,32l.72,6,2.78-.34a2.07,2.07,0,0,0,1.4-.67A2.06,2.06,0,0,1,27,35.7Z"/><path class="cls-5" d="M30,33l-.63,0a5.19,5.19,0,0,0-.9.08l-.39,1.16a4.27,4.27,0,0,1,.7-.12h.49c.47,0,.79.17.75.63v0l0,.2a1.87,1.87,0,0,0-.34-.25,1.64,1.64,0,0,0-.6-.16h-.16l-.26,0a1.4,1.4,0,0,0-1.23,1.25,1.48,1.48,0,0,0,1.33,1.66H29A1.27,1.27,0,0,0,30,37h0l0,.5h1.57l.24-2.79a1.62,1.62,0,0,0-.09-.75A1.8,1.8,0,0,0,30,33Z"/><path class="cls-5" d="M27,35.7a1.8,1.8,0,0,1,.29-.82,1.61,1.61,0,0,0-.77-.48,1.29,1.29,0,0,0,.6-1.37,1.54,1.54,0,0,0-1.76-1.37,3.87,3.87,0,0,0-.48,0L22.43,32l.72,6,2.78-.34a2.07,2.07,0,0,0,1.4-.67A2.06,2.06,0,0,1,27,35.7Z"/><path class="cls-4" d="M31.56,33.12a2.67,2.67,0,0,0-1.5-.58l-.68,0a4.85,4.85,0,0,0-1,.09l-.24,0-.07.23L27.71,34l-.18.51h0l0,0a1.55,1.55,0,0,0,.11-.85,2,2,0,0,0-.05-.26,2.71,2.71,0,0,0,0-.4,2,2,0,0,0-2.17-1.73l-.53,0-2.47.3-.41.05L22,32l.73,6,0,.4h0l.82.16,2.78-.33a2,2,0,0,0,1.47-.77,1.94,1.94,0,0,0,.68.27,1.41,1.41,0,0,0,.68.23,1.77,1.77,0,0,0,.8-.1h0l.37.2H32L32.18,36l-.27-2.42A1.83,1.83,0,0,0,31.56,33.12Zm-5.63,4.54L23.15,38l-.72-6,2.47-.29a3.87,3.87,0,0,1,.48,0A1.54,1.54,0,0,1,27.14,33a1.29,1.29,0,0,1-.6,1.37,1.61,1.61,0,0,1,.77.48,1.8,1.8,0,0,0-.29.82A2.06,2.06,0,0,0,27.33,37,2.07,2.07,0,0,1,25.93,37.66Zm5.84-2.94-.24,2.79H30l0-.5h0a1.27,1.27,0,0,1-1,.41h-.21a1.48,1.48,0,0,1-1.33-1.66,1.4,1.4,0,0,1,1.23-1.25l.26,0h.16a1.64,1.64,0,0,1,.6.16,1.87,1.87,0,0,1,.34.25l0-.2v0c0-.46-.28-.59-.75-.63h-.49a4.27,4.27,0,0,0-.7.12L28.5,33a5.19,5.19,0,0,1,.9-.08L30,33a1.8,1.8,0,0,1,1.65,1A1.62,1.62,0,0,1,31.77,34.72Z"/><path class="cls-4" d="M29.58,36.32A.38.38,0,0,0,30,36a.39.39,0,0,0-.38-.43h0a.38.38,0,0,0-.41.35.39.39,0,0,0,.38.44h0"/><polygon class="cls-5" points="31.85 31.19 32.51 37.12 34.09 36.81 33.44 30.89 31.85 31.19"/><polygon class="cls-5" points="31.85 31.19 32.51 37.12 34.09 36.81 33.44 30.89 31.85 31.19"/><polygon class="cls-2" points="34.73 31.5 34.16 35.59 33.61 30.64 31.63 31.03 31.91 33.53 32.18 35.95 32.33 37.37 33.96 37.05 33.85 37.81 35.87 37.93 36.75 31.61 34.73 31.5"/><polygon class="cls-5" points="33.68 37.57 33.72 37.3 33.72 37.3 33.68 37.57"/><polygon class="cls-5" points="33.68 37.57 33.72 37.3 33.72 37.3 33.68 37.57"/><polygon class="cls-5" points="31.85 31.19 32.51 37.12 33.78 36.88 34.09 36.81 33.44 30.89 31.85 31.19"/><polygon class="cls-4" points="33.68 37.57 33.68 37.6 33.68 37.6 33.68 37.57"/><polygon class="cls-4" points="33.68 37.57 33.68 37.6 33.68 37.6 33.68 37.57"/><polygon class="cls-4" points="33.78 36.88 33.78 36.88 32.51 37.12 31.85 31.19 33.44 30.89 33.96 35.59 34.19 33.97 34.19 33.95 34.13 33.5 33.84 30.84 33.79 30.4 33.36 30.48 31.77 30.8 31.41 30.87 31.45 31.24 32.11 37.17 32.15 37.61 32.16 37.61 32.98 37.74 33.48 37.64 33.68 37.6 33.68 37.57 33.78 36.88"/><path class="cls-4" d="M34.91,31.71l1.61.09-.82,5.91-1.62-.09ZM37,31.42h0l-.44,0-1.61-.09-.38,0,0,.37L34.19,34l-.51,3.65h0l-.06.4h0l.93.23,1.62.09L37,32.42Z"/><polygon class="cls-2" points="14.04 37.79 15.03 31.49 17.05 31.64 16.05 37.94 14.04 37.79"/><path class="cls-4" d="M16.81,31.83l-.93,5.89-1.61-.12.32-2,.61-3.89,1.42.1Zm.47-.37h0l-.44,0-1.61-.12-.37,0-.06.37-.93,5.89L13.8,38h0l.92.23,1.61.12.93-5.89v-1Z"/><path class="cls-4" d="M21.9,31.23v0H19.47l0,.38-.09,1.13a1.78,1.78,0,0,0-.47-.09h-.23a2.49,2.49,0,0,0-2.44,2.5,2.75,2.75,0,0,0,.55,2,2.2,2.2,0,0,0,1.32.81,1.79,1.79,0,0,0,.78.25,1.64,1.64,0,0,0,.62-.06h0l.16.12,1.79,0,.5-6ZM21,37.62l-1.45,0,0-.42h0a1.3,1.3,0,0,1-1,.37h-.15a1.79,1.79,0,0,1-1.07-.46,2.25,2.25,0,0,1-.7-1.93,2.1,2.1,0,0,1,2-2.13h.2a1.37,1.37,0,0,1,.85.35l.15-1.76h1.61Z"/><path class="cls-5" d="M19.85,31.61l-.15,1.76a1.37,1.37,0,0,0-.85-.35h-.2a2.1,2.1,0,0,0-2,2.13,2.25,2.25,0,0,0,.7,1.93,1.79,1.79,0,0,0,1.07.46h.15a1.3,1.3,0,0,0,1-.37h0l0,.42,1.45,0,.5-6H19.85Z"/><path class="cls-2" d="M19.28,37.8l0-.21a1.84,1.84,0,0,1-.76.16h-.17a2.26,2.26,0,0,1-2-2.61,2.3,2.3,0,0,1,2.24-2.32h.22a1.74,1.74,0,0,1,.66.18l.13-1.59h2l-.54,6.42Zm-.33-3a.46.46,0,0,0-.41.45.5.5,0,0,0,.09.34.33.33,0,0,0,.27.16h0a.44.44,0,0,0,.4-.44.53.53,0,0,0-.09-.35.37.37,0,0,0-.26-.16h0"/><path class="cls-4" d="M19.08,35.11A.13.13,0,0,0,19,35h0c-.14,0-.2.15-.21.25a.51.51,0,0,0,.05.22.26.26,0,0,0,.1.07.67.67,0,0,1,.24-.26A.35.35,0,0,0,19.08,35.11Z"/><path class="cls-5" d="M19.08,35.11A.13.13,0,0,0,19,35h0c-.14,0-.2.15-.21.25a.51.51,0,0,0,.05.22.26.26,0,0,0,.1.07h0c.11,0,.19-.13.2-.26h0A.35.35,0,0,0,19.08,35.11Z"/><path class="cls-4" d="M19,34.63H19A.69.69,0,0,0,18.81,36h.12a.64.64,0,0,0,.6-.63.17.17,0,0,0,0-.1A.62.62,0,0,0,19,34.63Z"/><path class="cls-4" d="M19.13,35.32c0,.13-.09.26-.2.26h0a.26.26,0,0,1-.1-.07.51.51,0,0,1-.05-.22c0-.1.07-.25.21-.25h0a.13.13,0,0,1,.12.07.35.35,0,0,1,.05.21Z"/><path class="cls-5" d="M19.85,31.61l-.15,1.76a1.37,1.37,0,0,0-.85-.35h-.2a2.1,2.1,0,0,0-2,2.13,2.25,2.25,0,0,0,.7,1.93,1.79,1.79,0,0,0,1.07.46h.15a1.3,1.3,0,0,0,1-.37h0l0,.42,1.45,0,.5-6H19.85Z"/><path class="cls-5" d="M19.85,31.61l-.15,1.76a1.37,1.37,0,0,0-.85-.35h-.2a2.1,2.1,0,0,0-2,2.13,2.25,2.25,0,0,0,.7,1.93,1.79,1.79,0,0,0,1.07.46h.15a1.3,1.3,0,0,0,1-.37h0l0,.42,1.45,0,.5-6H19.85Z"/><path class="cls-4" d="M21.9,31.23v0H19.47l0,.38-.09,1.13a1.78,1.78,0,0,0-.47-.09h-.23a2.49,2.49,0,0,0-2.44,2.5,2.75,2.75,0,0,0,.55,2,2.2,2.2,0,0,0,1.32.81,1.79,1.79,0,0,0,.78.25,1.64,1.64,0,0,0,.62-.06h0l.16.12,1.79,0,.5-6ZM21,37.62l-1.45,0,0-.42h0a1.3,1.3,0,0,1-1,.37h-.15a1.79,1.79,0,0,1-1.07-.46,2.25,2.25,0,0,1-.7-1.93,2.1,2.1,0,0,1,2-2.13h.2a1.37,1.37,0,0,1,.85.35l.15-1.76h1.61Z"/><path class="cls-4" d="M21.9,31.23v0H19.47l0,.38-.09,1.13a1.78,1.78,0,0,0-.47-.09h-.23a2.49,2.49,0,0,0-2.44,2.5,2.75,2.75,0,0,0,.55,2,2.2,2.2,0,0,0,1.32.81,1.79,1.79,0,0,0,.78.25,1.64,1.64,0,0,0,.62-.06h0l.16.12,1.79,0,.5-6ZM21,37.62l-1.45,0,0-.42h0a1.3,1.3,0,0,1-1,.37h-.15a1.79,1.79,0,0,1-1.07-.46,2.25,2.25,0,0,1-.7-1.93,2.1,2.1,0,0,1,2-2.13h.2a1.37,1.37,0,0,1,.85.35l.15-1.76h1.61Z"/><path class="cls-6" d="M18.89,35.58h0c.11,0,.19-.13.2-.26h0A.67.67,0,0,0,18.89,35.58Z"/><polygon class="cls-2" points="12.11 32.58 14.12 32.41 14.12 37.1 12.11 37.26 12.11 32.58"/><polygon class="cls-5" points="13.92 36.91 12.31 37.04 12.31 32.77 13.92 32.63 13.92 36.91"/><polygon class="cls-5" points="13.16 31.41 12.06 31.63 12.06 32.03 12.01 32.38 12.28 32.36 13.66 32.25 13.16 31.41"/><polygon class="cls-5" points="9.71 31.42 9.36 33.99 9.28 34.58 9.27 34.58 8.56 32.3 8.36 31.66 7.17 31.76 6.84 34.12 6.75 34.74 6.73 34.74 6.03 32.37 5.83 31.72 3.93 32.01 5.76 38.01 7.49 37.88 7.96 34.59 7.98 34.59 8.35 35.77 8.49 36.23 8.97 37.76 10.69 37.63 11.58 31.47 11.59 31.41 11.32 31.41 9.71 31.42"/><polygon class="cls-5" points="13.71 31.71 13.76 30.79 14.89 30.61 13.84 30.29 14.1 29.44 13.35 30.1 12.53 29.79 12.95 30.48 12.18 31.16 13.2 30.9 13.71 31.71"/><path class="cls-4" d="M14.32,32.19l-.32,0,.17-1.14,1.56-.22-.08-.18h0l-1.27-.49L14.59,29l-.13-.24h0l-1.14,1-1.45-.56.73,1.24L12,31H9.36l0,.35-.19,1.38-.37-1.2-.1-.31-.32,0-1.19.09-.33,0,0,.33L6.6,32.87,6.22,31.6l-.1-.34-.35,0-1.9.29-.46.07.13.45,1.83,6,.09.31h0l.75.18L8,38.49l.25-1.79.38,1.18.09.31h0l.76.18,1.72-.13.74-5.1v4.35h0l.87.18,1.61-.14.07-4.28-.14-1Zm-2.74-.72-.89,6.16L9,37.76l-.48-1.53-.14-.46L8,34.59H8l-.47,3.29L5.76,38,3.93,32l1.9-.29.2.65.7,2.37h0l.09-.62.33-2.36,1.19-.1.2.64.71,2.28h0L9.36,34l.35-2.57h1.88Zm1.37-1-.42-.69.82.31.75-.66-.26.85,1.05.32-1.14.18,0,.92-.51-.81-1,.26ZM12,32.38l.05-.35v-.4l1.1-.22.5.84-1.38.11Zm1.91,4.53L12.31,37V32.77l1.61-.13Z"/><path class="cls-4" d="M36.55,37.28h.57v.1h-.23V38h-.12v-.6h-.22Z"/><path class="cls-4" d="M37.2,37.28h.17l.19.55h0l.19-.55h.17V38h-.11v-.54h0l-.2.54h-.1l-.2-.54h0V38H37.2Z"/><polyline id="_Green_Line_Right" data-name="% Green Line Right" class="cls-7" points="62.53 3.43 64.11 13.65 76.74 18.14 64.77 24.18 64.48 34.6"/><line id="Green_Star_Line_left_left" data-name="Green Star Line left left" class="cls-8" x1="46.88" y1="30.45" x2="52.77" y2="28.72"/><polyline id="Green_Star_Outline" data-name="Green Star Outline" class="cls-8" points="64.41 34.52 64.7 24.22 76.66 18.19 64.04 13.69 62.47 3.54"/><polyline id="Green_Star_Line_left" data-name="Green Star Line left" class="cls-8" points="46.96 30.44 54.89 28.11 56.41 29.64"/><line id="Yellow_Line_bottom_left" data-name="Yellow Line bottom left" class="cls-9" x1="52.78" y1="28.61" x2="54.3" y2="30.27"/><polygon id="Purple_Star" data-name="Purple Star" class="cls-4" points="64.15 1.07 66.79 14.21 79.6 18.13 67.92 24.7 68.15 38.09 58.29 29.02 45.62 33.38 51.21 21.2 43.15 10.49 56.46 12.04 64.15 1.07 64.15 1.07"/><path class="cls-2" d="M9.44,27.82a8.65,8.65,0,0,1-2.31.29,6.27,6.27,0,0,1-6.4-6.42,6.37,6.37,0,0,1,6.7-6.64,6.1,6.1,0,0,1,1.76.26l.66,3.89a4.54,4.54,0,0,0-2-.48c-1.82,0-3.13,1-3.13,2.86a2.89,2.89,0,0,0,3.05,2.86A4.07,4.07,0,0,0,10,23.85l-.53,4Z"/><path class="cls-10" d="M8.71,27a8.76,8.76,0,0,1-2.31.29A6.26,6.26,0,0,1,0,20.87a6.38,6.38,0,0,1,6.69-6.64,6.12,6.12,0,0,1,1.77.26l.65,3.89a4.49,4.49,0,0,0-2-.47c-1.82,0-3.13,1-3.13,2.86A2.88,2.88,0,0,0,7,23.62,4.07,4.07,0,0,0,9.24,23l-.53,4Z"/><path class="cls-11" d="M9.08,24.25,8.71,27a8.76,8.76,0,0,1-2.31.29,6.16,6.16,0,0,1-3.95-1.64"/><path class="cls-11" d="M4.54,22.49A2.69,2.69,0,0,1,4,20.77c0-1.84,1.31-2.86,3.13-2.86a4.49,4.49,0,0,1,2,.47L8.6,15.31"/><path class="cls-2" d="M17.43,22.84h-2l1-3.93h0l1,3.93h0m-7.44,5,4.13.29L14.76,26h3.42l.61,2.16,4.28-.29-4.2-12.48H14.1L10,27.82Z"/><path class="cls-10" d="M16.7,22h-2l1-3.93h0l1,3.93h0M9.26,27l4.13.29L14,25.13h3.42l.61,2.16L22.34,27l-4.2-12.47H13.37L9.26,27Z"/><polygon class="cls-5" points="16.7 22.02 16.18 19.91 15.65 22.02 16.7 22.02"/><polyline class="cls-11" points="18.46 15.48 22.34 27 18.55 27.26"/><polyline class="cls-11" points="16.18 19.91 15.73 18.09 15.7 18.09 14.72 22.02 15.65 22.02"/><polyline class="cls-11" points="17.45 25.13 14.03 25.13 13.39 27.29 10.24 27.07"/><polygon class="cls-5" points="15.7 18.09 14.72 22.02 16.7 22.02 15.73 18.09 15.7 18.09"/><path class="cls-11" d="M9.85,26.11l-.49,1.5.29,0"/><path class="cls-2" d="M31.4,19a10.37,10.37,0,0,0-2.67-.45c-.66,0-1.55,0-1.55.63,0,1,4.93.91,4.93,4.79,0,2.74-2.13,4.18-5.64,4.18a14.91,14.91,0,0,1-3.11-.36V24.18a15.47,15.47,0,0,0,3.11.36c1,0,1.53-.18,1.53-.67,0-1.2-4.77-.74-4.77-4.73,0-2.71,2.08-4.09,4.86-4.09a16.87,16.87,0,0,1,3.31.33V19Z"/><path class="cls-10" d="M30.67,18.15A10.39,10.39,0,0,0,28,17.69c-.66,0-1.55,0-1.55.64,0,1,4.93.91,4.93,4.78,0,2.75-2.13,4.18-5.64,4.18a14.83,14.83,0,0,1-3.11-.36V23.37a16.23,16.23,0,0,0,3.11.36c1,0,1.53-.18,1.53-.67,0-1.2-4.77-.75-4.77-4.73,0-2.71,2.08-4.1,4.86-4.1a16.87,16.87,0,0,1,3.31.33v3.59Z"/><polygon class="cls-2" points="32.91 28.11 32.91 15.34 36.86 15.05 36.86 19.6 39.23 19.6 39.23 15.34 43.17 15.05 43.17 27.82 39.23 28.11 39.23 23.16 36.86 23.16 36.86 27.82 32.91 28.11 32.91 28.11"/><polygon class="cls-10" points="32.18 27.29 32.18 14.53 36.13 14.23 36.13 18.78 38.49 18.78 38.49 14.53 42.44 14.23 42.44 27 38.49 27.29 38.49 22.35 36.13 22.35 36.13 27 32.18 27.29 32.18 27.29"/><polyline class="cls-11" points="36.86 18.78 36.13 18.78 36.13 15.1"/><polyline class="cls-11" points="39.23 27.24 42.44 27 42.44 14.24 42.44 14.23 42.44 14.23 41.81 14.27"/><polyline class="cls-11" points="32.91 27.24 36.13 27 36.13 22.35 38.49 22.35 38.49 23.16"/><polygon class="cls-10" points="64.04 13.69 62.43 3.51 56.46 12.04 43.15 10.49 51.21 21.2 46.96 30.44 54.89 28.11 64.33 37.62 64.7 24.22 76.66 18.19 64.04 13.69"/><polygon class="cls-2" points="54.5 28.22 53.08 28.64 52.86 28.7 60.65 37.23 60.86 34.13 54.89 28.11 54.5 28.22"/><polyline id="Yellow_Star_Outline" data-name="Yellow Star Outline" class="cls-11" points="43.31 29.41 48.16 19.98 40.59 8.92 53.82 11.07 60.18 2.81"/><polygon class="cls-2" points="60.18 2.81 59.86 0 51.25 10.27 38.12 7.57 45.23 18.93 42.54 23.68 42.54 27.61 40.21 27.78 38.61 30.58 43.31 29.41 48.16 19.98 40.59 8.92 53.82 11.07 60.18 2.81"/><polygon id="Green_Star_Part" data-name="Green Star Part" class="cls-10" points="43.31 29.41 42.03 31.89 52.86 28.7 51.61 27.34 43.31 29.41"/><path class="cls-10" d="M8.71,27a8.76,8.76,0,0,1-2.31.29A6.26,6.26,0,0,1,0,20.87a6.38,6.38,0,0,1,6.69-6.64,6.12,6.12,0,0,1,1.77.26l.65,3.89a4.49,4.49,0,0,0-2-.47c-1.82,0-3.13,1-3.13,2.86A2.88,2.88,0,0,0,7,23.62,4.07,4.07,0,0,0,9.24,23l-.53,4Z"/><path class="cls-10" d="M16.7,22h-2l1-3.93h0l1,3.93h0M9.26,27l4.13.29L14,25.13h3.42l.61,2.16L22.34,27l-4.2-12.47H13.37L9.26,27Z"/><path class="cls-2" d="M23.74,21.05c.84,1.34,2.53,1.72,3.51,2.14a.69.69,0,0,0,0-.13C27.27,22.26,25.15,22.18,23.74,21.05Z"/><path class="cls-2" d="M30.84,21.2a3.37,3.37,0,0,1,.54,1.91c0,2.75-2.13,4.18-5.64,4.18a12.86,12.86,0,0,1-2.38-.22v.68a14.91,14.91,0,0,0,3.11.36c3.51,0,5.64-1.44,5.64-4.18A3.33,3.33,0,0,0,30.84,21.2Z"/><path class="cls-10" d="M30.84,21.2c-.87-1.35-2.61-1.84-3.62-2.26a.65.65,0,0,0,0,.2C27.18,19.8,29.38,20,30.84,21.2Z"/><path class="cls-10" d="M26.47,24.54c1,0,1.53-.18,1.53-.67,0-.3-.3-.5-.75-.68-.08.39-.57.54-1.51.54a16.23,16.23,0,0,1-3.11-.36v3.56l.73.14V24.18A15.47,15.47,0,0,0,26.47,24.54Z"/><path class="cls-9" d="M27.22,18.94c-.46-.19-.77-.37-.77-.61"/><path class="cls-9" d="M23.36,27.07a12.86,12.86,0,0,0,2.38.22c3.51,0,5.64-1.43,5.64-4.18a3.37,3.37,0,0,0-.54-1.91"/><path class="cls-12" d="M24.41,21.35c1.35.77,3.1,1,3.1,1.67"/><path class="cls-9" d="M30.84,21.2a13.52,13.52,0,0,0-3.62-2.26c-.46-.19-.77-.37-.77-.61,0-.64.89-.64,1.55-.64a10.39,10.39,0,0,1,2.67.46V15.24"/><path class="cls-10" d="M30.67,18.15A10.39,10.39,0,0,0,28,17.69c-.66,0-1.55,0-1.55.64,0,1,4.93.91,4.93,4.78,0,2.75-2.13,4.18-5.64,4.18a14.83,14.83,0,0,1-3.11-.36V23.37a16.23,16.23,0,0,0,3.11.36c1,0,1.53-.18,1.53-.67,0-1.2-4.77-.75-4.77-4.73,0-2.71,2.08-4.1,4.86-4.1a16.87,16.87,0,0,1,3.31.33v3.59Z"/><polygon class="cls-10" points="32.18 27.29 32.18 14.53 36.13 14.23 36.13 18.78 38.49 18.78 38.49 14.53 42.44 14.23 42.44 27 38.49 27.29 38.49 22.35 36.13 22.35 36.13 27 32.18 27.29 32.18 27.29"/><polyline class="cls-13" points="53.16 28.6 54.65 28.25 60.61 33.97"/><polygon id="Grenstar_Knock_Out" data-name="Grenstar Knock Out" class="cls-10" points="76.66 18.19 64.7 24.22 64.33 37.62 54.89 28.11 42.03 31.89 48.16 19.98 40.59 8.92 53.82 11.07 61.99 0.45 64.04 13.69 76.66 18.19 76.66 18.19"/><polyline id="Yellow_Line_Bottom" data-name="Yellow Line Bottom" class="cls-9" points="60.86 34.13 54.89 28.11 54.5 28.22 53.08 28.64"/><polygon id="Green_Star" data-name="Green Star" class="cls-10" points="76.66 18.19 64.7 24.22 64.33 37.62 54.89 28.11 42.03 31.89 48.16 19.98 40.59 8.92 53.82 11.07 61.99 0.45 64.04 13.69 76.66 18.19 76.66 18.19"/><path class="cls-6" d="M53.91,13.83a10.1,10.1,0,0,1,4.92,0c2.94.88,4.17,2.93,3.48,5.22a3.15,3.15,0,0,1-2.73,2.4,3.21,3.21,0,0,1,1.31,3.71c-.89,3-3.66,3.73-6.5,2.88a9,9,0,0,1-4.07-2.66l2.49-2.82a4.54,4.54,0,0,0,2.41,1.7,1.3,1.3,0,0,0,1.72-.66c.26-.87-.32-1.24-1.3-1.53l-1-.31.91-3c.33.13.67.23,1,.33.68.2,1.43.15,1.63-.51s-.29-1-1-1.21a4.84,4.84,0,0,0-2.67.09l-.59-3.58Z"/></g></g></svg>