<svg xmlns="http://www.w3.org/2000/svg" viewBox="0 0 64.42 37.91"><defs><style>.cls-1,.cls-6{fill:#5c257e;}.cls-1{fill-rule:evenodd;}.cls-2,.cls-3{fill:#fd0;}.cls-2,.cls-4{stroke:#fd0;stroke-miterlimit:10;stroke-width:0.12px;}.cls-11,.cls-12,.cls-13,.cls-14,.cls-15,.cls-16,.cls-4,.cls-5{fill:none;}.cls-7{fill:#fff;}.cls-8{fill:#fff7cc;}.cls-9{fill:#ffe964;}.cls-10{fill:#008c3e;}.cls-11{stroke:#ffe964;}.cls-11,.cls-14,.cls-15{stroke-width:0.55px;}.cls-12,.cls-14,.cls-15{stroke:#008c3e;}.cls-12,.cls-13{stroke-width:2.64px;}.cls-13{stroke:#5c257e;}.cls-15{stroke-linecap:round;}.cls-16{stroke:#fff;stroke-width:1.32px;}</style></defs><g id="Layer_2" data-name="Layer 2"><g id="Layer_1-2" data-name="Layer 1"><path class="cls-1" d="M30.88,36.53l-.24.2L27.5,37l-10.65.74a27.52,27.52,0,0,1-4.49.13,1.17,1.17,0,0,0,0-.2c3.51-.53,7.43-.65,11.23-.94l5.07-.36c.69,0,1.39-.14,2-.1.13,0,.3.08.23.13.08,0,.15.13.05.16"/><polygon class="cls-2" points="15.34 28.12 16.27 28.4 15.26 28.56 15.22 29.38 14.77 28.66 13.87 28.89 14.55 28.29 14.18 27.68 14.91 27.96 15.56 27.37 15.34 28.12"/><polygon class="cls-3" points="6.34 29.5 8.38 29.18 9 31.25 9.27 29.25 10.62 29.15 11.23 31.12 11.53 28.94 13.56 28.94 12.71 34.79 10.9 34.92 10.2 32.7 9.87 35 8.06 35.15 6.34 29.5"/><polygon class="cls-4" points="12.55 34.62 11.03 34.73 10.65 33.51 10.48 32.97 10.15 31.93 10.13 31.93 9.72 34.84 8.19 34.95 7.36 32.25 6.57 29.64 8.25 29.39 8.42 29.96 9.05 32.06 9.06 32.06 9.14 31.52 9.43 29.42 10.49 29.34 10.66 29.9 11.29 31.92 11.31 31.92 11.38 31.4 11.68 29.12 13.11 29.12 13.35 29.12 12.55 34.62"/><polygon class="cls-5" points="11.31 31.92 11.29 31.92 10.49 29.34 9.43 29.42 9.06 32.06 9.05 32.06 8.25 29.39 6.57 29.64 8.19 34.95 9.72 34.84 10.13 31.93 10.15 31.93 11.03 34.73 12.55 34.62 13.35 29.12 11.68 29.12 11.31 31.92"/><path class="cls-3" d="M30.9,30.76a2.1,2.1,0,0,0-1.23-.46l-.58,0a4.28,4.28,0,0,0-.83.07l-.1,0-.49,1.43.32-.07a3.27,3.27,0,0,1,.8-.11H29a.86.86,0,0,1,.41.1.21.21,0,0,1,.08.12,1.55,1.55,0,0,0-.64-.2h-.16a1.53,1.53,0,0,0-1.2.54,1.58,1.58,0,0,0-.55-.47,1.35,1.35,0,0,0,.36-1.19,1.54,1.54,0,0,0-1.74-1.37l-.45,0-2.36.29.68,5.67,2.64-.31a2.07,2.07,0,0,0,1.3-.61,1.15,1.15,0,0,0,.14-.17,1.45,1.45,0,0,0,1,.54h.2a1.49,1.49,0,0,0,.69-.15l0,.23h1.75l.23-2.63A1.46,1.46,0,0,0,30.9,30.76Zm-5.88.5L25,30.79h.09c.13,0,.19,0,.21.21s0,.24-.22.27Zm.28,2h0l-.07-.57h.13c.18,0,.26.06.28.25S25.59,33.26,25.3,33.29Z"/><path class="cls-6" d="M25.45,31a.35.35,0,0,0-.39-.36H25l-.21,0,.1.83.21,0A.38.38,0,0,0,25.45,31Z"/><path class="cls-6" d="M25.33,32.54h-.12l-.21,0,.11.93.21,0c.33,0,.51-.2.47-.52A.41.41,0,0,0,25.33,32.54Zm.1.53h0l0-.17h0a.12.12,0,0,1,0,.08A.15.15,0,0,1,25.43,33.07Z"/><path class="cls-6" d="M25.43,33.07a.15.15,0,0,0,0-.08.12.12,0,0,0,0-.08h0l0,.17Z"/><path class="cls-6" d="M25.45,31a.35.35,0,0,0-.39-.36H25l-.21,0,.1.83.21,0,.14,0a.32.32,0,0,0,.24-.26A.54.54,0,0,0,25.45,31Z"/><path class="cls-6" d="M25.79,33a.41.41,0,0,0-.46-.41h-.12l-.21,0,.11.93.21,0,.14,0a.4.4,0,0,0,.33-.37A.28.28,0,0,0,25.79,33Zm-.38,0a.12.12,0,0,1,0,.08.15.15,0,0,1,0,.08h0l0-.17Z"/><path class="cls-3" d="M29.24,32.94a.17.17,0,0,0-.18.15.16.16,0,0,0,0,.12.19.19,0,0,0,.14.07h0a.17.17,0,0,0,.18-.16.2.2,0,0,0,0-.11.21.21,0,0,0-.14-.07h0"/><path class="cls-6" d="M29.26,33.46a.35.35,0,1,0,0-.7h0a.35.35,0,1,0,0,.7h0"/><path class="cls-5" d="M27,32.91a1.64,1.64,0,0,1,.26-.73,1.54,1.54,0,0,0-.68-.42,1.15,1.15,0,0,0,.53-1.22,1.36,1.36,0,0,0-1.56-1.21l-.43,0-2.18.26.64,5.32L26,34.65a1.85,1.85,0,0,0,1.24-.6A1.81,1.81,0,0,1,27,32.91Z"/><path class="cls-5" d="M29.67,30.48a5.44,5.44,0,0,0-.57,0,4.07,4.07,0,0,0-.79.07l-.35,1a4.35,4.35,0,0,1,.63-.1H29c.41,0,.7.15.66.56v0l0,.18a1.17,1.17,0,0,0-.3-.22,1.28,1.28,0,0,0-.53-.15h-.14l-.23,0A1.24,1.24,0,0,0,27.37,33a1.33,1.33,0,0,0,.51,1.21,1.3,1.3,0,0,0,.67.25h.18a1.11,1.11,0,0,0,.89-.36h0l0,.45H31L31.21,32a1.54,1.54,0,0,0-.08-.66A1.62,1.62,0,0,0,29.67,30.48Z"/><path class="cls-5" d="M27,32.91a1.64,1.64,0,0,1,.26-.73,1.54,1.54,0,0,0-.68-.42,1.15,1.15,0,0,0,.53-1.22,1.36,1.36,0,0,0-1.56-1.21l-.43,0-2.18.26.64,5.32L26,34.65a1.85,1.85,0,0,0,1.24-.6A1.81,1.81,0,0,1,27,32.91Z"/><path class="cls-6" d="M31,30.63a2.31,2.31,0,0,0-1.33-.51l-.6,0a4.57,4.57,0,0,0-.86.08l-.21,0-.06.2-.35,1-.16.44h0l0,0a1.24,1.24,0,0,0,.1-.75,1.57,1.57,0,0,0,0-.23c0-.12,0-.23,0-.36A1.72,1.72,0,0,0,25.55,29l-.47,0-2.19.26-.35,0,0,.36L23.22,35l0,.35h0l.72.14,2.46-.29a1.81,1.81,0,0,0,1.3-.67,1.67,1.67,0,0,0,.6.23,1.38,1.38,0,0,0,.6.2,1.5,1.5,0,0,0,.71-.08h0l.33.18h1.39l.17-1.92L31.32,31A1.59,1.59,0,0,0,31,30.63Zm-5,4-2.45.29-.64-5.32,2.18-.26.43,0a1.36,1.36,0,0,1,1.56,1.21,1.15,1.15,0,0,1-.53,1.22,1.54,1.54,0,0,1,.68.42,1.64,1.64,0,0,0-.26.73,1.81,1.81,0,0,0,.27,1.14A1.85,1.85,0,0,1,26,34.65ZM31.21,32,31,34.51H29.6l0-.45h0a1.11,1.11,0,0,1-.89.36h-.18a1.3,1.3,0,0,1-.67-.25A1.33,1.33,0,0,1,27.37,33a1.24,1.24,0,0,1,1.09-1.11l.23,0h.14a1.28,1.28,0,0,1,.53.15,1.17,1.17,0,0,1,.3.22l0-.18v0c0-.41-.25-.52-.66-.56h-.43a4.35,4.35,0,0,0-.63.1l.35-1a4.07,4.07,0,0,1,.79-.07,5.44,5.44,0,0,1,.57,0,1.62,1.62,0,0,1,1.46.9A1.54,1.54,0,0,1,31.21,32Z"/><path class="cls-6" d="M29.26,33.46a.35.35,0,1,0,0-.7h0a.35.35,0,1,0,0,.7h0"/><polygon class="cls-5" points="31.28 28.92 31.86 34.17 33.26 33.9 32.68 28.65 31.28 28.92"/><polygon class="cls-5" points="31.28 28.92 31.86 34.17 33.26 33.9 32.68 28.65 31.28 28.92"/><polygon class="cls-3" points="33.82 29.2 33.32 32.81 32.84 28.43 31.08 28.78 31.32 30.99 31.56 33.13 31.7 34.38 33.14 34.1 33.05 34.78 34.83 34.88 35.61 29.29 33.82 29.2"/><polygon class="cls-5" points="32.9 34.56 32.93 34.33 32.93 34.33 32.9 34.56"/><polygon class="cls-5" points="32.9 34.56 32.93 34.33 32.93 34.33 32.9 34.56"/><polygon class="cls-5" points="31.28 28.92 31.86 34.17 32.98 33.95 33.26 33.9 32.68 28.65 31.28 28.92"/><polygon class="cls-6" points="32.9 34.56 32.89 34.59 32.89 34.59 32.9 34.56"/><polygon class="cls-6" points="32.9 34.56 32.89 34.59 32.89 34.59 32.9 34.56"/><polygon class="cls-6" points="32.98 33.95 32.98 33.95 31.86 34.17 31.28 28.92 32.68 28.65 33.14 32.82 33.34 31.38 33.34 31.36 33.3 30.96 33.03 28.61 32.99 28.22 32.61 28.3 31.21 28.57 30.88 28.63 30.92 28.96 31.5 34.21 31.54 34.6 31.55 34.6 32.27 34.71 32.72 34.63 32.89 34.59 32.9 34.56 32.98 33.95"/><path class="cls-6" d="M34,29.38l1.42.08-.72,5.23-1.43-.08Zm1.83-.26h0l-.39,0L34,29h-.33l-.05.32-.28,2-.45,3.23h0l0,.35v0l.83.19,1.42.08L35.82,30Z"/><polygon class="cls-3" points="15.51 34.76 16.39 29.19 18.18 29.32 17.3 34.89 15.51 34.76"/><path class="cls-6" d="M18,29.49l-.83,5.21-1.42-.11L16,32.82l.55-3.44,1.25.09Zm.42-.33h0l-.39,0L16.57,29l-.33,0,0,.32-.82,5.22-.06.38h0l.82.22,1.42.1L18.38,30v-.87Z"/><path class="cls-6" d="M22.47,29v0H20.32l0,.33-.08,1a1.75,1.75,0,0,0-.41-.08h-.2a2.21,2.21,0,0,0-2.16,2.22,2.41,2.41,0,0,0,.48,1.75,2,2,0,0,0,1.17.72,1.65,1.65,0,0,0,.69.22,1.47,1.47,0,0,0,.55,0h0l.14.1,1.58,0,.45-5.31Zm-.83,5.66-1.29,0,0-.37h0a1.18,1.18,0,0,1-.87.32h-.14a1.63,1.63,0,0,1-.95-.41,2,2,0,0,1-.62-1.71,1.87,1.87,0,0,1,1.81-1.89h.17a1.21,1.21,0,0,1,.75.31l.13-1.56h1.43Z"/><path class="cls-5" d="M20.65,29.29l-.13,1.56a1.21,1.21,0,0,0-.75-.31H19.6a1.87,1.87,0,0,0-1.81,1.89,2,2,0,0,0,.62,1.71,1.63,1.63,0,0,0,.95.41h.14a1.18,1.18,0,0,0,.87-.32h0l0,.37,1.29,0,.44-5.32H20.65Z"/><path class="cls-3" d="M20.15,34.77l0-.19a1.57,1.57,0,0,1-.67.14h-.15a2,2,0,0,1-1.73-2.31,2,2,0,0,1,2-2.06h.18a1.56,1.56,0,0,1,.59.16l.12-1.41h1.79l-.48,5.68Zm-.3-2.63a.39.39,0,0,0-.35.39.51.51,0,0,0,.07.31.32.32,0,0,0,.25.14h0a.4.4,0,0,0,.36-.39.48.48,0,0,0-.08-.31.36.36,0,0,0-.23-.14h0"/><path class="cls-6" d="M20,32.39a.15.15,0,0,0-.1-.07h0c-.11,0-.17.14-.17.23a.3.3,0,0,0,0,.19.12.12,0,0,0,.09.06.56.56,0,0,1,.21-.22A.3.3,0,0,0,20,32.39Z"/><path class="cls-5" d="M20,32.39a.15.15,0,0,0-.1-.07h0c-.11,0-.17.14-.17.23a.3.3,0,0,0,0,.19.12.12,0,0,0,.09.06h0c.1,0,.17-.11.18-.22h0A.3.3,0,0,0,20,32.39Z"/><path class="cls-6" d="M19.9,32h0a.62.62,0,0,0-.12,1.19h.11a.57.57,0,0,0,.54-.55v-.09A.56.56,0,0,0,19.9,32Z"/><path class="cls-6" d="M20,32.58c0,.11-.08.22-.18.22h0a.12.12,0,0,1-.09-.06.3.3,0,0,1,0-.19c0-.09.06-.23.17-.23h0a.15.15,0,0,1,.1.07.3.3,0,0,1,.05.19Z"/><path class="cls-5" d="M20.65,29.29l-.13,1.56a1.21,1.21,0,0,0-.75-.31H19.6a1.87,1.87,0,0,0-1.81,1.89,2,2,0,0,0,.62,1.71,1.63,1.63,0,0,0,.95.41h.14a1.18,1.18,0,0,0,.87-.32h0l0,.37,1.29,0,.44-5.32H20.65Z"/><path class="cls-5" d="M20.65,29.29l-.13,1.56a1.21,1.21,0,0,0-.75-.31H19.6a1.87,1.87,0,0,0-1.81,1.89,2,2,0,0,0,.62,1.71,1.63,1.63,0,0,0,.95.41h.14a1.18,1.18,0,0,0,.87-.32h0l0,.37,1.29,0,.44-5.32H20.65Z"/><path class="cls-6" d="M22.47,29v0H20.32l0,.33-.08,1a1.75,1.75,0,0,0-.41-.08h-.2a2.21,2.21,0,0,0-2.16,2.22,2.41,2.41,0,0,0,.48,1.75,2,2,0,0,0,1.17.72,1.65,1.65,0,0,0,.69.22,1.47,1.47,0,0,0,.55,0h0l.14.1,1.58,0,.45-5.31Zm-.83,5.66-1.29,0,0-.37h0a1.18,1.18,0,0,1-.87.32h-.14a1.63,1.63,0,0,1-.95-.41,2,2,0,0,1-.62-1.71,1.87,1.87,0,0,1,1.81-1.89h.17a1.21,1.21,0,0,1,.75.31l.13-1.56h1.43Z"/><path class="cls-6" d="M22.47,29v0H20.32l0,.33-.08,1a1.75,1.75,0,0,0-.41-.08h-.2a2.21,2.21,0,0,0-2.16,2.22,2.41,2.41,0,0,0,.48,1.75,2,2,0,0,0,1.17.72,1.65,1.65,0,0,0,.69.22,1.47,1.47,0,0,0,.55,0h0l.14.1,1.58,0,.45-5.31Zm-.83,5.66-1.29,0,0-.37h0a1.18,1.18,0,0,1-.87.32h-.14a1.63,1.63,0,0,1-.95-.41,2,2,0,0,1-.62-1.71,1.87,1.87,0,0,1,1.81-1.89h.17a1.21,1.21,0,0,1,.75.31l.13-1.56h1.43Z"/><path class="cls-7" d="M19.81,32.8h0c.1,0,.17-.11.18-.22h0A.56.56,0,0,0,19.81,32.8Z"/><polygon class="cls-3" points="13.8 30.15 15.59 30 15.59 34.15 13.8 34.29 13.8 30.15"/><polygon class="cls-5" points="15.41 33.98 13.98 34.1 13.98 30.32 15.41 30.2 15.41 33.98"/><polygon class="cls-5" points="14.74 29.11 13.77 29.3 13.77 29.66 13.72 29.98 13.95 29.96 15.18 29.86 14.74 29.11"/><polygon class="cls-5" points="11.68 29.12 11.38 31.4 11.31 31.92 11.29 31.92 10.66 29.9 10.49 29.34 9.43 29.42 9.14 31.52 9.06 32.06 9.05 32.06 8.42 29.96 8.25 29.39 6.57 29.64 8.19 34.95 9.72 34.84 10.13 31.93 10.15 31.93 10.48 32.97 10.61 33.38 11.03 34.73 12.55 34.62 13.34 29.17 13.35 29.12 13.11 29.12 11.68 29.12"/><polygon class="cls-5" points="15.22 29.38 15.26 28.56 16.27 28.4 15.34 28.12 15.56 27.37 14.91 27.96 14.18 27.68 14.55 28.29 13.87 28.89 14.77 28.66 15.22 29.38"/><path class="cls-6" d="M15.77,29.81l-.29,0,.15-1,1.38-.2-.07-.15h0L15.82,28,16,27l-.11-.21h0l-1,.92-1.28-.5.64,1.09-.55.5H11.37l0,.31-.17,1.22-.33-1.06L10.75,29l-.29,0-1.05.08-.29,0,0,.29-.15,1-.34-1.13L8.5,29,8.19,29l-1.67.26-.41.06.12.4,1.61,5.31.09.28h0l.66.16,1.53-.12.23-1.58.33,1,.08.28h0l.68.16L13,35.16l.65-4.52v3.85h0l.77.15,1.42-.12.07-3.79-.12-.89Zm-2.43-.64-.79,5.45L11,34.74l-.42-1.36L10.48,33l-.33-1h0l-.41,2.91L8.19,35,6.57,29.64l1.68-.25.17.58.63,2.09h0l.07-.54.29-2.1,1.06-.08.17.56.63,2h0l.07-.52.3-2.28h1.67Zm1.21-.88-.37-.61.73.28.66-.59-.23.75.93.28-1,.16,0,.82-.45-.71-.9.22ZM13.72,30l0-.32v-.35l1-.2.44.75L14,30Zm1.69,4L14,34.1V30.32l1.43-.12Z"/><path class="cls-6" d="M35.43,34.31h.5v.09h-.19v.53h-.11V34.4h-.2Z"/><path class="cls-6" d="M36,34.31h.16l.17.48h0l.17-.48h.15v.62h-.1v-.48h0l-.17.48h-.09l-.17-.48h0v.48H36Z"/><polygon class="cls-8" points="64.42 15.64 56.45 18.72 55.38 27.2 49.99 20.57 40.96 20.12 46.23 14.99 42.12 7.5 50.38 9.7 56.23 3.47 56.7 12 64.42 15.64"/><path class="cls-9" d="M45.4,20.53c0,.15,0,.31-.07.47l1.26.11-.45-.54Z"/><polygon class="cls-9" points="62.61 15.64 54.64 18.72 53.56 27.2 48.18 20.57 39.78 19.75 44.42 14.99 40.31 7.5 48.57 9.7 54.42 3.47 54.88 12 62.61 15.64"/><polygon class="cls-10" points="60.58 15.64 52.61 18.72 51.53 27.2 46.14 20.57 38.3 20.11 38.26 19.52 42.39 14.99 38.28 7.5 46.53 9.7 52.39 3.47 52.85 12 60.58 15.64"/><polyline class="cls-11" points="52.52 5.84 52.85 12.01 60.57 15.64 52.6 18.71 51.8 25"/><path class="cls-6" d="M9.57,24.61a7.57,7.57,0,0,1-2,.25,5.38,5.38,0,0,1-5.5-5.51,5.47,5.47,0,0,1,5.75-5.7,5.5,5.5,0,0,1,1.51.21l.57,3.35a3.88,3.88,0,0,0-1.75-.41,2.4,2.4,0,0,0-2.69,2.45A2.48,2.48,0,0,0,8.1,21.71a3.5,3.5,0,0,0,1.92-.5Z"/><path class="cls-12" d="M9.57,24.61a7.57,7.57,0,0,1-2,.25,5.38,5.38,0,0,1-5.5-5.51,5.47,5.47,0,0,1,5.75-5.7,5.5,5.5,0,0,1,1.51.21l.57,3.35a3.88,3.88,0,0,0-1.75-.41,2.4,2.4,0,0,0-2.69,2.45A2.48,2.48,0,0,0,8.1,21.71a3.5,3.5,0,0,0,1.92-.5Z"/><path class="cls-6" d="M13.57,13.9h4.09l3.61,10.71-3.67.25L17.07,23H14.13l-.54,1.86L10,24.61Zm2,3.06h0l-.84,3.37h1.7Z"/><path class="cls-12" d="M13.57,13.9h4.09l3.61,10.71-3.67.25L17.07,23H14.13l-.54,1.86L10,24.61Zm2,3.06h0l-.84,3.37h1.7Z"/><path class="cls-6" d="M28.43,17a9.24,9.24,0,0,0-2.3-.39c-.56,0-1.33,0-1.33.55,0,.84,4.23.78,4.23,4.11,0,2.36-1.82,3.59-4.84,3.59a13,13,0,0,1-2.67-.31V21.49a14,14,0,0,0,2.67.31c.89,0,1.31-.16,1.31-.58,0-1-4.09-.64-4.09-4.06,0-2.33,1.78-3.51,4.17-3.51a14.72,14.72,0,0,1,2.85.28Z"/><path class="cls-12" d="M28.43,17a9.24,9.24,0,0,0-2.3-.39c-.56,0-1.33,0-1.33.55,0,.84,4.23.78,4.23,4.11,0,2.36-1.82,3.59-4.84,3.59a13,13,0,0,1-2.67-.31V21.49a14,14,0,0,0,2.67.31c.89,0,1.31-.16,1.31-.58,0-1-4.09-.64-4.09-4.06,0-2.33,1.78-3.51,4.17-3.51a14.72,14.72,0,0,1,2.85.28Z"/><polygon class="cls-6" points="29.41 24.86 29.41 13.9 32.8 13.65 32.8 17.55 34.83 17.55 34.83 13.9 38.22 13.65 38.22 24.61 34.83 24.86 34.83 20.61 32.8 20.61 32.8 24.61 29.41 24.86"/><polygon class="cls-12" points="29.41 24.86 29.41 13.9 32.8 13.65 32.8 17.55 34.83 17.55 34.83 13.9 38.22 13.65 38.22 24.61 34.83 24.86 34.83 20.61 32.8 20.61 32.8 24.61 29.41 24.86"/><path class="cls-6" d="M8.8,23.84a7.57,7.57,0,0,1-2,.25,5.38,5.38,0,0,1-5.5-5.51,5.47,5.47,0,0,1,5.75-5.7,5.5,5.5,0,0,1,1.51.21l.57,3.35A3.88,3.88,0,0,0,7.4,16a2.4,2.4,0,0,0-2.69,2.45,2.48,2.48,0,0,0,2.62,2.46,3.5,3.5,0,0,0,1.92-.5Z"/><path class="cls-13" d="M8.8,23.84a7.57,7.57,0,0,1-2,.25,5.38,5.38,0,0,1-5.5-5.51,5.47,5.47,0,0,1,5.75-5.7,5.5,5.5,0,0,1,1.51.21l.57,3.35A3.88,3.88,0,0,0,7.4,16a2.4,2.4,0,0,0-2.69,2.45,2.48,2.48,0,0,0,2.62,2.46,3.5,3.5,0,0,0,1.92-.5Z"/><path class="cls-6" d="M12.8,13.13h4.09L20.5,23.84l-3.67.25-.53-1.86H13.36l-.54,1.86-3.55-.25Zm2,3.06h0L14,19.56h1.7Z"/><path class="cls-13" d="M12.8,13.13h4.09L20.5,23.84l-3.67.25-.53-1.86H13.36l-.54,1.86-3.55-.25Zm2,3.06h0L14,19.56h1.7Z"/><path class="cls-6" d="M27.66,16.23a9.24,9.24,0,0,0-2.3-.39c-.56,0-1.33,0-1.33.55,0,.84,4.23.78,4.23,4.11,0,2.36-1.82,3.59-4.84,3.59a13,13,0,0,1-2.67-.31V20.72a14,14,0,0,0,2.67.31c.89,0,1.31-.16,1.31-.58,0-1-4.09-.64-4.09-4.06,0-2.33,1.78-3.51,4.17-3.51a14.72,14.72,0,0,1,2.85.28Z"/><path class="cls-13" d="M27.66,16.23a9.24,9.24,0,0,0-2.3-.39c-.56,0-1.33,0-1.33.55,0,.84,4.23.78,4.23,4.11,0,2.36-1.82,3.59-4.84,3.59a13,13,0,0,1-2.67-.31V20.72a14,14,0,0,0,2.67.31c.89,0,1.31-.16,1.31-.58,0-1-4.09-.64-4.09-4.06,0-2.33,1.78-3.51,4.17-3.51a14.72,14.72,0,0,1,2.85.28Z"/><polygon class="cls-6" points="28.64 24.09 28.64 13.13 32.03 12.88 32.03 16.78 34.06 16.78 34.06 13.13 37.45 12.88 37.45 23.84 34.06 24.09 34.06 19.84 32.03 19.84 32.03 23.84 28.64 24.09"/><polygon class="cls-13" points="28.64 24.09 28.64 13.13 32.03 12.88 32.03 16.78 34.06 16.78 34.06 13.13 37.45 12.88 37.45 23.84 34.06 24.09 34.06 19.84 32.03 19.84 32.03 23.84 28.64 24.09"/><polygon class="cls-6" points="38.22 21.56 44 20.46 49.39 27.09 50.47 18.61 58.44 15.54 50.71 11.89 50.24 3.36 44.39 9.59 36.14 7.39 40.25 14.88 38.22 18.02 38.22 21.56"/><line class="cls-14" x1="9.87" y1="12.74" x2="10.43" y2="16.12"/><path class="cls-15" d="M2.71,23.79s.17.2.39.41.21.19.52.43a1.63,1.63,0,0,0,.19.09,5.08,5.08,0,0,0,1.41.51,7.83,7.83,0,0,0,1.32.17A9.87,9.87,0,0,0,9,25.15l4.75.32.58-1.92h1l.09.4"/><path class="cls-14" d="M16.54,25.45l4.3-.31s.55.11,1.14.18c.35,0,.71.06,1,.07a11.82,11.82,0,0,0,1.2,0,8.26,8.26,0,0,0,1.41-.2c.29-.07.71-.2,1-.29s.81-.38.81-.38v.92l.41,0"/><polyline class="cls-14" points="28.08 25.44 32.73 25.11 32.74 25.5 38.77 25.06 38.77 21.46"/><line class="cls-15" x1="38.76" y1="17.16" x2="39.54" y2="16"/><path class="cls-14" d="M18.21,12.84l1.11,3.4s0-.23,0-.42.11-.69.11-.69"/><line class="cls-15" x1="38.77" y1="12.28" x2="39.41" y2="13.35"/><line class="cls-14" x1="50.36" y1="19.36" x2="49.66" y2="24.9"/><path class="cls-14" d="M9.63,18.52l.13-.38s-1.28-.57-1.42-.61a2.43,2.43,0,0,0-.74-.18,1.93,1.93,0,0,0-1,.16c-.24.13-.51.32-.53,1a1.1,1.1,0,0,0,.72,1l.08,0"/><line class="cls-15" x1="38.76" y1="17.16" x2="38.76" y2="12.3"/><polygon class="cls-10" points="60.58 15.64 52.61 18.72 51.53 27.2 46.14 20.57 38.3 20.11 38.26 19.52 42.39 14.99 38.28 7.5 46.53 9.7 52.39 3.47 52.85 12 60.58 15.64"/><polygon class="cls-6" points="58.44 15.54 50.71 11.89 50.37 5.62 46.53 9.7 44.74 9.22 44.39 9.59 38.58 8.04 42.39 14.99 38.26 19.52 38.3 20.11 46.14 20.57 49.67 24.91 50.47 18.61 58.44 15.54"/><polyline class="cls-14" points="50.37 5.62 50.71 11.89 58.44 15.54 50.47 18.61 49.67 24.9"/><line class="cls-15" x1="39.27" y1="21.38" x2="38.77" y2="21.45"/><polygon class="cls-6" points="58.44 15.54 50.47 18.61 49.39 27.09 44 20.46 35.61 22.05 40.25 14.88 36.14 7.39 44.39 9.59 50.24 3.36 50.71 11.89 58.44 15.54"/><path class="cls-7" d="M45.63,19.35H39.36l4.93-9.73h5v7.1h2.11l-.56,2.63H49.26v2.91l-3.63.3Zm.27-2.63V12.34h0L43.7,16.72Z"/><path class="cls-6" d="M8.8,23.84a7.57,7.57,0,0,1-2,.25,5.38,5.38,0,0,1-5.5-5.51,5.47,5.47,0,0,1,5.75-5.7,5.5,5.5,0,0,1,1.51.21l.57,3.35A3.88,3.88,0,0,0,7.4,16a2.4,2.4,0,0,0-2.69,2.45,2.48,2.48,0,0,0,2.62,2.46,3.5,3.5,0,0,0,1.92-.5Z"/><path class="cls-13" d="M8.8,23.84a7.57,7.57,0,0,1-2,.25,5.38,5.38,0,0,1-5.5-5.51,5.47,5.47,0,0,1,5.75-5.7,5.5,5.5,0,0,1,1.51.21l.57,3.35A3.88,3.88,0,0,0,7.4,16a2.4,2.4,0,0,0-2.69,2.45,2.48,2.48,0,0,0,2.62,2.46,3.5,3.5,0,0,0,1.92-.5Z"/><path class="cls-6" d="M12.8,13.13h4.09L20.5,23.84l-3.67.25-.53-1.86H13.36l-.54,1.86-3.55-.25Zm2,3.06h0L14,19.56h1.7Z"/><path class="cls-9" d="M40.63,6a12.61,12.61,0,0,1,4.56,2.77l1.29-1.36a14.81,14.81,0,0,0-5.63-2.76C30.44,1.81,21.65,7.19,16.21,12h.34C21.89,7.66,30.35,3.14,40.63,6Z"/><path class="cls-9" d="M41.66,3.73a15.56,15.56,0,0,1,5.66,2.74l1.13-1.2a17.55,17.55,0,0,0-6.57-2.75C30.17,0,20.93,6.57,15.55,12h.38C21.47,6.79,30.68.7,41.66,3.73Z"/><path class="cls-9" d="M37,7.58a11,11,0,0,1,1.69.62l-.38-.7,4.26,1.13a14.7,14.7,0,0,0-5-2.15c-8.83-1.75-16,1.85-20.74,5.56h.59C22.22,8.57,29.17,5.42,37,7.58Z"/><path class="cls-9" d="M45.44.94C31.07-2.84,20.57,5.58,14.92,12h.35C25.37,1.14,36.94-.64,45,2.3a16.87,16.87,0,0,1,4.18,2.2l1.07-1.14.11,2.11.08.08,1.25-1.34A15.46,15.46,0,0,0,45.44.94Z"/><path class="cls-13" d="M12.8,13.13h4.09L20.5,23.84l-3.67.25-.53-1.86H13.36l-.54,1.86-3.55-.25Zm2,3.06h0L14,19.56h1.7Z"/><path class="cls-6" d="M27.66,16.23a9.24,9.24,0,0,0-2.3-.39c-.56,0-1.33,0-1.33.55,0,.84,4.23.78,4.23,4.11,0,2.36-1.82,3.59-4.84,3.59a13,13,0,0,1-2.67-.31V20.72a14,14,0,0,0,2.67.31c.89,0,1.31-.16,1.31-.58,0-1-4.09-.64-4.09-4.06,0-2.33,1.78-3.51,4.17-3.51a14.72,14.72,0,0,1,2.85.28Z"/><path class="cls-13" d="M27.66,16.23a9.24,9.24,0,0,0-2.3-.39c-.56,0-1.33,0-1.33.55,0,.84,4.23.78,4.23,4.11,0,2.36-1.82,3.59-4.84,3.59a13,13,0,0,1-2.67-.31V20.72a14,14,0,0,0,2.67.31c.89,0,1.31-.16,1.31-.58,0-1-4.09-.64-4.09-4.06,0-2.33,1.78-3.51,4.17-3.51a14.72,14.72,0,0,1,2.85.28Z"/><polygon class="cls-6" points="28.64 24.09 28.64 13.13 32.03 12.88 32.03 16.78 34.06 16.78 34.06 13.13 37.45 12.88 37.45 23.84 34.06 24.09 34.06 19.84 32.03 19.84 32.03 23.84 28.64 24.09"/><polygon class="cls-13" points="28.64 24.09 28.64 13.13 32.03 12.88 32.03 16.78 34.06 16.78 34.06 13.13 37.45 12.88 37.45 23.84 34.06 24.09 34.06 19.84 32.03 19.84 32.03 23.84 28.64 24.09"/><path class="cls-6" d="M8.8,23.84a7.57,7.57,0,0,1-2,.25,5.38,5.38,0,0,1-5.5-5.51,5.47,5.47,0,0,1,5.75-5.7,5.5,5.5,0,0,1,1.51.21l.57,3.35A3.88,3.88,0,0,0,7.4,16a2.4,2.4,0,0,0-2.69,2.45,2.48,2.48,0,0,0,2.62,2.46,3.5,3.5,0,0,0,1.92-.5Z"/><path class="cls-16" d="M8.8,23.84a7.57,7.57,0,0,1-2,.25,5.38,5.38,0,0,1-5.5-5.51,5.47,5.47,0,0,1,5.75-5.7,5.5,5.5,0,0,1,1.51.21l.57,3.35A3.88,3.88,0,0,0,7.4,16a2.4,2.4,0,0,0-2.69,2.45,2.48,2.48,0,0,0,2.62,2.46,3.5,3.5,0,0,0,1.92-.5Z"/><path class="cls-6" d="M8.8,23.84a7.57,7.57,0,0,1-2,.25,5.38,5.38,0,0,1-5.5-5.51,5.47,5.47,0,0,1,5.75-5.7,5.5,5.5,0,0,1,1.51.21l.57,3.35A3.88,3.88,0,0,0,7.4,16a2.4,2.4,0,0,0-2.69,2.45,2.48,2.48,0,0,0,2.62,2.46,3.5,3.5,0,0,0,1.92-.5Z"/><path class="cls-6" d="M12.8,13.13h4.09L20.5,23.84l-3.67.25-.53-1.86H13.36l-.54,1.86-3.55-.25Zm2,3.06h0L14,19.56h1.7Z"/><path class="cls-6" d="M27.66,16.23a9.24,9.24,0,0,0-2.3-.39c-.56,0-1.33,0-1.33.55,0,.84,4.23.78,4.23,4.11,0,2.36-1.82,3.59-4.84,3.59a13,13,0,0,1-2.67-.31V20.72a14,14,0,0,0,2.67.31c.89,0,1.31-.16,1.31-.58,0-1-4.09-.64-4.09-4.06,0-2.33,1.78-3.51,4.17-3.51a14.72,14.72,0,0,1,2.85.28Z"/><polygon class="cls-6" points="28.64 24.09 28.64 13.13 32.03 12.88 32.03 16.78 34.06 16.78 34.06 13.13 37.45 12.88 37.45 23.84 34.06 24.09 34.06 19.84 32.03 19.84 32.03 23.84 28.64 24.09"/><path class="cls-6" d="M12.8,13.13h4.09L20.5,23.84l-3.67.25-.53-1.86H13.36l-.54,1.86-3.55-.25Zm2,3.06h0L14,19.56h1.7Z"/><path class="cls-16" d="M12.8,13.13h4.09L20.5,23.84l-3.67.25-.53-1.86H13.36l-.54,1.86-3.55-.25Zm2,3.06h0L14,19.56h1.7Z"/><path class="cls-6" d="M27.66,16.23a9.24,9.24,0,0,0-2.3-.39c-.56,0-1.33,0-1.33.55,0,.84,4.23.78,4.23,4.11,0,2.36-1.82,3.59-4.84,3.59a13,13,0,0,1-2.67-.31V20.72a14,14,0,0,0,2.67.31c.89,0,1.31-.16,1.31-.58,0-1-4.09-.64-4.09-4.06,0-2.33,1.78-3.51,4.17-3.51a14.72,14.72,0,0,1,2.85.28Z"/><path class="cls-16" d="M27.66,16.23a9.24,9.24,0,0,0-2.3-.39c-.56,0-1.33,0-1.33.55,0,.84,4.23.78,4.23,4.11,0,2.36-1.82,3.59-4.84,3.59a13,13,0,0,1-2.67-.31V20.72a14,14,0,0,0,2.67.31c.89,0,1.31-.16,1.31-.58,0-1-4.09-.64-4.09-4.06,0-2.33,1.78-3.51,4.17-3.51a14.72,14.72,0,0,1,2.85.28Z"/><polygon class="cls-6" points="28.64 24.09 28.64 13.13 32.03 12.88 32.03 16.78 34.06 16.78 34.06 13.13 37.45 12.88 37.45 23.84 34.06 24.09 34.06 19.84 32.03 19.84 32.03 23.84 28.64 24.09"/><polygon class="cls-16" points="28.64 24.09 28.64 13.13 32.03 12.88 32.03 16.78 34.06 16.78 34.06 13.13 37.45 12.88 37.45 23.84 34.06 24.09 34.06 19.84 32.03 19.84 32.03 23.84 28.64 24.09"/><path class="cls-6" d="M8.8,23.84a7.57,7.57,0,0,1-2,.25,5.38,5.38,0,0,1-5.5-5.51,5.47,5.47,0,0,1,5.75-5.7,5.5,5.5,0,0,1,1.51.21l.57,3.35A3.88,3.88,0,0,0,7.4,16a2.4,2.4,0,0,0-2.69,2.45,2.48,2.48,0,0,0,2.62,2.46,3.5,3.5,0,0,0,1.92-.5Z"/><path class="cls-6" d="M12.8,13.13h4.09L20.5,23.84l-3.67.25-.53-1.86H13.36l-.54,1.86-3.55-.25Zm2,3.06h0L14,19.56h1.7Z"/><path class="cls-6" d="M27.66,16.23a9.24,9.24,0,0,0-2.3-.39c-.56,0-1.33,0-1.33.55,0,.84,4.23.78,4.23,4.11,0,2.36-1.82,3.59-4.84,3.59a13,13,0,0,1-2.67-.31V20.72a14,14,0,0,0,2.67.31c.89,0,1.31-.16,1.31-.58,0-1-4.09-.64-4.09-4.06,0-2.33,1.78-3.51,4.17-3.51a14.72,14.72,0,0,1,2.85.28Z"/><polygon class="cls-6" points="28.64 24.09 28.64 13.13 32.03 12.88 32.03 16.78 34.06 16.78 34.06 13.13 37.45 12.88 37.45 23.84 34.06 24.09 34.06 19.84 32.03 19.84 32.03 23.84 28.64 24.09"/></g></g></svg>