<svg xmlns="http://www.w3.org/2000/svg" xmlns:xlink="http://www.w3.org/1999/xlink" viewBox="0 0 199.16 146"><defs><style>.cls-1{fill:#fff;}.cls-2{fill:url(#radial-gradient);}.cls-3{fill:url(#radial-gradient-2);}.cls-4{fill:url(#linear-gradient);}.cls-5{fill:url(#radial-gradient-3);}.cls-6{fill:url(#linear-gradient-2);}.cls-7{fill:url(#linear-gradient-3);}.cls-8{fill:#0077a3;}.cls-9{fill:url(#linear-gradient-4);}.cls-10{fill:url(#linear-gradient-5);}.cls-11{fill:url(#linear-gradient-6);}.cls-12{fill:url(#linear-gradient-7);}.cls-13{fill:url(#linear-gradient-8);}.cls-14{fill:url(#linear-gradient-9);}.cls-15{fill:#00bcf2;}.cls-16{fill:url(#linear-gradient-10);}.cls-17{fill:url(#linear-gradient-11);}.cls-18{fill:#59d0f6;}.cls-19{fill:url(#linear-gradient-12);}.cls-20{fill:#01bcf1;}.cls-21{fill:#fa9d0f;}</style><radialGradient id="radial-gradient" cx="103.95" cy="58.59" r="56.18" gradientUnits="userSpaceOnUse"><stop offset="0.65" stop-color="#fef100"/><stop offset="1" stop-color="#ffd600"/></radialGradient><radialGradient id="radial-gradient-2" cx="103.95" cy="58.59" r="56.18" gradientUnits="userSpaceOnUse"><stop offset="0.66" stop-color="#ab8b00"/><stop offset="0.75" stop-color="#dcad09" stop-opacity="0"/></radialGradient><linearGradient id="linear-gradient" x1="91.06" y1="94.01" x2="116.84" y2="23.17" gradientUnits="userSpaceOnUse"><stop offset="0" stop-color="#dd5d1b"/><stop offset="0.04" stop-color="#e1691c"/><stop offset="0.13" stop-color="#ea7f1f"/><stop offset="0.24" stop-color="#f19121"/><stop offset="0.38" stop-color="#f69d23"/><stop offset="0.56" stop-color="#f8a424"/><stop offset="1" stop-color="#f9a624"/></linearGradient><radialGradient id="radial-gradient-3" cx="103.95" cy="58.59" r="37.68" gradientUnits="userSpaceOnUse"><stop offset="0" stop-color="#ffca09"/><stop offset="1" stop-color="#ffca09" stop-opacity="0"/></radialGradient><linearGradient id="linear-gradient-2" x1="90.48" y1="47.21" x2="113.44" y2="24.24" gradientUnits="userSpaceOnUse"><stop offset="0" stop-color="#ffd033" stop-opacity="0"/><stop offset="1" stop-color="#ffd033"/></linearGradient><linearGradient id="linear-gradient-3" x1="72" y1="58.85" x2="138.7" y2="58.85" gradientUnits="userSpaceOnUse"><stop offset="0" stop-color="#c15911"/><stop offset="0.02" stop-color="#c15d10"/><stop offset="0.11" stop-color="#c3680d"/><stop offset="0.2" stop-color="#c36c0c"/><stop offset="0.26" stop-color="#c25f0f"/><stop offset="0.32" stop-color="#c15911"/><stop offset="0.37" stop-color="#c25f0f"/><stop offset="0.5" stop-color="#c3690d"/><stop offset="0.67" stop-color="#c36c0c"/><stop offset="0.71" stop-color="#be5e0f"/><stop offset="0.76" stop-color="#ba5211"/><stop offset="0.83" stop-color="#b84b13"/><stop offset="1" stop-color="#b74913"/></linearGradient><linearGradient id="linear-gradient-4" x1="92.46" y1="20.62" x2="92.08" y2="18.43" gradientUnits="userSpaceOnUse"><stop offset="0" stop-color="#00c9f1"/><stop offset="1" stop-color="#0076a0"/></linearGradient><linearGradient id="linear-gradient-5" x1="85.63" y1="49.47" x2="88.66" y2="48.83" gradientUnits="userSpaceOnUse"><stop offset="0" stop-color="#0076a0"/><stop offset="1" stop-color="#00c9f1"/></linearGradient><linearGradient id="linear-gradient-6" x1="120.26" y1="73.11" x2="119.71" y2="69.94" xlink:href="#linear-gradient-5"/><linearGradient id="linear-gradient-7" x1="144.03" y1="56.08" x2="146.04" y2="55.65" xlink:href="#linear-gradient-4"/><linearGradient id="linear-gradient-8" x1="106.82" y1="33.92" x2="108.56" y2="33.55" xlink:href="#linear-gradient-4"/><linearGradient id="linear-gradient-9" x1="127.1" y1="48.38" x2="126.78" y2="46.6" xlink:href="#linear-gradient-4"/><linearGradient id="linear-gradient-10" x1="98.6" y1="50.73" x2="93.32" y2="20.78" gradientUnits="userSpaceOnUse"><stop offset="0.28" stop-color="#7fd9f8"/><stop offset="0.33" stop-color="#73d7f8"/><stop offset="0.55" stop-color="#42d0f7"/><stop offset="0.74" stop-color="#1ecaf6"/><stop offset="0.9" stop-color="#08c7f5"/><stop offset="1" stop-color="#00c6f5"/></linearGradient><linearGradient id="linear-gradient-11" x1="126.47" y1="51.87" x2="126.07" y2="49.59" gradientUnits="userSpaceOnUse"><stop offset="0" stop-color="#0accf6"/><stop offset="1" stop-color="#7fd9f8"/></linearGradient><linearGradient id="linear-gradient-12" x1="93.22" y1="23.09" x2="92.85" y2="20.97" gradientUnits="userSpaceOnUse"><stop offset="0" stop-color="#23cef6"/><stop offset="0.2" stop-color="#48d4f7"/><stop offset="0.44" stop-color="#6edbf8"/><stop offset="0.66" stop-color="#89dff9"/><stop offset="0.85" stop-color="#99e2fa"/><stop offset="1" stop-color="#9fe3fa"/></linearGradient></defs><g id="Layer_2" data-name="Layer 2"><g id="Layer_1-2" data-name="Layer 1"><path class="cls-1" d="M162,47.28a2.37,2.37,0,0,0-2.36-.89c-7.47-1.42-11.69-3.31-12.54-5.62s1-6.11,5.62-11.8a2.42,2.42,0,0,0,.84-1.17l.06-.19A2.37,2.37,0,0,0,150,24.94c-7.4,1.74-12,1.73-13.74,0s-1.55-6,.33-13.07a2.34,2.34,0,0,0,.29-1.4l0-.2a2.36,2.36,0,0,0-4.39-1c-6.06,4.6-10.29,6.47-12.57,5.56S116,10,114.85,2.77a2.44,2.44,0,0,0-.31-1.41l-.1-.17A2.37,2.37,0,0,0,110,2.1c-3.66,6.67-6.76,10.1-9.22,10.19s-5.49-2.85-9.48-9a2.45,2.45,0,0,0-.85-1.16L90.31,2a2.37,2.37,0,0,0-3.65,2.63c-.64,7.58-2.07,12-4.28,13.06s-6.18-.37-12.33-4.35a2.37,2.37,0,0,0-1.24-.72l-.2,0a2.37,2.37,0,0,0-2.27,3.89c2.5,7.18,3,11.78,1.4,13.67s-5.79,2.17-13,1a2.37,2.37,0,0,0-1.42-.14l-.2,0a2.37,2.37,0,0,0-.5,4.47c5.21,5.55,7.51,9.56,6.84,11.92S55,51.82,48,53.73a2.33,2.33,0,0,0-1.36.45l-.16.11a2.37,2.37,0,0,0,1.36,4.29c7,3,10.75,5.67,11.1,8.11s-2.26,5.76-8,10.37a2.42,2.42,0,0,0-1.06,1l-.1.17a2.37,2.37,0,0,0,3,3.37c7.61-.17,12.13.8,13.44,2.89s.27,6.18-3,12.71a2.32,2.32,0,0,0-.59,1.41,2.37,2.37,0,0,0,4.09,2c6.88-3.25,11.4-4.2,13.45-2.83s2.76,5.54,2.39,12.85a2.4,2.4,0,0,0,0,1.43l.07.2a2.36,2.36,0,0,0,2.55,1.62,2.39,2.39,0,0,0,2-1.59c5-5.77,8.71-8.48,11.13-8.06s4.78,3.94,7.42,10.77a2.28,2.28,0,0,0,.59,1.31l.13.15a2.39,2.39,0,0,0,1.77.79,2.38,2.38,0,0,0,2.35-2.6c2.2-7.28,4.52-11.28,6.9-11.88s6,1.65,11.15,6.82a2.41,2.41,0,0,0,1.07,1l.19.08a2.37,2.37,0,0,0,3-3.32c-1-7.55-.46-12.15,1.47-13.67s6.12-.92,13,1.7a2.42,2.42,0,0,0,1.36.44h.21a2.37,2.37,0,0,0,1.41-4.28c-3.94-6.5-5.36-10.9-4.21-13.08s5.22-3.33,12.53-3.72a2.32,2.32,0,0,0,1.42-.15l.19-.09a2.36,2.36,0,0,0,1.35-2.7,2.4,2.4,0,0,0-1.8-1.78c-6.25-4.34-9.33-7.78-9.17-10.23s3.41-5.16,9.93-8.5a2.34,2.34,0,0,0,1.25-.72l.13-.15A2.37,2.37,0,0,0,162,47.28Zm-2,1.58-.12,0C144.91,56.35,144,62,158.91,72.23h.28l-.19.08-.09-.07c-16.69.8-19.86,5.6-10.36,21l.26.1h-.2l-.06-.1c-15.57-6.06-20.42-3-18,15l.2.2-.19-.08s0-.08,0-.12c-11.76-11.86-17.45-11-22.53,6.35,0,.09.06.18.1.27l-.14-.15a.56.56,0,0,1,0-.12c-5.92-15.62-11.47-17.15-23.17-3.36,0,.1,0,.19,0,.28l-.06-.19.08-.09c1-16.68-3.49-20.34-19.8-12.5a2,2,0,0,1-.13.25l0-.2.11,0c7.65-14.84,5.08-20-13-19.46l-.22.17.1-.17h.12c13-10.46,12.77-16.21-4-23.08l-.27.08L48,56.1l.11,0c16.15-4.25,18.26-9.6,5.76-22.69l-.27,0,.19,0,.08.08c16.49,2.69,20.59-1.34,14.5-18.38l-.24-.15.2,0s0,.07,0,.11c14,9.16,19.36,7.14,20.72-10.9l-.15-.23.16.12s0,.07,0,.11c9,14.05,14.78,14.4,23.36-1.52,0-.1,0-.19,0-.28l.1.17-.06.11c2.54,16.51,7.64,19.16,22,8.1,0-.09.05-.18.08-.27l0,.2-.1.07c-4.39,16.12-.81,20.62,16.77,16.34l.18-.22-.07.2-.11,0C140.59,40,142,45.6,159.83,48.84l.25-.13Z"/><path class="cls-2" d="M64.92,98.93c7.83-15.07,5.31-20.27-13-19.71l-.1.17C65.11,68.8,64.92,63,48,56.1l-.16.12c16.44-4.27,18.61-9.63,6-22.85l-.19,0C70.33,36.2,74.5,32.19,68.31,15l-.2,0c14.18,9.36,19.61,7.39,21-10.86l-.16-.12c9.14,14.32,14.9,14.73,23.57-1.4l-.1-.17c2.53,16.8,7.62,19.52,22.1,8.31l0-.2c-4.53,16.38-1,20.94,16.8,16.59l.07-.2c-10.8,13.12-9.41,18.73,8.61,22l.13-.15C144.89,56.31,143.87,62,159,72.3l.19-.08c-17,.75-20.21,5.54-10.58,21.11h.2c-15.81-6.21-20.72-3.16-18.25,15l.19.08c-11.92-12.1-17.65-11.31-22.77,6.27l.14.15c-6-15.91-11.52-17.51-23.35-3.54l.06.19c1-17-3.4-20.68-19.89-12.73"/><path class="cls-3" d="M64.92,98.93c7.83-15.07,5.31-20.27-13-19.71l-.1.17C65.11,68.8,64.92,63,48,56.1l-.16.12c16.44-4.27,18.61-9.63,6-22.85l-.19,0C70.33,36.2,74.5,32.19,68.31,15l-.2,0c14.18,9.36,19.61,7.39,21-10.86l-.16-.12c9.14,14.32,14.9,14.73,23.57-1.4l-.1-.17c2.53,16.8,7.62,19.52,22.1,8.31l0-.2c-4.53,16.38-1,20.94,16.8,16.59l.07-.2c-10.8,13.12-9.41,18.73,8.61,22l.13-.15C144.89,56.31,143.87,62,159,72.3l.19-.08c-17,.75-20.21,5.54-10.58,21.11h.2c-15.81-6.21-20.72-3.16-18.25,15l.19.08c-11.92-12.1-17.65-11.31-22.77,6.27l.14.15c-6-15.91-11.52-17.51-23.35-3.54l.06.19c1-17-3.4-20.68-19.89-12.73"/><circle class="cls-4" cx="103.95" cy="58.59" r="37.68"/><circle class="cls-5" cx="103.95" cy="58.59" r="37.68"/><ellipse class="cls-6" cx="101.96" cy="35.72" rx="20.41" ry="10.52"/><path class="cls-7" d="M89.8,82.07l-11-51.54a37.64,37.64,0,0,0-6.78,8c7.93,10.27,14.64,26.23,14.84,48.59,0,0,21.61-11.51,47.64-6.55a37.54,37.54,0,0,0,4.22-7.5Z"/><polygon class="cls-8" points="77.57 24.9 79.63 20.79 104.7 16.21 111.97 49.37 143.42 43.68 148.59 67.42 146.58 71.7 89.81 82.1 77.57 24.9"/><polygon class="cls-9" points="103.68 18.59 104.65 16.21 79.53 20.8 82.76 22.33 103.68 18.59"/><polygon class="cls-10" points="82.76 22.33 79.53 20.8 91.86 78.12 94.17 74.73 82.76 22.33"/><polygon class="cls-11" points="146.09 65.29 94.17 74.73 91.86 78.12 148.59 67.66 146.09 65.29"/><polygon class="cls-12" points="143.37 43.68 141.83 45.76 146.09 65.29 148.59 67.66 143.37 43.68"/><polygon class="cls-13" points="104.65 16.21 103.68 18.59 110.51 51.3 111.92 49.37 104.65 16.21"/><polygon class="cls-14" points="111.92 49.37 110.51 51.3 110.6 51.29 141.83 45.76 143.37 43.68 111.92 49.37"/><polygon class="cls-15" points="94.17 74.73 146.09 65.29 141.83 45.76 110.51 51.3 103.68 18.59 82.76 22.33 94.17 74.73"/><path class="cls-16" d="M107.8,43.53l-5.29-24.37L83.19,22.69l6.58,29.6C92.68,48.9,99,43.07,107.8,43.53Z"/><path class="cls-17" d="M141.67,47l0-.18-31.12,5.57C111.48,54.85,140.13,50.58,141.67,47Z"/><path class="cls-18" d="M94.73,74.06,145,65C144.44,62.25,93.92,69.73,94.73,74.06Z"/><path class="cls-19" d="M102.51,19.27,83.19,22.8C83.42,25.48,103.68,22,102.51,19.27Z"/><path class="cls-1" d="M153.9,92.26h-2.79c-1.89,0-3.9,0-5.9,0a3.23,3.23,0,0,0-3,2.43c-.15.61-.28,1.22-.42,1.82s-.27,1.23-.42,1.83c-.19.76-.38,1.54-.56,2.29-.5,2.08-1,4.22-1.63,6.26a16,16,0,0,1-3.43,6.25c-.18.19-.34.36-.5.51l3.48-15.36,0-.16.48-2.12L139.5,95a3,3,0,0,0,.08-.67,2.72,2.72,0,0,0-2.66-2.72h-.13l-.23,0-.69,0h-1.06A8.94,8.94,0,0,0,132,92a42.74,42.74,0,0,1-10.32,2,1.92,1.92,0,0,0-.41,0q.66-2.91,1.31-5.82c.3-1.32.6-2.64.9-4,.14-.63.28-1.26.42-1.91A2.72,2.72,0,0,0,121.27,79h-1.44l-1.08,0a6.63,6.63,0,0,0-1.85.3,38.13,38.13,0,0,1-10.74,2,3.14,3.14,0,0,0-2.63,1.45A7,7,0,0,0,97.15,79H97a8.44,8.44,0,0,0-8.28,6.37A7.49,7.49,0,0,0,90,92a8.46,8.46,0,0,0,1.17,1.22c-1.4.26-2.82.46-4.3.67L85.54,94a3.49,3.49,0,0,0-1.79.79,2.62,2.62,0,0,0-.39-1.21,2.73,2.73,0,0,0-1.7-1.23h0a3.16,3.16,0,0,0-.85-.12h-3l-3.29,0A3.41,3.41,0,0,0,72,93.6l-.09.11a16.25,16.25,0,0,0-1.76-.92,14.71,14.71,0,0,0-6-1.23,19.67,19.67,0,0,0-4.72.61A19.41,19.41,0,0,0,49.81,98c-.23.24-.45.49-.67.73a21.5,21.5,0,0,0-.8-4.81,17.85,17.85,0,0,0-4-7.23,16.35,16.35,0,0,0-7.13-4.45,29.16,29.16,0,0,0-8.7-1.13l-6.74,0h-10a2.73,2.73,0,0,0-2.66,2.16L8.26,87.3,8,88.72A2.72,2.72,0,0,0,10.62,92h1.16l0,.11v.06c-1.33,5.92-2.69,12-4,18-.37,1.63-.75,3.22-1.14,4.73-.7,0-1.45,0-2.15.06a3.11,3.11,0,0,0-3.18,2.58c-.15.73-.33,1.46-.51,2.23-.07.32-.15.64-.22,1s-.19.81-.29,1.24l-.14.61A2.71,2.71,0,0,0,2.72,126H13.14c2.86,0,5.19,0,7.33,0,2.31,0,4.59-.16,6.78-.39a24,24,0,0,0,13.94-6.41,22.49,22.49,0,0,0,3.06-3.47l.12.68a12.1,12.1,0,0,0,9.54,9.94,14.85,14.85,0,0,0,3.22.36,14,14,0,0,0,8.33-2.79l.76-.58a9.71,9.71,0,0,0,3.83,2.64,10.77,10.77,0,0,0,3.91.71,14.71,14.71,0,0,0,2.71-.27,17,17,0,0,0,8.27-4.25c.12.2.25.39.39.59a8.92,8.92,0,0,0,5.19,3.56,14,14,0,0,0,3.06.35,13.6,13.6,0,0,0,4.07-.63,16.31,16.31,0,0,0,5.8-3.32c.13.19.27.38.42.56a9.33,9.33,0,0,0,6.86,3.38l.66,0a13.66,13.66,0,0,0,3.13-.36,6.63,6.63,0,0,0-1,3.2,7.33,7.33,0,0,0,1.82,5,10.56,10.56,0,0,0,5.33,3.42,26.64,26.64,0,0,0,7.15,1,29.77,29.77,0,0,0,8.57-1.32,18.89,18.89,0,0,0,10.66-7.8,26.06,26.06,0,0,0,3.47-8.62c1.27-5.41,2.57-10.91,3.82-16.23.47-2,.95-4,1.42-6.06.17-.71.34-1.43.51-2.17l.26-1.09a2.76,2.76,0,0,0-.51-2.32A2.73,2.73,0,0,0,153.9,92.26Z"/><path class="cls-1" d="M195.64,101.23a12.39,12.39,0,0,0,3.26-6,10.88,10.88,0,0,0-.66-6.75,12.34,12.34,0,0,0-7.31-6.71,24.11,24.11,0,0,0-8.11-1.45v0a23.61,23.61,0,0,0-9.46,2,15.62,15.62,0,0,0-5.69,4.16,16.1,16.1,0,0,0-3.21,6.27c-.17.64-.29,1.26-.4,1.86-.06.26-.1.51-.16.76a2.71,2.71,0,0,0,2.67,3.28h6a2.71,2.71,0,0,0,2.61-2,1.15,1.15,0,0,0,.06-.21l.1-.32c.43-1.4.81-2,1.41-2.4a6.94,6.94,0,0,1,3.61-1.07,7.51,7.51,0,0,1,2.61.51,1.64,1.64,0,0,1,1.1,1,2.23,2.23,0,0,1-.17,1.67A2.3,2.3,0,0,1,181.73,97c-1.36.1-2.72.12-4.17.14H177a3.5,3.5,0,0,0-2,.55,3.29,3.29,0,0,0-1.41,2.35,9.12,9.12,0,0,1-.23,1c-.06.23-.12.47-.17.72-.16.7-.31,1.39-.47,2.12l-.21.92a2.73,2.73,0,0,0,2.66,3.31h1.29l.6,0,.82,0a11.81,11.81,0,0,1,2,.18,2.51,2.51,0,0,1,2.11,2.3,4.52,4.52,0,0,1-.84,3.06,4.46,4.46,0,0,1-2.74,1.6,5.65,5.65,0,0,1-1.08.11,3.68,3.68,0,0,1-3.81-2.67,11,11,0,0,0-2-4.13,6.86,6.86,0,0,0-5.56-2.78,9,9,0,0,0-1.89.22,6.5,6.5,0,0,0-3.48,2.13,7.27,7.27,0,0,0-1.67,3.63,10,10,0,0,0,2.3,8,16.9,16.9,0,0,0,8.75,5.77,25,25,0,0,0,7,.93c.83,0,1.71,0,2.61-.11a22.86,22.86,0,0,0,9.21-2.56,15.11,15.11,0,0,0,8.19-10.68,11.08,11.08,0,0,0-1-7.11,10.08,10.08,0,0,0-2.51-3.22A13.57,13.57,0,0,0,195.64,101.23Z"/><path class="cls-20" d="M41.26,136.68c0-1.06,0-2.12,0-3.17,0-.31-.06-.43-.39-.41-1.2,0-2.41,0-3.61,0-.23,0-.4,0-.4.31,0,2-.07,4,.06,6a1.26,1.26,0,0,0,1.46,1.35c.38,0,.73-.07,1.11-.08.11,0,.32-.17.32.09s.15.46-.14.59a5.11,5.11,0,0,1-3.17.49,1.63,1.63,0,0,1-1.37-1.42,5.47,5.47,0,0,1-.1-1c0-2,0-3.91,0-5.87,0-.33-.08-.48-.42-.43a4.12,4.12,0,0,1-.86,0c-.15,0-.37.1-.42-.09a2.21,2.21,0,0,1,0-.77s.1-.06.16-.06a1.4,1.4,0,0,1,.29,0c.43,0,1,.19,1.24-.1s.06-.83.08-1.25,0-.86,0-1.3c0-.25.06-.36.32-.34.46,0,1-.18,1.35.08s.07.84.1,1.28,0,.83,0,1.25.1.38.39.38q1.83,0,3.66,0c.31,0,.42-.07.41-.39,0-.73,0-1.48,0-2.21,0-.3.06-.41.37-.39a10.27,10.27,0,0,0,1.11,0c.26,0,.32.08.32.32,0,.75,0,1.51,0,2.26,0,.33.1.41.4.39.67,0,1.35,0,2,0,.41,0,.33.25.33.48s.08.5-.33.48H43.46c-.28,0-.36.08-.35.36,0,1.85,0,3.72,0,5.57,0,1.3.49,1.72,1.77,1.68.28,0,.54-.07.82-.09s.32-.11.34.12.13.45-.17.58a5.18,5.18,0,0,1-3.12.49,1.76,1.76,0,0,1-1.46-1.92c-.07-1,0-2.11-.05-3.18Z"/><path class="cls-20" d="M67.82,139.31c.77-1.76,1.47-3.41,2.12-5.1.32-.85.21-1.05-.64-1.34l-.27-.08c-.26-.06-.17-.28-.17-.44s.15-.21.3-.21h2.92c.15,0,.35,0,.35.21s0,.38-.23.46a2.4,2.4,0,0,0-1.48,1.53c-1.25,2.87-2.34,5.8-3.71,8.63a8.05,8.05,0,0,1-1.48,2.22,2.22,2.22,0,0,1-2.31.72,1.34,1.34,0,0,1-.89-.68,1.1,1.1,0,0,1,.21-1.25,1,1,0,0,1,1.2-.13,2,2,0,0,1,.78.82c.12.2.23.26.41.09a9.57,9.57,0,0,0,1.87-3c.07-.15,0-.28-.1-.41q-1.52-3.63-3-7.27a1.88,1.88,0,0,0-1.34-1.2c-.31-.08-.31-.26-.31-.49s.23-.23.39-.23H66.1c.2,0,.39,0,.38.28s0,.44-.35.44a1.35,1.35,0,0,0-.42.1c-.28.08-.41.22-.28.53C66.23,135.39,67,137.29,67.82,139.31Z"/><path class="cls-20" d="M22.84,133.51v6.09c0,1,.18,1.22,1.14,1.4.29.05.29.2.31.42s-.15.26-.34.26h-4c-.2,0-.35,0-.35-.26s0-.37.33-.4c1-.12,1.14-.25,1.14-1.25V129.44c0-1.31-.25-1.62-1.55-1.85-.27,0-.42-.1-.4-.42s.26-.26.44-.28c.94-.07,1.88-.1,2.82-.18.38,0,.51.08.51.47C22.83,129.28,22.84,131.39,22.84,133.51Z"/><path class="cls-21" d="M3,136.76a5.42,5.42,0,0,0,.75,2.88,2.63,2.63,0,0,0,4.17.42,5.23,5.23,0,0,0,.56-.67c.14-.23.24-.36.55-.16s.26.32.1.57a4.41,4.41,0,0,1-6.59,1.1A5.53,5.53,0,0,1,4,132.17a3.93,3.93,0,0,1,4,.46A2.16,2.16,0,0,1,8.7,135a1,1,0,0,1-1.16.62,1,1,0,0,1-1-1,4.5,4.5,0,0,1,.17-1.09c.12-.42-.06-.67-.47-.8a2.13,2.13,0,0,0-2.58,1A5.91,5.91,0,0,0,3,136.76Z"/><path class="cls-20" d="M57.62,133.54a5.53,5.53,0,0,1,1.15-1.09,3.27,3.27,0,0,1,1.28-.52,1.37,1.37,0,0,1,1.48.57,1.64,1.64,0,0,1,0,1.72,1,1,0,0,1-1.16.33.87.87,0,0,1-.7-.86,1.5,1.5,0,0,1,0-.43c.06-.24,0-.27-.23-.26a2.23,2.23,0,0,0-1.82,2v4.37c0,1.29.16,1.5,1.46,1.59.33,0,.41.15.39.44s-.08.25-.26.25H54.67c-.21,0-.29-.08-.27-.28s0-.37.22-.39l.39,0a.82.82,0,0,0,.82-.9q0-2.94,0-5.91a1.21,1.21,0,0,0-1.12-1.27c-.23,0-.41,0-.41-.39s.23-.33.44-.34c.83,0,1.66-.08,2.48-.17.36,0,.46.12.44.44A6.54,6.54,0,0,0,57.62,133.54Z"/><path class="cls-21" d="M18.79,141.1c0-.26-.19-.2-.34-.21-1.05-.07-1.31-.33-1.3-1.4,0-1.58.07-3.14.07-4.72a2.49,2.49,0,0,0-1.51-2.6,4.81,4.81,0,0,0-4.62.54,1.86,1.86,0,0,0-.81,1.11,1.05,1.05,0,0,0,.39,1.2,1.07,1.07,0,0,0,1.21,0,.92.92,0,0,0,.44-1.07c0-.23-.08-.44-.13-.66a.32.32,0,0,1,.17-.4,1.88,1.88,0,0,1,3,1.22,10,10,0,0,1,.08,1.1.47.47,0,0,1-.36.54L13,136.5a9.45,9.45,0,0,0-2,.84,2.6,2.6,0,0,0-1.09,2.86,2.24,2.24,0,0,0,2.07,1.73,3.72,3.72,0,0,0,2.79-.78l.69-.59c.55,1.14,1.07,1.46,2.21,1.33a5.81,5.81,0,0,0,1-.26C18.86,141.52,18.79,141.31,18.79,141.1Zm-3.46-1.48a.37.37,0,0,1-.1.26,2.51,2.51,0,0,1-2.08,1c-1.12-.06-1.67-1-1.35-2.15a2.25,2.25,0,0,1,.93-1.23,8.86,8.86,0,0,1,2.6-1.07Z"/><path class="cls-20" d="M33.59,135.6a4.27,4.27,0,0,0-3.19-3.54,4.53,4.53,0,0,0-5,1.41,5.38,5.38,0,0,0-1,4.95,4.29,4.29,0,0,0,3.3,3.39,4.45,4.45,0,0,0,4.61-1.3,5.4,5.4,0,0,0,1.32-3.72A6.84,6.84,0,0,0,33.59,135.6Zm-2.42,4.07a2.29,2.29,0,0,1-4.31.06,7.06,7.06,0,0,1-.54-3.51,5.23,5.23,0,0,1,.55-2.26,2.31,2.31,0,0,1,2.25-1.35,2.23,2.23,0,0,1,2.05,1.5,8,8,0,0,1,0,5.56Z"/><path class="cls-20" d="M53.89,139.2c-.37-.25-.44,0-.55.24a2.73,2.73,0,0,1-2.86,1.43,2.91,2.91,0,0,1-2.54-2.16,8.08,8.08,0,0,1-.29-1.69c0-.33.08-.41.39-.41.93,0,1.85,0,2.78,0s1.89,0,2.83,0c.29,0,.4-.06.39-.37s0-.8-.08-1.21a3.48,3.48,0,0,0-1.89-2.78,4.3,4.3,0,0,0-5.23,1.22,5.7,5.7,0,0,0-1,4.51,4.36,4.36,0,0,0,3.37,3.85,4.46,4.46,0,0,0,4.87-2C54.23,139.54,54.22,139.39,53.89,139.2Zm-6.24-3.65a3.58,3.58,0,0,1,1-2.34,1.91,1.91,0,0,1,3.25.8,7.07,7.07,0,0,1,.23,1.51c0,.26-.1.29-.31.29H47.94C47.76,135.8,47.62,135.8,47.65,135.55Z"/><path class="cls-20" d="M72.93,133.35a.89.89,0,0,1,.45.12.88.88,0,0,1,.35.34,1,1,0,0,1,.12.47,1,1,0,0,1-.12.46.86.86,0,0,1-.34.34.94.94,0,0,1-.92,0,.92.92,0,0,1-.34-.34,1,1,0,0,1-.12-.46,1,1,0,0,1,.12-.47.88.88,0,0,1,.35-.34A.92.92,0,0,1,72.93,133.35Zm0,.16a.77.77,0,0,0-.38.1.71.71,0,0,0-.29.28.9.9,0,0,0-.1.39.75.75,0,0,0,.1.38.71.71,0,0,0,.29.28.71.71,0,0,0,.76,0,.65.65,0,0,0,.29-.28.75.75,0,0,0,.1-.38.78.78,0,0,0-.1-.39.71.71,0,0,0-.29-.28A.75.75,0,0,0,72.93,133.51Zm-.4,1.28v-1h.34a.77.77,0,0,1,.25,0,.31.31,0,0,1,.13.1.23.23,0,0,1,0,.14.22.22,0,0,1-.08.19.25.25,0,0,1-.2.09l.08.06a1.25,1.25,0,0,1,.15.19l.12.2h-.2l-.08-.16a.88.88,0,0,0-.17-.23.23.23,0,0,0-.13,0h-.09v.42Zm.16-.56h.19a.38.38,0,0,0,.19,0,.16.16,0,0,0,.05-.11.19.19,0,0,0,0-.08A.12.12,0,0,0,73,134a.32.32,0,0,0-.16,0h-.18Z"/><path class="cls-20" d="M2.72,123.23c.15-.66.29-1.25.43-1.84.25-1.08.52-2.16.74-3.25.07-.33.2-.41.52-.42.84,0,1.67,0,2.51-.07a2.31,2.31,0,0,0,2.22-1.81q.64-2.5,1.21-5,2-9,4.06-18.11c.13-.58.24-1.16.34-1.75a1.32,1.32,0,0,0-1.09-1.57,17.51,17.51,0,0,0-1.92-.11c-.35,0-.69,0-1.12,0l1.16-5.51h.61c5.38,0,10.77,0,16.15,0a26,26,0,0,1,7.89,1,13.61,13.61,0,0,1,9.29,9.84A22,22,0,0,1,45.34,107a21.48,21.48,0,0,1-6,10.11A21.23,21.23,0,0,1,27,122.84a64.24,64.24,0,0,1-6.51.38c-5.66,0-11.32,0-17,0Zm19-6.19a15.62,15.62,0,0,0,5.6-.81,11,11,0,0,0,5.5-5A22.08,22.08,0,0,0,35.89,101a15.83,15.83,0,0,0-.51-5.85c-.82-2.57-2.36-4.46-5.18-4.82-1.76-.22-3.54-.16-5.32-.24-.34,0-.33.22-.38.44L21,106.2c-.73,3.26-1.48,6.51-2.21,9.77-.14.62,0,.88.69.94S20.93,117,21.68,117Z"/><path class="cls-20" d="M153.9,95l-.77,3.27q-2.61,11.15-5.23,22.29a24,24,0,0,1-3.1,7.75,16.16,16.16,0,0,1-9.18,6.68,24.87,24.87,0,0,1-14.2.32,8,8,0,0,1-4-2.56,4.14,4.14,0,0,1,.24-6,4.44,4.44,0,0,1,6.24.38c.54.59,1.06,1.21,1.63,1.77a5.63,5.63,0,0,0,5.87,1.24,10.26,10.26,0,0,0,6.63-5.93,20.92,20.92,0,0,0,1-2.69c.2-.63.31-1.28.47-2a27,27,0,0,1-2,1.92,10.55,10.55,0,0,1-10,2.07,6.59,6.59,0,0,1-4.4-7c.56-3.18,1.29-6.34,2-9.5.31-1.44.65-2.88,1-4.32a4.1,4.1,0,0,0,0-.42h-6c.15-.58.28-1.09.42-1.61.3-1.14.62-2.27.92-3.42a.5.5,0,0,1,.52-.44,45.14,45.14,0,0,0,11-2.14c1.31-.43,2.62-.14,4-.28l-.74,3.26-3.84,17a2.25,2.25,0,0,0-.06.36c-.23,1.7.72,2.54,2.41,2.16a6.14,6.14,0,0,0,3.14-2.06,18.6,18.6,0,0,0,4-7.3c.86-2.86,1.51-5.79,2.23-8.69.3-1.21.55-2.44.84-3.65,0-.15.24-.36.37-.36C148.09,95,150.94,95,153.9,95Z"/><path class="cls-20" d="M187.29,102.83l2.13.79a7.92,7.92,0,0,1,5,9.13,12.4,12.4,0,0,1-6.81,8.8,20.09,20.09,0,0,1-8.13,2.25,24.2,24.2,0,0,1-8.64-.73,14.16,14.16,0,0,1-7.38-4.85,7.38,7.38,0,0,1-1.73-5.93,4.21,4.21,0,0,1,3.07-3.53,4.32,4.32,0,0,1,4.7,1.58,8.36,8.36,0,0,1,1.46,3.16c1,3.86,4.78,5.18,8.05,4.53a6.93,6.93,0,0,0,5.77-7.49,5.23,5.23,0,0,0-4.25-4.8,20.79,20.79,0,0,0-3.26-.28c-.66,0-1.32,0-2,0l.67-3c.15-.66.35-1.31.44-2,.07-.49.3-.56.73-.56,1.63,0,3.27,0,4.9-.16a5,5,0,0,0,4.29-2.56,4.44,4.44,0,0,0-2.33-6.5,9.48,9.48,0,0,0-8.58.76,6.36,6.36,0,0,0-2.62,3.94c-.06.18-.11.36-.17.57h-6c.17-.84.31-1.68.52-2.48a12.51,12.51,0,0,1,7.35-8.63A20.49,20.49,0,0,1,190,84.31a9.63,9.63,0,0,1,5.74,5.25,8.91,8.91,0,0,1-2.06,9.77,13.47,13.47,0,0,1-5.94,3.34Z"/><path class="cls-20" d="M66.94,119.11c-1,.87-2,1.77-3.07,2.54a11.19,11.19,0,0,1-9.35,2A9.37,9.37,0,0,1,47,115.81a18.36,18.36,0,0,1,13-21,13.61,13.61,0,0,1,9,.47,36.61,36.61,0,0,1,3.53,2c.47-.62,1-1.33,1.54-2a.77.77,0,0,1,.49-.3q3.12,0,6.22,0A1.25,1.25,0,0,1,81,95c-.25,1-.49,2-.73,3q-2,8.2-4.07,16.4c-.14.57-.24,1.15-.33,1.74A1.07,1.07,0,0,0,77,117.52a6,6,0,0,0,2-.65,14.47,14.47,0,0,0,1.75-1.24l3.18,3.7a15.3,15.3,0,0,1-7.78,4.36,9.28,9.28,0,0,1-5.14-.31,6.64,6.64,0,0,1-4-4l-.12-.28S66.87,119.08,66.94,119.11Zm-10.45-6.74a5.33,5.33,0,0,0,.55,2.84,3.11,3.11,0,0,0,2.94,1.9,4.49,4.49,0,0,0,3-1.17,18.82,18.82,0,0,0,2.48-2.73,30.13,30.13,0,0,0,4.45-10.78.57.57,0,0,0-.19-.47,14,14,0,0,0-1.29-.88,6.16,6.16,0,0,0-8,1.19A15.39,15.39,0,0,0,56.49,112.37Z"/><path class="cls-20" d="M121.27,81.75c-.45,2-.88,4-1.32,5.88L114,114c-.17.75-.32,1.5-.46,2.25a1.09,1.09,0,0,0,1.47,1.33,7.06,7.06,0,0,0,2.65-1.62l.42-.38,3,3.65c-2.88,2.82-6.07,4.87-10.28,4.68a6.33,6.33,0,0,1-6.15-7.4c.49-3,1.19-6,1.85-9,1.29-5.87,2.62-11.74,3.94-17.6,0-.09,0-.17.05-.29H104.4c.34-1.27.66-2.51,1-3.74.12-.46.26-.91.36-1.36.06-.29.17-.4.48-.41a40.91,40.91,0,0,0,11.49-2.17,4.29,4.29,0,0,1,1.13-.17C119.63,81.73,120.41,81.75,121.27,81.75Z"/><path class="cls-20" d="M100,115.53l3,3.78a15.09,15.09,0,0,1-6.22,4.07,10.75,10.75,0,0,1-5.71.23,6.14,6.14,0,0,1-4.56-7.07q1.14-5.15,2.31-10.27c.3-1.31.62-2.6,1-4H84.1c.25-1,.48-2,.72-2.93.17-.7.37-1.38.5-2.08.07-.38.25-.5.61-.56,2.1-.3,4.21-.57,6.29-1,1.67-.32,3.29-.87,5-1.2,1.16-.22,2.36-.24,3.65-.36-.32,1.31-.59,2.44-.87,3.57l-4.32,17.62c0,.2-.09.41-.12.61-.19,1.27.52,1.93,1.72,1.41a15.94,15.94,0,0,0,2.43-1.57A3.92,3.92,0,0,0,100,115.53Z"/><path class="cls-20" d="M97,81.75a4.53,4.53,0,0,1,4.58,5.46,5.82,5.82,0,0,1-4.8,4.93,4.83,4.83,0,0,1-5.45-6A5.72,5.72,0,0,1,97,81.75Z"/></g></g></svg>