<svg version="1.1" id="Layer_1" xmlns="http://www.w3.org/2000/svg" xlink="http://www.w3.org/1999/xlink" x="0px" y="0px" viewBox="65.0501 195.63638 1629.60265 568.6917199999999" enable-background="65.0501 195.63638 1629.60265 568.6917199999999" space="preserve">
<g>
	<path fill="#91278F" d="M1620.4,529.7c-4.9,58.8-27.8,109.7-67.7,153.1c-0.4,0.5-1,0.8-1.5,1.2c-2.4,0.4-3.3,2.1-4.1,4.1l-0.1-0.3
		l0.2,0.2c-1.4,0-2.1,0.8-2.1,2.2c-16.5,17.2-35.7,30.9-56.5,42.3c-43.9,23.9-91.1,35.3-140.9,30.9
		c-99.1-8.8-171.5-57.9-216.2-147.3c-2-3.9-1.4-7.3,0.2-11.3c-4.4,0.6-5.9-1.8-7.2-5.3c-4.1-11.1-7.4-22.4-10.3-33.9
		c-0.7-2.8-0.5-5.5,0.6-8.3c15.2-41.2,30.3-82.4,45.3-123.6c3-8.2,8.3-12.3,16.8-13.2c6.5-0.7,13-0.7,19.4-0.7
		c2.2,0,3.6-0.4,4.5-2.8c5.2-14.5,10.5-29,16-44c-22.8,0-45.1,0-67.4,0c-0.8-2.4,0.8-3.5,1.7-4.8c32.1-47.3,75.3-80.2,129.2-99.3
		c3.2-1.1,6-0.9,9.1,0.3c22.3,8.8,43.8,19.3,66.5,27.2c7.5,2.6,15.1,5.1,23.1,6.2c2.7,0.3,6.1,1.1,7.7-1.9c1.6-2.9-0.5-5.5-2.2-7.7
		c-8.9-11.6-20.6-20.3-32.2-29c-3.4-2.6-7-5-11.1-7.9c13.4-1.6,25.9-1.7,38.5-0.7c4.1,0.3,8.3-0.2,12.3,1.3c2.2,1.5,4.6,0.4,6.8,0.6
		c104.8,12.7,193.7,93.4,216.2,196.2c2.8,12.7,4.9,25.4,5.6,38.4C1620,504.5,1620.4,517.1,1620.4,529.7z"/>
	<path fill="#28903A" d="M956.6,633.8c1.6-4.5,3.2-9.1,4.7-13.7c0.6-1.9,1.9-2.5,3.7-2.8c8.7-1.1,13.2-6.8,16-14.5
		c7.5-20.8,15.2-41.5,22.8-62.3c2.2-5.9,4.2-11.9,6.5-17.8c1.1-2.9,0.5-3.9-2.6-3.9c-11.5,0.1-23,0.2-34.5,0c-3.6-0.1-4,2.2-4.9,4.4
		c-7.6,20.6-15.1,41.2-22.7,61.8c-2.5,6.7-5,13.4-7.2,20.1c-2.4,7.3-0.8,10.1,6.6,11.9c2.4,0.6,3.5,1.2,2.4,3.8
		c-2,4.9-3.9,9.9-5.8,14.8c-1.4,2.9-4,2.5-6.5,2.5c-44.8,0-89.6,0-134.4,0c-2.5,0-5-0.1-7.5,0c-2.9,0.1-3.5-1.3-2.6-3.7
		c0.9-5.3,3.7-9.9,5.1-15c0.6-2,2.1-1.8,3.6-1.9c4-0.3,8-0.5,11.9-0.9c13.3-1.3,22.7-7.7,27.4-20.6c8.4-23.1,17-46.2,25.5-69.3
		c11.7-31.8,23.4-63.7,35.1-95.5c0.2-0.5,0.4-0.9,0.5-1.4c5.6-15.7,1.9-21.5-14.8-23c-2.3-0.2-4.7-0.4-7-0.2
		c-3.6,0.2-3.9-1.2-2.6-4.1c2.2-5.3,2.8-12.4,6.7-15.7c3.8-3.3,10.9-0.9,16.5-1c43.2-0.1,86.3,0,129.5-0.1c4.3,0,5.9,0.8,3.7,5.1
		c-1,1.9-1.6,4-2.2,6.1c-1.8,5.8-3.8,10.5-11.5,11.2c-6.9,0.6-10,7-12.3,13.2c-6.3,17.3-12.7,34.7-19.1,52
		c-2.3,6.4-4.5,12.9-7.1,19.2c-1.4,3.4-0.3,3.9,2.9,3.9c11.3-0.1,22.7-0.1,34,0c2.5,0,3.8-0.8,4.7-3.3c8.7-24.1,17.7-48.1,26.5-72.2
		c3.4-9.4,1.9-12.1-7.8-14.8c2.2-5.9,4.4-11.8,6.4-17.8c1.1-3.2,3.5-2.5,5.7-2.5c40.7,0,81.3,0,122,0c7.7,0,15.3,0,23.8,0
		c-2.4,6.7-4.7,12.9-7,19.1c-0.7,1.9-2.3,1.6-3.7,1.7c-4.5,0.1-9,0.4-13.4,1c-12.6,1.6-21.2,8.2-25.6,20.2
		c-20.6,56.1-41.1,112.1-61.6,168.2c-0.5,1.4-1,2.8-1.3,4.3c-2.1,9.1,0.4,13.4,9.6,15.8c5.7,1.5,11.5,1.5,17.7,1.9
		c-1.9,6.3-3.9,12.2-6.6,17.9c-1.1,0.6-2.4,0.4-3.6,0.4c-47.1,0-94.2-0.1-141.2,0.1c-0.4,0.5-0.6,1.2-1.2,1.6l-0.4,0.2l-0.5-0.2
		C956.8,637.3,956.9,635.4,956.6,633.8z"/>
	<path fill="#28903A" d="M791.7,378.6c11.2,0.5,22.2,1.8,32.9,5.2c24.8,7.9,32,24.9,20.1,48c-10.8,21.2-37.1,32.2-60,25.4
		c-11.4-3.4-16.3-12.3-13.5-24.6c2.6-11.3,8.4-20.9,17-29.7c-12.2-3.9-23.5-3.2-34.2,2.6c-10.8,5.8-17.9,14.7-21.8,26.2
		c-2.9,8.4-0.5,15.7,5.6,21.9c5.7,5.8,12.7,9.7,19.7,13.5c13.6,7.4,27.8,13.7,40.2,23.2c20.5,15.8,26.8,34.6,19.6,59.6
		c-10.1,34.6-33.1,58.2-64.1,74.9c-17.6,9.5-36.4,15.4-56.1,18.7c-2.7,0.5-4,1.6-4.8,4.1c-3.7,10.3-7.7,20.6-11.2,31
		c-1.1,3.4-2.8,4.2-6.1,4.1c-8.2-0.2-16.3-0.1-25.2-0.1c3.2-8.9,6.3-17.4,9.4-26c1.3-3.6,4.7-7.8,3.1-10.5
		c-1.5-2.8-6.9-1.5-10.6-2.2c-14.1-2.9-27.8-6.9-39.2-16.4c-11-9.2-14.3-21-9.6-34.5c10.6-30.1,39.5-40.4,63.3-35
		c15,3.4,21.4,15.6,16.5,30.1c-3.6,10.9-9.6,20.1-20,25.8c-2,1.1-4.7,2.3-4.3,4.9c0.4,2.7,3.4,2.9,5.6,3.3
		c20.2,3.7,38.8,1.1,54.1-14c3.6-3.6,6.2-7.8,8.2-12.4c5.7-13.3,3-24.3-8.3-33.4c-9.6-7.7-20.8-12.5-31.5-18.3
		c-6.9-3.7-13.7-7.5-20.1-12.1c-20.2-14.6-27.3-33.5-21.2-57.7c10-39.6,35.5-65.8,71.9-82.2c12.7-5.7,26-9.4,39.8-11
		c2.8-0.3,3.9-1.5,4.8-4.1c3.2-9.3,6.8-18.4,10-27.7c1-2.8,2.5-3.9,5.5-3.8c7.3,0.2,14.7,0.2,22,0c3.3-0.1,3.6,0.9,2.5,3.7
		c-3.2,8.2-6.1,16.5-9.2,24.8C792.2,375.2,791.4,376.7,791.7,378.6z"/>
	<path fill="#28903A" d="M402,637.8c0.4-6.9,4.4-12.6,6.3-19.1c0.5-1.6,2.7-0.9,4.1-0.9c6.7-0.2,13.3-0.6,19.8-2
		c10.2-2.2,13.6-6.1,14.9-16.5c1.1-8.6,0.5-17.3,0.8-25.9c0.1-2.2-0.4-3.3-3-3.3c-23,0.1-45.9,0.1-68.9,0c-1.9,0-3.1,0.6-4.1,2.2
		c-4.2,6.6-8.5,13.1-12.7,19.7c-1.1,1.8-2,3.8-2.7,5.9c-3.3,9.3-0.8,14.6,8.6,17.6c5.3,1.7,10.8,2.2,16.2,2.2c3.6,0,3.9,1.1,2.6,4
		c-2.1,5-4,10.1-6,15.2c-1.3,0.8-2.4,0.1-3.6-0.3c-2.5-0.6-5-0.4-7.5-0.4c-29.3,0-58.6,0-87.9,0c-2.6,0-5.4,0.8-7.6-1.5
		c0-0.3,0.1-0.6,0.4-0.9c2.7-4.1,3.2-8.9,4.9-13.3c0.4-4.5,4.3-3.1,6.6-3.4c11.3-1.6,22-5,31.8-11c8.5-5.2,14.4-12.7,20.1-20.6
		c47.7-65.4,95.5-130.7,143.2-196.1c1.9-2.6,3.7-3.6,6.9-3.6c20.8,0.2,41.7,0.2,62.5,0c3.8,0,5.1,0.7,5.1,4.9
		c0.5,64.7,1.3,129.3,2,194c0,3.8,0.3,7.7,0.8,11.4c1.7,12.3,8.3,19,20.6,20.9c2.8,0.4,5.6,0.7,9,1.1c-2.5,6.5-4.9,12.6-7.3,18.8
		c-1.3,1.7-3.2,1.4-5.1,1.4c-55.9,0-111.7,0-167.6,0C404.2,638.3,403,638.6,402,637.8z"/>
	<path fill="#28903A" d="M308.1,543.7c-20.1,52-55.2,85.5-109.9,96c-27.7,5.3-55.3,4.6-82.3-4.8c-34.8-12.2-53.7-41.4-50.5-78.1
		c3.1-36,17.8-67.3,39.5-95.6c27.1-35.4,61.3-61.4,104.7-73.7c25.1-7.1,50.5-8.7,75.8-0.8c9.5,3,17.7,8.3,25.6,14.3
		c6,4.5,7.9,4.3,13.4-0.6c0.5-0.4,1.1-0.8,1.4-1.4c6.9-11.4,17.9-10.6,29-10.2c4,0.2,2.2,2.3,1.6,3.9c-7.1,19.5-14.3,39-21.5,58.6
		c-2.2,6.1-4.7,12.1-6.6,18.3c-0.8,2.6-2.1,3.3-4.7,3.2c-5.3-0.2-11.9,1.6-15.5-0.9c-3.4-2.4-1.4-9.6-2.1-14.7
		c-1.8-12.8-4.1-25.3-11.1-36.4c-10.5-16.7-30.6-21.4-47.5-11c-13.3,8.1-21.8,20.5-28.8,33.8c-21.6,40.8-36.6,84.1-46.2,129.2
		c-1.8,8.3-2.2,16.8-1.5,25.4c1.1,14,8.9,21.3,23,21.8c21.5,0.8,39.7-7,55.4-21.2c15.6-14.1,26.5-31.5,35.1-50.5
		c1.5-3.4,3.2-4.8,7-4.6C296.6,544,301.9,543.7,308.1,543.7z"/>
	<path fill="#008DAF" d="M1247.4,260.1c-23.6,11.3-44.3,25-63.1,41.7c-21.7,19.3-40,41.4-54.3,66.7c-1.9,3.3-3.9,4.5-7.7,4.5
		c-31.1-0.2-62.3-0.2-93.4,0c-4.2,0-5.7-0.9-5.8-5.4c-1.6-64.2,43.8-121.6,106.3-135.8c18.9-4.3,36.5-1.3,54.5,3.4
		c13.8,3.6,27.6,7.5,41.3,11.5C1233.5,249.1,1239.8,254.5,1247.4,260.1z"/>
	<path fill="#556293" d="M1099.3,226.7c3.8,2.8,0.7,3.4-1.4,4.3c-37.5,17.7-63.5,46-77.7,85.1c-3.1,8.5-5.4,17.2-6.4,26.1
		c-0.4,3.8-1.9,3.4-4.4,2.2c-22.9-10.6-38.1-27.9-43.6-52.6c-11.2-49.8,27.9-95.7,78.9-92.8c13,0.7,25.2,4.3,36.1,11.7
		c-1.9,2.8-5.3,2.5-7.2,1.7c-2.5-1.1-4.1-0.3-6.1,0.2c-4.4,1.1-8.6,0.1-12.8-0.8c-4.1-0.9-6.8,0.2-7.8,4.5c-0.2,1.1-0.7,2.2-1.6,3
		c-0.9,0.8-3.9,0.3-2.1,2.7c1.1,1.6,2.2,3.3,5,3.4c11,0.4,22.1-1.3,32.9,1.8c3.9,1.1,6.6-1,6.4-4.4c-0.1-0.5,0-0.9,0.3-1.3
		c2.8-1,5.2-1.4,6.8,2.1C1095.4,225.2,1098.1,225.2,1099.3,226.7z"/>
	<path fill="#008DAF" d="M1245.9,200c27.8-4.3,55.7-5.6,83.7-3.1c62.6,5.5,122.2,20.7,175.7,55.2c13.5,8.7,25.9,18.7,36.8,30.6
		c3.1,3.5,6.1,7,8,11.4c0.6,1.4,1.4,2.9,0.2,4.2c-1.1,1.2-2.9,0.8-4.3,0.4c-5.3-1.7-10-4.6-14.5-7.8c-12.2-8.5-24.6-16.6-37.6-23.7
		c-42.5-23.2-87.8-39-134.7-50.4c-32.4-7.9-65.1-13.6-98.5-15.2c-3.9-0.8-7.9-0.1-11.8-0.4C1247.9,201.2,1246.3,202.1,1245.9,200z"/>
	<path fill="#556293" d="M1099.3,226.7c-2.2-1.6-7.1,0.7-6.6-4.6c-1.6-0.1-3.3-0.2-4.9-0.2c-0.5-0.4-1.2-0.6-1.9-0.5
		c-9.8,0.6-19.7-0.2-29.5,0.1c-2,2.1-4.3,0.7-7.2,0.8c2.9,0.2,5.2,0.1,6.8,1.8c5.7,1.7,11.5,0.4,17.3,0.7c2.5,0.1,5,0,7.5,0
		c-6.5,0-13.1,0-19.6,0c-1.8,0-3.7,0.4-5.3-0.9c-0.7-0.8-0.6-1.5,0.2-2.2c10.6-0.5,21.2-0.2,31.8,0.2c0.4,1.7,2.3,1.7,3.5,2.8
		c-4.1,3.3-7.7,5.8-13.4,2.7c-2.6-1.4-6.5-0.4-9.8-0.5c-5.1-0.2-10.3,0.6-15.4-0.9c-0.6-0.2-1.5-0.3-2,0c-5.3,3.7-6.8-1.8-9.6-4
		c-2.1-1.6-1.3-3,1-3c2.9,0,3.4-1.3,3.8-3.8c0.6-3.2,2.6-5.9,6.6-5.1c6.5,1.4,12.9,3.7,19.2-0.5c1.9,4,5.3,0.6,7.8,1.6
		c0.3,0.1,0.9-0.3,1.3-0.4c4.1,3.1,8.6,3.4,13.6,2.9c26.6-2.7,53.2-2.4,79.8-0.1c41.3,3.5,81.7,11.6,121,24.4
		c19.3,6.3,36.1,17.7,51.5,31c0.8,0.6,1.4,1.4,2,2.2c0.9,1,1.8,2.2,1.2,3.6c-0.6,1.6-2.2,1.2-3.5,1.3c-5.2,0-10.2-1.4-15.1-2.8
		c-26.4-7.6-51.6-18.7-77.4-27.9c-37.3-13.3-75.2-23.5-114.8-27.1c-25.1-2.2-50.3-2-75.4-0.2c-2.1,1.7-4.7,0.4-7,1.3
		c-1.3,0.3-2.6,0.1-3.9,0.2c-2.1,0.6-4.2,1.1-6.1,0.9c-1,0.1,0.1,1-0.3,0.4c2.3-0.6,4.7-0.8,7-1.4c2.6,0.2,5.1-0.8,7.7-0.5
		c7.1,1.2,14.3-0.1,21.4,0.8C1089.3,219.7,1095.9,219.4,1099.3,226.7z"/>
	<path fill="#242021" d="M1687.2,354.3c-4.5,11.9-9,23.8-13.5,35.7c-0.8,2.2-1.4,4.1-4.7,4c-3-0.1-3.4-1.9-4.2-3.9
		c-4.1-10.7-8.1-21.4-12.1-32.1c-0.5-1.3-1.1-2.6-2.5-3.7c0,11.9,0,23.8,0,35.7c0,1.8,0.9,4.1-2.6,4c-2.8,0-4-0.4-4-3.7
		c0.2-14.1,0-28.3,0.2-42.4c0-1.6-1.7-4.7,1.7-4.7c3.2,0,7.2-2.1,9,3.2c4.1,11.9,8.8,23.6,13.2,35.4c0.3,0.9,0.8,1.8,1.5,3.6
		c5.1-13.3,9.8-25.9,14.6-38.5c0.7-1.9,1-3.9,4.1-4c6.7-0.1,6.7-0.3,6.7,6.5c0,13.5,0,27,0,40.5c0,2,0.7,4.2-3,4.2
		c-3.5,0-3.6-1.6-3.6-4.2c0.1-11.8,0-23.6,0-35.4C1688,354.3,1687.6,354.3,1687.2,354.3z"/>
	<path fill="#242122" d="M1614.1,371c0-6.2-0.2-12.3,0.1-18.5c0.2-3.2-1-4-3.9-3.8c-3.5,0.2-7,0-10.5,0.1c-2.3,0.1-2.8-0.9-2.8-3
		c0-2.1,0.6-3,2.8-3c11.8,0.1,23.6,0.1,35.4,0c2.7,0,2.7,1.4,2.8,3.4c0.1,2.6-1.3,2.5-3.1,2.5c-3.5,0-7,0.2-10.5-0.1
		c-3-0.2-3.6,1-3.6,3.7c0.1,12.5,0,25,0.1,37.4c0,2.3,0.3,4.1-3.1,4.1c-3.1,0-4-1-3.9-4C1614.2,383.7,1614.1,377.3,1614.1,371
		C1614.1,371,1614.1,371,1614.1,371z"/>
	<path fill="#26913F" d="M1103.8,634.8c0.7,0.3,1.3,0.7,2,1c-0.4,3.8-3.4,2.5-5.4,2.5c-31.9,0.1-63.8,0.1-95.8,0
		c-14.9-0.1-29.9,0.5-44.8-0.4c0-0.7,0-1.4,0-2.2c1.7-0.9,3.6-0.5,5.4-0.5c44.4,0,88.8,0,133.2,0
		C1100.2,635.3,1102.1,635.8,1103.8,634.8z"/>
	<path fill="#922890" d="M935.8,300.9c6.7,17.7,16.8,33.2,31.2,45.7c1,0.9,2,1.7,2.9,2.7c0.4,0.4,0.8,1.2,0.7,1.7
		c-0.2,1.1-1.3,0.9-2,0.8c-3.6-0.8-6.9-2.3-10-4.3c-15.5-10.1-21.8-25.4-23.7-43c-0.1-0.8-0.1-1.7-0.2-2.5
		C934.5,300.9,934.9,300.6,935.8,300.9z"/>
	<path fill="#2D8C3D" d="M271.5,634.7c32.9,0,65.8,0.1,98.7,0.2c1.9,0,4-0.8,5.7,1c-1.9,1.6-4.1,1-6.2,1c-29.8,0-59.5,0-89.3,0
		c29.9,0,59.7,0,89.6,0c2.1,0,4.4-0.6,6.2,1.1c-1.1,0.1-2.3,0.4-3.4,0.4c-32.8,0-65.5,0-98.3,0C272,638.4,268.6,639,271.5,634.7z"/>
	<path fill="#26913F" d="M376.1,638c-34.5,0-69,0-103.6,0c0-0.7,0-1.4,0-2.1c34.4,0,68.9,0,103.3,0c0.5,0.9,1.3,1,2.2,1.1
		C377.8,638.1,377.1,638.3,376.1,638z"/>
	<path fill="#3C9B50" d="M402,637.8c56.2,0,112.5,0,168.7-0.1c2.5,0,5,0.2,7.4-0.8c-0.5,2.1-2.3,1.5-3.7,1.5
		c-56.7,0-113.4,0-170.1,0C403.4,638.5,402.6,638.6,402,637.8z"/>
	<path fill="#3C9B51" d="M790.7,634.6c0.1,1.8,0.5,3.3,2.8,3.1c1.2-0.1,2.3,0,3.5,0c45.8,0,91.5,0,137.3,0c2.7,0,5.3,0.2,7.5-1.9
		c-0.2,3.9-3.3,2.6-5.3,2.6c-29,0.1-58,0-87,0c-18.7,0-37.3,0-56,0C790.7,638.5,787.9,638.6,790.7,634.6z"/>
	<path fill="#FEFEF3" d="M1025.2,374c31.8,0,63.6,0,95.3,0c0,0.2,0,0.3,0,0.5c-31.8,0-63.7,0-95.5,0
		C1025,374.3,1025.1,374.1,1025.2,374z"/>
	<path fill="#8B2E89" d="M1620.4,529.7c-0.8-12.6-1.1-25.2,0.2-37.8C1621.5,504.5,1621.5,517.1,1620.4,529.7z"/>
	<path fill="#D4DEEB" d="M1056.6,218.7c2.3-0.9,4.8-0.9,7.3-0.8c3.8,1.9,7.8,0.4,11.7,0.9c2.4,0.3,5-0.7,7.3,0.9
		c-7.4,0-14.7,0-22.1,0C1059.5,218.8,1057.8,220,1056.6,218.7z"/>
	<path fill="#4BA7C0" d="M1245.9,200c3.1,1.6,6.5,0.4,9.7,0.8c1.8,0.2,3.7-0.5,5.2,0.9c-7.1,0-14.2,0-21.3,0
		C1241.6,200.7,1243.6,199.8,1245.9,200z"/>
	<path fill="#2D8C3D" d="M276.7,620.5c-1,4.7-1,9.7-4.9,13.3C272.9,629.2,274.5,624.7,276.7,620.5z"/>
	<path fill="#26913F" d="M956.6,633.8c1.6,1,1.3,2.9,2.2,4.2c-1.3,0.7-2.9,0.8-3.5-0.4C954.8,636.4,955.7,634.9,956.6,633.8z"/>
	<path fill="#872885" d="M1547.1,688.1c0.8-2-0.5-5.9,4.1-4.1C1550.1,685.7,1548.8,687.1,1547.1,688.1z"/>
	<path fill="#D2B5D5" d="M935.8,300.9c-0.4,0.3-0.7,0.7-1.1,1c-1.3-1.5-0.9-3.2-0.6-5.5C935.1,298,935.8,299.3,935.8,300.9z"/>
	<path fill="#863482" d="M1398.7,257.3c-2.4,0.6-4.7,1.4-6.8-0.6C1394.2,256.8,1396.4,257.1,1398.7,257.3z"/>
	<path fill="#E3F2F6" d="M1233.2,202.5c1.5-1.1,2.7-2.2,3.5-0.9c1,1.7-0.9,1-1.5,1.2C1234.7,202.9,1234.2,202.7,1233.2,202.5z"/>
	<path fill="#872885" d="M1545,690.2c-0.1-0.9-1.4-1.7-0.5-2.5c0.5-0.4,1.7,0.2,2.6,0.3C1546.4,688.8,1545.7,689.5,1545,690.2z"/>
	<path fill="#FEFEFE" d="M1319.8,614.8c27.3-1.2,52.1-8.2,69.6-31.2c6-7.9,10-16.8,11.5-26.6c1.9-8.3,1.8-16.7,0.6-25.1
		c-4.4-13.6-15.7-17.5-28-20c-8-1.6-16.2-2.2-24.3-2c-3.4,0.1-3.9-1-3-4c3.1-10.9,6-21.7,8.8-32.7c0.7-2.9,2.3-3.4,4.9-3.4
		c10.9,0.1,21.6-1.1,31.9-4.5c22.7-7.4,36.8-27.3,37.6-52.8c0-0.8,0.1-1.7,0.1-2.5c-0.4-2.5,0.7-5.3-1.6-7.4
		c-0.1-0.5-0.3-1.1-0.4-1.6c-0.4-0.9,0.3-1.7,0.2-2.7c-0.2-1.7-1.2-0.7-1.8-0.7c-6.8-10.7-17.2-15.5-29.1-17.3
		c-24.3-3.8-47.5-1.5-68.1,13.6c-1.3,0.9-2.9,1.5-3.6,3.6c5.3,0.2,10.4,0.7,15.3,2c14,3.8,19.8,13.2,17,27.5
		c-2.3,11.9-8.4,21.3-18.3,28.1c-12.7,8.7-26.9,12.6-42.1,10.8c-22.7-2.6-33.7-18.7-28.6-41.1c6.8-29.4,25.1-49.8,50.9-64
		c23.7-13.1,49.5-19.2,76.3-21.3c27.8-2.2,55.2,0,82,8.2c6.1,1.9,11.9,4.4,17.5,7.3c25.3,13.4,34.6,35.1,27.2,62.8
		c-8.6,32.3-30.9,50.6-61.4,60.6c-7.4,2.4-14.9,4.3-23.4,5.7c1.8,1.7,3.3,1.9,4.7,2.4c13.4,4.1,26.6,8.7,37.6,17.9
		c12.4,10.4,17.2,24,15.6,39.7c-5.4,52.3-37.2,88.4-89.1,102.4c-29.8,8-60.2,8.9-90.7,8.1c-20.9-0.6-41.6-2.7-61.2-10.3
		c-15.6-6-28.4-15.4-33.8-32.2c-1-3.1-1.6-6.4-2.4-9.6c-1-4.6-1-9.2,0-13.8c1.8-7.8,2.3-15.9,5.9-23.2c2.7-4.4,5.4-8.8,8.1-13.3
		c0.9-1.5-1.2-1.9-0.2-2.8c1-1.3,1.9-2.7,2.9-4c3.8,0.7,4.7-3.1,6.8-4.8c5.5-4.3,10.6-9,16.3-13c0.1-0.2,0.4-0.3,0.6-0.3
		c1.2-0.4,2.2,0.3,3.3,0.7c2,0.6,4.3,1.7,3.1-2.3c-0.2-0.8,1.4-0.5,1.9-1.2c1.7-0.3,3.3-0.7,5-1c1.4,0,2.7-0.3,4-0.8
		c6.1-1,12.3-1,18.3,0.1c18,3.5,27.3,17.7,23.4,35.7c-1.3,6.1-3.3,12.1-7.4,17.1c-0.3,1.2-1.7-2.5-2.2,0.6c-0.5,3.3-4.2,3.8-6.8,5.1
		c0.5,0.9,2.6,0.5,1.9,2.3c-10.2,9.6-23,12.4-37.7,13.2c10.4,11.6,23.3,14.8,36.7,17.3C1307.9,614.6,1313.8,614.3,1319.8,614.8z"/>
	<path fill="#FAF9FA" d="M1257.8,527.9c-3.9,3.3-7,7.5-11.5,10.5c-2.7,1.8-6.3,4-7.6,8.2c-1.1,3.6-2.9,0.5-4.1-0.8
		C1240.7,537.6,1248.2,531.4,1257.8,527.9z"/>
	<path fill="#FAF9FA" d="M1231.8,549.8c0.8,1.8,2.4-0.2,3.6,0.8c-5.2,4.1-5.6,11.7-11.5,15.3
		C1225.4,559.9,1228.2,554.7,1231.8,549.8z"/>
	<path fill="#F9F9F8" d="M1302.9,584c-0.8-1.6-2-0.4-3-0.5c-1-0.1-1.3-1-1.5-1.8c-0.2-0.7,0.2-1.3,1-1.3c5.4-0.1,7.9-3.5,9.2-8.2
		c0-0.1,0.6-0.2,1-0.3c1.4,1.2-2.1,3,0.4,4C1308.4,579.2,1305.9,581.8,1302.9,584z"/>
	<path fill="#FAF9FA" d="M1266.8,524.8c-0.4,0.5-0.8,1-1.2,1.4c2.3,1,1.1,2.6,0.2,3.3c-1,0.8-2.7,1.2-4.1,0.2
		c-1.1-0.7-2.2-1.4-3.2-2.1C1261,526.1,1263.8,525,1266.8,524.8z"/>
	<path fill="#893088" d="M1401.5,531.9c2.4,8.4,2,16.8-0.6,25.1C1402,548.6,1402,540.3,1401.5,531.9z"/>
	<path fill="#8E2C82" d="M1319.8,614.8c-6,0.9-12,0.8-17.9-0.3C1307.9,613.6,1313.9,613.1,1319.8,614.8z"/>
	<path fill="#8E2B81" d="M1217.9,589c0,4.6,0,9.2,0,13.8c-2.4-4.8-0.5-9.8-1-14.7c0,0,0.4-0.2,0.4-0.1
		C1217.5,588.3,1217.7,588.7,1217.9,589z"/>
	<path fill="#F7F6F7" d="M1428.1,402.8c1.5-0.8,2.9-0.3,2.4,1.4c-0.6,2,1,4.2-0.8,6C1429.1,407.7,1428.6,405.2,1428.1,402.8z"/>
	<path fill="#F7F6F7" d="M1426,397.8c0.5-0.8,0.9-1.6,1.4-2.4c-0.1,2,3.9,3.7,0.3,5.9C1427.1,400.1,1426.5,398.9,1426,397.8z"/>
	<path fill="#FAF9FA" d="M1275.8,523c-1.2,0.8-2.3,2.6-4,0.8C1273,522.8,1274.4,522.9,1275.8,523z"/>
	<path fill="#2D8B3D" d="M1103.8,634.8c-1.6,1.7-3.8,1-5.7,1c-46.1,0-92.2,0-138.3,0c-0.4-0.7-2.1-2.2,0.2-1.6
		c2,0.5,3.9,0.5,5.8,0.5C1011.9,634.8,1057.8,634.8,1103.8,634.8z"/>
	<path fill="#FEFEFE" d="M390.6,546.3c18.7-26.6,37.3-53.1,56-79.7c1.8,1.4,1.1,2.8,1.1,4c0.3,23.8,0.4,47.6,0.9,71.4
		c0.1,4.1-1,5.4-5.2,5.3c-16-0.2-32-0.1-47.9-0.1C394,547.2,392.5,547.6,390.6,546.3z"/>
	<path fill="#2A8B3D" d="M372.5,564.3c24.9,0,49.7,0,74.6,0c0,0.3,0,0.7,0,1c-24.9,0-49.7,0-74.6,0
		C372.5,564.9,372.5,564.6,372.5,564.3z"/>
	<path fill="#229439" d="M447.8,567.8c-1.3,1.5-3.1,1-4.7,1c-21.2,0-42.3,0-63.5,0c-2.4,0-4.6-0.2-6.8-1.3c0.8-1.3,2-0.4,3-0.7
		c1.7,1,3.6,0.5,5.4,0.5c20.4,0,40.8,0,61.3,0C444.2,567.4,446.1,566.9,447.8,567.8z"/>
	<path fill="#2A8E33" d="M447.8,567.8c-22.1,0-44.2,0-66.3,0c-1.9,0-4,0.8-5.7-1c22.1,0,44.2,0,66.3,0
		C444.1,566.9,446.2,566.1,447.8,567.8z"/>
	<path fill="#31893E" d="M240.9,385.1c7.2,0,14.4,0,21.6,0c0,0.1,0,0.3,0,0.4c-7.2,0-14.4,0-21.6,0
		C240.9,385.4,240.9,385.2,240.9,385.1z"/>
	<path fill="#556293" d="M1055.8,223.8c10.4,0,20.8,0,31.2,0c0.2,2.2-1,2-1.9,2c-8.6,0-17.3,0-25.9,0
		C1057.7,225.8,1056.1,225.9,1055.8,223.8L1055.8,223.8z"/>
	<path fill="#556293" d="M1087.8,221.8c-10.7,1-21.3,0-32,0v0c1.3-1.5,3-1,4.6-1c7.6,0,15.2,0,22.7,0
		C1084.8,220.9,1086.5,220.3,1087.8,221.8L1087.8,221.8z"/>
	<path fill="#556293" d="M1069.8,214.8c-5.3,0.9-10.5,2.3-16.8,1.9C1058.9,212.5,1064.4,214,1069.8,214.8L1069.8,214.8z"/>
	<path fill="#556293" d="M1055.8,223.8c-2.4,0.2-4.4-1.6-6.8-2c2.3,0,4.5,0,6.8,0c0,0,0,0,0,0
		C1055.8,222.5,1055.8,223.2,1055.8,223.8C1055.8,223.8,1055.8,223.8,1055.8,223.8z"/>
	<path fill="#A8B1D4" d="M1052.8,219.9c-2.2,1.7-4.7,0.7-7.1,0.2c2.4-0.4,4.8-0.8,7.2-1.2c0.3,0.2,0.4,0.5,0.3,0.7
		C1053.1,219.8,1052.9,219.9,1052.8,219.9z"/>
	<path fill="#F1F9FC" d="M1052.8,219.9c0-0.3,0-0.6,0.1-0.9c1.2-0.1,2.5-0.2,3.7-0.3c1.3,0.5,3-0.3,4.1,1
		C1058.1,219.7,1055.5,219.8,1052.8,219.9z"/>
	<path fill="#757FB3" d="M1075.8,214.8c1.3,0.1,2.7,0.2,4,0.3c-2.1,0.6-4.1,1.5-5.9-0.2C1074.5,214.3,1075.2,214.3,1075.8,214.8z"/>
	<path fill="#556293" d="M1075.8,214.8c-0.6,0-1.3,0-1.9,0.1c-1.4,0.4-2.7,1.8-4.1,0c0,0,0,0,0,0
		C1071.8,214.9,1073.8,212.6,1075.8,214.8z"/>
</g>
</svg>
