<svg version="1.1" id="Layer_1" xmlns="http://www.w3.org/2000/svg" xlink="http://www.w3.org/1999/xlink" x="0px" y="0px" viewBox="128 141.2 547 249.90000000000003" enable-background="128 141.2 547 249.90000000000003" space="preserve">
<g>
	<path fill="#3392C9" d="M142.7,246.6l46.4-4.3c1.4-0.1,2.8-0.2,4.2-0.2c18.6,0,32.2,12,33.8,29.9c1.1,12.1-2.7,23.7-10.7,32.5
		c-7.8,8.6-18.8,13.9-31.2,15.1l-12,1.1l-3,27.3l-38.8,3.6L142.7,246.6z M177.2,283.1l5.6-0.5c1.7-0.2,3.5-1.6,4.6-2.9l-9.8,0.9
		L177.2,283.1z"/>
	<path fill="#FFFFFF" d="M144.8,248.7l44.5-4.1c1.3-0.1,2.7-0.2,4-0.2c17.3,0,29.9,11.2,31.5,27.8c1.1,11.4-2.5,22.3-10.1,30.7
		c-7.4,8.1-17.9,13.2-29.7,14.3l-13.9,1.3l-3,27.3l-34,3.2L144.8,248.7z M174.5,285.7l8.4-0.8c3.8-0.4,7.8-4.6,7.6-7.3
		c-0.2-0.1-0.9-0.3-2.2-0.3c-0.4,0-0.8,0-1.2,0.1l-11.9,1.1L174.5,285.7z"/>
	<path fill="#3392C9" d="M149.1,253.1l40.6-3.8c16.8-1.6,28.9,7.9,30.3,23.3c2,21.1-13.9,37.9-35.5,39.9l-17.7,1.6l-3,27.3
		l-24.4,2.3L149.1,253.1z M183.4,289.6c6.4-0.6,12.4-7.2,11.9-12.6c-0.3-3.2-3.4-4.9-8.5-4.4l-15.7,1.5l-1.9,16.9L183.4,289.6z"/>
	<polygon fill="#3392C9" points="227.4,238.7 266.2,235.1 254.9,340.1 216.1,343.7 	"/>
	<polygon fill="#FFFFFF" points="229.5,240.9 263.5,237.7 252.8,338 218.8,341.1 	"/>
	<path fill="#3392C9" d="M233.8,245.2l24.4-2.3l-9.7,90.7l-24.4,2.3L233.8,245.2z"/>
	<path fill="#3392C9" d="M305.2,336.8c-24.2,0-44.2-18.5-46.5-43.1c-1.4-14.9,4-30.5,14.9-43c10.7-12.4,25.6-20.3,40.8-21.7
		c1.7-0.2,3.3-0.2,5-0.2c14.2,0,27.9,5.9,36.7,15.7l4.8,5.3l-30,26.6l-4.6-6.5c-1.8-2.6-4.7-4-8.2-4c-0.4,0-0.9,0-1.3,0.1
		c-5,0.5-10,3.4-13.8,8.1c-3.8,4.7-5.7,10.3-5.3,15.4c0.6,6.9,5.4,10,9.6,10c0.3,0,0.5,0,0.8,0c4.5-0.4,10.8-4.3,14.2-8.9l4.8-6.4
		l27.9,26.4l-4.6,5.1c-10,11.1-26.4,19.5-40.7,20.8C308.1,336.8,306.6,336.8,305.2,336.8z"/>
	<path fill="#FFFFFF" d="M305.2,334.5c-23,0-42-17.6-44.2-41c-1.3-14.2,3.9-29.2,14.3-41.2c10.3-11.9,24.6-19.5,39.2-20.9
		c1.6-0.1,3.2-0.2,4.7-0.2c13.5,0,26.5,5.6,34.9,14.9l3.2,3.5L331.2,273l-3-4.3c-2.3-3.2-5.9-5-10.2-5c-0.5,0-1,0-1.5,0.1
		c-5.6,0.5-11.2,3.8-15.5,9c-4.2,5.2-6.3,11.4-5.8,17.1c0.8,8.3,6.7,12.1,12,12.1c0.3,0,0.7,0,1,0c5.2-0.5,12-4.7,15.9-9.8l3.2-4.2
		l24.3,23l-3.1,3.4c-9.7,10.7-25.4,18.8-39.1,20C307.9,334.4,306.6,334.5,305.2,334.5z"/>
	<path fill="#3392C9" d="M265.8,293.1c-2.5-27.2,21.2-54.3,49.3-56.9c14.8-1.4,27.9,4.5,35.7,13.2L332,265.9
		c-3.2-4.5-8.8-7.5-16-6.9c-14.5,1.3-26.9,16.7-25.5,31.2c1,11.3,9.8,17.1,18.1,16.3c6.4-0.6,14.5-5.4,19.2-11.7l17.1,16.2
		c-8.7,9.7-23.4,17.3-36.1,18.5C287.5,331.6,267.9,315.8,265.8,293.1z"/>
	<polygon fill="#3392C9" points="356.6,226.7 395.5,223.1 393.4,241.7 411.2,221.7 462.9,216.9 417.5,268 448.7,322.2 405.4,326.2
		389.6,298.4 387.4,300.7 384,328.2 345.4,331.8 	"/>
	<polygon fill="#FFFFFF" points="358.8,228.9 392.8,225.8 390.2,248.8 412.3,223.9 457.1,219.8 414.6,267.8 444.8,320.2
		406.7,323.7 390,294.4 385.2,299.7 381.9,326 348,329.1 	"/>
	<path fill="#3392C9" d="M363.1,233.3l24.4-2.3l-3.6,32.1l30.8-34.6l31.1-2.9l-36.9,41.6l28.2,49l-27.8,2.6l-18.3-32.3l-10.3,11.1
		l-3,24.1l-24.4,2.3L363.1,233.3z"/>
</g>
<g>
	<g>
		<path fill="#F1563A" d="M146.4,370.9c0.4,5-2.8,9.9-7.7,10.3c-2.1,0.2-3.8-0.7-4.9-2.2l-0.9,7.4l-4.9,0.4l2.5-20.4l4.9-0.4
			l-0.2,1.8c1.3-1.4,2.9-2.3,4.9-2.5C143.7,365,146.2,367.4,146.4,370.9z M141.7,371.9c-0.1-1.5-1.3-2.5-2.9-2.3
			c-2.6,0.2-4.5,2.9-4.3,5.4c0.1,1.5,1.2,2.4,2.8,2.3C139.9,377,142,374.4,141.7,371.9z"/>
		<path fill="#F1563A" d="M150.8,359.5l4.9-0.4l-2.6,20.7l-4.9,0.4L150.8,359.5z"/>
		<path fill="#F1563A" d="M173.2,363l-1.9,15.3l-4.9,0.4l0.2-1.4c-1,1.2-2.5,2-4.2,2.1c-2.9,0.2-4.9-1.5-5.1-4.2
			c-0.1-1.1,0.1-1.9,1.3-10.9l4.7-0.4c-1.1,8.7-1.2,9.1-1.2,9.6c0.1,1.1,0.8,1.7,1.9,1.7c1.7-0.1,3.1-1.6,3.3-3.1l0,0l1.1-8.6
			L173.2,363z"/>
		<path fill="#F1563A" d="M173.6,376l2.2-3.1c1.3,0.9,3.2,1.3,4.6,1.2c1.5-0.1,2.3-0.7,2.3-1.5c0-0.3-0.2-0.6-2-0.9
			c-2.9-0.5-5.2-0.9-5.4-3.7c-0.3-3.3,2.6-5.8,6.4-6.1c2.4-0.2,4.4,0.5,6.1,1.5l-2,3.2c-1.1-0.7-2.6-1.2-3.8-1.1
			c-1.3,0.1-2.2,0.8-2.2,1.5c0,0.3,0.3,0.6,2.1,0.9c2.8,0.5,5.1,0.9,5.4,3.8c0.3,3.3-2.6,5.8-6.6,6.1
			C177.9,378.1,175.3,377.3,173.6,376z"/>
	</g>
</g>
<g>
	<g>
		<path fill="#F1563A" d="M208.3,361l-0.8,6.8l18.2-1.3l-1.2,8.4l-18.3,1.3l-1.9,14.2l-9.3,0.7l5.1-37.8l29.4-2.1l-1.2,8.4
			L208.3,361z"/>
		<path fill="#F1563A" d="M235.2,350.8l9.3-0.7l-5.1,37.8l-9.3,0.7L235.2,350.8z"/>
		<path fill="#F1563A" d="M271.8,372.9l8.6,12.2l-10.3,0.7l-7.9-11.2l-4.8,0.3l-1.6,11.8l-9.3,0.7l5.1-37.8l17-1.2
			c7.2-0.5,12.3,3.5,12.7,9.8C281.8,364.8,277.8,370.3,271.8,372.9z M258.5,366.4l7.1-0.5c3.5-0.2,6.6-3.4,6.4-6.2
			c-0.1-1.8-1.9-2.8-4.7-2.6l-7.5,0.5L258.5,366.4z"/>
		<path fill="#F1563A" d="M298.1,354.7l-0.7,5.9l18.1-1.3l-1.2,8.4l-18.2,1.3l-0.8,6.7l20-1.4l-1.2,8.4l-29.4,2.1l5.1-37.8l29.4-2.1
			l-1.2,8.4L298.1,354.7z"/>
		<path fill="#F1563A" d="M325.2,344.4l19.2-1.4c6-0.4,10.3,2.7,10.7,7.4c0.3,4.2-2.3,8.1-6.4,10.3c3.1,1.3,5.4,4.1,5.6,7.5
			c0.5,7.1-6,11.9-13.7,12.5l-20.6,1.4L325.2,344.4z M339.4,373c3.4-0.2,5.9-2.5,5.7-5.4c-0.1-1.6-1.5-2.4-4.1-2.2l-9.7,0.7l-1,7.6
			L339.4,373z M340.1,358.2c3.2-0.2,5.5-2.4,5.3-5.1c-0.2-1.5-1.4-2.1-3.8-2l-8.3,0.6l-0.9,7L340.1,358.2z"/>
		<path fill="#F1563A" d="M384.4,372l-14.5,1l-3,5.9l-10.6,0.7l19.9-38.9l10.6-0.7l-0.1,0.2l9.6,36.6l-10.3,0.7L384.4,372z
			 M382.6,365.1l-3-11.2l-6,11.8L382.6,365.1z"/>
		<path fill="#F1563A" d="M428.2,366.3l-1.1,8.4l-27.2,1.9l5.1-37.8l9.2-0.7l-3.9,29.4L428.2,366.3z"/>
		<path fill="#F1563A" d="M460.2,364l-1.2,8.4l-27.2,1.9l5.1-37.8l9.2-0.6l-3.9,29.4L460.2,364z"/>
	</g>
</g>
<path fill="#EC1D24" d="M564.6,381.7c-60.9,0-110.4-49.5-110.4-110.4c0-60.9,49.5-110.4,110.4-110.4S675,210.5,675,271.3
	C675,332.2,625.4,381.7,564.6,381.7z M564.6,165.9c-58.1,0-105.4,47.3-105.4,105.4s47.3,105.4,105.4,105.4S670,329.4,670,271.3
	S622.7,165.9,564.6,165.9z"/>
<circle fill="#FFFFFF" cx="564.6" cy="271.3" r="105.5"/>
<linearGradient id="SVGID_1_" gradientUnits="userSpaceOnUse" x1="564.5645" y1="342.2157" x2="564.5645" y2="218.986">
	<stop offset="0" style="stop-color:#FDBE05"/>
	<stop offset="0.5051" style="stop-color:#F67A12"/>
	<stop offset="1" style="stop-color:#ED2722"/>
</linearGradient>
<path fill="url(#SVGID_1_)" d="M543.9,141.2c0,0,32.7,30.7-20.5,59.1c0,0-29.1,20.1-18.9,67.7c0,0-17.3-8.7-2-61
	c0,0-59.1,41.3-16.5,115.8c0,0,56.3,75.2,132.7,25.6c0,0,72.9-51.2,21.3-128c0,0-10.6,36.6-28,38.6c0,0-10.6-1.2-2.8-11.8
	c0,0,28-19.7,16.9-59.5C626.2,187.6,614,145.1,543.9,141.2z"/>
<path fill="#FFFFFF" d="M527.9,216.6l-3.5,22.8l43.7-2.4L537,268.6l3.2,16.5c0,0,26.2-4,31.6,8.4c1.8,4,0.5,8.8-2.6,11.9
	c-6.9,6.7-24,18.6-45.9-1l-19.7,16.9c0,0,20.1,27.2,56.3,18.5c0,0,34.3-6.3,38.2-35.8c0,0,9.8-29.5-25.2-40.2l35.4-32.7l3.9-21.7
	L527.9,216.6z"/>
<g>
	<g>
		<path fill="#F1563A" d="M453.8,332.8h-2.9v-1.1h7.1v1.1H455v8.5h-1.3V332.8z"/>
		<path fill="#F1563A" d="M467.1,337.1c-0.1-1.3-0.2-2.9-0.1-4.1h0c-0.3,1.1-0.7,2.3-1.2,3.6l-1.7,4.7h-0.9l-1.6-4.6
			c-0.5-1.4-0.8-2.6-1.1-3.7h0c0,1.2-0.1,2.8-0.2,4.2l-0.3,4.1h-1.2l0.7-9.6h1.6l1.6,4.6c0.4,1.2,0.7,2.2,1,3.2h0c0.2-1,0.6-2,1-3.2
			l1.7-4.6h1.6l0.6,9.6h-1.2L467.1,337.1z"/>
	</g>
</g>
</svg>
