<svg version="1.1" id="Layer_1" xmlns="http://www.w3.org/2000/svg" xlink="http://www.w3.org/1999/xlink" x="0px" y="0px" viewBox="325 8.5 547 249.89999999999998" enable-background="325 8.5 547 249.89999999999998" space="preserve">
<g>
	<path fill="#3392C9" d="M339.7,113.9l46.4-4.3c1.4-0.1,2.8-0.2,4.2-0.2c18.6,0,32.2,12,33.8,29.9c1.1,12.1-2.7,23.7-10.7,32.5
		c-7.8,8.6-18.8,13.9-31.2,15.1l-12,1.1l-3,27.3l-38.8,3.6L339.7,113.9z M374.2,150.4l5.6-0.5c1.7-0.2,3.5-1.6,4.6-2.9l-9.8,0.9
		L374.2,150.4z"/>
	<path fill="#FFFFFF" d="M341.8,116l44.5-4.1c1.3-0.1,2.7-0.2,4-0.2c17.3,0,29.9,11.2,31.5,27.8c1.1,11.4-2.5,22.3-10.1,30.7
		c-7.4,8.1-17.9,13.2-29.7,14.3l-13.9,1.3l-3,27.3l-34,3.2L341.8,116z M371.5,153l8.4-0.8c3.8-0.4,7.8-4.6,7.6-7.3
		c-0.2-0.1-0.9-0.3-2.2-0.3c-0.4,0-0.8,0-1.2,0.1l-11.9,1.1L371.5,153z"/>
	<path fill="#3392C9" d="M346.1,120.4l40.6-3.8c16.8-1.6,28.9,7.9,30.3,23.3c2,21.1-13.9,37.9-35.5,39.9l-17.7,1.6l-3,27.3
		l-24.4,2.3L346.1,120.4z M380.4,156.9c6.4-0.6,12.4-7.2,11.9-12.6c-0.3-3.2-3.4-4.9-8.5-4.4l-15.7,1.5l-1.9,16.9L380.4,156.9z"/>
	<polygon fill="#3392C9" points="424.4,106 463.2,102.4 451.9,207.4 413.1,211 	"/>
	<polygon fill="#FFFFFF" points="426.5,108.2 460.5,105 449.8,205.3 415.8,208.4 	"/>
	<path fill="#3392C9" d="M430.8,112.5l24.4-2.3l-9.7,90.7l-24.4,2.3L430.8,112.5z"/>
	<path fill="#3392C9" d="M502.2,204.1c-24.2,0-44.2-18.5-46.5-43.1c-1.4-14.9,4-30.5,14.9-43c10.7-12.4,25.6-20.3,40.8-21.7
		c1.7-0.2,3.3-0.2,5-0.2c14.2,0,27.9,5.9,36.7,15.7l4.8,5.3l-30,26.6l-4.6-6.5c-1.8-2.6-4.7-4-8.2-4c-0.4,0-0.9,0-1.3,0.1
		c-5,0.5-10,3.4-13.8,8.1s-5.7,10.3-5.3,15.4c0.6,6.9,5.4,10,9.6,10c0.3,0,0.5,0,0.8,0c4.5-0.4,10.8-4.3,14.2-8.9l4.8-6.4l27.9,26.4
		l-4.6,5.1c-10,11.1-26.4,19.5-40.7,20.8C505.1,204.1,503.6,204.1,502.2,204.1z"/>
	<path fill="#FFFFFF" d="M502.2,201.8c-23,0-42-17.6-44.2-41c-1.3-14.2,3.9-29.2,14.3-41.2c10.3-11.9,24.6-19.5,39.2-20.9
		c1.6-0.1,3.2-0.2,4.7-0.2c13.5,0,26.5,5.6,34.9,14.9l3.2,3.5l-26.1,23.4l-3-4.3c-2.3-3.2-5.9-5-10.2-5c-0.5,0-1,0-1.5,0.1
		c-5.6,0.5-11.2,3.8-15.5,9c-4.2,5.2-6.3,11.4-5.8,17.1c0.8,8.3,6.7,12.1,12,12.1c0.3,0,0.7,0,1,0c5.2-0.5,12-4.7,15.9-9.8l3.2-4.2
		l24.3,23l-3.1,3.4c-9.7,10.7-25.4,18.8-39.1,20C504.9,201.7,503.6,201.8,502.2,201.8z"/>
	<path fill="#3392C9" d="M462.8,160.4c-2.5-27.2,21.2-54.3,49.3-56.9c14.8-1.4,27.9,4.5,35.7,13.2L529,133.2
		c-3.2-4.5-8.8-7.5-16-6.9c-14.5,1.3-26.9,16.7-25.5,31.2c1,11.3,9.8,17.1,18.1,16.3c6.4-0.6,14.5-5.4,19.2-11.7l17.1,16.2
		c-8.7,9.7-23.4,17.3-36.1,18.5C484.5,198.9,464.9,183.1,462.8,160.4z"/>
	<polygon fill="#3392C9" points="553.6,94 592.5,90.4 590.4,109 608.2,89 659.9,84.2 614.5,135.3 645.7,189.5 602.4,193.5
		586.6,165.7 584.4,168 581,195.5 542.4,199.1 	"/>
	<polygon fill="#FFFFFF" points="555.8,96.2 589.8,93.1 587.2,116.1 609.3,91.2 654.1,87.1 611.6,135.1 641.8,187.5 603.7,191
		587,161.7 582.2,167 578.9,193.3 545,196.4 	"/>
	<path fill="#3392C9" d="M560.1,100.6l24.4-2.3l-3.6,32.1l30.8-34.6l31.1-2.9l-36.9,41.6l28.2,49l-27.8,2.6L588,153.8l-10.3,11.1
		l-3,24.1l-24.4,2.3L560.1,100.6z"/>
</g>
<g>
	<g>
		<path fill="#F1563A" d="M343.4,238.2c0.4,5-2.8,9.9-7.7,10.3c-2.1,0.2-3.8-0.7-4.9-2.2l-0.9,7.4l-4.9,0.4l2.5-20.4l4.9-0.4
			l-0.2,1.8c1.3-1.4,2.9-2.3,4.9-2.5C340.7,232.3,343.2,234.7,343.4,238.2z M338.7,239.2c-0.1-1.5-1.3-2.5-2.9-2.3
			c-2.6,0.2-4.5,2.9-4.3,5.4c0.1,1.5,1.2,2.4,2.8,2.3C336.9,244.3,339,241.7,338.7,239.2z"/>
		<path fill="#F1563A" d="M347.8,226.8l4.9-0.4l-2.6,20.7l-4.9,0.4L347.8,226.8z"/>
		<path fill="#F1563A" d="M370.2,230.3l-1.9,15.3l-4.9,0.4l0.2-1.4c-1,1.2-2.5,2-4.2,2.1c-2.9,0.2-4.9-1.5-5.1-4.2
			c-0.1-1.1,0.1-1.9,1.3-10.9l4.7-0.4c-1.1,8.7-1.2,9.1-1.2,9.6c0.1,1.1,0.8,1.7,1.9,1.7c1.7-0.1,3.1-1.6,3.3-3.1l0,0l1.1-8.6
			L370.2,230.3z"/>
		<path fill="#F1563A" d="M370.6,243.3l2.2-3.1c1.3,0.9,3.2,1.3,4.6,1.2c1.5-0.1,2.3-0.7,2.3-1.5c0-0.3-0.2-0.6-2-0.9
			c-2.9-0.5-5.2-0.9-5.4-3.7c-0.3-3.3,2.6-5.8,6.4-6.1c2.4-0.2,4.4,0.5,6.1,1.5l-2,3.2c-1.1-0.7-2.6-1.2-3.8-1.1
			c-1.3,0.1-2.2,0.8-2.2,1.5c0,0.3,0.3,0.6,2.1,0.9c2.8,0.5,5.1,0.9,5.4,3.8c0.3,3.3-2.6,5.8-6.6,6.1
			C374.9,245.4,372.3,244.6,370.6,243.3z"/>
	</g>
</g>
<g>
	<g>
		<path fill="#F1563A" d="M405.3,228.3l-0.8,6.8l18.2-1.3l-1.2,8.4l-18.3,1.3l-1.9,14.2l-9.3,0.7l5.1-37.8l29.4-2.1l-1.2,8.4
			L405.3,228.3z"/>
		<path fill="#F1563A" d="M432.2,218.1l9.3-0.7l-5.1,37.8l-9.3,0.7L432.2,218.1z"/>
		<path fill="#F1563A" d="M468.8,240.2l8.6,12.2l-10.3,0.7l-7.9-11.2l-4.8,0.3l-1.6,11.8l-9.3,0.7l5.1-37.8l17-1.2
			c7.2-0.5,12.3,3.5,12.7,9.8C478.8,232.1,474.8,237.6,468.8,240.2z M455.5,233.7l7.1-0.5c3.5-0.2,6.6-3.4,6.4-6.2
			c-0.1-1.8-1.9-2.8-4.7-2.6l-7.5,0.5L455.5,233.7z"/>
		<path fill="#F1563A" d="M495.1,222l-0.7,5.9l18.1-1.3l-1.2,8.4l-18.2,1.3l-0.8,6.7l20-1.4l-1.2,8.4l-29.4,2.1l5.1-37.8l29.4-2.1
			l-1.2,8.4L495.1,222z"/>
		<path fill="#F1563A" d="M522.2,211.7l19.2-1.4c6-0.4,10.3,2.7,10.7,7.4c0.3,4.2-2.3,8.1-6.4,10.3c3.1,1.3,5.4,4.1,5.6,7.5
			c0.5,7.1-6,11.9-13.7,12.5l-20.6,1.4L522.2,211.7z M536.4,240.3c3.4-0.2,5.9-2.5,5.7-5.4c-0.1-1.6-1.5-2.4-4.1-2.2l-9.7,0.7
			l-1,7.6L536.4,240.3z M537.1,225.5c3.2-0.2,5.5-2.4,5.3-5.1c-0.2-1.5-1.4-2.1-3.8-2l-8.3,0.6l-0.9,7L537.1,225.5z"/>
		<path fill="#F1563A" d="M581.4,239.3l-14.5,1l-3,5.9l-10.6,0.7l19.9-38.9l10.6-0.7l-0.1,0.2l9.6,36.6l-10.3,0.7L581.4,239.3z
			 M579.6,232.4l-3-11.2l-6,11.8L579.6,232.4z"/>
		<path fill="#F1563A" d="M625.2,233.6l-1.1,8.4l-27.2,1.9l5.1-37.8l9.2-0.7l-3.9,29.4L625.2,233.6z"/>
		<path fill="#F1563A" d="M657.2,231.3l-1.2,8.4l-27.2,1.9l5.1-37.8l9.2-0.6l-3.9,29.4L657.2,231.3z"/>
	</g>
</g>
<path fill="#EC1D24" d="M761.6,249c-60.9,0-110.4-49.5-110.4-110.4S700.7,28.2,761.6,28.2S872,77.8,872,138.6
	C872,199.5,822.4,249,761.6,249z M761.6,33.2c-58.1,0-105.4,47.3-105.4,105.4S703.5,244,761.6,244S867,196.7,867,138.6
	S819.7,33.2,761.6,33.2z"/>
<circle fill="#FFFFFF" cx="761.6" cy="138.6" r="105.5"/>
<linearGradient id="SVGID_1_" gradientUnits="userSpaceOnUse" x1="761.5178" y1="70.5043" x2="761.5178" y2="193.734" gradientTransform="matrix(1 0 0 -1 0 279.98)">
	<stop offset="0" style="stop-color:#FDBE05"/>
	<stop offset="0.5051" style="stop-color:#F67A12"/>
	<stop offset="1" style="stop-color:#ED2722"/>
</linearGradient>
<path fill="url(#SVGID_1_)" d="M740.9,8.5c0,0,32.7,30.7-20.5,59.1c0,0-29.1,20.1-18.9,67.7c0,0-17.3-8.7-2-61
	c0,0-59.1,41.3-16.5,115.8c0,0,56.3,75.2,132.7,25.6c0,0,72.9-51.2,21.3-128c0,0-10.6,36.6-28,38.6c0,0-10.6-1.2-2.8-11.8
	c0,0,28-19.7,16.9-59.5C823.2,54.9,811,12.4,740.9,8.5z"/>
<g>
	<g>
		<path fill="#F1563A" d="M650.8,200.1h-2.9V199h7.1v1.1h-3v8.5h-1.3L650.8,200.1L650.8,200.1z"/>
		<path fill="#F1563A" d="M664.1,204.4c-0.1-1.3-0.2-2.9-0.1-4.1l0,0c-0.3,1.1-0.7,2.3-1.2,3.6l-1.7,4.7h-0.9l-1.6-4.6
			c-0.5-1.4-0.8-2.6-1.1-3.7l0,0c0,1.2-0.1,2.8-0.2,4.2l-0.3,4.1h-1.2l0.7-9.6h1.6l1.6,4.6c0.4,1.2,0.7,2.2,1,3.2l0,0
			c0.2-1,0.6-2,1-3.2l1.7-4.6h1.6l0.6,9.6h-1.2L664.1,204.4z"/>
	</g>
</g>
<path fill="#FFFFFF" d="M788.3,153.4l13.5-76.3l-27.3,1.8l-78,84.2l5.3,20.8l56.9-4.1l-4.4,26.4l26.4-2.1l5-27.9l15.6-1.2l2.3-21.7
	h-15.3V153.4z M762.8,156.6l-30.8,1.8l35.2-39.6L762.8,156.6z"/>
</svg>
