<svg version="1.1" id="Layer_1" xmlns="http://www.w3.org/2000/svg" xlink="http://www.w3.org/1999/xlink" x="0px" y="0px" viewBox="97.2 179.8 856.5 340.59999999999997" enable-background="97.2 179.8 856.5 340.59999999999997" space="preserve">
<g>
	<path fill="#FFFFFF" d="M933,360.8l-0.6-1.8c-1.6-4.9-4.9-9.9-9.7-13.4c-2.9-8.2-10.7-16.2-22.2-17.5v-55.6H922h31.7l-3.4-59.2
		h-22.2h-31.9c-2.3-4.8-5.4-9.1-9.4-12.5c-5.6-11.8-16.6-20.9-32.4-20.9c-1.1,0-2.3,0-3.5,0.1c-5,0.4-12.8,0.6-22.7,0.6
		c-17.6,0-36.2-0.7-36.4-0.7l-2.1-0.1l-2.1,0.4c-3.6,0.7-22.2,4.9-30,20.3c-0.7,1.3-3.8,6.2-6.7,10.8c-7.6,12-18.9,29.9-30.3,49.8
		c-6.4-6.6-15-9.4-22.9-9.4c-2.1,0-5,0.2-12.7,1.4c-2.9,0.4-5.6,0.7-8.1,0.7c-4.8,0-7.1-0.3-8.2-0.5c-5.4-1-9.4-1.5-12.8-1.5
		c-5.3,0-10.3,1.5-14.6,4.2c-4.9-2.9-10.5-4.2-15.7-4.2c-3.3,0-6.8,0.2-10.5,0.7c-11.7,1.3-14.4,1.3-14.7,1.3
		c-2.9,0-5.2-0.1-6.9-0.3v-2.2c0-23.6-15.9-29.9-25.2-29.9c-0.7,0-1.5,0-2.3,0.1c-3.7-15.8-16.3-20.3-24.2-20.3
		c-3.1,0-6.9,0.4-12,1.3c-3.8,0.7-5.2,0.7-5.2,0.7c-2.3,0-4.8-0.3-7.4-0.8l-0.1,0c-4.2-0.8-7.9-1.3-11.1-1.3
		c-7.9,0-15.1,2.7-20.8,7.8c-0.8-0.3-1.7-0.5-2.5-0.7c-1.6-2.8-3.5-5.4-5.7-7.8c-8.3-9-19.3-13.8-31.7-13.8
		c-11.7,0-22.5,4.7-31.1,13.7c-8.4,8.7-12.8,19.5-12.8,31c0,9.6,2.5,18.4,7.2,26c-2.8,2-5.3,4.4-7.4,7.4c-1.8,2.4-3.2,5-4.3,7.7
		c-0.2-0.1-0.4-0.1-0.6-0.2c-1.8-2.8-3.8-5.4-6.1-7.7c-11.1-11.3-28.2-17.1-50.8-17.1c-17.4,0-31.9,3.7-43.3,10.8
		c-9.1-14.2-20.5-24.4-34-30.3c-14.6-17.3-33.9-26.3-56.7-26.3c-6.3,0-11.4,0.2-15.7,0.7l-16.3,1.8c-6,0.6-9.4,0.8-11.1,0.8
		c-1.9,0-5.5-0.2-12-1.2l-0.5-0.1c-7.9-1-13-1.6-15.9-1.9c-0.9-0.1-1.8-0.1-2.7-0.1c-10.2,0-19.4,4.9-25.8,13.7
		c-5.4,7.5-8.2,16.8-8.2,27.5c0,9,2.2,17,6.5,23.8c7,11.1,16.2,13.8,22.3,14.3v79.9c-6,0.5-15.2,3.3-22.3,14.3
		c-4.3,6.8-6.5,14.8-6.5,23.8c0,10.6,2.8,19.7,8.2,27.1c5.7,7.7,13.6,12.4,22.6,13.5c1.1,2.4,2.4,4.6,4,6.7
		c6.5,8.9,16.1,13.8,26.9,13.8c2,0,4.5-0.2,18.5-2.3c2.9-0.4,6.7-0.7,11.4-0.7c4.2,0,8,0.2,11.2,0.5c21.5,2.2,28.5,2.5,31.9,2.5
		c22.8,0,42.4-9.1,56.8-26.3c0.3-0.4,0.6-0.7,0.9-1.1c4.4,3.3,9.3,5.9,14.5,7.7c1,1.4,2,2.8,3.1,4.1c10.5,12.6,25.3,19.2,42.8,19.2
		c12.1,0,23.5-3.4,33.6-9.9c7.6,6.4,17.2,9.9,28.2,9.9c9.6,0,18.3-2.7,25.5-7.9c4.6,2.7,9.8,4.1,15.4,4.1c3.9,0,8.6-0.6,14.7-1.9
		c2.6-0.5,5.6-0.8,8.7-0.8c4,0,7.7,0.3,10.9,0.9c6.7,1.2,11.6,1.8,15.5,1.8c5.1,0,10.4-1.1,15.1-3.5c4.3,2.3,9.2,3.5,14.4,3.5
		c2.3,0,5.7-0.2,14.5-2c2.2,10.2,7.1,19.3,14.5,26.7c5.8,5.7,12.6,10,20.2,12.6c1.9,2.7,4,5.3,6.4,7.6c10.4,10.3,24,15.7,39.5,15.7
		c17.1,0,41.5-6.8,60.4-39.2c4.7-8,8.5-15.9,11.4-23.5c2.6-7.1,6.8-20.5,12.6-40.8l5.5-19c0.1,0.1,0.3,0.1,0.4,0.2
		c5.4,2.6,11.4,4,17.4,4h24.8c-3.8,5.1-6,11.4-6,18.1l-0.2,14.8c0,7.2,3.6,14.7,10.6,19.5c3,9.2,11.9,17.3,26.3,18.1l0.5,0h96.3
		c7.3,0,14.3-2.6,19.6-7.4c5.8-5.3,8.9-12.6,8.6-20.3v-15.7c0-6-3.1-14.1-10.6-19.4c-0.6-1.9-1.5-3.8-2.7-5.7h5.2l0.7,0
		c12-0.8,24.7-9.9,25.8-25.8c0.6-8.9,0-14.7-0.1-15.7L933,360.8z"/>
	<g>
		<g>
			<g>
				<path fill="#231F20" d="M299,341.1c0,15.8-2.2,30.9-6.6,45.4c-4.4,14.5-10.4,26.3-18,35.3c-10.9,13-24.9,19.5-42.2,19.5
					c-4.6,0-14.6-0.8-29.9-2.4c-3.9-0.4-8.3-0.6-13.2-0.6c-5.7,0-10.4,0.3-14.3,0.9c-9.1,1.4-14.3,2.1-15.6,2.1
					c-4.8,0-8.6-2-11.6-6.1c-3-4-4.5-9.3-4.5-15.8c0-5.3,1.2-9.9,3.6-13.6c2.4-3.7,5.2-5.6,8.5-5.6c1.5,0,3.2,0.3,5.2,0.9
					c2,0.6,4,0.9,5.9,0.9c3.7,0,5.6-6.6,5.6-19.8v-81.9c0-13.2-1.9-19.8-5.6-19.8c-1.2,0-3,0.3-5.5,1c-2.5,0.7-4.4,1-5.7,1
					c-3.3,0-6.1-1.9-8.5-5.6c-2.4-3.7-3.6-8.3-3.6-13.6c0-6.7,1.5-12.2,4.6-16.4c3-4.2,6.9-6.2,11.5-5.8c2.5,0.2,7.5,0.8,15,1.8
					c6.3,1,11.2,1.5,15,1.5c3.3,0,7.7-0.3,13.2-0.9l16.3-1.8c3.6-0.4,8.1-0.6,13.6-0.6c21.7,0,38.5,10.5,50.5,31.6
					C293.6,292.1,299,314.9,299,341.1z M257.3,341.1c0-22.1-3.8-38.3-11.4-48.8c-6.4-8.9-13.8-13.3-22.2-13.3
					c-4.9,0-8.3,1.1-10.1,3.3c-1.8,2.2-2.7,6.3-2.7,12.4v93.1c0,6.1,0.9,10.3,2.7,12.4c1.8,2.2,5.2,3.3,10.3,3.3
					c8.4,0,15.7-4.4,22-13.3C253.5,379.5,257.3,363.1,257.3,341.1z"/>
				<path fill="#231F20" d="M435.4,422.7c0,6.5-2.2,11.8-6.6,16c-4.4,4.1-9.9,6.2-16.6,6.2c-12.2,0-20.5-6.5-24.8-19.5
					c-10.4,13-22.8,19.5-37.1,19.5c-11.9,0-21.3-4.1-28.2-12.4c-6.9-8.3-10.4-19.4-10.4-33.4c0-13.6,3-23.7,8.9-30.3
					c6-6.6,16.4-11.7,31.5-15.2c10.6-2.4,17.7-5.1,21.5-8.3c3.8-3.1,5.7-7.8,5.7-13.9c0-4.7-1.4-8.6-4.3-11.7
					c-2.9-3.1-6.4-4.6-10.7-4.6c-4.7,0-7.1,2.1-7.1,6.2v5.3c0,5.5-1.7,10.1-5.2,13.7c-3.4,3.6-7.8,5.5-13,5.5
					c-5.8,0-10.7-2.4-14.7-7.1c-4-4.7-6-10.5-6-17.4c0-10.6,4.2-19,12.7-25.1c8.5-6.1,20.2-9.2,35-9.2c17.4,0,29.8,3.8,37.3,11.4
					c7.4,7.6,11.2,20.2,11.2,37.7v61.5c0,6.5,1.2,9.8,3.6,9.8l3.6-0.6c0.3-0.2,0.8-0.3,1.6-0.3c3.4,0,6.3,1.6,8.6,4.7
					C434.3,414.3,435.4,418.1,435.4,422.7z M379.4,382.5v-7.8c-2.4,2-9.1,4.7-20.2,8.1c-7.7,2.4-11.5,6.7-11.5,12.8
					c0,9.1,4.1,13.7,12.2,13.7c5.9,0,10.6-2.4,14.2-7.3C377.6,397.2,379.4,390.7,379.4,382.5z"/>
				<path fill="#231F20" d="M516.5,420.9c0,13.4-4.5,20.1-13.6,20.1c-2.7,0-6.7-0.5-12.1-1.5c-4.3-0.8-9.1-1.2-14.3-1.2
					c-4.5,0-8.6,0.4-12.5,1.2c-4.8,1-8.4,1.5-10.9,1.5c-4,0-7.3-1.8-9.8-5.3c-2.5-3.5-3.8-8.1-3.8-13.8c0-11.3,3.5-17,10.5-17
					c1,0,2.3,0.2,3.8,0.5c2.2,0.8,3.6,1.3,4,1.3c2.5,0,3.8-5.5,3.8-16.6v-47.9c0-11.2-1.3-16.9-3.8-16.9l-4,1.2
					c-1,0.6-2.3,0.9-3.8,0.9c-7,0-10.5-5.7-10.5-17.1c0-5.7,1.3-10.3,3.9-13.9c2.6-3.5,6.1-5.3,10.4-5.3c1.8,0,4.1,0.3,6.9,0.9
					c4.8,1,8.8,1.5,12.1,1.5c3.3,0,6.6-0.4,10-1.2c3.4-0.8,5.7-1.2,6.7-1.2c4.2,0,6.3,3.8,6.3,11.5v88.7c0,10.3,1.5,15.4,4.5,15.4
					c0.7,0,1.8-0.3,3.1-0.9c1.3-0.6,2.6-0.9,3.8-0.9C513.3,404.9,516.5,410.2,516.5,420.9z"/>
				<path fill="#231F20" d="M497,253c0,7.5-2.4,13.8-7.2,19.1c-4.8,5.2-10.7,7.8-17.6,7.8c-6.9,0-12.8-2.7-17.6-8.1
					c-4.8-5.4-7.2-12.1-7.2-20c0-6.7,2.5-12.7,7.5-17.9c5-5.2,10.8-7.8,17.3-7.8c7.1,0,13,2.6,17.8,7.7
					C494.7,238.9,497,245.3,497,253z"/>
				<path fill="#231F20" d="M595.7,420.7c0,13.5-4.5,20.3-13.6,20.3c-2.4,0-6.4-0.4-12.1-1.2c-7-1-12.1-1.5-15.4-1.5
					c-4.2,0-7.7,0.3-10.7,0.9c-6,1.2-9.8,1.8-11.6,1.8c-4,0-7.3-1.8-9.8-5.3c-2.5-3.5-3.8-8.2-3.8-13.9c0-11.4,3.5-17.1,10.5-17.1
					c1,0,2.3,0.2,3.8,0.6c2.2,1,3.6,1.5,4,1.5c2.5,0,3.8-5.5,3.8-16.6v-98.5c0-11.2-1.3-16.9-3.8-16.9l-4,1.2
					c-1,0.6-2.3,0.9-3.8,0.9c-7,0-10.5-5.7-10.5-17.1c0-5.7,1.3-10.3,3.9-13.9c2.6-3.5,6.1-5.3,10.4-5.3c1.9,0,4.4,0.3,7.4,0.9
					c3.9,0.8,7.6,1.2,11.2,1.2c1.9,0,4.8-0.3,8.6-1c3.8-0.7,6.7-1,8.6-1c4.2,0,6.2,3.6,6.2,10.9v139.8c0,10.3,1.4,15.4,4.2,15.4
					c0.7,0,1.9-0.3,3.5-1c1.6-0.7,2.8-1,3.7-1C592.6,404.6,595.7,410,595.7,420.7z"/>
				<path fill="#231F20" d="M738.6,310.3c0,4.5-1,8.5-3.1,12c-2.1,3.5-4.5,5.2-7.1,5.2c-0.3,0-1.2-0.2-2.8-0.7
					c-1.6-0.5-2.6-0.7-3.2-0.7c-2.2,0-4.2,2.3-6,6.8c-0.3,1.2-0.4,1.9-0.4,2.1l-1.1,3.5l-0.9,3.5l-1.1,3.5l-19.2,66.2
					c-5.7,19.7-9.7,32.9-12.2,39.5c-2.5,6.6-5.8,13.5-9.9,20.5c-11.6,19.9-26.3,29.9-44,29.9c-10.6,0-19.3-3.4-26.1-10.2
					c-6.8-6.8-10.3-15.4-10.3-25.9c0-6.9,1.7-12.7,5.2-17.4c3.5-4.7,7.8-7.1,13.1-7.1c4.6,0,8.4,1.8,11.4,5.5c3,3.6,4.5,8.3,4.5,14
					c0,1.2-0.2,3.3-0.7,6.5c1.9,1.2,3.9,1.8,5.8,1.8c3.9,0,7.6-3,11.3-9c3.6-6,5.5-11.5,5.5-16.6c0-1.8-1.1-6.8-3.3-15
					c-1.3-5.1-2.8-9.9-4.2-14.4l-20.8-65.4c-1.8-5.7-3.6-11.3-5.6-16.8c-1.2-2.7-2.5-4.1-4-4.1c-1.3,0-2.4,0-3.1,0
					c-0.7,0-1.5,0-2.2,0c-7.6,0-11.4-5.5-11.4-16.6c0-5.7,1.3-10.4,4-14.2c2.7-3.7,6-5.6,10-5.6c1.6,0,3.9,0.3,6.9,0.9
					c3.9,0.8,8.6,1.2,14.1,1.2c2.4,0,8-0.5,17-1.5c3-0.4,5.7-0.6,8.3-0.6c8,0,12.1,5.7,12.1,17.1c0,7.9-3.2,12.5-9.6,13.9
					c-3.1,0.6-4.7,2.3-4.7,5c0,2,0.4,4.8,1.3,8.6l15.4,63.6l15-60.9c1.3-5.5,2-9.2,2-10.9c0-2-1.2-3.5-3.6-4.7
					c-3.3-1.6-5.6-3.3-6.9-5.2c-1.3-1.9-2-5-2-9.3c0-4.9,1.1-9,3.2-12.3c2.2-3.3,4.9-4.9,8.1-4.9c2.1,0,5.1,0.4,9.2,1.2
					c3,0.6,6.9,0.9,11.8,0.9c3.4,0,7.1-0.3,10.9-0.9c5.2-0.8,8.5-1.2,9.8-1.2C734,291.1,738.6,297.5,738.6,310.3z"/>
			</g>
			<g>
				<path fill="#F9A13A" d="M272.5,320.8c0,15.8-2.2,30.9-6.6,45.4c-4.4,14.5-10.4,26.3-18,35.3c-10.9,13-24.9,19.5-42.2,19.5
					c-4.6,0-14.6-0.8-29.9-2.4c-3.9-0.4-8.3-0.6-13.2-0.6c-5.7,0-10.4,0.3-14.3,0.9c-9.1,1.4-14.3,2.1-15.6,2.1
					c-4.8,0-8.6-2-11.6-6.1c-3-4-4.5-9.3-4.5-15.8c0-5.3,1.2-9.9,3.6-13.6c2.4-3.7,5.2-5.6,8.5-5.6c1.5,0,3.2,0.3,5.2,0.9
					s4,0.9,5.9,0.9c3.7,0,5.6-6.6,5.6-19.8V280c0-13.2-1.9-19.8-5.6-19.8c-1.2,0-3,0.3-5.5,1c-2.5,0.7-4.4,1-5.7,1
					c-3.3,0-6.1-1.9-8.5-5.6c-2.4-3.7-3.6-8.3-3.6-13.6c0-6.7,1.5-12.2,4.6-16.4c3-4.2,6.9-6.2,11.5-5.8c2.5,0.2,7.5,0.8,15,1.8
					c6.3,1,11.2,1.5,15,1.5c3.3,0,7.7-0.3,13.2-0.9l16.3-1.8c3.6-0.4,8.1-0.6,13.6-0.6c21.7,0,38.5,10.5,50.5,31.6
					C267.1,271.9,272.5,294.6,272.5,320.8z M230.8,320.8c0-22.1-3.8-38.3-11.4-48.8c-6.4-8.9-13.8-13.3-22.2-13.3
					c-4.9,0-8.3,1.1-10.1,3.3c-1.8,2.2-2.7,6.3-2.7,12.4v93.1c0,6.1,0.9,10.3,2.7,12.4c1.8,2.2,5.2,3.3,10.3,3.3
					c8.4,0,15.7-4.4,22-13.3C226.9,359.3,230.8,342.9,230.8,320.8z"/>
				<path fill="#F9A13A" d="M408.9,402.4c0,6.5-2.2,11.8-6.6,16c-4.4,4.1-9.9,6.2-16.6,6.2c-12.2,0-20.5-6.5-24.8-19.5
					c-10.4,13-22.8,19.5-37.1,19.5c-11.9,0-21.3-4.1-28.2-12.4s-10.4-19.4-10.4-33.4c0-13.6,3-23.7,8.9-30.3
					c6-6.6,16.4-11.7,31.5-15.2c10.6-2.4,17.7-5.1,21.5-8.3c3.8-3.1,5.7-7.8,5.7-13.9c0-4.7-1.4-8.6-4.3-11.7
					c-2.9-3.1-6.4-4.6-10.7-4.6c-4.7,0-7.1,2.1-7.1,6.2v5.3c0,5.5-1.7,10.1-5.2,13.7c-3.4,3.6-7.8,5.5-13,5.5
					c-5.8,0-10.7-2.4-14.7-7.1c-4-4.7-6-10.5-6-17.4c0-10.6,4.2-19,12.7-25.1c8.5-6.1,20.2-9.2,35-9.2c17.4,0,29.8,3.8,37.3,11.4
					c7.4,7.6,11.2,20.2,11.2,37.7v61.5c0,6.5,1.2,9.8,3.6,9.8l3.6-0.6c0.3-0.2,0.8-0.3,1.6-0.3c3.4,0,6.3,1.6,8.6,4.7
					C407.7,394.1,408.9,397.9,408.9,402.4z M352.9,362.3v-7.8c-2.4,2-9.1,4.7-20.2,8.1c-7.7,2.4-11.5,6.7-11.5,12.8
					c0,9.1,4.1,13.7,12.2,13.7c5.9,0,10.6-2.4,14.2-7.3C351.1,377,352.9,370.5,352.9,362.3z"/>
				<path fill="#F9A13A" d="M489.9,400.7c0,13.4-4.5,20.1-13.6,20.1c-2.7,0-6.7-0.5-12.1-1.5c-4.3-0.8-9.1-1.2-14.3-1.2
					c-4.5,0-8.6,0.4-12.5,1.2c-4.8,1-8.4,1.5-10.9,1.5c-4,0-7.3-1.8-9.8-5.3c-2.5-3.5-3.8-8.1-3.8-13.8c0-11.3,3.5-17,10.5-17
					c1,0,2.3,0.2,3.8,0.5c2.2,0.8,3.6,1.3,4,1.3c2.5,0,3.8-5.5,3.8-16.6V322c0-11.2-1.3-16.9-3.8-16.9l-4,1.2
					c-1,0.6-2.3,0.9-3.8,0.9c-7,0-10.5-5.7-10.5-17.1c0-5.7,1.3-10.3,3.9-13.9c2.6-3.5,6.1-5.3,10.4-5.3c1.8,0,4.1,0.3,6.9,0.9
					c4.8,1,8.8,1.5,12.1,1.5c3.3,0,6.6-0.4,10-1.2c3.4-0.8,5.7-1.2,6.7-1.2c4.2,0,6.3,3.8,6.3,11.5v88.7c0,10.3,1.5,15.4,4.5,15.4
					c0.7,0,1.8-0.3,3.1-0.9c1.3-0.6,2.6-0.9,3.8-0.9C486.8,384.7,489.9,390,489.9,400.7z"/>
				<path fill="#F9A13A" d="M470.5,232.7c0,7.5-2.4,13.8-7.2,19.1c-4.8,5.2-10.7,7.8-17.6,7.8c-6.9,0-12.8-2.7-17.6-8.1
					c-4.8-5.4-7.2-12.1-7.2-20c0-6.7,2.5-12.7,7.5-17.9c5-5.2,10.8-7.8,17.3-7.8c7.1,0,13,2.6,17.8,7.7
					C468.1,218.6,470.5,225.1,470.5,232.7z"/>
				<path fill="#F9A13A" d="M569.2,400.5c0,13.5-4.5,20.3-13.6,20.3c-2.4,0-6.4-0.4-12.1-1.2c-7-1-12.1-1.5-15.4-1.5
					c-4.2,0-7.7,0.3-10.7,0.9c-6,1.2-9.8,1.8-11.6,1.8c-4,0-7.3-1.8-9.8-5.3c-2.5-3.5-3.8-8.2-3.8-13.9c0-11.4,3.5-17.1,10.5-17.1
					c1,0,2.3,0.2,3.8,0.6c2.2,1,3.6,1.5,4,1.5c2.5,0,3.8-5.5,3.8-16.6v-98.5c0-11.2-1.3-16.9-3.8-16.9l-4,1.2
					c-1,0.6-2.3,0.9-3.8,0.9c-7,0-10.5-5.7-10.5-17.1c0-5.7,1.3-10.3,3.9-13.9c2.6-3.5,6.1-5.3,10.4-5.3c1.9,0,4.4,0.3,7.4,0.9
					c3.9,0.8,7.6,1.2,11.2,1.2c1.9,0,4.8-0.3,8.6-1c3.8-0.7,6.7-1,8.6-1c4.2,0,6.2,3.6,6.2,10.9v139.8c0,10.3,1.4,15.4,4.2,15.4
					c0.7,0,1.9-0.3,3.5-1c1.6-0.7,2.8-1,3.7-1C566.1,384.4,569.2,389.8,569.2,400.5z"/>
				<path fill="#F9A13A" d="M712.1,290.1c0,4.5-1,8.5-3.1,12c-2.1,3.5-4.5,5.2-7.1,5.2c-0.3,0-1.2-0.2-2.8-0.7
					c-1.6-0.5-2.6-0.7-3.2-0.7c-2.2,0-4.2,2.3-6,6.8c-0.3,1.2-0.4,1.9-0.4,2.1l-1.1,3.5l-0.9,3.5l-1.1,3.5L667,391.5
					c-5.7,19.7-9.7,32.9-12.2,39.5c-2.5,6.6-5.8,13.5-9.9,20.5c-11.6,19.9-26.3,29.9-44,29.9c-10.6,0-19.3-3.4-26.1-10.2
					c-6.8-6.8-10.3-15.4-10.3-25.9c0-6.9,1.7-12.7,5.2-17.4c3.5-4.7,7.8-7.1,13.1-7.1c4.6,0,8.4,1.8,11.4,5.5c3,3.6,4.5,8.3,4.5,14
					c0,1.2-0.2,3.3-0.7,6.5c1.9,1.2,3.9,1.8,5.8,1.8c3.9,0,7.6-3,11.3-9c3.6-6,5.5-11.5,5.5-16.6c0-1.8-1.1-6.8-3.3-15
					c-1.3-5.1-2.8-9.9-4.2-14.4l-20.8-65.4c-1.8-5.7-3.6-11.3-5.6-16.8c-1.2-2.7-2.5-4.1-4-4.1c-1.3,0-2.4,0-3.1,0
					c-0.7,0-1.5,0-2.2,0c-7.6,0-11.4-5.5-11.4-16.6c0-5.7,1.3-10.4,4-14.2c2.7-3.7,6-5.6,10-5.6c1.6,0,3.9,0.3,6.9,0.9
					c3.9,0.8,8.6,1.2,14.1,1.2c2.4,0,8-0.5,17-1.5c3-0.4,5.7-0.6,8.3-0.6c8,0,12.1,5.7,12.1,17.1c0,7.9-3.2,12.5-9.6,13.9
					c-3.1,0.6-4.7,2.3-4.7,5c0,2,0.4,4.8,1.3,8.6l15.4,63.6l15-60.9c1.3-5.5,2-9.2,2-10.9c0-2-1.2-3.5-3.6-4.7
					c-3.3-1.6-5.6-3.3-6.9-5.2c-1.3-1.9-2-5-2-9.3c0-4.9,1.1-9,3.2-12.3c2.2-3.3,4.9-4.9,8.1-4.9c2.1,0,5.1,0.4,9.2,1.2
					c3,0.6,6.9,0.9,11.8,0.9c3.4,0,7.1-0.3,10.9-0.9c5.2-0.8,8.5-1.2,9.8-1.2C707.4,270.9,712.1,277.3,712.1,290.1z"/>
			</g>
			<g>
				<path fill="#231F20" d="M914.9,364.8c0,0-1.8-5.8-8.4-5.2c-6.6,0.5-24.4-0.8-24.4-0.8V232.1c0,0-0.8-22-19.7-20.5
					c-18.9,1.6-61.4,0-61.4,0s-12.6,2.4-16.5,10.2c-3.8,7.6-54.5,81.9-71.5,132.4c-2.9,8.7,0.1,18.4,7.5,23.7
					c1.5,1.1,3.3,2.2,5.4,3.2c2.9,1.4,6,2.1,9.2,2.1h74.6v25.2c0,0,2.4,8.7-8.7,10.2c-4.7,0.7-8.8,2.2-11.9,3.7
					c-4.1,2-6.7,6.2-6.8,10.8l-0.2,14.6c0,0,0,5.5,9.4,6h95.8c2.5,0,5-0.8,6.8-2.5c1.4-1.3,2.6-3.1,2.3-5.6v-16.3c0,0,0-5.5-10.2-6
					c-10.2-0.5-6-38-6-38h26.5c0,0,7.6-0.5,8.1-8.1C915.4,369.5,914.9,364.8,914.9,364.8z M758,357.7c3.9-29.9,52.5-90.5,52.5-90.5
					l2.1,90.5H758z"/>
				<path fill="#9ACD66" d="M905.5,352.2c0,0-1.8-5.8-8.4-5.2c-6.6,0.5-24.4-0.8-24.4-0.8V219.5c0,0-0.8-22-19.7-20.5
					c-18.9,1.6-61.4,0-61.4,0s-12.6,2.4-16.5,10.2c-3.8,7.6-54.5,81.9-71.5,132.4c-2.9,8.7,0.1,18.4,7.5,23.7
					c1.5,1.1,3.3,2.2,5.4,3.2c2.9,1.4,6,2.1,9.2,2.1h74.6v25.2c0,0,2.4,8.7-8.7,10.2c-4.7,0.7-8.8,2.2-11.9,3.7
					c-4.1,2-6.7,6.2-6.8,10.8l-0.2,14.6c0,0,0,5.5,9.4,6H878c2.5,0,5-0.8,6.8-2.5c1.4-1.3,2.6-3.1,2.3-5.6v-16.3c0,0,0-5.5-10.2-6
					c-10.2-0.5-6-38-6-38h26.5c0,0,7.6-0.5,8.1-8.1C906,356.9,905.5,352.2,905.5,352.2z M748.6,345.1c3.9-29.9,52.5-90.5,52.5-90.5
					l2.1,90.5H748.6z"/>
			</g>
		</g>
		<path d="M899.7,235.6h-6v-3.2h16v3.2h-6.1v18h-3.9V235.6z"/>
		<path d="M930,244.9c-0.1-2.7-0.3-6-0.3-8.9h-0.1c-0.7,2.6-1.6,5.4-2.5,8.1l-3.1,9.2h-3l-2.8-9.1c-0.8-2.7-1.6-5.6-2.1-8.3H916
			c-0.1,2.8-0.2,6.1-0.4,9l-0.5,8.5h-3.6l1.4-21.2h5.1l2.8,8.5c0.8,2.5,1.4,5,2,7.4h0.1c0.6-2.3,1.3-4.9,2.1-7.4l2.9-8.5h5l1.2,21.2
			h-3.8L930,244.9z"/>
	</g>
</g>
</svg>
