<?xml version="1.0" encoding="UTF-8"?><svg xmlns="http://www.w3.org/2000/svg" viewBox="0 0 253.32 64.88"><defs><style>.d{fill:#0680c2;}</style></defs><g id="a"/><g id="b"><g id="c"><path class="d" d="M152.45,6.18l16.99,.29c.56,0,.92,.6,.66,1.1-1.84,3.6-7.88,13.96-10.46,18.7-1.16,2.13-3.23,4.11-2.04,6.85,1.49,3.45,3.73,6.31,7.47,7.59,1.07,.36,2.17,.62,3.46,.95,.33,.09,.57,.39,.57,.74v13.59c0,.34-.23,.66-.56,.74-2.97,.76-6.09,.53-9.06-.16-3.02-.7-6.14-1.74-8.72-3.39-2.06-1.32-3.75-3.21-5.49-5.03-.15-.16-.37-.23-.58-.19-.47,.09-1.32,.25-1.84,.36-.37,.08-.63,.42-.63,.79l-.05,7.02c-.03,.4-.36,.71-.76,.71h-17.42c-.42,0-.75-.33-.76-.75l-.42-48.87c0-.42,.34-.76,.76-.76h17.86c.4,0,.73,.31,.76,.71l.2,8.84c.02,.4,.69,.75,1.09,.75h.61c.23,0,.45-.1,.59-.28,1.63-2.02,5.73-9.21,7.42-10.21,.11-.06,.23-.08,.35-.08Z"/><path class="d" d="M0,6.78c0-.65,.53-1.16,1.18-1.14,10.08,.38,19.98-.37,29.8,.58,7.78,.76,13.46,7.07,14.5,13.88,1.24,8.15-.73,15.19-8.23,19.85-5.06,3.15-10.72,4.28-16.51,5.04-.88,.12-1.77,.23-2.9,.38-.56,.07-.99,.56-.99,1.13v8.37c0,.48-.31,.91-.76,1.07-3.43,1.27-7.77,1.47-14.8,.83-.58-.05-1.03-.54-1.03-1.13L0,6.78ZM16.68,31.48c0,.49,.39,.9,.88,.9,3.33,.01,6.61-.73,9.01-2.79,2.54-2.18,3.26-7.23,.92-8.92s-6.87-1.91-10.27-1.26c-.36,.07-.55,.48-.55,.84v11.23Z"/><path class="d" d="M117.08,15.94c-2.65,2.52-5.22,4.97-7.79,7.41-.58,.55-1.43,.72-2.17,.42-3.17-1.31-5.8-2.61-9.33-2.08-2.9,.44-4.24,2.13-5.61,3.83-3.18,3.95-2.44,10.18,.2,13.45,3.09,3.84,7.26,4.24,15.3,1.08,.71-.28,1.51-.13,2.08,.38,2.32,2.07,4.75,4.23,7.17,6.39,.83,.74,.93,2.02,.2,2.86-5.68,6.45-15.37,8.99-24.08,6.41-10.82-3.2-17.99-12.28-18.66-22.68-.8-12.41,6.58-22.41,16.73-26.19,7.95-2.96,19.58-1.38,26.09,5.88,.73,.81,.65,2.08-.14,2.83Z"/><path class="d" d="M53.06,27.07h14.71c.49,0,.91,.35,1,.83l-.07,28.42c-.1,.48-.51,.83-1,.83h-14.65c-.56,0-1.02-.46-1.02-1.02V28.09c0-.56,.46-1.02,1.02-1.02Z"/><path class="d" d="M50.55,10.59C50.51,4.88,55.31-.04,60.88,0c5.75,.05,10.53,4.74,10.6,10.43,.08,5.59-4.72,10.45-10.44,10.58-5.61,.12-10.46-4.69-10.5-10.42Z"/><path class="d" d="M212.56,0c-18.01-.16-32.84,14.43-32.87,32.33-.03,17.71,14.54,32.43,32.21,32.54,17.7,.11,32.52-14.47,32.63-32.11C244.63,15,230.15,.16,212.56,0Zm17.27,46.93c-1.97,6.05-8.1,8.97-12.46,9.91-4.65,1-9.77,.47-14.34-.9-5.74-1.72-12.19-5.77-12.19-13.22l14.06-4.7c1.49,4.75,3.33,6.31,6.55,5.95,2.42-.27,2.86-.93,3.03-4.62-2.83-3.7-7.54-2.71-11.52-4.3v-7.8c1.65-.38,3.18-.74,4.71-1.07,1.93-.41,3.9-.69,5.8-1.21,1.65-.46,2.48-1.74,2.14-3.44-.33-1.68-1.58-2.41-3.25-2.56-2.5-.22-4.66,.19-5.76,2.81-.25,.59-.5,1.17-.89,2.08-4.49-1.5-8.82-2.94-13.49-4.49,1.46-5.97,4.05-10.49,10.03-12.14,6.23-1.71,12.54-1.56,18.73,.14,11.54,3.16,14.68,16.22,6.74,24.61,3.51,4.53,3.85,9.61,2.1,14.97Z"/><path class="d" d="M244.18,56.63v-4.08h-1.7v-.83h4.56v.83h-1.7v4.08h-1.16Z"/><path class="d" d="M247.77,56.63v-4.91h1.73l1.04,3.35,1.03-3.35h1.74v4.91h-1.08v-3.87l-1.14,3.87h-1.12l-1.13-3.87v3.87h-1.08Z"/></g></g></svg>