<svg version="1.1" id="Layer_1" xmlns="http://www.w3.org/2000/svg" xlink="http://www.w3.org/1999/xlink" x="0px" y="0px" viewBox="22 -266.9 1574 759.8" enable-background="22 -266.9 1574 759.8" space="preserve">
<g>
	<polygon fill="#393B96" points="1047.7,408.6 1075.3,-209.7 1195.3,-172.2 1190.3,-266.9 1496.3,-173.3 1448,-92.1 1596,-58.5
		1371.9,492.9 	"/>
	<polygon fill="#119B5C" points="1215,-146.5 1210,-241.5 1468.4,-162.5 1418.7,-79.6 1570.6,-45.3 1360.8,471.1 1067,394.6
		1092.8,-184.7 	"/>

		<rect x="349.9" y="-104.9" transform="matrix(0.9981 -6.216584e-002 6.216584e-002 0.9981 -8.1521 26.3307)" fill="#393C96" width="138.3" height="498.2"/>
	<path fill="#E00A8C" d="M383,377.5L354.4-82.8l100.8-6.4L483.8,371L383,377.5z"/>
	<path fill="#393C96" d="M950.9,369.6l-43.6-144.7l-8.6,141.5l-159.4-9.6l30.4-499.3l160.5,9.6L904.1-14.9
		c7.5-9.6,34.3-61.5,42.2-71.8c9.6-12.9,16.1-25.4,22.2-34.7l6.1-8.9l170.1,10.4L1011.3,69l107.2,310.2L950.9,369.6z"/>
	<path fill="#E00A8C" d="M964.8,351.7l-57.5-190.1c-2.9,3.2-5.7,6.8-8.2,10c-2.5,3.6-5.4,7.1-8.2,10.7l-10,164l-122.6-7.5
		l28.2-462.1l122.6,7.5l-25,146.9c13.2-16.8,35.7-57.9,45.4-70c9.3-12.2,19.3-24.7,29.3-38.2c10-13.2,18.2-24.7,24.7-34.3l126.5,7.5
		L990.2,65.8l101.1,293.1L964.8,351.7z"/>
	<path fill="#393C96" d="M686.1,400.7c-97.9,0-150.5-75.8-160.8-92.9c-13.9-12.5-53.6-61.5-51.1-215.1
		C476.3-56,619.2-100,694.6-102.1l15-0.4L745,43l-33.2-12.9c-10.7-4.3-21.1-6.4-30.7-6.4C655,23.7,640,39,637.5,42.2
		c-5.7,9.3-49.7,88.3,0,180.5c16.8,31.1,36.8,46.8,60,46.8c28.6,0,54-22.9,54.3-23.2l21.8-20l8.6,28.6l31.4,106.9l-13.2,7.1
		C761.1,390,722.5,400.7,686.1,400.7z"/>
	<path fill="#E00A8C" d="M718.6,12.9L695-83.6c0,0-200.1,6.1-202.6,176.5s46.8,202.6,46.8,202.6s82.9,148.3,252,56.8L764,259.9
		c0,0-85.1,79-143.3-28.2c-58.3-107.2,1.1-200.1,1.1-200.1S655.7-11.7,718.6,12.9z"/>
	<path fill="#393C96" d="M22-17.8L158.9-60c31.1-9.6,59-14.3,83.3-14.3c21.1,0,40,3.6,56.1,11.1c35.4,16.1,61.5,51.1,77.9,104.4
		c7.9,26.1,11.8,49.7,11.4,70c-0.4,22.2-6.1,41.8-16.8,59.3c-10.4,17.2-25.7,31.8-45.7,44.3c-18.9,11.8-42.9,22.2-71.1,31.1
		l-1.1,0.4l52.9,171.9L169.3,460L22-17.8z M216.5,128.7l3.2-1.1c19.3-6.1,23.2-12.2,23.9-13.6c1.1-2.1,3.2-10.4-3.6-32.5
		c-6.4-21.4-13.2-25.7-14.3-26.4c-0.7-0.4-2.9-1.1-7.1-1.1c-6.1,0-14.3,1.4-23.6,4.3L216.5,128.7z"/>
	<path fill="#E00A8C" d="M369.1,110.9c-0.4,18.6-5,35.4-14.3,50c-8.9,14.7-22.2,27.5-40,38.6c-17.5,11.1-39.7,20.7-66.8,28.9
		l-18.9,5.7l52.9,171.9l-101.1,31.1L45.3-5.7l119.4-36.8c54-16.4,96.1-17.9,126.5-4.3c30.4,13.6,52.9,44.7,67.9,92.9
		C366.2,70.8,369.8,92.3,369.1,110.9z M234.3,38.7c-9.6-5-24.7-4.3-45,2.1l-17.5,5.4l32.5,105.4l20.7-6.4
		c18.9-5.7,31.1-13.9,35.4-23.6c4.6-10,3.6-25-2.5-45.7C251.8,56.2,244,43.7,234.3,38.7z"/>
	<path fill="#393C96" d="M1270.4-53.5l-172.3,344.9h186.6v113.3c0,0,75.8-1.4,77.9,0.7V-53.5H1270.4z M1224.6,209.5l57.2-101.9
		c0.7-0.7,0.7,101.9,0.7,101.9H1224.6z"/>
	<path fill="#FFFFFF" d="M1251.1-67.1l-172.3,344.9h186.6V391c0,0,75.8-1.4,77.9,0.7V-67.1H1251.1z M1205.3,196.3l57.2-101.9
		c0.7-0.7,0.7,101.9,0.7,101.9H1205.3z"/>
</g>
</svg>
