<svg version="1.1" id="Layer_1" xmlns="http://www.w3.org/2000/svg" xlink="http://www.w3.org/1999/xlink" x="0px" y="0px" viewBox="9.7 7.5 347.6 102.1" enable-background="9.7 7.5 347.6 102.1" space="preserve" >
<path d="M14.3,28.7c2.7,0,4.7,0.3,6,0.9c2.3,1.1,3.5,2.8,3.5,5.2c0,2.3-1.2,4-3.5,5.1c-1.4,0.7-3.4,0.9-6.2,0.9H9.7V28.7H14.3z
	 M12.9,38.9h1.9c3.6,0,5.7-1.6,5.7-4.2c0-2.7-2-4.2-5.8-4.2h-1.8V38.9z"/>
<path d="M75.6,28.7l6.3,12.1h-3.4l-1.4-2.9H70l-1.4,2.9h-3.2l6.3-12.1H75.6z M70.9,36.2h5.3l-2.6-5.4L70.9,36.2z"/>
<path d="M129.5,28.7v12.1h-3.2V28.7H129.5z"/>
<path d="M180.6,28.7V39h6.5v1.8h-9.7V28.7H180.6z"/>
<path d="M232.5,28.7l4,5.4l4-5.4h3.5l-6,7.3v4.8h-3.2V36l-5.9-7.3H232.5z"/>
<circle fill="#25358E" cx="295.5" cy="58.5" r="51"/>
<g>
	<path fill="#25358E" d="M9.7,49.3h31.1c8.8,0,15.4,0.5,20.1,2.2c6.8,2.5,10.4,6.3,10.4,11c0,7.8-10.3,13.3-26.2,13.3H32.1v15.2H9.7
		V49.3z M38,66.9c6.1,0,9.6-1.6,9.6-4.1c0-2.6-2.8-4.1-8.2-4.1h-7.3v8.2H38z"/>
	<path fill="#25358E" d="M78.7,49.3h22.8v41.6H78.7V49.3z"/>
	<path fill="#25358E" d="M144.6,58c-7.7,0-10.9,4.1-10.9,12.4c0,7.7,3,11.5,10.6,11.5c5.8,0,8.8-2.3,9.7-7l20.5,0.8
		c-1.9,10-13.1,16-30.1,16c-20.1,0-33.5-8-33.5-21.2c0-14,12.8-22.1,33.6-22.1c17.5,0,28.9,6.2,30.1,16.9l-21,0.7
		C153.4,60.8,149.8,58,144.6,58z"/>
	<path fill="#25358E" d="M183,49.3h20.4v17.3l19.5-17.3h20.5L225,64.7l22.9,26.3h-24.1l-13.2-16.1l-7.1,5.8v10.3H183V49.3z"/>
</g>
<path fill="#F15D2A" d="M299.8,90.5h-44.1l-21.5-25.3l65.4-57.5l35.6,0l0,57.6h22.1l-22.1,25.3v19h-35.4V90.5z M299.8,38.4
	l-29.5,26.8h29.5V38.4z"/>
</svg>
