<?xml version="1.0" encoding="UTF-8"?><svg id="a" xmlns="http://www.w3.org/2000/svg" width="438.2" height="220.3" viewBox="0 0 438.2 220.3"><circle cx="336.5" cy="118.6" r="101.7" style="fill:#fff200;"/><path d="M0,87.2H41.6c28.6,0,42.3,10.2,42.3,35.4,0,23.5-12.3,33-38.1,33h-11v28.6H0V87.2Zm35,43.1h5.4c6.8,0,10.3-3,10.3-8s-3.5-8.1-10.3-8.1h-5.4v16.1Zm53.8-43.1h35.4v97h-35.4V87.2Zm94.9,29.4c-11.3,0-19,7.5-19,19.3,0,11.1,6.9,18.7,18.3,18.7,7.2,0,13.8-3.3,21.6-9l-1.1,36.5c-7.7,3.1-15.2,4.6-22.8,4.6-11.8,0-22.7-3.5-31.5-10-13-9.6-20.1-23.9-20.1-40.8,0-29.4,21.8-51,52-51,7.9,0,15.3,1.6,22.8,4.9v35.9c-6.4-6.1-12.9-9.1-20.2-9.1Zm27.6-29.4h34.2v41.4l22.1-41.4h39.5l-29.3,47.7,33.4,49.2h-42.2l-23.5-40.6v40.6h-34.2V87.2h0Z" style="fill:#00ab67;"/><path d="M5.6,48.4h4.7c2.8,0,4.9,.3,6.4,1,2.8,1.4,4.3,4,4.3,7.1,0,2.7-1.2,5-3.3,6.5-2.1,1.4-4.6,1.6-7.8,1.6H5.6v-16.2Zm9.5,8.1c0-2.1-1.2-3.1-3.5-3.1h-.2v6.3c2.5-.1,3.7-1,3.7-3.2Zm47.7-8.1h6.5l5.7,16.2h-6.2l-.5-2h-4.4l-.5,2h-6.2l5.6-16.2Zm4.4,10.3l-.5-1.8c-.2-.9-.6-2-.7-3.5h-.1c-.1,1.6-.4,2.7-.7,3.5l-.5,1.8h2.5Zm50-10.3h5.9v16.2h-5.9v-16.2Zm50.7,0h5.8v10.9h5.7v5.2h-11.5v-16.1Zm52.5,9l-5.4-9h6.6l1.4,3.1c.2,.4,.3,.8,.5,1.3,.2-.5,.3-.9,.5-1.3l1.3-3.1h6.6l-5.6,9v7.1h-5.9v-7.1h0Z"/><path d="M357.8,114.1v32.1c0,6.3,1.4,9,5.7,9,3.6,0,5.7-2,5.7-5.9v-35.5c0-6.8-3.6-10.9-8.8-10.9h-13.6v-32.9h13.6c8.8,0,8.8-4.1,8.8-13.3v-17c0-6.1-.9-9.3-5.7-9.3-5.2,0-5.7,3.4-5.7,9.3v17.9h-38.9v-19.2c0-33.2,4.5-38.4,44.3-38.4s44.8,4.5,44.8,38.4v14c0,18.1-2.5,28.7-18.1,34.6,16.5,5.9,18.1,14.7,18.1,34.1v26c0,33.7-5.4,38.4-44.5,38.4s-44.5-4.1-44.5-38.4v-33h38.8Z" style="fill:#00ab67;"/><path d="M419.2,208.6h-1.8v-7.5h-1.8v-1.5h5.4v1.5h-1.8v7.5h0Z" style="fill:#fff;"/><path d="M428.4,203h0l-2.1,5.7h-.6l-2-5.7h0l-.8,5.6h-1.8l1.5-9.3h1.2l2.2,6,2.1-6h1.3l1.4,9.3h-1.8l-.6-5.6Z" style="fill:#fff;"/></svg>